<?xml version="1.0" encoding="utf-8" standalone="no"?>
<!DOCTYPE svg PUBLIC "-//W3C//DTD SVG 1.1//EN"
  "http://www.w3.org/Graphics/SVG/1.1/DTD/svg11.dtd">
<svg xmlns:xlink="http://www.w3.org/1999/xlink" width="637.7145pt" height="352.6425pt" viewBox="0 0 637.7145 352.6425" xmlns="http://www.w3.org/2000/svg" version="1.1">
 <metadata>
  <rdf:RDF xmlns:dc="http://purl.org/dc/elements/1.1/" xmlns:cc="http://creativecommons.org/ns#" xmlns:rdf="http://www.w3.org/1999/02/22-rdf-syntax-ns#">
   <cc:Work>
    <dc:type rdf:resource="http://purl.org/dc/dcmitype/StillImage"/>
    <dc:date>2025-11-23T19:26:53.129885</dc:date>
    <dc:format>image/svg+xml</dc:format>
    <dc:creator>
     <cc:Agent>
      <dc:title>Matplotlib v3.9.2, https://matplotlib.org/</dc:title>
     </cc:Agent>
    </dc:creator>
   </cc:Work>
  </rdf:RDF>
 </metadata>
 <defs>
  <style type="text/css">*{stroke-linejoin: round; stroke-linecap: butt}</style>
 </defs>
 <g id="figure_1">
  <g id="patch_1">
   <path d="M 0 352.6425 
L 637.7145 352.6425 
L 637.7145 0 
L 0 0 
z
" style="fill: #ffffff"/>
  </g>
  <g id="axes_1">
   <g id="patch_2">
    <path d="M 73.7725 268.26 
L 518.9245 268.26 
L 518.9245 7.2 
L 73.7725 7.2 
z
" style="fill: #ffffff"/>
   </g>
   <g id="matplotlib.axis_1">
    <g id="xtick_1">
     <g id="line2d_1">
      <defs>
       <path id="mfbbc4953c2" d="M 0 0 
L 0 -3.5 
" style="stroke: #000000; stroke-width: 0.8"/>
      </defs>
      <g>
       <use xlink:href="#mfbbc4953c2" x="94.16116" y="268.26" style="stroke: #000000; stroke-width: 0.8"/>
      </g>
     </g>
     <g id="text_1">
      <!-- 0 -->
      <g transform="translate(83.98116 296.075) scale(0.32 -0.32)">
       <defs>
        <path id="DejaVuSans-30" d="M 2034 4250 
Q 1547 4250 1301 3770 
Q 1056 3291 1056 2328 
Q 1056 1369 1301 889 
Q 1547 409 2034 409 
Q 2525 409 2770 889 
Q 3016 1369 3016 2328 
Q 3016 3291 2770 3770 
Q 2525 4250 2034 4250 
z
M 2034 4750 
Q 2819 4750 3233 4129 
Q 3647 3509 3647 2328 
Q 3647 1150 3233 529 
Q 2819 -91 2034 -91 
Q 1250 -91 836 529 
Q 422 1150 422 2328 
Q 422 3509 836 4129 
Q 1250 4750 2034 4750 
z
" transform="scale(0.015625)"/>
       </defs>
       <use xlink:href="#DejaVuSans-30"/>
      </g>
     </g>
    </g>
    <g id="xtick_2">
     <g id="line2d_2">
      <g>
       <use xlink:href="#mfbbc4953c2" x="296.425739" y="268.26" style="stroke: #000000; stroke-width: 0.8"/>
      </g>
     </g>
     <g id="text_2">
      <!-- 5 -->
      <g transform="translate(286.245739 296.075) scale(0.32 -0.32)">
       <defs>
        <path id="DejaVuSans-35" d="M 691 4666 
L 3169 4666 
L 3169 4134 
L 1269 4134 
L 1269 2991 
Q 1406 3038 1543 3061 
Q 1681 3084 1819 3084 
Q 2600 3084 3056 2656 
Q 3513 2228 3513 1497 
Q 3513 744 3044 326 
Q 2575 -91 1722 -91 
Q 1428 -91 1123 -41 
Q 819 9 494 109 
L 494 744 
Q 775 591 1075 516 
Q 1375 441 1709 441 
Q 2250 441 2565 725 
Q 2881 1009 2881 1497 
Q 2881 1984 2565 2268 
Q 2250 2553 1709 2553 
Q 1456 2553 1204 2497 
Q 953 2441 691 2322 
L 691 4666 
z
" transform="scale(0.015625)"/>
       </defs>
       <use xlink:href="#DejaVuSans-35"/>
      </g>
     </g>
    </g>
    <g id="xtick_3">
     <g id="line2d_3">
      <g>
       <use xlink:href="#mfbbc4953c2" x="498.690318" y="268.26" style="stroke: #000000; stroke-width: 0.8"/>
      </g>
     </g>
     <g id="text_3">
      <!-- 10 -->
      <g transform="translate(478.330318 296.075) scale(0.32 -0.32)">
       <defs>
        <path id="DejaVuSans-31" d="M 794 531 
L 1825 531 
L 1825 4091 
L 703 3866 
L 703 4441 
L 1819 4666 
L 2450 4666 
L 2450 531 
L 3481 531 
L 3481 0 
L 794 0 
L 794 531 
z
" transform="scale(0.015625)"/>
       </defs>
       <use xlink:href="#DejaVuSans-31"/>
       <use xlink:href="#DejaVuSans-30" x="63.623047"/>
      </g>
     </g>
    </g>
    <g id="text_4">
     <!-- $S$ -->
     <g transform="translate(283.5485 337.12375) scale(0.4 -0.4)">
      <defs>
       <path id="DejaVuSans-Oblique-53" d="M 3859 4513 
L 3738 3897 
Q 3422 4066 3111 4152 
Q 2800 4238 2509 4238 
Q 1944 4238 1609 3991 
Q 1275 3744 1275 3334 
Q 1275 3109 1398 2989 
Q 1522 2869 2034 2731 
L 2413 2638 
Q 3053 2472 3303 2217 
Q 3553 1963 3553 1503 
Q 3553 797 2998 353 
Q 2444 -91 1538 -91 
Q 1166 -91 791 -17 
Q 416 56 38 206 
L 166 856 
Q 513 641 861 531 
Q 1209 422 1556 422 
Q 2147 422 2503 684 
Q 2859 947 2859 1369 
Q 2859 1650 2717 1795 
Q 2575 1941 2106 2059 
L 1728 2156 
Q 1081 2325 845 2545 
Q 609 2766 609 3163 
Q 609 3859 1145 4304 
Q 1681 4750 2541 4750 
Q 2875 4750 3203 4690 
Q 3531 4631 3859 4513 
z
" transform="scale(0.015625)"/>
      </defs>
      <use xlink:href="#DejaVuSans-Oblique-53" transform="translate(0 0.78125)"/>
     </g>
    </g>
   </g>
   <g id="matplotlib.axis_2">
    <g id="ytick_1">
     <g id="line2d_4">
      <defs>
       <path id="mdef3029aff" d="M 0 0 
L 3.5 0 
" style="stroke: #000000; stroke-width: 0.8"/>
      </defs>
      <g>
       <use xlink:href="#mdef3029aff" x="73.7725" y="246.505" style="stroke: #000000; stroke-width: 0.8"/>
      </g>
     </g>
     <g id="text_5">
      <!-- 1 -->
      <g transform="translate(49.9125 258.6625) scale(0.32 -0.32)">
       <use xlink:href="#DejaVuSans-31"/>
      </g>
     </g>
    </g>
    <g id="ytick_2">
     <g id="line2d_5">
      <g>
       <use xlink:href="#mdef3029aff" x="73.7725" y="159.485" style="stroke: #000000; stroke-width: 0.8"/>
      </g>
     </g>
     <g id="text_6">
      <!-- 3 -->
      <g transform="translate(49.9125 171.6425) scale(0.32 -0.32)">
       <defs>
        <path id="DejaVuSans-33" d="M 2597 2516 
Q 3050 2419 3304 2112 
Q 3559 1806 3559 1356 
Q 3559 666 3084 287 
Q 2609 -91 1734 -91 
Q 1441 -91 1130 -33 
Q 819 25 488 141 
L 488 750 
Q 750 597 1062 519 
Q 1375 441 1716 441 
Q 2309 441 2620 675 
Q 2931 909 2931 1356 
Q 2931 1769 2642 2001 
Q 2353 2234 1838 2234 
L 1294 2234 
L 1294 2753 
L 1863 2753 
Q 2328 2753 2575 2939 
Q 2822 3125 2822 3475 
Q 2822 3834 2567 4026 
Q 2313 4219 1838 4219 
Q 1578 4219 1281 4162 
Q 984 4106 628 3988 
L 628 4550 
Q 988 4650 1302 4700 
Q 1616 4750 1894 4750 
Q 2613 4750 3031 4423 
Q 3450 4097 3450 3541 
Q 3450 3153 3228 2886 
Q 3006 2619 2597 2516 
z
" transform="scale(0.015625)"/>
       </defs>
       <use xlink:href="#DejaVuSans-33"/>
      </g>
     </g>
    </g>
    <g id="ytick_3">
     <g id="line2d_6">
      <g>
       <use xlink:href="#mdef3029aff" x="73.7725" y="28.955" style="stroke: #000000; stroke-width: 0.8"/>
      </g>
     </g>
     <g id="text_7">
      <!-- 6 -->
      <g transform="translate(49.9125 41.1125) scale(0.32 -0.32)">
       <defs>
        <path id="DejaVuSans-36" d="M 2113 2584 
Q 1688 2584 1439 2293 
Q 1191 2003 1191 1497 
Q 1191 994 1439 701 
Q 1688 409 2113 409 
Q 2538 409 2786 701 
Q 3034 994 3034 1497 
Q 3034 2003 2786 2293 
Q 2538 2584 2113 2584 
z
M 3366 4563 
L 3366 3988 
Q 3128 4100 2886 4159 
Q 2644 4219 2406 4219 
Q 1781 4219 1451 3797 
Q 1122 3375 1075 2522 
Q 1259 2794 1537 2939 
Q 1816 3084 2150 3084 
Q 2853 3084 3261 2657 
Q 3669 2231 3669 1497 
Q 3669 778 3244 343 
Q 2819 -91 2113 -91 
Q 1303 -91 875 529 
Q 447 1150 447 2328 
Q 447 3434 972 4092 
Q 1497 4750 2381 4750 
Q 2619 4750 2861 4703 
Q 3103 4656 3366 4563 
z
" transform="scale(0.015625)"/>
       </defs>
       <use xlink:href="#DejaVuSans-36"/>
      </g>
     </g>
    </g>
    <g id="text_8">
     <!-- Speedup -->
     <g style="fill: #ff0000" transform="translate(37.59375 225.805) rotate(-90) scale(0.4 -0.4)">
      <defs>
       <path id="DejaVuSans-53" d="M 3425 4513 
L 3425 3897 
Q 3066 4069 2747 4153 
Q 2428 4238 2131 4238 
Q 1616 4238 1336 4038 
Q 1056 3838 1056 3469 
Q 1056 3159 1242 3001 
Q 1428 2844 1947 2747 
L 2328 2669 
Q 3034 2534 3370 2195 
Q 3706 1856 3706 1288 
Q 3706 609 3251 259 
Q 2797 -91 1919 -91 
Q 1588 -91 1214 -16 
Q 841 59 441 206 
L 441 856 
Q 825 641 1194 531 
Q 1563 422 1919 422 
Q 2459 422 2753 634 
Q 3047 847 3047 1241 
Q 3047 1584 2836 1778 
Q 2625 1972 2144 2069 
L 1759 2144 
Q 1053 2284 737 2584 
Q 422 2884 422 3419 
Q 422 4038 858 4394 
Q 1294 4750 2059 4750 
Q 2388 4750 2728 4690 
Q 3069 4631 3425 4513 
z
" transform="scale(0.015625)"/>
       <path id="DejaVuSans-70" d="M 1159 525 
L 1159 -1331 
L 581 -1331 
L 581 3500 
L 1159 3500 
L 1159 2969 
Q 1341 3281 1617 3432 
Q 1894 3584 2278 3584 
Q 2916 3584 3314 3078 
Q 3713 2572 3713 1747 
Q 3713 922 3314 415 
Q 2916 -91 2278 -91 
Q 1894 -91 1617 61 
Q 1341 213 1159 525 
z
M 3116 1747 
Q 3116 2381 2855 2742 
Q 2594 3103 2138 3103 
Q 1681 3103 1420 2742 
Q 1159 2381 1159 1747 
Q 1159 1113 1420 752 
Q 1681 391 2138 391 
Q 2594 391 2855 752 
Q 3116 1113 3116 1747 
z
" transform="scale(0.015625)"/>
       <path id="DejaVuSans-65" d="M 3597 1894 
L 3597 1613 
L 953 1613 
Q 991 1019 1311 708 
Q 1631 397 2203 397 
Q 2534 397 2845 478 
Q 3156 559 3463 722 
L 3463 178 
Q 3153 47 2828 -22 
Q 2503 -91 2169 -91 
Q 1331 -91 842 396 
Q 353 884 353 1716 
Q 353 2575 817 3079 
Q 1281 3584 2069 3584 
Q 2775 3584 3186 3129 
Q 3597 2675 3597 1894 
z
M 3022 2063 
Q 3016 2534 2758 2815 
Q 2500 3097 2075 3097 
Q 1594 3097 1305 2825 
Q 1016 2553 972 2059 
L 3022 2063 
z
" transform="scale(0.015625)"/>
       <path id="DejaVuSans-64" d="M 2906 2969 
L 2906 4863 
L 3481 4863 
L 3481 0 
L 2906 0 
L 2906 525 
Q 2725 213 2448 61 
Q 2172 -91 1784 -91 
Q 1150 -91 751 415 
Q 353 922 353 1747 
Q 353 2572 751 3078 
Q 1150 3584 1784 3584 
Q 2172 3584 2448 3432 
Q 2725 3281 2906 2969 
z
M 947 1747 
Q 947 1113 1208 752 
Q 1469 391 1925 391 
Q 2381 391 2643 752 
Q 2906 1113 2906 1747 
Q 2906 2381 2643 2742 
Q 2381 3103 1925 3103 
Q 1469 3103 1208 2742 
Q 947 2381 947 1747 
z
" transform="scale(0.015625)"/>
       <path id="DejaVuSans-75" d="M 544 1381 
L 544 3500 
L 1119 3500 
L 1119 1403 
Q 1119 906 1312 657 
Q 1506 409 1894 409 
Q 2359 409 2629 706 
Q 2900 1003 2900 1516 
L 2900 3500 
L 3475 3500 
L 3475 0 
L 2900 0 
L 2900 538 
Q 2691 219 2414 64 
Q 2138 -91 1772 -91 
Q 1169 -91 856 284 
Q 544 659 544 1381 
z
M 1991 3584 
L 1991 3584 
z
" transform="scale(0.015625)"/>
      </defs>
      <use xlink:href="#DejaVuSans-53"/>
      <use xlink:href="#DejaVuSans-70" x="63.476562"/>
      <use xlink:href="#DejaVuSans-65" x="126.953125"/>
      <use xlink:href="#DejaVuSans-65" x="188.476562"/>
      <use xlink:href="#DejaVuSans-64" x="250"/>
      <use xlink:href="#DejaVuSans-75" x="313.476562"/>
      <use xlink:href="#DejaVuSans-70" x="376.855469"/>
     </g>
    </g>
   </g>
   <g id="LineCollection_1">
    <path d="M 94.115046 246.505 
L 94.207275 246.505 
" clip-path="url(#p7d9a350d98)" style="fill: none; stroke: #ff0000; stroke-width: 3"/>
   </g>
   <g id="LineCollection_2">
    <path d="M 94.16116 248.02785 
L 94.16116 244.98215 
" clip-path="url(#p7d9a350d98)" style="fill: none; stroke: #ff0000; stroke-width: 3"/>
   </g>
   <g id="LineCollection_3">
    <path d="M 255.943597 176.669622 
L 256.002051 176.669622 
" clip-path="url(#p7d9a350d98)" style="fill: none; stroke: #ff0000; stroke-width: 3"/>
   </g>
   <g id="LineCollection_4">
    <path d="M 255.972824 176.995947 
L 255.972824 176.343297 
" clip-path="url(#p7d9a350d98)" style="fill: none; stroke: #ff0000; stroke-width: 3"/>
   </g>
   <g id="LineCollection_5">
    <path d="M 417.768116 100.041761 
L 417.800857 100.041761 
" clip-path="url(#p7d9a350d98)" style="fill: none; stroke: #ff0000; stroke-width: 3"/>
   </g>
   <g id="LineCollection_6">
    <path d="M 417.784487 101.020736 
L 417.784487 99.062786 
" clip-path="url(#p7d9a350d98)" style="fill: none; stroke: #ff0000; stroke-width: 3"/>
   </g>
   <g id="LineCollection_7">
    <path d="M 94.006682 246.505 
L 94.315639 246.505 
" clip-path="url(#p7d9a350d98)" style="fill: none; stroke: #ff0000; stroke-width: 3"/>
   </g>
   <g id="LineCollection_8">
    <path d="M 94.16116 246.961855 
L 94.16116 246.048145 
" clip-path="url(#p7d9a350d98)" style="fill: none; stroke: #ff0000; stroke-width: 3"/>
   </g>
   <g id="LineCollection_9">
    <path d="M 255.935797 181.316066 
L 256.00985 181.316066 
" clip-path="url(#p7d9a350d98)" style="fill: none; stroke: #ff0000; stroke-width: 3"/>
   </g>
   <g id="LineCollection_10">
    <path d="M 255.972824 181.620636 
L 255.972824 181.011496 
" clip-path="url(#p7d9a350d98)" style="fill: none; stroke: #ff0000; stroke-width: 3"/>
   </g>
   <g id="LineCollection_11">
    <path d="M 417.757146 84.134901 
L 417.811828 84.134901 
" clip-path="url(#p7d9a350d98)" style="fill: none; stroke: #ff0000; stroke-width: 3"/>
   </g>
   <g id="LineCollection_12">
    <path d="M 417.784487 84.134901 
L 417.784487 84.134901 
" clip-path="url(#p7d9a350d98)" style="fill: none; stroke: #ff0000; stroke-width: 3"/>
   </g>
   <g id="LineCollection_13">
    <path d="M 94.119179 246.505 
L 94.203142 246.505 
" clip-path="url(#p7d9a350d98)" style="fill: none; stroke: #ff0000; stroke-width: 3"/>
   </g>
   <g id="LineCollection_14">
    <path d="M 94.16116 247.8103 
L 94.16116 245.1997 
" clip-path="url(#p7d9a350d98)" style="fill: none; stroke: #ff0000; stroke-width: 3"/>
   </g>
   <g id="LineCollection_15">
    <path d="M 255.960829 159.485 
L 255.984819 159.485 
" clip-path="url(#p7d9a350d98)" style="fill: none; stroke: #ff0000; stroke-width: 3"/>
   </g>
   <g id="LineCollection_16">
    <path d="M 255.972824 159.485 
L 255.972824 159.485 
" clip-path="url(#p7d9a350d98)" style="fill: none; stroke: #ff0000; stroke-width: 3"/>
   </g>
   <g id="LineCollection_17">
    <path d="M 417.777651 92.242273 
L 417.791322 92.242273 
" clip-path="url(#p7d9a350d98)" style="fill: none; stroke: #ff0000; stroke-width: 3"/>
   </g>
   <g id="LineCollection_18">
    <path d="M 417.784487 92.459823 
L 417.784487 92.024723 
" clip-path="url(#p7d9a350d98)" style="fill: none; stroke: #ff0000; stroke-width: 3"/>
   </g>
   <g id="line2d_7">
    <path d="M 94.16116 246.505 
L 94.16116 246.505 
L 94.16116 246.505 
L 175.066992 202.995 
L 175.066992 202.995 
L 175.066992 202.995 
L 255.972824 159.485 
L 255.972824 159.485 
L 255.972824 159.485 
L 336.878655 115.975 
L 336.878655 115.975 
L 336.878655 115.975 
L 417.784487 72.465 
L 417.784487 72.465 
L 417.784487 72.465 
L 498.690318 28.955 
L 498.690318 28.955 
L 498.690318 28.955 
" clip-path="url(#p7d9a350d98)" style="fill: none; stroke-dasharray: 14,14; stroke-dashoffset: 0; stroke: #000000; stroke-width: 4"/>
    <path d="M 94.16116 246.505 
L 94.16116 246.505 
L 94.16116 246.505 
L 175.066992 202.995 
L 175.066992 202.995 
L 175.066992 202.995 
L 255.972824 159.485 
L 255.972824 159.485 
L 255.972824 159.485 
L 336.878655 115.975 
L 336.878655 115.975 
L 336.878655 115.975 
L 417.784487 72.465 
L 417.784487 72.465 
L 417.784487 72.465 
L 498.690318 28.955 
L 498.690318 28.955 
L 498.690318 28.955 
" clip-path="url(#p7d9a350d98)" style="fill: none; stroke-dasharray: 14,14; stroke-dashoffset: 0; stroke: #ff0000; stroke-width: 2"/>
   </g>
   <g id="line2d_8">
    <defs>
     <path id="mf252f2ff73" d="M 0 -8 
L -8 8 
L 8 8 
z
" style="stroke: #000000; stroke-width: 0.5; stroke-linejoin: miter"/>
    </defs>
    <g clip-path="url(#p7d9a350d98)">
     <use xlink:href="#mf252f2ff73" x="94.16116" y="246.505" style="fill: #ff0000; stroke: #000000; stroke-width: 0.5; stroke-linejoin: miter"/>
    </g>
   </g>
   <g id="line2d_9">
    <g clip-path="url(#p7d9a350d98)">
     <use xlink:href="#mf252f2ff73" x="255.972824" y="176.669622" style="fill: #ff0000; stroke: #000000; stroke-width: 0.5; stroke-linejoin: miter"/>
    </g>
   </g>
   <g id="line2d_10">
    <g clip-path="url(#p7d9a350d98)">
     <use xlink:href="#mf252f2ff73" x="417.784487" y="100.041761" style="fill: #ff0000; stroke: #000000; stroke-width: 0.5; stroke-linejoin: miter"/>
    </g>
   </g>
   <g id="line2d_11">
    <defs>
     <path id="mf949af2f69" d="M -0 8 
L 8 -8 
L -8 -8 
z
" style="stroke: #000000; stroke-width: 0.5; stroke-linejoin: miter"/>
    </defs>
    <g clip-path="url(#p7d9a350d98)">
     <use xlink:href="#mf949af2f69" x="94.16116" y="246.505" style="fill: #ff0000; stroke: #000000; stroke-width: 0.5; stroke-linejoin: miter"/>
    </g>
   </g>
   <g id="line2d_12">
    <g clip-path="url(#p7d9a350d98)">
     <use xlink:href="#mf949af2f69" x="255.972824" y="181.316066" style="fill: #ff0000; stroke: #000000; stroke-width: 0.5; stroke-linejoin: miter"/>
    </g>
   </g>
   <g id="line2d_13">
    <g clip-path="url(#p7d9a350d98)">
     <use xlink:href="#mf949af2f69" x="417.784487" y="84.134901" style="fill: #ff0000; stroke: #000000; stroke-width: 0.5; stroke-linejoin: miter"/>
    </g>
   </g>
   <g id="line2d_14">
    <defs>
     <path id="m092ed6023b" d="M -8 8 
L 8 8 
L 8 -8 
L -8 -8 
z
" style="stroke: #000000; stroke-width: 0.5; stroke-linejoin: miter"/>
    </defs>
    <g clip-path="url(#p7d9a350d98)">
     <use xlink:href="#m092ed6023b" x="94.16116" y="246.505" style="fill: #ff0000; stroke: #000000; stroke-width: 0.5; stroke-linejoin: miter"/>
    </g>
   </g>
   <g id="line2d_15">
    <g clip-path="url(#p7d9a350d98)">
     <use xlink:href="#m092ed6023b" x="255.972824" y="159.485" style="fill: #ff0000; stroke: #000000; stroke-width: 0.5; stroke-linejoin: miter"/>
    </g>
   </g>
   <g id="line2d_16">
    <g clip-path="url(#p7d9a350d98)">
     <use xlink:href="#m092ed6023b" x="417.784487" y="92.242273" style="fill: #ff0000; stroke: #000000; stroke-width: 0.5; stroke-linejoin: miter"/>
    </g>
   </g>
   <g id="patch_3">
    <path d="M 73.7725 268.26 
L 73.7725 7.2 
" style="fill: none; stroke: #000000; stroke-width: 0.8; stroke-linejoin: miter; stroke-linecap: square"/>
   </g>
   <g id="patch_4">
    <path d="M 518.9245 268.26 
L 518.9245 7.2 
" style="fill: none; stroke: #000000; stroke-width: 0.8; stroke-linejoin: miter; stroke-linecap: square"/>
   </g>
   <g id="patch_5">
    <path d="M 73.7725 268.26 
L 518.9245 268.26 
" style="fill: none; stroke: #000000; stroke-width: 0.8; stroke-linejoin: miter; stroke-linecap: square"/>
   </g>
   <g id="patch_6">
    <path d="M 73.7725 7.2 
L 518.9245 7.2 
" style="fill: none; stroke: #000000; stroke-width: 0.8; stroke-linejoin: miter; stroke-linecap: square"/>
   </g>
  </g>
  <g id="axes_2">
   <g id="PathCollection_1"/>
   <g id="PathCollection_2"/>
   <g id="PathCollection_3"/>
   <g id="matplotlib.axis_3">
    <g id="ytick_4">
     <g id="line2d_17">
      <defs>
       <path id="mbab667e271" d="M 0 0 
L -3.5 0 
" style="stroke: #000000; stroke-width: 0.8"/>
      </defs>
      <g>
       <use xlink:href="#mbab667e271" x="518.9245" y="161.999976" style="stroke: #000000; stroke-width: 0.8"/>
      </g>
     </g>
     <g id="text_9">
      <!-- 0.5 -->
      <g transform="translate(522.4245 174.157476) scale(0.32 -0.32)">
       <defs>
        <path id="DejaVuSans-2e" d="M 684 794 
L 1344 794 
L 1344 0 
L 684 0 
L 684 794 
z
" transform="scale(0.015625)"/>
       </defs>
       <use xlink:href="#DejaVuSans-30"/>
       <use xlink:href="#DejaVuSans-2e" x="63.623047"/>
       <use xlink:href="#DejaVuSans-35" x="95.410156"/>
      </g>
     </g>
    </g>
    <g id="ytick_5">
     <g id="line2d_18">
      <g>
       <use xlink:href="#mbab667e271" x="518.9245" y="20.409485" style="stroke: #000000; stroke-width: 0.8"/>
      </g>
     </g>
     <g id="text_10">
      <!-- 1 -->
      <g transform="translate(522.4245 32.566985) scale(0.32 -0.32)">
       <use xlink:href="#DejaVuSans-31"/>
      </g>
     </g>
    </g>
    <g id="text_11">
     <!-- $\sigma_{\rm SR}^2/\sigma_{\rm eq}^2$ -->
     <g style="fill: #0000ff" transform="translate(613.7145 207.13) rotate(-90) scale(0.4 -0.4)">
      <defs>
       <path id="DejaVuSans-Oblique-3c3" d="M 2219 3044 
Q 1744 3044 1422 2700 
Q 1081 2341 969 1747 
Q 844 1119 1044 756 
Q 1241 397 1706 397 
Q 2166 397 2503 759 
Q 2844 1122 2966 1747 
Q 3075 2319 2881 2700 
Q 2700 3044 2219 3044 
z
M 2309 3503 
L 4219 3500 
L 4106 2925 
L 3463 2925 
Q 3706 2438 3575 1747 
Q 3406 888 2884 400 
Q 2359 -91 1609 -91 
Q 856 -91 525 400 
Q 194 888 363 1747 
Q 528 2609 1050 3097 
Q 1484 3503 2309 3503 
z
" transform="scale(0.015625)"/>
       <path id="DejaVuSans-32" d="M 1228 531 
L 3431 531 
L 3431 0 
L 469 0 
L 469 531 
Q 828 903 1448 1529 
Q 2069 2156 2228 2338 
Q 2531 2678 2651 2914 
Q 2772 3150 2772 3378 
Q 2772 3750 2511 3984 
Q 2250 4219 1831 4219 
Q 1534 4219 1204 4116 
Q 875 4013 500 3803 
L 500 4441 
Q 881 4594 1212 4672 
Q 1544 4750 1819 4750 
Q 2544 4750 2975 4387 
Q 3406 4025 3406 3419 
Q 3406 3131 3298 2873 
Q 3191 2616 2906 2266 
Q 2828 2175 2409 1742 
Q 1991 1309 1228 531 
z
" transform="scale(0.015625)"/>
       <path id="DejaVuSans-52" d="M 2841 2188 
Q 3044 2119 3236 1894 
Q 3428 1669 3622 1275 
L 4263 0 
L 3584 0 
L 2988 1197 
Q 2756 1666 2539 1819 
Q 2322 1972 1947 1972 
L 1259 1972 
L 1259 0 
L 628 0 
L 628 4666 
L 2053 4666 
Q 2853 4666 3247 4331 
Q 3641 3997 3641 3322 
Q 3641 2881 3436 2590 
Q 3231 2300 2841 2188 
z
M 1259 4147 
L 1259 2491 
L 2053 2491 
Q 2509 2491 2742 2702 
Q 2975 2913 2975 3322 
Q 2975 3731 2742 3939 
Q 2509 4147 2053 4147 
L 1259 4147 
z
" transform="scale(0.015625)"/>
       <path id="DejaVuSans-2f" d="M 1625 4666 
L 2156 4666 
L 531 -594 
L 0 -594 
L 1625 4666 
z
" transform="scale(0.015625)"/>
       <path id="DejaVuSans-71" d="M 947 1747 
Q 947 1113 1208 752 
Q 1469 391 1925 391 
Q 2381 391 2643 752 
Q 2906 1113 2906 1747 
Q 2906 2381 2643 2742 
Q 2381 3103 1925 3103 
Q 1469 3103 1208 2742 
Q 947 2381 947 1747 
z
M 2906 525 
Q 2725 213 2448 61 
Q 2172 -91 1784 -91 
Q 1150 -91 751 415 
Q 353 922 353 1747 
Q 353 2572 751 3078 
Q 1150 3584 1784 3584 
Q 2172 3584 2448 3432 
Q 2725 3281 2906 2969 
L 2906 3500 
L 3481 3500 
L 3481 -1331 
L 2906 -1331 
L 2906 525 
z
" transform="scale(0.015625)"/>
      </defs>
      <use xlink:href="#DejaVuSans-Oblique-3c3" transform="translate(0 0.765625)"/>
      <use xlink:href="#DejaVuSans-32" transform="translate(67.851615 39.046875) scale(0.7)"/>
      <use xlink:href="#DejaVuSans-53" transform="translate(63.378906 -26.578125) scale(0.7)"/>
      <use xlink:href="#DejaVuSans-52" transform="translate(107.8125 -26.578125) scale(0.7)"/>
      <use xlink:href="#DejaVuSans-2f" transform="translate(159.18457 0.765625)"/>
      <use xlink:href="#DejaVuSans-Oblique-3c3" transform="translate(192.875977 0.765625)"/>
      <use xlink:href="#DejaVuSans-32" transform="translate(260.727591 39.046875) scale(0.7)"/>
      <use xlink:href="#DejaVuSans-65" transform="translate(256.254883 -26.578125) scale(0.7)"/>
      <use xlink:href="#DejaVuSans-71" transform="translate(299.321289 -26.578125) scale(0.7)"/>
     </g>
    </g>
   </g>
   <g id="LineCollection_19">
    <path d="M 94.16116 22.600907 
L 94.16116 19.372783 
" clip-path="url(#p7d9a350d98)" style="fill: none; stroke: #0000ff; stroke-width: 3"/>
   </g>
   <g id="LineCollection_20">
    <path d="M 255.972824 210.631164 
L 255.972824 208.585205 
" clip-path="url(#p7d9a350d98)" style="fill: none; stroke: #0000ff; stroke-width: 3"/>
   </g>
   <g id="LineCollection_21">
    <path d="M 417.784487 247.24043 
L 417.784487 246.094471 
" clip-path="url(#p7d9a350d98)" style="fill: none; stroke: #0000ff; stroke-width: 3"/>
   </g>
   <g id="LineCollection_22">
    <path d="M 94.16116 23.831632 
L 94.16116 21.668837 
" clip-path="url(#p7d9a350d98)" style="fill: none; stroke: #0000ff; stroke-width: 3"/>
   </g>
   <g id="LineCollection_23">
    <path d="M 255.972824 208.670072 
L 255.972824 208.151687 
" clip-path="url(#p7d9a350d98)" style="fill: none; stroke: #0000ff; stroke-width: 3"/>
   </g>
   <g id="LineCollection_24">
    <path d="M 417.784487 247.04123 
L 417.784487 246.658441 
" clip-path="url(#p7d9a350d98)" style="fill: none; stroke: #0000ff; stroke-width: 3"/>
   </g>
   <g id="LineCollection_25">
    <path d="M 94.16116 24.944036 
L 94.16116 19.066364 
" clip-path="url(#p7d9a350d98)" style="fill: none; stroke: #0000ff; stroke-width: 3"/>
   </g>
   <g id="LineCollection_26">
    <path d="M 255.972824 210.895504 
L 255.972824 209.216155 
" clip-path="url(#p7d9a350d98)" style="fill: none; stroke: #0000ff; stroke-width: 3"/>
   </g>
   <g id="LineCollection_27">
    <path d="M 417.784487 248.267646 
L 417.784487 247.310613 
" clip-path="url(#p7d9a350d98)" style="fill: none; stroke: #0000ff; stroke-width: 3"/>
   </g>
   <g id="line2d_19">
    <path d="M 94.16116 20.409485 
L 94.16116 20.409485 
L 94.16116 20.409485 
L 175.066992 161.999976 
L 175.066992 161.999976 
L 175.066992 161.999976 
L 255.972824 209.196806 
L 255.972824 209.196806 
L 255.972824 209.196806 
L 336.878655 232.795221 
L 336.878655 232.795221 
L 336.878655 232.795221 
L 417.784487 246.95427 
L 417.784487 246.95427 
L 417.784487 246.95427 
L 498.690318 256.393636 
L 498.690318 256.393636 
L 498.690318 256.393636 
" clip-path="url(#p7d9a350d98)" style="fill: none; stroke-dasharray: 14,14; stroke-dashoffset: 0; stroke: #000000; stroke-width: 4"/>
    <path d="M 94.16116 20.409485 
L 94.16116 20.409485 
L 94.16116 20.409485 
L 175.066992 161.999976 
L 175.066992 161.999976 
L 175.066992 161.999976 
L 255.972824 209.196806 
L 255.972824 209.196806 
L 255.972824 209.196806 
L 336.878655 232.795221 
L 336.878655 232.795221 
L 336.878655 232.795221 
L 417.784487 246.95427 
L 417.784487 246.95427 
L 417.784487 246.95427 
L 498.690318 256.393636 
L 498.690318 256.393636 
L 498.690318 256.393636 
" clip-path="url(#p7d9a350d98)" style="fill: none; stroke-dasharray: 14,14; stroke-dashoffset: 0; stroke: #0000ff; stroke-width: 2"/>
   </g>
   <g id="line2d_20">
    <defs>
     <path id="m373b200c0c" d="M 0 7.5 
C 1.989023 7.5 3.896849 6.709753 5.303301 5.303301 
C 6.709753 3.896849 7.5 1.989023 7.5 0 
C 7.5 -1.989023 6.709753 -3.896849 5.303301 -5.303301 
C 3.896849 -6.709753 1.989023 -7.5 0 -7.5 
C -1.989023 -7.5 -3.896849 -6.709753 -5.303301 -5.303301 
C -6.709753 -3.896849 -7.5 -1.989023 -7.5 0 
C -7.5 1.989023 -6.709753 3.896849 -5.303301 5.303301 
C -3.896849 6.709753 -1.989023 7.5 0 7.5 
z
" style="stroke: #000000; stroke-width: 0.5"/>
    </defs>
    <g clip-path="url(#p7d9a350d98)">
     <use xlink:href="#m373b200c0c" x="94.16116" y="20.986845" style="fill: #0000ff; stroke: #000000; stroke-width: 0.5"/>
    </g>
   </g>
   <g id="line2d_21">
    <g clip-path="url(#p7d9a350d98)">
     <use xlink:href="#m373b200c0c" x="255.972824" y="209.608184" style="fill: #0000ff; stroke: #000000; stroke-width: 0.5"/>
    </g>
   </g>
   <g id="line2d_22">
    <g clip-path="url(#p7d9a350d98)">
     <use xlink:href="#m373b200c0c" x="417.784487" y="246.667451" style="fill: #0000ff; stroke: #000000; stroke-width: 0.5"/>
    </g>
   </g>
   <g id="line2d_23">
    <defs>
     <path id="mf2794f1c13" d="M 0 -7.5 
L -7.5 7.5 
L 7.5 7.5 
z
" style="stroke: #000000; stroke-width: 0.5; stroke-linejoin: miter"/>
    </defs>
    <g clip-path="url(#p7d9a350d98)">
     <use xlink:href="#mf2794f1c13" x="94.16116" y="22.750235" style="fill: #0000ff; stroke: #000000; stroke-width: 0.5; stroke-linejoin: miter"/>
    </g>
   </g>
   <g id="line2d_24">
    <g clip-path="url(#p7d9a350d98)">
     <use xlink:href="#mf2794f1c13" x="255.972824" y="208.410879" style="fill: #0000ff; stroke: #000000; stroke-width: 0.5; stroke-linejoin: miter"/>
    </g>
   </g>
   <g id="line2d_25">
    <g clip-path="url(#p7d9a350d98)">
     <use xlink:href="#mf2794f1c13" x="417.784487" y="246.849835" style="fill: #0000ff; stroke: #000000; stroke-width: 0.5; stroke-linejoin: miter"/>
    </g>
   </g>
   <g id="line2d_26">
    <defs>
     <path id="m23538197c1" d="M -7.5 7.5 
L 7.5 7.5 
L 7.5 -7.5 
L -7.5 -7.5 
z
" style="stroke: #000000; stroke-width: 0.5; stroke-linejoin: miter"/>
    </defs>
    <g clip-path="url(#p7d9a350d98)">
     <use xlink:href="#m23538197c1" x="94.16116" y="22.0052" style="fill: #0000ff; stroke: #000000; stroke-width: 0.5; stroke-linejoin: miter"/>
    </g>
   </g>
   <g id="line2d_27">
    <g clip-path="url(#p7d9a350d98)">
     <use xlink:href="#m23538197c1" x="255.972824" y="210.05583" style="fill: #0000ff; stroke: #000000; stroke-width: 0.5; stroke-linejoin: miter"/>
    </g>
   </g>
   <g id="line2d_28">
    <g clip-path="url(#p7d9a350d98)">
     <use xlink:href="#m23538197c1" x="417.784487" y="247.78913" style="fill: #0000ff; stroke: #000000; stroke-width: 0.5; stroke-linejoin: miter"/>
    </g>
   </g>
   <g id="patch_7">
    <path d="M 73.7725 268.26 
L 73.7725 7.2 
" style="fill: none; stroke: #000000; stroke-width: 0.8; stroke-linejoin: miter; stroke-linecap: square"/>
   </g>
   <g id="patch_8">
    <path d="M 518.9245 268.26 
L 518.9245 7.2 
" style="fill: none; stroke: #000000; stroke-width: 0.8; stroke-linejoin: miter; stroke-linecap: square"/>
   </g>
   <g id="patch_9">
    <path d="M 73.7725 268.26 
L 518.9245 268.26 
" style="fill: none; stroke: #000000; stroke-width: 0.8; stroke-linejoin: miter; stroke-linecap: square"/>
   </g>
   <g id="patch_10">
    <path d="M 73.7725 7.2 
L 518.9245 7.2 
" style="fill: none; stroke: #000000; stroke-width: 0.8; stroke-linejoin: miter; stroke-linecap: square"/>
   </g>
  </g>
 </g>
 <defs>
  <clipPath id="p7d9a350d98">
   <rect x="73.7725" y="7.2" width="445.152" height="261.06"/>
  </clipPath>
 </defs>
</svg>
