<?xml version="1.0" encoding="utf-8" standalone="no"?>
<!DOCTYPE svg PUBLIC "-//W3C//DTD SVG 1.1//EN"
  "http://www.w3.org/Graphics/SVG/1.1/DTD/svg11.dtd">
<svg xmlns:xlink="http://www.w3.org/1999/xlink" width="424.406562pt" height="277.26875pt" viewBox="0 0 424.406562 277.26875" xmlns="http://www.w3.org/2000/svg" version="1.1">
 <metadata>
  <rdf:RDF xmlns:dc="http://purl.org/dc/elements/1.1/" xmlns:cc="http://creativecommons.org/ns#" xmlns:rdf="http://www.w3.org/1999/02/22-rdf-syntax-ns#">
   <cc:Work>
    <dc:type rdf:resource="http://purl.org/dc/dcmitype/StillImage"/>
    <dc:date>2025-11-23T19:24:10.016968</dc:date>
    <dc:format>image/svg+xml</dc:format>
    <dc:creator>
     <cc:Agent>
      <dc:title>Matplotlib v3.9.2, https://matplotlib.org/</dc:title>
     </cc:Agent>
    </dc:creator>
   </cc:Work>
  </rdf:RDF>
 </metadata>
 <defs>
  <style type="text/css">*{stroke-linejoin: round; stroke-linecap: butt}</style>
 </defs>
 <g id="figure_1">
  <g id="patch_1">
   <path d="M -0 277.26875 
L 424.406562 277.26875 
L 424.406562 0 
L -0 0 
z
" style="fill: #ffffff"/>
  </g>
  <g id="axes_1">
   <g id="patch_2">
    <path d="M 91.166563 203.46 
L 417.206562 203.46 
L 417.206562 7.2 
L 91.166563 7.2 
z
" style="fill: #ffffff"/>
   </g>
   <g id="PathCollection_1"/>
   <g id="PathCollection_2"/>
   <g id="matplotlib.axis_1">
    <g id="xtick_1">
     <g id="line2d_1">
      <defs>
       <path id="m11f5ae8935" d="M 0 0 
L 0 -3.5 
" style="stroke: #000000; stroke-width: 0.8"/>
      </defs>
      <g>
       <use xlink:href="#m11f5ae8935" x="158.636563" y="203.46" style="stroke: #000000; stroke-width: 0.8"/>
      </g>
     </g>
     <g id="text_1">
      <!-- 2.5 -->
      <g transform="translate(136.372188 228.235625) scale(0.28 -0.28)">
       <defs>
        <path id="DejaVuSans-32" d="M 1228 531 
L 3431 531 
L 3431 0 
L 469 0 
L 469 531 
Q 828 903 1448 1529 
Q 2069 2156 2228 2338 
Q 2531 2678 2651 2914 
Q 2772 3150 2772 3378 
Q 2772 3750 2511 3984 
Q 2250 4219 1831 4219 
Q 1534 4219 1204 4116 
Q 875 4013 500 3803 
L 500 4441 
Q 881 4594 1212 4672 
Q 1544 4750 1819 4750 
Q 2544 4750 2975 4387 
Q 3406 4025 3406 3419 
Q 3406 3131 3298 2873 
Q 3191 2616 2906 2266 
Q 2828 2175 2409 1742 
Q 1991 1309 1228 531 
z
" transform="scale(0.015625)"/>
        <path id="DejaVuSans-2e" d="M 684 794 
L 1344 794 
L 1344 0 
L 684 0 
L 684 794 
z
" transform="scale(0.015625)"/>
        <path id="DejaVuSans-35" d="M 691 4666 
L 3169 4666 
L 3169 4134 
L 1269 4134 
L 1269 2991 
Q 1406 3038 1543 3061 
Q 1681 3084 1819 3084 
Q 2600 3084 3056 2656 
Q 3513 2228 3513 1497 
Q 3513 744 3044 326 
Q 2575 -91 1722 -91 
Q 1428 -91 1123 -41 
Q 819 9 494 109 
L 494 744 
Q 775 591 1075 516 
Q 1375 441 1709 441 
Q 2250 441 2565 725 
Q 2881 1009 2881 1497 
Q 2881 1984 2565 2268 
Q 2250 2553 1709 2553 
Q 1456 2553 1204 2497 
Q 953 2441 691 2322 
L 691 4666 
z
" transform="scale(0.015625)"/>
       </defs>
       <use xlink:href="#DejaVuSans-32"/>
       <use xlink:href="#DejaVuSans-2e" x="63.623047"/>
       <use xlink:href="#DejaVuSans-35" x="95.410156"/>
      </g>
     </g>
    </g>
    <g id="xtick_2">
     <g id="line2d_2">
      <g>
       <use xlink:href="#m11f5ae8935" x="246.386562" y="203.46" style="stroke: #000000; stroke-width: 0.8"/>
      </g>
     </g>
     <g id="text_2">
      <!-- 5.0 -->
      <g transform="translate(224.122187 228.235625) scale(0.28 -0.28)">
       <defs>
        <path id="DejaVuSans-30" d="M 2034 4250 
Q 1547 4250 1301 3770 
Q 1056 3291 1056 2328 
Q 1056 1369 1301 889 
Q 1547 409 2034 409 
Q 2525 409 2770 889 
Q 3016 1369 3016 2328 
Q 3016 3291 2770 3770 
Q 2525 4250 2034 4250 
z
M 2034 4750 
Q 2819 4750 3233 4129 
Q 3647 3509 3647 2328 
Q 3647 1150 3233 529 
Q 2819 -91 2034 -91 
Q 1250 -91 836 529 
Q 422 1150 422 2328 
Q 422 3509 836 4129 
Q 1250 4750 2034 4750 
z
" transform="scale(0.015625)"/>
       </defs>
       <use xlink:href="#DejaVuSans-35"/>
       <use xlink:href="#DejaVuSans-2e" x="63.623047"/>
       <use xlink:href="#DejaVuSans-30" x="95.410156"/>
      </g>
     </g>
    </g>
    <g id="xtick_3">
     <g id="line2d_3">
      <g>
       <use xlink:href="#m11f5ae8935" x="334.136562" y="203.46" style="stroke: #000000; stroke-width: 0.8"/>
      </g>
     </g>
     <g id="text_3">
      <!-- 7.5 -->
      <g transform="translate(311.872187 228.235625) scale(0.28 -0.28)">
       <defs>
        <path id="DejaVuSans-37" d="M 525 4666 
L 3525 4666 
L 3525 4397 
L 1831 0 
L 1172 0 
L 2766 4134 
L 525 4134 
L 525 4666 
z
" transform="scale(0.015625)"/>
       </defs>
       <use xlink:href="#DejaVuSans-37"/>
       <use xlink:href="#DejaVuSans-2e" x="63.623047"/>
       <use xlink:href="#DejaVuSans-35" x="95.410156"/>
      </g>
     </g>
    </g>
    <g id="text_4">
     <!-- $\kappa \, \mathrm{(pN/}\mu\mathrm{m)}$ -->
     <g transform="translate(173.831562 263.13875) scale(0.33 -0.33)">
      <defs>
       <path id="DejaVuSans-Oblique-3ba" d="M 938 3500 
L 1531 3500 
L 1247 2047 
L 3041 3500 
L 3741 3500 
L 2106 2181 
L 3275 0 
L 2572 0 
L 1628 1806 
L 1122 1403 
L 850 0 
L 256 0 
L 938 3500 
z
" transform="scale(0.015625)"/>
       <path id="DejaVuSans-28" d="M 1984 4856 
Q 1566 4138 1362 3434 
Q 1159 2731 1159 2009 
Q 1159 1288 1364 580 
Q 1569 -128 1984 -844 
L 1484 -844 
Q 1016 -109 783 600 
Q 550 1309 550 2009 
Q 550 2706 781 3412 
Q 1013 4119 1484 4856 
L 1984 4856 
z
" transform="scale(0.015625)"/>
       <path id="DejaVuSans-70" d="M 1159 525 
L 1159 -1331 
L 581 -1331 
L 581 3500 
L 1159 3500 
L 1159 2969 
Q 1341 3281 1617 3432 
Q 1894 3584 2278 3584 
Q 2916 3584 3314 3078 
Q 3713 2572 3713 1747 
Q 3713 922 3314 415 
Q 2916 -91 2278 -91 
Q 1894 -91 1617 61 
Q 1341 213 1159 525 
z
M 3116 1747 
Q 3116 2381 2855 2742 
Q 2594 3103 2138 3103 
Q 1681 3103 1420 2742 
Q 1159 2381 1159 1747 
Q 1159 1113 1420 752 
Q 1681 391 2138 391 
Q 2594 391 2855 752 
Q 3116 1113 3116 1747 
z
" transform="scale(0.015625)"/>
       <path id="DejaVuSans-4e" d="M 628 4666 
L 1478 4666 
L 3547 763 
L 3547 4666 
L 4159 4666 
L 4159 0 
L 3309 0 
L 1241 3903 
L 1241 0 
L 628 0 
L 628 4666 
z
" transform="scale(0.015625)"/>
       <path id="DejaVuSans-2f" d="M 1625 4666 
L 2156 4666 
L 531 -594 
L 0 -594 
L 1625 4666 
z
" transform="scale(0.015625)"/>
       <path id="DejaVuSans-Oblique-3bc" d="M -84 -1331 
L 856 3500 
L 1434 3500 
L 1009 1322 
Q 997 1256 987 1175 
Q 978 1094 978 1013 
Q 978 722 1161 565 
Q 1344 409 1684 409 
Q 2147 409 2431 671 
Q 2716 934 2816 1459 
L 3213 3500 
L 3788 3500 
L 3266 809 
Q 3253 750 3248 706 
Q 3244 663 3244 628 
Q 3244 531 3283 486 
Q 3322 441 3406 441 
Q 3438 441 3492 456 
Q 3547 472 3647 513 
L 3559 50 
Q 3422 -19 3297 -55 
Q 3172 -91 3053 -91 
Q 2847 -91 2730 40 
Q 2613 172 2613 403 
Q 2438 153 2195 31 
Q 1953 -91 1625 -91 
Q 1334 -91 1117 43 
Q 900 178 831 397 
L 494 -1331 
L -84 -1331 
z
" transform="scale(0.015625)"/>
       <path id="DejaVuSans-6d" d="M 3328 2828 
Q 3544 3216 3844 3400 
Q 4144 3584 4550 3584 
Q 5097 3584 5394 3201 
Q 5691 2819 5691 2113 
L 5691 0 
L 5113 0 
L 5113 2094 
Q 5113 2597 4934 2840 
Q 4756 3084 4391 3084 
Q 3944 3084 3684 2787 
Q 3425 2491 3425 1978 
L 3425 0 
L 2847 0 
L 2847 2094 
Q 2847 2600 2669 2842 
Q 2491 3084 2119 3084 
Q 1678 3084 1418 2786 
Q 1159 2488 1159 1978 
L 1159 0 
L 581 0 
L 581 3500 
L 1159 3500 
L 1159 2956 
Q 1356 3278 1631 3431 
Q 1906 3584 2284 3584 
Q 2666 3584 2933 3390 
Q 3200 3197 3328 2828 
z
" transform="scale(0.015625)"/>
       <path id="DejaVuSans-29" d="M 513 4856 
L 1013 4856 
Q 1481 4119 1714 3412 
Q 1947 2706 1947 2009 
Q 1947 1309 1714 600 
Q 1481 -109 1013 -844 
L 513 -844 
Q 928 -128 1133 580 
Q 1338 1288 1338 2009 
Q 1338 2731 1133 3434 
Q 928 4138 513 4856 
z
" transform="scale(0.015625)"/>
      </defs>
      <use xlink:href="#DejaVuSans-Oblique-3ba" transform="translate(0 0.125)"/>
      <use xlink:href="#DejaVuSans-28" transform="translate(75.171223 0.125)"/>
      <use xlink:href="#DejaVuSans-70" transform="translate(114.184895 0.125)"/>
      <use xlink:href="#DejaVuSans-4e" transform="translate(177.661458 0.125)"/>
      <use xlink:href="#DejaVuSans-2f" transform="translate(252.466145 0.125)"/>
      <use xlink:href="#DejaVuSans-Oblique-3bc" transform="translate(286.157551 0.125)"/>
      <use xlink:href="#DejaVuSans-6d" transform="translate(349.780598 0.125)"/>
      <use xlink:href="#DejaVuSans-29" transform="translate(447.192708 0.125)"/>
     </g>
    </g>
   </g>
   <g id="matplotlib.axis_2">
    <g id="ytick_1">
     <g id="line2d_4">
      <defs>
       <path id="me8580cabda" d="M 0 0 
L 3.5 0 
" style="stroke: #000000; stroke-width: 0.8"/>
      </defs>
      <g>
       <use xlink:href="#me8580cabda" x="91.166563" y="128.834333" style="stroke: #000000; stroke-width: 0.8"/>
      </g>
     </g>
     <g id="text_5">
      <!-- 2.5 -->
      <g transform="translate(43.137813 139.472145) scale(0.28 -0.28)">
       <use xlink:href="#DejaVuSans-32"/>
       <use xlink:href="#DejaVuSans-2e" x="63.623047"/>
       <use xlink:href="#DejaVuSans-35" x="95.410156"/>
      </g>
     </g>
    </g>
    <g id="ytick_2">
     <g id="line2d_5">
      <g>
       <use xlink:href="#me8580cabda" x="91.166563" y="51.845407" style="stroke: #000000; stroke-width: 0.8"/>
      </g>
     </g>
     <g id="text_6">
      <!-- 5.0 -->
      <g transform="translate(43.137813 62.483219) scale(0.28 -0.28)">
       <use xlink:href="#DejaVuSans-35"/>
       <use xlink:href="#DejaVuSans-2e" x="63.623047"/>
       <use xlink:href="#DejaVuSans-30" x="95.410156"/>
      </g>
     </g>
    </g>
    <g id="text_7">
     <!-- $\mathcal{T}$ $(ms)$ -->
     <g transform="translate(32.274844 156.645) rotate(-90) scale(0.33 -0.33)">
      <defs>
       <path id="STIXNonUnicode-Italic-e240" d="M 4557 4614 
L 4672 4518 
Q 4134 3635 2746 3578 
L 2054 1197 
Q 1933 787 1801 537 
Q 1670 288 1484 173 
Q 1299 58 1136 29 
Q 973 0 691 0 
L 749 154 
Q 934 154 1059 326 
Q 1184 499 1286 870 
L 1882 2944 
Q 2042 3520 2042 3635 
Q 2042 3731 1974 3785 
Q 1907 3840 1818 3840 
Q 1498 3840 1110 3664 
Q 723 3488 390 3053 
L 262 3142 
Q 678 3744 1212 3993 
Q 1747 4243 2733 4243 
Q 2867 4243 3078 4224 
Q 3290 4205 3379 4205 
Q 4288 4205 4557 4614 
z
" transform="scale(0.015625)"/>
       <path id="DejaVuSans-20" transform="scale(0.015625)"/>
       <path id="DejaVuSans-Oblique-6d" d="M 5747 2113 
L 5338 0 
L 4763 0 
L 5166 2094 
Q 5191 2228 5203 2325 
Q 5216 2422 5216 2491 
Q 5216 2772 5059 2928 
Q 4903 3084 4622 3084 
Q 4203 3084 3875 2770 
Q 3547 2456 3450 1953 
L 3066 0 
L 2491 0 
L 2900 2094 
Q 2925 2209 2937 2307 
Q 2950 2406 2950 2484 
Q 2950 2769 2794 2926 
Q 2638 3084 2363 3084 
Q 1938 3084 1609 2770 
Q 1281 2456 1184 1953 
L 800 0 
L 225 0 
L 909 3500 
L 1484 3500 
L 1375 2956 
Q 1609 3263 1923 3423 
Q 2238 3584 2597 3584 
Q 2978 3584 3223 3384 
Q 3469 3184 3519 2828 
Q 3781 3197 4126 3390 
Q 4472 3584 4856 3584 
Q 5306 3584 5551 3325 
Q 5797 3066 5797 2591 
Q 5797 2488 5784 2364 
Q 5772 2241 5747 2113 
z
" transform="scale(0.015625)"/>
       <path id="DejaVuSans-Oblique-73" d="M 3200 3397 
L 3091 2853 
Q 2863 2978 2609 3040 
Q 2356 3103 2088 3103 
Q 1634 3103 1373 2948 
Q 1113 2794 1113 2528 
Q 1113 2219 1719 2053 
Q 1766 2041 1788 2034 
L 1972 1978 
Q 2547 1819 2739 1644 
Q 2931 1469 2931 1166 
Q 2931 609 2489 259 
Q 2047 -91 1331 -91 
Q 1053 -91 747 -37 
Q 441 16 72 128 
L 184 722 
Q 500 559 806 475 
Q 1113 391 1394 391 
Q 1816 391 2080 572 
Q 2344 753 2344 1031 
Q 2344 1331 1650 1516 
L 1591 1531 
L 1394 1581 
Q 956 1697 753 1886 
Q 550 2075 550 2369 
Q 550 2928 970 3256 
Q 1391 3584 2113 3584 
Q 2397 3584 2667 3537 
Q 2938 3491 3200 3397 
z
" transform="scale(0.015625)"/>
      </defs>
      <use xlink:href="#STIXNonUnicode-Italic-e240" transform="translate(0 0.125)"/>
      <use xlink:href="#DejaVuSans-20" transform="translate(50.899994 0.125)"/>
      <use xlink:href="#DejaVuSans-28" transform="translate(82.687103 0.125)"/>
      <use xlink:href="#DejaVuSans-Oblique-6d" transform="translate(121.700775 0.125)"/>
      <use xlink:href="#DejaVuSans-Oblique-73" transform="translate(219.112885 0.125)"/>
      <use xlink:href="#DejaVuSans-29" transform="translate(271.212494 0.125)"/>
     </g>
    </g>
   </g>
   <g id="LineCollection_1">
    <path d="M 105.986563 173.752448 
L 105.986563 172.282095 
" clip-path="url(#p9c7ea164c4)" style="fill: none; stroke: #990066; stroke-width: 4"/>
   </g>
   <g id="LineCollection_2">
    <path d="M 105.986563 22.002325 
L 105.986563 16.120909 
" clip-path="url(#p9c7ea164c4)" style="fill: none; stroke: #0000ff; stroke-width: 4"/>
   </g>
   <g id="LineCollection_3">
    <path d="M 180.086563 181.923582 
L 180.086563 180.126482 
" clip-path="url(#p9c7ea164c4)" style="fill: none; stroke: #990066; stroke-width: 4"/>
   </g>
   <g id="LineCollection_4">
    <path d="M 180.086563 151.720627 
L 180.086563 150.658705 
" clip-path="url(#p9c7ea164c4)" style="fill: none; stroke: #0000ff; stroke-width: 4"/>
   </g>
   <g id="LineCollection_5">
    <path d="M 254.186563 189.372794 
L 254.186563 189.209421 
" clip-path="url(#p9c7ea164c4)" style="fill: none; stroke: #990066; stroke-width: 4"/>
   </g>
   <g id="LineCollection_6">
    <path d="M 254.186563 175.410536 
L 254.186563 174.757045 
" clip-path="url(#p9c7ea164c4)" style="fill: none; stroke: #0000ff; stroke-width: 4"/>
   </g>
   <g id="LineCollection_7">
    <path d="M 328.286563 190.582682 
L 328.286563 190.582682 
" clip-path="url(#p9c7ea164c4)" style="fill: none; stroke: #990066; stroke-width: 4"/>
   </g>
   <g id="LineCollection_8">
    <path d="M 328.286563 185.756386 
L 328.286563 185.593013 
" clip-path="url(#p9c7ea164c4)" style="fill: none; stroke: #0000ff; stroke-width: 4"/>
   </g>
   <g id="LineCollection_9">
    <path d="M 402.386562 194.539091 
L 402.386562 194.375718 
" clip-path="url(#p9c7ea164c4)" style="fill: none; stroke: #990066; stroke-width: 4"/>
   </g>
   <g id="LineCollection_10">
    <path d="M 402.386562 188.747966 
L 402.386562 187.76773 
" clip-path="url(#p9c7ea164c4)" style="fill: none; stroke: #0000ff; stroke-width: 4"/>
   </g>
   <g id="line2d_6">
    <path d="M 105.986563 173.017271 
" clip-path="url(#p9c7ea164c4)" style="fill: none; stroke-dasharray: 14.8,6.4; stroke-dashoffset: 0; stroke: #990066; stroke-width: 4"/>
    <defs>
     <path id="m63d08eff4a" d="M 0 8 
C 2.121625 8 4.156639 7.15707 5.656854 5.656854 
C 7.15707 4.156639 8 2.121625 8 0 
C 8 -2.121625 7.15707 -4.156639 5.656854 -5.656854 
C 4.156639 -7.15707 2.121625 -8 0 -8 
C -2.121625 -8 -4.156639 -7.15707 -5.656854 -5.656854 
C -7.15707 -4.156639 -8 -2.121625 -8 0 
C -8 2.121625 -7.15707 4.156639 -5.656854 5.656854 
C -4.156639 7.15707 -2.121625 8 0 8 
z
" style="stroke: #000000; stroke-width: 0.5"/>
    </defs>
    <g clip-path="url(#p9c7ea164c4)">
     <use xlink:href="#m63d08eff4a" x="105.986563" y="173.017271" style="fill: #990066; stroke: #000000; stroke-width: 0.5"/>
    </g>
   </g>
   <g id="line2d_7">
    <path d="M 105.986563 19.061617 
" clip-path="url(#p9c7ea164c4)" style="fill: none; stroke-dasharray: 14.8,6.4; stroke-dashoffset: 0; stroke: #0000ff; stroke-width: 4"/>
    <defs>
     <path id="meb4cd05c21" d="M 0 -8 
L -8 8 
L 8 8 
z
" style="stroke: #000000; stroke-width: 0.5; stroke-linejoin: miter"/>
    </defs>
    <g clip-path="url(#p9c7ea164c4)">
     <use xlink:href="#meb4cd05c21" x="105.986563" y="19.061617" style="fill: #0000ff; stroke: #000000; stroke-width: 0.5; stroke-linejoin: miter"/>
    </g>
   </g>
   <g id="line2d_8">
    <path d="M 180.086563 181.025032 
" clip-path="url(#p9c7ea164c4)" style="fill: none; stroke-dasharray: 14.8,6.4; stroke-dashoffset: 0; stroke: #990066; stroke-width: 4"/>
    <g clip-path="url(#p9c7ea164c4)">
     <use xlink:href="#m63d08eff4a" x="180.086563" y="181.025032" style="fill: #990066; stroke: #000000; stroke-width: 0.5"/>
    </g>
   </g>
   <g id="line2d_9">
    <path d="M 180.086563 151.189666 
" clip-path="url(#p9c7ea164c4)" style="fill: none; stroke-dasharray: 14.8,6.4; stroke-dashoffset: 0; stroke: #0000ff; stroke-width: 4"/>
    <g clip-path="url(#p9c7ea164c4)">
     <use xlink:href="#meb4cd05c21" x="180.086563" y="151.189666" style="fill: #0000ff; stroke: #000000; stroke-width: 0.5; stroke-linejoin: miter"/>
    </g>
   </g>
   <g id="line2d_10">
    <path d="M 254.186563 189.291107 
" clip-path="url(#p9c7ea164c4)" style="fill: none; stroke-dasharray: 14.8,6.4; stroke-dashoffset: 0; stroke: #990066; stroke-width: 4"/>
    <g clip-path="url(#p9c7ea164c4)">
     <use xlink:href="#m63d08eff4a" x="254.186563" y="189.291107" style="fill: #990066; stroke: #000000; stroke-width: 0.5"/>
    </g>
   </g>
   <g id="line2d_11">
    <path d="M 254.186563 175.08379 
" clip-path="url(#p9c7ea164c4)" style="fill: none; stroke-dasharray: 14.8,6.4; stroke-dashoffset: 0; stroke: #0000ff; stroke-width: 4"/>
    <g clip-path="url(#p9c7ea164c4)">
     <use xlink:href="#meb4cd05c21" x="254.186563" y="175.08379" style="fill: #0000ff; stroke: #000000; stroke-width: 0.5; stroke-linejoin: miter"/>
    </g>
   </g>
   <g id="line2d_12">
    <path d="M 328.286563 190.582682 
" clip-path="url(#p9c7ea164c4)" style="fill: none; stroke-dasharray: 14.8,6.4; stroke-dashoffset: 0; stroke: #990066; stroke-width: 4"/>
    <g clip-path="url(#p9c7ea164c4)">
     <use xlink:href="#m63d08eff4a" x="328.286563" y="190.582682" style="fill: #990066; stroke: #000000; stroke-width: 0.5"/>
    </g>
   </g>
   <g id="line2d_13">
    <path d="M 328.286563 185.674699 
" clip-path="url(#p9c7ea164c4)" style="fill: none; stroke-dasharray: 14.8,6.4; stroke-dashoffset: 0; stroke: #0000ff; stroke-width: 4"/>
    <g clip-path="url(#p9c7ea164c4)">
     <use xlink:href="#meb4cd05c21" x="328.286563" y="185.674699" style="fill: #0000ff; stroke: #000000; stroke-width: 0.5; stroke-linejoin: miter"/>
    </g>
   </g>
   <g id="line2d_14">
    <path d="M 402.386562 194.457405 
" clip-path="url(#p9c7ea164c4)" style="fill: none; stroke-dasharray: 14.8,6.4; stroke-dashoffset: 0; stroke: #990066; stroke-width: 4"/>
    <g clip-path="url(#p9c7ea164c4)">
     <use xlink:href="#m63d08eff4a" x="402.386562" y="194.457405" style="fill: #990066; stroke: #000000; stroke-width: 0.5"/>
    </g>
   </g>
   <g id="line2d_15">
    <path d="M 402.386562 188.257848 
" clip-path="url(#p9c7ea164c4)" style="fill: none; stroke-dasharray: 14.8,6.4; stroke-dashoffset: 0; stroke: #0000ff; stroke-width: 4"/>
    <g clip-path="url(#p9c7ea164c4)">
     <use xlink:href="#meb4cd05c21" x="402.386562" y="188.257848" style="fill: #0000ff; stroke: #000000; stroke-width: 0.5; stroke-linejoin: miter"/>
    </g>
   </g>
   <g id="patch_3">
    <path d="M 91.166563 203.46 
L 91.166563 7.2 
" style="fill: none; stroke: #000000; stroke-width: 0.8; stroke-linejoin: miter; stroke-linecap: square"/>
   </g>
   <g id="patch_4">
    <path d="M 417.206562 203.46 
L 417.206562 7.2 
" style="fill: none; stroke: #000000; stroke-width: 0.8; stroke-linejoin: miter; stroke-linecap: square"/>
   </g>
   <g id="patch_5">
    <path d="M 91.166563 203.46 
L 417.206562 203.46 
" style="fill: none; stroke: #000000; stroke-width: 0.8; stroke-linejoin: miter; stroke-linecap: square"/>
   </g>
   <g id="patch_6">
    <path d="M 91.166563 7.2 
L 417.206562 7.2 
" style="fill: none; stroke: #000000; stroke-width: 0.8; stroke-linejoin: miter; stroke-linecap: square"/>
   </g>
   <g id="legend_1">
    <g id="patch_7">
     <path d="M 270.775312 111.7975 
L 397.606562 111.7975 
Q 403.206562 111.7975 403.206562 106.1975 
L 403.206562 26.8 
Q 403.206562 21.2 397.606562 21.2 
L 270.775312 21.2 
Q 265.175312 21.2 265.175312 26.8 
L 265.175312 106.1975 
Q 265.175312 111.7975 270.775312 111.7975 
z
" style="fill: #ffffff; opacity: 0.8; stroke: #cccccc; stroke-linejoin: miter"/>
    </g>
    <g id="PathCollection_3">
     <defs>
      <path id="m0b7a338cdb" d="M 0 -7.905694 
L -7.905694 7.905694 
L 7.905694 7.905694 
z
" style="stroke: #000000; stroke-width: 0.5"/>
     </defs>
     <g>
      <use xlink:href="#m0b7a338cdb" x="304.375312" y="46.325625" style="fill: #0000ff; stroke: #000000; stroke-width: 0.5"/>
     </g>
    </g>
    <g id="text_8">
     <!-- eq -->
     <g transform="translate(354.775312 53.675625) scale(0.28 -0.28)">
      <defs>
       <path id="DejaVuSans-65" d="M 3597 1894 
L 3597 1613 
L 953 1613 
Q 991 1019 1311 708 
Q 1631 397 2203 397 
Q 2534 397 2845 478 
Q 3156 559 3463 722 
L 3463 178 
Q 3153 47 2828 -22 
Q 2503 -91 2169 -91 
Q 1331 -91 842 396 
Q 353 884 353 1716 
Q 353 2575 817 3079 
Q 1281 3584 2069 3584 
Q 2775 3584 3186 3129 
Q 3597 2675 3597 1894 
z
M 3022 2063 
Q 3016 2534 2758 2815 
Q 2500 3097 2075 3097 
Q 1594 3097 1305 2825 
Q 1016 2553 972 2059 
L 3022 2063 
z
" transform="scale(0.015625)"/>
       <path id="DejaVuSans-71" d="M 947 1747 
Q 947 1113 1208 752 
Q 1469 391 1925 391 
Q 2381 391 2643 752 
Q 2906 1113 2906 1747 
Q 2906 2381 2643 2742 
Q 2381 3103 1925 3103 
Q 1469 3103 1208 2742 
Q 947 2381 947 1747 
z
M 2906 525 
Q 2725 213 2448 61 
Q 2172 -91 1784 -91 
Q 1150 -91 751 415 
Q 353 922 353 1747 
Q 353 2572 751 3078 
Q 1150 3584 1784 3584 
Q 2172 3584 2448 3432 
Q 2725 3281 2906 2969 
L 2906 3500 
L 3481 3500 
L 3481 -1331 
L 2906 -1331 
L 2906 525 
z
" transform="scale(0.015625)"/>
      </defs>
      <use xlink:href="#DejaVuSans-65"/>
      <use xlink:href="#DejaVuSans-71" x="61.523438"/>
     </g>
    </g>
    <g id="PathCollection_4">
     <defs>
      <path id="m0dad5c65e5" d="M 0 7.905694 
C 2.096615 7.905694 4.10764 7.0727 5.59017 5.59017 
C 7.0727 4.10764 7.905694 2.096615 7.905694 0 
C 7.905694 -2.096615 7.0727 -4.10764 5.59017 -5.59017 
C 4.10764 -7.0727 2.096615 -7.905694 0 -7.905694 
C -2.096615 -7.905694 -4.10764 -7.0727 -5.59017 -5.59017 
C -7.0727 -4.10764 -7.905694 -2.096615 -7.905694 0 
C -7.905694 2.096615 -7.0727 4.10764 -5.59017 5.59017 
C -4.10764 7.0727 -2.096615 7.905694 0 7.905694 
z
" style="stroke: #000000; stroke-width: 0.5"/>
     </defs>
     <g>
      <use xlink:href="#m0dad5c65e5" x="304.375312" y="87.424375" style="fill: #990066; stroke: #000000; stroke-width: 0.5"/>
     </g>
    </g>
    <g id="text_9">
     <!-- SR -->
     <g transform="translate(354.775312 94.774375) scale(0.28 -0.28)">
      <defs>
       <path id="DejaVuSans-53" d="M 3425 4513 
L 3425 3897 
Q 3066 4069 2747 4153 
Q 2428 4238 2131 4238 
Q 1616 4238 1336 4038 
Q 1056 3838 1056 3469 
Q 1056 3159 1242 3001 
Q 1428 2844 1947 2747 
L 2328 2669 
Q 3034 2534 3370 2195 
Q 3706 1856 3706 1288 
Q 3706 609 3251 259 
Q 2797 -91 1919 -91 
Q 1588 -91 1214 -16 
Q 841 59 441 206 
L 441 856 
Q 825 641 1194 531 
Q 1563 422 1919 422 
Q 2459 422 2753 634 
Q 3047 847 3047 1241 
Q 3047 1584 2836 1778 
Q 2625 1972 2144 2069 
L 1759 2144 
Q 1053 2284 737 2584 
Q 422 2884 422 3419 
Q 422 4038 858 4394 
Q 1294 4750 2059 4750 
Q 2388 4750 2728 4690 
Q 3069 4631 3425 4513 
z
" transform="scale(0.015625)"/>
       <path id="DejaVuSans-52" d="M 2841 2188 
Q 3044 2119 3236 1894 
Q 3428 1669 3622 1275 
L 4263 0 
L 3584 0 
L 2988 1197 
Q 2756 1666 2539 1819 
Q 2322 1972 1947 1972 
L 1259 1972 
L 1259 0 
L 628 0 
L 628 4666 
L 2053 4666 
Q 2853 4666 3247 4331 
Q 3641 3997 3641 3322 
Q 3641 2881 3436 2590 
Q 3231 2300 2841 2188 
z
M 1259 4147 
L 1259 2491 
L 2053 2491 
Q 2509 2491 2742 2702 
Q 2975 2913 2975 3322 
Q 2975 3731 2742 3939 
Q 2509 4147 2053 4147 
L 1259 4147 
z
" transform="scale(0.015625)"/>
      </defs>
      <use xlink:href="#DejaVuSans-53"/>
      <use xlink:href="#DejaVuSans-52" x="63.476562"/>
     </g>
    </g>
   </g>
  </g>
 </g>
 <defs>
  <clipPath id="p9c7ea164c4">
   <rect x="91.166563" y="7.2" width="326.04" height="196.26"/>
  </clipPath>
 </defs>
</svg>
