<?xml version="1.0" encoding="utf-8" standalone="no"?>
<!DOCTYPE svg PUBLIC "-//W3C//DTD SVG 1.1//EN"
  "http://www.w3.org/Graphics/SVG/1.1/DTD/svg11.dtd">
<svg xmlns:xlink="http://www.w3.org/1999/xlink" width="855.468125pt" height="493.598437pt" viewBox="0 0 855.468125 493.598437" xmlns="http://www.w3.org/2000/svg" version="1.1">
 <metadata>
  <rdf:RDF xmlns:dc="http://purl.org/dc/elements/1.1/" xmlns:cc="http://creativecommons.org/ns#" xmlns:rdf="http://www.w3.org/1999/02/22-rdf-syntax-ns#">
   <cc:Work>
    <dc:type rdf:resource="http://purl.org/dc/dcmitype/StillImage"/>
    <dc:date>2025-11-23T19:25:17.146952</dc:date>
    <dc:format>image/svg+xml</dc:format>
    <dc:creator>
     <cc:Agent>
      <dc:title>Matplotlib v3.9.2, https://matplotlib.org/</dc:title>
     </cc:Agent>
    </dc:creator>
   </cc:Work>
  </rdf:RDF>
 </metadata>
 <defs>
  <style type="text/css">*{stroke-linejoin: round; stroke-linecap: butt}</style>
 </defs>
 <g id="figure_1">
  <g id="patch_1">
   <path d="M 0 493.598437 
L 855.468125 493.598437 
L 855.468125 0 
L 0 0 
z
" style="fill: #ffffff"/>
  </g>
  <g id="axes_1">
   <g id="patch_2">
    <path d="M 58.368125 429.54 
L 848.268125 429.54 
L 848.268125 7.2 
L 58.368125 7.2 
z
" style="fill: #ffffff"/>
   </g>
   <g id="matplotlib.axis_1">
    <g id="xtick_1">
     <g id="line2d_1">
      <defs>
       <path id="m50cb0ba559" d="M 0 0 
L 0 -3.5 
" style="stroke: #000000; stroke-width: 0.8"/>
      </defs>
      <g>
       <use xlink:href="#m50cb0ba559" x="94.27267" y="429.54" style="stroke: #000000; stroke-width: 0.8"/>
      </g>
     </g>
     <g id="text_1">
      <!-- 0 -->
      <g transform="translate(86.955795 450.516406) scale(0.23 -0.23)">
       <defs>
        <path id="DejaVuSans-30" d="M 2034 4250 
Q 1547 4250 1301 3770 
Q 1056 3291 1056 2328 
Q 1056 1369 1301 889 
Q 1547 409 2034 409 
Q 2525 409 2770 889 
Q 3016 1369 3016 2328 
Q 3016 3291 2770 3770 
Q 2525 4250 2034 4250 
z
M 2034 4750 
Q 2819 4750 3233 4129 
Q 3647 3509 3647 2328 
Q 3647 1150 3233 529 
Q 2819 -91 2034 -91 
Q 1250 -91 836 529 
Q 422 1150 422 2328 
Q 422 3509 836 4129 
Q 1250 4750 2034 4750 
z
" transform="scale(0.015625)"/>
       </defs>
       <use xlink:href="#DejaVuSans-30"/>
      </g>
     </g>
    </g>
    <g id="xtick_2">
     <g id="line2d_2">
      <g>
       <use xlink:href="#m50cb0ba559" x="237.890852" y="429.54" style="stroke: #000000; stroke-width: 0.8"/>
      </g>
     </g>
     <g id="text_2">
      <!-- 2 -->
      <g transform="translate(230.573977 450.516406) scale(0.23 -0.23)">
       <defs>
        <path id="DejaVuSans-32" d="M 1228 531 
L 3431 531 
L 3431 0 
L 469 0 
L 469 531 
Q 828 903 1448 1529 
Q 2069 2156 2228 2338 
Q 2531 2678 2651 2914 
Q 2772 3150 2772 3378 
Q 2772 3750 2511 3984 
Q 2250 4219 1831 4219 
Q 1534 4219 1204 4116 
Q 875 4013 500 3803 
L 500 4441 
Q 881 4594 1212 4672 
Q 1544 4750 1819 4750 
Q 2544 4750 2975 4387 
Q 3406 4025 3406 3419 
Q 3406 3131 3298 2873 
Q 3191 2616 2906 2266 
Q 2828 2175 2409 1742 
Q 1991 1309 1228 531 
z
" transform="scale(0.015625)"/>
       </defs>
       <use xlink:href="#DejaVuSans-32"/>
      </g>
     </g>
    </g>
    <g id="xtick_3">
     <g id="line2d_3">
      <g>
       <use xlink:href="#m50cb0ba559" x="381.509034" y="429.54" style="stroke: #000000; stroke-width: 0.8"/>
      </g>
     </g>
     <g id="text_3">
      <!-- 4 -->
      <g transform="translate(374.192159 450.516406) scale(0.23 -0.23)">
       <defs>
        <path id="DejaVuSans-34" d="M 2419 4116 
L 825 1625 
L 2419 1625 
L 2419 4116 
z
M 2253 4666 
L 3047 4666 
L 3047 1625 
L 3713 1625 
L 3713 1100 
L 3047 1100 
L 3047 0 
L 2419 0 
L 2419 1100 
L 313 1100 
L 313 1709 
L 2253 4666 
z
" transform="scale(0.015625)"/>
       </defs>
       <use xlink:href="#DejaVuSans-34"/>
      </g>
     </g>
    </g>
    <g id="xtick_4">
     <g id="line2d_4">
      <g>
       <use xlink:href="#m50cb0ba559" x="525.127216" y="429.54" style="stroke: #000000; stroke-width: 0.8"/>
      </g>
     </g>
     <g id="text_4">
      <!-- 6 -->
      <g transform="translate(517.810341 450.516406) scale(0.23 -0.23)">
       <defs>
        <path id="DejaVuSans-36" d="M 2113 2584 
Q 1688 2584 1439 2293 
Q 1191 2003 1191 1497 
Q 1191 994 1439 701 
Q 1688 409 2113 409 
Q 2538 409 2786 701 
Q 3034 994 3034 1497 
Q 3034 2003 2786 2293 
Q 2538 2584 2113 2584 
z
M 3366 4563 
L 3366 3988 
Q 3128 4100 2886 4159 
Q 2644 4219 2406 4219 
Q 1781 4219 1451 3797 
Q 1122 3375 1075 2522 
Q 1259 2794 1537 2939 
Q 1816 3084 2150 3084 
Q 2853 3084 3261 2657 
Q 3669 2231 3669 1497 
Q 3669 778 3244 343 
Q 2819 -91 2113 -91 
Q 1303 -91 875 529 
Q 447 1150 447 2328 
Q 447 3434 972 4092 
Q 1497 4750 2381 4750 
Q 2619 4750 2861 4703 
Q 3103 4656 3366 4563 
z
" transform="scale(0.015625)"/>
       </defs>
       <use xlink:href="#DejaVuSans-36"/>
      </g>
     </g>
    </g>
    <g id="xtick_5">
     <g id="line2d_5">
      <g>
       <use xlink:href="#m50cb0ba559" x="668.745398" y="429.54" style="stroke: #000000; stroke-width: 0.8"/>
      </g>
     </g>
     <g id="text_5">
      <!-- 8 -->
      <g transform="translate(661.428523 450.516406) scale(0.23 -0.23)">
       <defs>
        <path id="DejaVuSans-38" d="M 2034 2216 
Q 1584 2216 1326 1975 
Q 1069 1734 1069 1313 
Q 1069 891 1326 650 
Q 1584 409 2034 409 
Q 2484 409 2743 651 
Q 3003 894 3003 1313 
Q 3003 1734 2745 1975 
Q 2488 2216 2034 2216 
z
M 1403 2484 
Q 997 2584 770 2862 
Q 544 3141 544 3541 
Q 544 4100 942 4425 
Q 1341 4750 2034 4750 
Q 2731 4750 3128 4425 
Q 3525 4100 3525 3541 
Q 3525 3141 3298 2862 
Q 3072 2584 2669 2484 
Q 3125 2378 3379 2068 
Q 3634 1759 3634 1313 
Q 3634 634 3220 271 
Q 2806 -91 2034 -91 
Q 1263 -91 848 271 
Q 434 634 434 1313 
Q 434 1759 690 2068 
Q 947 2378 1403 2484 
z
M 1172 3481 
Q 1172 3119 1398 2916 
Q 1625 2713 2034 2713 
Q 2441 2713 2670 2916 
Q 2900 3119 2900 3481 
Q 2900 3844 2670 4047 
Q 2441 4250 2034 4250 
Q 1625 4250 1398 4047 
Q 1172 3844 1172 3481 
z
" transform="scale(0.015625)"/>
       </defs>
       <use xlink:href="#DejaVuSans-38"/>
      </g>
     </g>
    </g>
    <g id="xtick_6">
     <g id="line2d_6">
      <g>
       <use xlink:href="#m50cb0ba559" x="812.36358" y="429.54" style="stroke: #000000; stroke-width: 0.8"/>
      </g>
     </g>
     <g id="text_6">
      <!-- 10 -->
      <g transform="translate(797.72983 450.516406) scale(0.23 -0.23)">
       <defs>
        <path id="DejaVuSans-31" d="M 794 531 
L 1825 531 
L 1825 4091 
L 703 3866 
L 703 4441 
L 1819 4666 
L 2450 4666 
L 2450 531 
L 3481 531 
L 3481 0 
L 794 0 
L 794 531 
z
" transform="scale(0.015625)"/>
       </defs>
       <use xlink:href="#DejaVuSans-31"/>
       <use xlink:href="#DejaVuSans-30" x="63.623047"/>
      </g>
     </g>
    </g>
    <g id="text_7">
     <!-- $S=\gamma r/ \kappa$ -->
     <g transform="translate(400.118125 480.518437) scale(0.28 -0.28)">
      <defs>
       <path id="DejaVuSans-Oblique-53" d="M 3859 4513 
L 3738 3897 
Q 3422 4066 3111 4152 
Q 2800 4238 2509 4238 
Q 1944 4238 1609 3991 
Q 1275 3744 1275 3334 
Q 1275 3109 1398 2989 
Q 1522 2869 2034 2731 
L 2413 2638 
Q 3053 2472 3303 2217 
Q 3553 1963 3553 1503 
Q 3553 797 2998 353 
Q 2444 -91 1538 -91 
Q 1166 -91 791 -17 
Q 416 56 38 206 
L 166 856 
Q 513 641 861 531 
Q 1209 422 1556 422 
Q 2147 422 2503 684 
Q 2859 947 2859 1369 
Q 2859 1650 2717 1795 
Q 2575 1941 2106 2059 
L 1728 2156 
Q 1081 2325 845 2545 
Q 609 2766 609 3163 
Q 609 3859 1145 4304 
Q 1681 4750 2541 4750 
Q 2875 4750 3203 4690 
Q 3531 4631 3859 4513 
z
" transform="scale(0.015625)"/>
       <path id="DejaVuSans-3d" d="M 678 2906 
L 4684 2906 
L 4684 2381 
L 678 2381 
L 678 2906 
z
M 678 1631 
L 4684 1631 
L 4684 1100 
L 678 1100 
L 678 1631 
z
" transform="scale(0.015625)"/>
       <path id="DejaVuSans-Oblique-3b3" d="M 1491 2950 
L 1838 788 
L 3456 3500 
L 4066 3500 
L 1972 0 
L 1713 -1331 
L 1138 -1331 
L 1397 0 
L 988 2613 
Q 925 3006 628 3006 
L 475 3006 
L 569 3500 
L 788 3500 
Q 1403 3500 1491 2950 
z
" transform="scale(0.015625)"/>
       <path id="DejaVuSans-Oblique-72" d="M 2853 2969 
Q 2766 3016 2653 3041 
Q 2541 3066 2413 3066 
Q 1953 3066 1609 2717 
Q 1266 2369 1153 1784 
L 800 0 
L 225 0 
L 909 3500 
L 1484 3500 
L 1375 2956 
Q 1603 3259 1920 3421 
Q 2238 3584 2597 3584 
Q 2691 3584 2781 3573 
Q 2872 3563 2963 3538 
L 2853 2969 
z
" transform="scale(0.015625)"/>
       <path id="DejaVuSans-2f" d="M 1625 4666 
L 2156 4666 
L 531 -594 
L 0 -594 
L 1625 4666 
z
" transform="scale(0.015625)"/>
       <path id="DejaVuSans-Oblique-3ba" d="M 938 3500 
L 1531 3500 
L 1247 2047 
L 3041 3500 
L 3741 3500 
L 2106 2181 
L 3275 0 
L 2572 0 
L 1628 1806 
L 1122 1403 
L 850 0 
L 256 0 
L 938 3500 
z
" transform="scale(0.015625)"/>
      </defs>
      <use xlink:href="#DejaVuSans-Oblique-53" transform="translate(0 0.78125)"/>
      <use xlink:href="#DejaVuSans-3d" transform="translate(82.958984 0.78125)"/>
      <use xlink:href="#DejaVuSans-Oblique-3b3" transform="translate(186.230469 0.78125)"/>
      <use xlink:href="#DejaVuSans-Oblique-72" transform="translate(245.410156 0.78125)"/>
      <use xlink:href="#DejaVuSans-2f" transform="translate(286.523438 0.78125)"/>
      <use xlink:href="#DejaVuSans-Oblique-3ba" transform="translate(320.214844 0.78125)"/>
     </g>
    </g>
   </g>
   <g id="matplotlib.axis_2">
    <g id="ytick_1">
     <g id="line2d_7">
      <defs>
       <path id="m8b3c9144e8" d="M 0 0 
L 3.5 0 
" style="stroke: #000000; stroke-width: 0.8"/>
      </defs>
      <g>
       <use xlink:href="#m8b3c9144e8" x="58.368125" y="399.372857" style="stroke: #000000; stroke-width: 0.8"/>
      </g>
     </g>
     <g id="text_8">
      <!-- 1 -->
      <g transform="translate(40.234375 408.11106) scale(0.23 -0.23)">
       <use xlink:href="#DejaVuSans-31"/>
      </g>
     </g>
    </g>
    <g id="ytick_2">
     <g id="line2d_8">
      <g>
       <use xlink:href="#m8b3c9144e8" x="58.368125" y="339.038571" style="stroke: #000000; stroke-width: 0.8"/>
      </g>
     </g>
     <g id="text_9">
      <!-- 2 -->
      <g transform="translate(40.234375 347.776775) scale(0.23 -0.23)">
       <use xlink:href="#DejaVuSans-32"/>
      </g>
     </g>
    </g>
    <g id="ytick_3">
     <g id="line2d_9">
      <g>
       <use xlink:href="#m8b3c9144e8" x="58.368125" y="278.704286" style="stroke: #000000; stroke-width: 0.8"/>
      </g>
     </g>
     <g id="text_10">
      <!-- 3 -->
      <g transform="translate(40.234375 287.442489) scale(0.23 -0.23)">
       <defs>
        <path id="DejaVuSans-33" d="M 2597 2516 
Q 3050 2419 3304 2112 
Q 3559 1806 3559 1356 
Q 3559 666 3084 287 
Q 2609 -91 1734 -91 
Q 1441 -91 1130 -33 
Q 819 25 488 141 
L 488 750 
Q 750 597 1062 519 
Q 1375 441 1716 441 
Q 2309 441 2620 675 
Q 2931 909 2931 1356 
Q 2931 1769 2642 2001 
Q 2353 2234 1838 2234 
L 1294 2234 
L 1294 2753 
L 1863 2753 
Q 2328 2753 2575 2939 
Q 2822 3125 2822 3475 
Q 2822 3834 2567 4026 
Q 2313 4219 1838 4219 
Q 1578 4219 1281 4162 
Q 984 4106 628 3988 
L 628 4550 
Q 988 4650 1302 4700 
Q 1616 4750 1894 4750 
Q 2613 4750 3031 4423 
Q 3450 4097 3450 3541 
Q 3450 3153 3228 2886 
Q 3006 2619 2597 2516 
z
" transform="scale(0.015625)"/>
       </defs>
       <use xlink:href="#DejaVuSans-33"/>
      </g>
     </g>
    </g>
    <g id="ytick_4">
     <g id="line2d_10">
      <g>
       <use xlink:href="#m8b3c9144e8" x="58.368125" y="218.37" style="stroke: #000000; stroke-width: 0.8"/>
      </g>
     </g>
     <g id="text_11">
      <!-- 4 -->
      <g transform="translate(40.234375 227.108203) scale(0.23 -0.23)">
       <use xlink:href="#DejaVuSans-34"/>
      </g>
     </g>
    </g>
    <g id="ytick_5">
     <g id="line2d_11">
      <g>
       <use xlink:href="#m8b3c9144e8" x="58.368125" y="158.035714" style="stroke: #000000; stroke-width: 0.8"/>
      </g>
     </g>
     <g id="text_12">
      <!-- 5 -->
      <g transform="translate(40.234375 166.773917) scale(0.23 -0.23)">
       <defs>
        <path id="DejaVuSans-35" d="M 691 4666 
L 3169 4666 
L 3169 4134 
L 1269 4134 
L 1269 2991 
Q 1406 3038 1543 3061 
Q 1681 3084 1819 3084 
Q 2600 3084 3056 2656 
Q 3513 2228 3513 1497 
Q 3513 744 3044 326 
Q 2575 -91 1722 -91 
Q 1428 -91 1123 -41 
Q 819 9 494 109 
L 494 744 
Q 775 591 1075 516 
Q 1375 441 1709 441 
Q 2250 441 2565 725 
Q 2881 1009 2881 1497 
Q 2881 1984 2565 2268 
Q 2250 2553 1709 2553 
Q 1456 2553 1204 2497 
Q 953 2441 691 2322 
L 691 4666 
z
" transform="scale(0.015625)"/>
       </defs>
       <use xlink:href="#DejaVuSans-35"/>
      </g>
     </g>
    </g>
    <g id="ytick_6">
     <g id="line2d_12">
      <g>
       <use xlink:href="#m8b3c9144e8" x="58.368125" y="97.701429" style="stroke: #000000; stroke-width: 0.8"/>
      </g>
     </g>
     <g id="text_13">
      <!-- 6 -->
      <g transform="translate(40.234375 106.439632) scale(0.23 -0.23)">
       <use xlink:href="#DejaVuSans-36"/>
      </g>
     </g>
    </g>
    <g id="ytick_7">
     <g id="line2d_13">
      <g>
       <use xlink:href="#m8b3c9144e8" x="58.368125" y="37.367143" style="stroke: #000000; stroke-width: 0.8"/>
      </g>
     </g>
     <g id="text_14">
      <!-- 7 -->
      <g transform="translate(40.234375 46.105346) scale(0.23 -0.23)">
       <defs>
        <path id="DejaVuSans-37" d="M 525 4666 
L 3525 4666 
L 3525 4397 
L 1831 0 
L 1172 0 
L 2766 4134 
L 525 4134 
L 525 4666 
z
" transform="scale(0.015625)"/>
       </defs>
       <use xlink:href="#DejaVuSans-37"/>
      </g>
     </g>
    </g>
    <g id="text_15">
     <!-- Speedup -->
     <g transform="translate(29.995312 284.42625) rotate(-90) scale(0.3 -0.3)">
      <defs>
       <path id="DejaVuSans-53" d="M 3425 4513 
L 3425 3897 
Q 3066 4069 2747 4153 
Q 2428 4238 2131 4238 
Q 1616 4238 1336 4038 
Q 1056 3838 1056 3469 
Q 1056 3159 1242 3001 
Q 1428 2844 1947 2747 
L 2328 2669 
Q 3034 2534 3370 2195 
Q 3706 1856 3706 1288 
Q 3706 609 3251 259 
Q 2797 -91 1919 -91 
Q 1588 -91 1214 -16 
Q 841 59 441 206 
L 441 856 
Q 825 641 1194 531 
Q 1563 422 1919 422 
Q 2459 422 2753 634 
Q 3047 847 3047 1241 
Q 3047 1584 2836 1778 
Q 2625 1972 2144 2069 
L 1759 2144 
Q 1053 2284 737 2584 
Q 422 2884 422 3419 
Q 422 4038 858 4394 
Q 1294 4750 2059 4750 
Q 2388 4750 2728 4690 
Q 3069 4631 3425 4513 
z
" transform="scale(0.015625)"/>
       <path id="DejaVuSans-70" d="M 1159 525 
L 1159 -1331 
L 581 -1331 
L 581 3500 
L 1159 3500 
L 1159 2969 
Q 1341 3281 1617 3432 
Q 1894 3584 2278 3584 
Q 2916 3584 3314 3078 
Q 3713 2572 3713 1747 
Q 3713 922 3314 415 
Q 2916 -91 2278 -91 
Q 1894 -91 1617 61 
Q 1341 213 1159 525 
z
M 3116 1747 
Q 3116 2381 2855 2742 
Q 2594 3103 2138 3103 
Q 1681 3103 1420 2742 
Q 1159 2381 1159 1747 
Q 1159 1113 1420 752 
Q 1681 391 2138 391 
Q 2594 391 2855 752 
Q 3116 1113 3116 1747 
z
" transform="scale(0.015625)"/>
       <path id="DejaVuSans-65" d="M 3597 1894 
L 3597 1613 
L 953 1613 
Q 991 1019 1311 708 
Q 1631 397 2203 397 
Q 2534 397 2845 478 
Q 3156 559 3463 722 
L 3463 178 
Q 3153 47 2828 -22 
Q 2503 -91 2169 -91 
Q 1331 -91 842 396 
Q 353 884 353 1716 
Q 353 2575 817 3079 
Q 1281 3584 2069 3584 
Q 2775 3584 3186 3129 
Q 3597 2675 3597 1894 
z
M 3022 2063 
Q 3016 2534 2758 2815 
Q 2500 3097 2075 3097 
Q 1594 3097 1305 2825 
Q 1016 2553 972 2059 
L 3022 2063 
z
" transform="scale(0.015625)"/>
       <path id="DejaVuSans-64" d="M 2906 2969 
L 2906 4863 
L 3481 4863 
L 3481 0 
L 2906 0 
L 2906 525 
Q 2725 213 2448 61 
Q 2172 -91 1784 -91 
Q 1150 -91 751 415 
Q 353 922 353 1747 
Q 353 2572 751 3078 
Q 1150 3584 1784 3584 
Q 2172 3584 2448 3432 
Q 2725 3281 2906 2969 
z
M 947 1747 
Q 947 1113 1208 752 
Q 1469 391 1925 391 
Q 2381 391 2643 752 
Q 2906 1113 2906 1747 
Q 2906 2381 2643 2742 
Q 2381 3103 1925 3103 
Q 1469 3103 1208 2742 
Q 947 2381 947 1747 
z
" transform="scale(0.015625)"/>
       <path id="DejaVuSans-75" d="M 544 1381 
L 544 3500 
L 1119 3500 
L 1119 1403 
Q 1119 906 1312 657 
Q 1506 409 1894 409 
Q 2359 409 2629 706 
Q 2900 1003 2900 1516 
L 2900 3500 
L 3475 3500 
L 3475 0 
L 2900 0 
L 2900 538 
Q 2691 219 2414 64 
Q 2138 -91 1772 -91 
Q 1169 -91 856 284 
Q 544 659 544 1381 
z
M 1991 3584 
L 1991 3584 
z
" transform="scale(0.015625)"/>
      </defs>
      <use xlink:href="#DejaVuSans-53"/>
      <use xlink:href="#DejaVuSans-70" x="63.476562"/>
      <use xlink:href="#DejaVuSans-65" x="126.953125"/>
      <use xlink:href="#DejaVuSans-65" x="188.476562"/>
      <use xlink:href="#DejaVuSans-64" x="250"/>
      <use xlink:href="#DejaVuSans-75" x="313.476562"/>
      <use xlink:href="#DejaVuSans-70" x="376.855469"/>
     </g>
    </g>
   </g>
   <g id="LineCollection_1">
    <path d="M 94.27267 399.769378 
L 94.27267 398.976336 
" clip-path="url(#pf4a808f85b)" style="fill: none; stroke: #006eff; stroke-width: 3"/>
    <path d="M 237.890852 358.660333 
L 237.890852 354.491526 
" clip-path="url(#pf4a808f85b)" style="fill: none; stroke: #006eff; stroke-width: 3"/>
    <path d="M 381.509034 310.33767 
L 381.509034 307.616146 
" clip-path="url(#pf4a808f85b)" style="fill: none; stroke: #006eff; stroke-width: 3"/>
    <path d="M 525.127216 204.674525 
L 525.127216 196.915771 
" clip-path="url(#pf4a808f85b)" style="fill: none; stroke: #006eff; stroke-width: 3"/>
    <path d="M 668.745398 175.544801 
L 668.745398 172.891377 
" clip-path="url(#pf4a808f85b)" style="fill: none; stroke: #006eff; stroke-width: 3"/>
    <path d="M 812.36358 112.752106 
L 812.36358 108.543198 
" clip-path="url(#pf4a808f85b)" style="fill: none; stroke: #006eff; stroke-width: 3"/>
   </g>
   <g id="LineCollection_2">
    <path d="M 94.27267 400.591413 
L 94.27267 398.154301 
" clip-path="url(#pf4a808f85b)" style="fill: none; stroke: #b700ff; stroke-width: 3"/>
    <path d="M 237.890852 346.614726 
L 237.890852 343.307184 
" clip-path="url(#pf4a808f85b)" style="fill: none; stroke: #b700ff; stroke-width: 3"/>
    <path d="M 381.509034 305.104474 
L 381.509034 299.963113 
" clip-path="url(#pf4a808f85b)" style="fill: none; stroke: #b700ff; stroke-width: 3"/>
    <path d="M 525.127216 217.674548 
L 525.127216 209.538985 
" clip-path="url(#pf4a808f85b)" style="fill: none; stroke: #b700ff; stroke-width: 3"/>
    <path d="M 668.745398 207.485614 
L 668.745398 185.065895 
" clip-path="url(#pf4a808f85b)" style="fill: none; stroke: #b700ff; stroke-width: 3"/>
    <path d="M 812.36358 143.025144 
L 812.36358 131.436432 
" clip-path="url(#pf4a808f85b)" style="fill: none; stroke: #b700ff; stroke-width: 3"/>
   </g>
   <g id="LineCollection_3">
    <path d="M 94.27267 400.45215 
L 94.27267 398.293565 
" clip-path="url(#pf4a808f85b)" style="fill: none; stroke: #ff0062; stroke-width: 3"/>
    <path d="M 237.890852 338.842173 
L 237.890852 332.622993 
" clip-path="url(#pf4a808f85b)" style="fill: none; stroke: #ff0062; stroke-width: 3"/>
    <path d="M 381.509034 280.993811 
L 381.509034 276.414761 
" clip-path="url(#pf4a808f85b)" style="fill: none; stroke: #ff0062; stroke-width: 3"/>
    <path d="M 525.127216 241.15949 
L 525.127216 225.747652 
" clip-path="url(#pf4a808f85b)" style="fill: none; stroke: #ff0062; stroke-width: 3"/>
    <path d="M 668.745398 189.81243 
L 668.745398 181.108349 
" clip-path="url(#pf4a808f85b)" style="fill: none; stroke: #ff0062; stroke-width: 3"/>
    <path d="M 812.36358 73.573946 
L 812.36358 58.871396 
" clip-path="url(#pf4a808f85b)" style="fill: none; stroke: #ff0062; stroke-width: 3"/>
   </g>
   <g id="LineCollection_4">
    <path d="M 812.36358 118.141412 
L 812.36358 114.317148 
" clip-path="url(#pf4a808f85b)" style="fill: none; stroke: #ff8800; stroke-width: 3"/>
    <path d="M 325.087606 330.183735 
L 325.087606 323.382604 
" clip-path="url(#pf4a808f85b)" style="fill: none; stroke: #ff8800; stroke-width: 3"/>
    <path d="M 231.77944 350.270561 
L 231.77944 344.7756 
" clip-path="url(#pf4a808f85b)" style="fill: none; stroke: #ff8800; stroke-width: 3"/>
    <path d="M 192.194158 382.853585 
L 192.194158 377.032759 
" clip-path="url(#pf4a808f85b)" style="fill: none; stroke: #ff8800; stroke-width: 3"/>
    <path d="M 170.305826 370.561632 
L 170.305826 362.364861 
" clip-path="url(#pf4a808f85b)" style="fill: none; stroke: #ff8800; stroke-width: 3"/>
   </g>
   <g id="line2d_14">
    <path d="M 94.27267 399.372857 
L 94.27267 399.372857 
L 94.27267 399.372857 
L 237.890852 339.038571 
L 237.890852 339.038571 
L 237.890852 339.038571 
L 381.509034 278.704286 
L 381.509034 278.704286 
L 381.509034 278.704286 
L 525.127216 218.37 
L 525.127216 218.37 
L 525.127216 218.37 
L 668.745398 158.035714 
L 668.745398 158.035714 
L 668.745398 158.035714 
L 812.36358 97.701429 
L 812.36358 97.701429 
L 812.36358 97.701429 
" clip-path="url(#pf4a808f85b)" style="fill: none; stroke-dasharray: 22.2,9.6; stroke-dashoffset: 0; stroke: #000000; stroke-opacity: 0.75; stroke-width: 6"/>
   </g>
   <g id="line2d_15">
    <defs>
     <path id="md46c6b6b0b" d="M -0 8.5 
L 8.5 -8.5 
L -8.5 -8.5 
z
" style="stroke: #000000; stroke-width: 0.5; stroke-linejoin: miter"/>
    </defs>
    <g clip-path="url(#pf4a808f85b)">
     <use xlink:href="#md46c6b6b0b" x="94.27267" y="399.372857" style="fill: #006eff; stroke: #000000; stroke-width: 0.5; stroke-linejoin: miter"/>
     <use xlink:href="#md46c6b6b0b" x="237.890852" y="356.57593" style="fill: #006eff; stroke: #000000; stroke-width: 0.5; stroke-linejoin: miter"/>
     <use xlink:href="#md46c6b6b0b" x="381.509034" y="308.976908" style="fill: #006eff; stroke: #000000; stroke-width: 0.5; stroke-linejoin: miter"/>
     <use xlink:href="#md46c6b6b0b" x="525.127216" y="200.795148" style="fill: #006eff; stroke: #000000; stroke-width: 0.5; stroke-linejoin: miter"/>
     <use xlink:href="#md46c6b6b0b" x="668.745398" y="174.218089" style="fill: #006eff; stroke: #000000; stroke-width: 0.5; stroke-linejoin: miter"/>
     <use xlink:href="#md46c6b6b0b" x="812.36358" y="110.647652" style="fill: #006eff; stroke: #000000; stroke-width: 0.5; stroke-linejoin: miter"/>
    </g>
   </g>
   <g id="line2d_16">
    <defs>
     <path id="m5d5f9cd7c4" d="M 0 -8.5 
L -8.5 8.5 
L 8.5 8.5 
z
" style="stroke: #000000; stroke-width: 0.5; stroke-linejoin: miter"/>
    </defs>
    <g clip-path="url(#pf4a808f85b)">
     <use xlink:href="#m5d5f9cd7c4" x="94.27267" y="399.372857" style="fill: #b700ff; stroke: #000000; stroke-width: 0.5; stroke-linejoin: miter"/>
     <use xlink:href="#m5d5f9cd7c4" x="237.890852" y="344.960955" style="fill: #b700ff; stroke: #000000; stroke-width: 0.5; stroke-linejoin: miter"/>
     <use xlink:href="#m5d5f9cd7c4" x="381.509034" y="302.533794" style="fill: #b700ff; stroke: #000000; stroke-width: 0.5; stroke-linejoin: miter"/>
     <use xlink:href="#m5d5f9cd7c4" x="525.127216" y="213.606767" style="fill: #b700ff; stroke: #000000; stroke-width: 0.5; stroke-linejoin: miter"/>
     <use xlink:href="#m5d5f9cd7c4" x="668.745398" y="196.275755" style="fill: #b700ff; stroke: #000000; stroke-width: 0.5; stroke-linejoin: miter"/>
     <use xlink:href="#m5d5f9cd7c4" x="812.36358" y="137.230788" style="fill: #b700ff; stroke: #000000; stroke-width: 0.5; stroke-linejoin: miter"/>
    </g>
   </g>
   <g id="line2d_17">
    <defs>
     <path id="m306f9e0ac1" d="M -8.5 8.5 
L 8.5 8.5 
L 8.5 -8.5 
L -8.5 -8.5 
z
" style="stroke: #000000; stroke-width: 0.5; stroke-linejoin: miter"/>
    </defs>
    <g clip-path="url(#pf4a808f85b)">
     <use xlink:href="#m306f9e0ac1" x="94.27267" y="399.372857" style="fill: #ff0062; stroke: #000000; stroke-width: 0.5; stroke-linejoin: miter"/>
     <use xlink:href="#m306f9e0ac1" x="237.890852" y="335.732583" style="fill: #ff0062; stroke: #000000; stroke-width: 0.5; stroke-linejoin: miter"/>
     <use xlink:href="#m306f9e0ac1" x="381.509034" y="278.704286" style="fill: #ff0062; stroke: #000000; stroke-width: 0.5; stroke-linejoin: miter"/>
     <use xlink:href="#m306f9e0ac1" x="525.127216" y="233.453571" style="fill: #ff0062; stroke: #000000; stroke-width: 0.5; stroke-linejoin: miter"/>
     <use xlink:href="#m306f9e0ac1" x="668.745398" y="185.46039" style="fill: #ff0062; stroke: #000000; stroke-width: 0.5; stroke-linejoin: miter"/>
     <use xlink:href="#m306f9e0ac1" x="812.36358" y="66.222671" style="fill: #ff0062; stroke: #000000; stroke-width: 0.5; stroke-linejoin: miter"/>
    </g>
   </g>
   <g id="line2d_18">
    <defs>
     <path id="m502c15dc73" d="M 0 8.5 
C 2.254226 8.5 4.416429 7.604386 6.010408 6.010408 
C 7.604386 4.416429 8.5 2.254226 8.5 0 
C 8.5 -2.254226 7.604386 -4.416429 6.010408 -6.010408 
C 4.416429 -7.604386 2.254226 -8.5 0 -8.5 
C -2.254226 -8.5 -4.416429 -7.604386 -6.010408 -6.010408 
C -7.604386 -4.416429 -8.5 -2.254226 -8.5 0 
C -8.5 2.254226 -7.604386 4.416429 -6.010408 6.010408 
C -4.416429 7.604386 -2.254226 8.5 0 8.5 
z
" style="stroke: #000000; stroke-width: 0.5"/>
    </defs>
    <g clip-path="url(#pf4a808f85b)">
     <use xlink:href="#m502c15dc73" x="812.36358" y="116.22928" style="fill: #ff8800; stroke: #000000; stroke-width: 0.5"/>
     <use xlink:href="#m502c15dc73" x="325.087606" y="326.78317" style="fill: #ff8800; stroke: #000000; stroke-width: 0.5"/>
     <use xlink:href="#m502c15dc73" x="231.77944" y="347.52308" style="fill: #ff8800; stroke: #000000; stroke-width: 0.5"/>
     <use xlink:href="#m502c15dc73" x="192.194158" y="379.943172" style="fill: #ff8800; stroke: #000000; stroke-width: 0.5"/>
     <use xlink:href="#m502c15dc73" x="170.305826" y="366.463247" style="fill: #ff8800; stroke: #000000; stroke-width: 0.5"/>
    </g>
   </g>
   <g id="patch_3">
    <path d="M 58.368125 429.54 
L 58.368125 7.2 
" style="fill: none; stroke: #000000; stroke-width: 0.8; stroke-linejoin: miter; stroke-linecap: square"/>
   </g>
   <g id="patch_4">
    <path d="M 848.268125 429.54 
L 848.268125 7.2 
" style="fill: none; stroke: #000000; stroke-width: 0.8; stroke-linejoin: miter; stroke-linecap: square"/>
   </g>
   <g id="patch_5">
    <path d="M 58.368125 429.54 
L 848.268125 429.54 
" style="fill: none; stroke: #000000; stroke-width: 0.8; stroke-linejoin: miter; stroke-linecap: square"/>
   </g>
   <g id="patch_6">
    <path d="M 58.368125 7.2 
L 848.268125 7.2 
" style="fill: none; stroke: #000000; stroke-width: 0.8; stroke-linejoin: miter; stroke-linecap: square"/>
   </g>
  </g>
 </g>
 <defs>
  <clipPath id="pf4a808f85b">
   <rect x="58.368125" y="7.2" width="789.9" height="422.34"/>
  </clipPath>
 </defs>
</svg>
