<?xml version="1.0" encoding="utf-8" standalone="no"?>
<!DOCTYPE svg PUBLIC "-//W3C//DTD SVG 1.1//EN"
  "http://www.w3.org/Graphics/SVG/1.1/DTD/svg11.dtd">
<svg xmlns:xlink="http://www.w3.org/1999/xlink" width="569.240625pt" height="424.880313pt" viewBox="0 0 569.240625 424.880313" xmlns="http://www.w3.org/2000/svg" version="1.1">
 <metadata>
  <rdf:RDF xmlns:dc="http://purl.org/dc/elements/1.1/" xmlns:cc="http://creativecommons.org/ns#" xmlns:rdf="http://www.w3.org/1999/02/22-rdf-syntax-ns#">
   <cc:Work>
    <dc:type rdf:resource="http://purl.org/dc/dcmitype/StillImage"/>
    <dc:date>2025-11-26T23:09:02.908284</dc:date>
    <dc:format>image/svg+xml</dc:format>
    <dc:creator>
     <cc:Agent>
      <dc:title>Matplotlib v3.9.2, https://matplotlib.org/</dc:title>
     </cc:Agent>
    </dc:creator>
   </cc:Work>
  </rdf:RDF>
 </metadata>
 <defs>
  <style type="text/css">*{stroke-linejoin: round; stroke-linecap: butt}</style>
 </defs>
 <g id="figure_1">
  <g id="patch_1">
   <path d="M 0 424.880313 
L 569.240625 424.880313 
L 569.240625 0 
L 0 0 
z
" style="fill: #ffffff"/>
  </g>
  <g id="axes_1">
   <g id="patch_2">
    <path d="M 48.080625 370.5 
L 562.040625 370.5 
L 562.040625 7.2 
L 48.080625 7.2 
z
" style="fill: #ffffff"/>
   </g>
   <g id="matplotlib.axis_1">
    <g id="xtick_1">
     <g id="line2d_1">
      <defs>
       <path id="m9cd5ba1bb9" d="M 0 0 
L 0 -3.5 
" style="stroke: #000000; stroke-width: 0.8"/>
      </defs>
      <g>
       <use xlink:href="#m9cd5ba1bb9" x="71.442443" y="370.5" style="stroke: #000000; stroke-width: 0.8"/>
      </g>
     </g>
     <g id="text_1">
      <!-- 0 -->
      <g transform="translate(65.398068 388.437031) scale(0.19 -0.19)">
       <defs>
        <path id="DejaVuSans-30" d="M 2034 4250 
Q 1547 4250 1301 3770 
Q 1056 3291 1056 2328 
Q 1056 1369 1301 889 
Q 1547 409 2034 409 
Q 2525 409 2770 889 
Q 3016 1369 3016 2328 
Q 3016 3291 2770 3770 
Q 2525 4250 2034 4250 
z
M 2034 4750 
Q 2819 4750 3233 4129 
Q 3647 3509 3647 2328 
Q 3647 1150 3233 529 
Q 2819 -91 2034 -91 
Q 1250 -91 836 529 
Q 422 1150 422 2328 
Q 422 3509 836 4129 
Q 1250 4750 2034 4750 
z
" transform="scale(0.015625)"/>
       </defs>
       <use xlink:href="#DejaVuSans-30"/>
      </g>
     </g>
    </g>
    <g id="xtick_2">
     <g id="line2d_2">
      <g>
       <use xlink:href="#m9cd5ba1bb9" x="164.889716" y="370.5" style="stroke: #000000; stroke-width: 0.8"/>
      </g>
     </g>
     <g id="text_2">
      <!-- 1 -->
      <g transform="translate(158.845341 388.437031) scale(0.19 -0.19)">
       <defs>
        <path id="DejaVuSans-31" d="M 794 531 
L 1825 531 
L 1825 4091 
L 703 3866 
L 703 4441 
L 1819 4666 
L 2450 4666 
L 2450 531 
L 3481 531 
L 3481 0 
L 794 0 
L 794 531 
z
" transform="scale(0.015625)"/>
       </defs>
       <use xlink:href="#DejaVuSans-31"/>
      </g>
     </g>
    </g>
    <g id="xtick_3">
     <g id="line2d_3">
      <g>
       <use xlink:href="#m9cd5ba1bb9" x="258.336989" y="370.5" style="stroke: #000000; stroke-width: 0.8"/>
      </g>
     </g>
     <g id="text_3">
      <!-- 2 -->
      <g transform="translate(252.292614 388.437031) scale(0.19 -0.19)">
       <defs>
        <path id="DejaVuSans-32" d="M 1228 531 
L 3431 531 
L 3431 0 
L 469 0 
L 469 531 
Q 828 903 1448 1529 
Q 2069 2156 2228 2338 
Q 2531 2678 2651 2914 
Q 2772 3150 2772 3378 
Q 2772 3750 2511 3984 
Q 2250 4219 1831 4219 
Q 1534 4219 1204 4116 
Q 875 4013 500 3803 
L 500 4441 
Q 881 4594 1212 4672 
Q 1544 4750 1819 4750 
Q 2544 4750 2975 4387 
Q 3406 4025 3406 3419 
Q 3406 3131 3298 2873 
Q 3191 2616 2906 2266 
Q 2828 2175 2409 1742 
Q 1991 1309 1228 531 
z
" transform="scale(0.015625)"/>
       </defs>
       <use xlink:href="#DejaVuSans-32"/>
      </g>
     </g>
    </g>
    <g id="xtick_4">
     <g id="line2d_4">
      <g>
       <use xlink:href="#m9cd5ba1bb9" x="351.784261" y="370.5" style="stroke: #000000; stroke-width: 0.8"/>
      </g>
     </g>
     <g id="text_4">
      <!-- 3 -->
      <g transform="translate(345.739886 388.437031) scale(0.19 -0.19)">
       <defs>
        <path id="DejaVuSans-33" d="M 2597 2516 
Q 3050 2419 3304 2112 
Q 3559 1806 3559 1356 
Q 3559 666 3084 287 
Q 2609 -91 1734 -91 
Q 1441 -91 1130 -33 
Q 819 25 488 141 
L 488 750 
Q 750 597 1062 519 
Q 1375 441 1716 441 
Q 2309 441 2620 675 
Q 2931 909 2931 1356 
Q 2931 1769 2642 2001 
Q 2353 2234 1838 2234 
L 1294 2234 
L 1294 2753 
L 1863 2753 
Q 2328 2753 2575 2939 
Q 2822 3125 2822 3475 
Q 2822 3834 2567 4026 
Q 2313 4219 1838 4219 
Q 1578 4219 1281 4162 
Q 984 4106 628 3988 
L 628 4550 
Q 988 4650 1302 4700 
Q 1616 4750 1894 4750 
Q 2613 4750 3031 4423 
Q 3450 4097 3450 3541 
Q 3450 3153 3228 2886 
Q 3006 2619 2597 2516 
z
" transform="scale(0.015625)"/>
       </defs>
       <use xlink:href="#DejaVuSans-33"/>
      </g>
     </g>
    </g>
    <g id="xtick_5">
     <g id="line2d_5">
      <g>
       <use xlink:href="#m9cd5ba1bb9" x="445.231534" y="370.5" style="stroke: #000000; stroke-width: 0.8"/>
      </g>
     </g>
     <g id="text_5">
      <!-- 4 -->
      <g transform="translate(439.187159 388.437031) scale(0.19 -0.19)">
       <defs>
        <path id="DejaVuSans-34" d="M 2419 4116 
L 825 1625 
L 2419 1625 
L 2419 4116 
z
M 2253 4666 
L 3047 4666 
L 3047 1625 
L 3713 1625 
L 3713 1100 
L 3047 1100 
L 3047 0 
L 2419 0 
L 2419 1100 
L 313 1100 
L 313 1709 
L 2253 4666 
z
" transform="scale(0.015625)"/>
       </defs>
       <use xlink:href="#DejaVuSans-34"/>
      </g>
     </g>
    </g>
    <g id="xtick_6">
     <g id="line2d_6">
      <g>
       <use xlink:href="#m9cd5ba1bb9" x="538.678807" y="370.5" style="stroke: #000000; stroke-width: 0.8"/>
      </g>
     </g>
     <g id="text_6">
      <!-- 5 -->
      <g transform="translate(532.634432 388.437031) scale(0.19 -0.19)">
       <defs>
        <path id="DejaVuSans-35" d="M 691 4666 
L 3169 4666 
L 3169 4134 
L 1269 4134 
L 1269 2991 
Q 1406 3038 1543 3061 
Q 1681 3084 1819 3084 
Q 2600 3084 3056 2656 
Q 3513 2228 3513 1497 
Q 3513 744 3044 326 
Q 2575 -91 1722 -91 
Q 1428 -91 1123 -41 
Q 819 9 494 109 
L 494 744 
Q 775 591 1075 516 
Q 1375 441 1709 441 
Q 2250 441 2565 725 
Q 2881 1009 2881 1497 
Q 2881 1984 2565 2268 
Q 2250 2553 1709 2553 
Q 1456 2553 1204 2497 
Q 953 2441 691 2322 
L 691 4666 
z
" transform="scale(0.015625)"/>
       </defs>
       <use xlink:href="#DejaVuSans-35"/>
      </g>
     </g>
    </g>
    <g id="text_7">
     <!-- $S$ -->
     <g transform="translate(298.020625 413.105) scale(0.22 -0.22)">
      <defs>
       <path id="DejaVuSans-Oblique-53" d="M 3859 4513 
L 3738 3897 
Q 3422 4066 3111 4152 
Q 2800 4238 2509 4238 
Q 1944 4238 1609 3991 
Q 1275 3744 1275 3334 
Q 1275 3109 1398 2989 
Q 1522 2869 2034 2731 
L 2413 2638 
Q 3053 2472 3303 2217 
Q 3553 1963 3553 1503 
Q 3553 797 2998 353 
Q 2444 -91 1538 -91 
Q 1166 -91 791 -17 
Q 416 56 38 206 
L 166 856 
Q 513 641 861 531 
Q 1209 422 1556 422 
Q 2147 422 2503 684 
Q 2859 947 2859 1369 
Q 2859 1650 2717 1795 
Q 2575 1941 2106 2059 
L 1728 2156 
Q 1081 2325 845 2545 
Q 609 2766 609 3163 
Q 609 3859 1145 4304 
Q 1681 4750 2541 4750 
Q 2875 4750 3203 4690 
Q 3531 4631 3859 4513 
z
" transform="scale(0.015625)"/>
      </defs>
      <use xlink:href="#DejaVuSans-Oblique-53" transform="translate(0 0.78125)"/>
     </g>
    </g>
   </g>
   <g id="matplotlib.axis_2">
    <g id="ytick_1">
     <g id="line2d_7">
      <defs>
       <path id="mc0336cd8dc" d="M 0 0 
L 3.5 0 
" style="stroke: #000000; stroke-width: 0.8"/>
      </defs>
      <g>
       <use xlink:href="#mc0336cd8dc" x="48.080625" y="349.535447" style="stroke: #000000; stroke-width: 0.8"/>
      </g>
     </g>
     <g id="text_8">
      <!-- 1 -->
      <g transform="translate(32.491875 356.753962) scale(0.19 -0.19)">
       <use xlink:href="#DejaVuSans-31"/>
      </g>
     </g>
    </g>
    <g id="ytick_2">
     <g id="line2d_8">
      <g>
       <use xlink:href="#mc0336cd8dc" x="48.080625" y="296.289293" style="stroke: #000000; stroke-width: 0.8"/>
      </g>
     </g>
     <g id="text_9">
      <!-- 2 -->
      <g transform="translate(32.491875 303.507809) scale(0.19 -0.19)">
       <use xlink:href="#DejaVuSans-32"/>
      </g>
     </g>
    </g>
    <g id="ytick_3">
     <g id="line2d_9">
      <g>
       <use xlink:href="#mc0336cd8dc" x="48.080625" y="243.043139" style="stroke: #000000; stroke-width: 0.8"/>
      </g>
     </g>
     <g id="text_10">
      <!-- 3 -->
      <g transform="translate(32.491875 250.261655) scale(0.19 -0.19)">
       <use xlink:href="#DejaVuSans-33"/>
      </g>
     </g>
    </g>
    <g id="ytick_4">
     <g id="line2d_10">
      <g>
       <use xlink:href="#mc0336cd8dc" x="48.080625" y="189.796986" style="stroke: #000000; stroke-width: 0.8"/>
      </g>
     </g>
     <g id="text_11">
      <!-- 4 -->
      <g transform="translate(32.491875 197.015501) scale(0.19 -0.19)">
       <use xlink:href="#DejaVuSans-34"/>
      </g>
     </g>
    </g>
    <g id="ytick_5">
     <g id="line2d_11">
      <g>
       <use xlink:href="#mc0336cd8dc" x="48.080625" y="136.550832" style="stroke: #000000; stroke-width: 0.8"/>
      </g>
     </g>
     <g id="text_12">
      <!-- 5 -->
      <g transform="translate(32.491875 143.769348) scale(0.19 -0.19)">
       <use xlink:href="#DejaVuSans-35"/>
      </g>
     </g>
    </g>
    <g id="ytick_6">
     <g id="line2d_12">
      <g>
       <use xlink:href="#mc0336cd8dc" x="48.080625" y="83.304678" style="stroke: #000000; stroke-width: 0.8"/>
      </g>
     </g>
     <g id="text_13">
      <!-- 6 -->
      <g transform="translate(32.491875 90.523194) scale(0.19 -0.19)">
       <defs>
        <path id="DejaVuSans-36" d="M 2113 2584 
Q 1688 2584 1439 2293 
Q 1191 2003 1191 1497 
Q 1191 994 1439 701 
Q 1688 409 2113 409 
Q 2538 409 2786 701 
Q 3034 994 3034 1497 
Q 3034 2003 2786 2293 
Q 2538 2584 2113 2584 
z
M 3366 4563 
L 3366 3988 
Q 3128 4100 2886 4159 
Q 2644 4219 2406 4219 
Q 1781 4219 1451 3797 
Q 1122 3375 1075 2522 
Q 1259 2794 1537 2939 
Q 1816 3084 2150 3084 
Q 2853 3084 3261 2657 
Q 3669 2231 3669 1497 
Q 3669 778 3244 343 
Q 2819 -91 2113 -91 
Q 1303 -91 875 529 
Q 447 1150 447 2328 
Q 447 3434 972 4092 
Q 1497 4750 2381 4750 
Q 2619 4750 2861 4703 
Q 3103 4656 3366 4563 
z
" transform="scale(0.015625)"/>
       </defs>
       <use xlink:href="#DejaVuSans-36"/>
      </g>
     </g>
    </g>
    <g id="ytick_7">
     <g id="line2d_13">
      <g>
       <use xlink:href="#mc0336cd8dc" x="48.080625" y="30.058525" style="stroke: #000000; stroke-width: 0.8"/>
      </g>
     </g>
     <g id="text_14">
      <!-- 7 -->
      <g transform="translate(32.491875 37.27704) scale(0.19 -0.19)">
       <defs>
        <path id="DejaVuSans-37" d="M 525 4666 
L 3525 4666 
L 3525 4397 
L 1831 0 
L 1172 0 
L 2766 4134 
L 525 4134 
L 525 4666 
z
" transform="scale(0.015625)"/>
       </defs>
       <use xlink:href="#DejaVuSans-37"/>
      </g>
     </g>
    </g>
    <g id="text_15">
     <!-- Speedup -->
     <g transform="translate(23.916563 237.29125) rotate(-90) scale(0.22 -0.22)">
      <defs>
       <path id="DejaVuSans-53" d="M 3425 4513 
L 3425 3897 
Q 3066 4069 2747 4153 
Q 2428 4238 2131 4238 
Q 1616 4238 1336 4038 
Q 1056 3838 1056 3469 
Q 1056 3159 1242 3001 
Q 1428 2844 1947 2747 
L 2328 2669 
Q 3034 2534 3370 2195 
Q 3706 1856 3706 1288 
Q 3706 609 3251 259 
Q 2797 -91 1919 -91 
Q 1588 -91 1214 -16 
Q 841 59 441 206 
L 441 856 
Q 825 641 1194 531 
Q 1563 422 1919 422 
Q 2459 422 2753 634 
Q 3047 847 3047 1241 
Q 3047 1584 2836 1778 
Q 2625 1972 2144 2069 
L 1759 2144 
Q 1053 2284 737 2584 
Q 422 2884 422 3419 
Q 422 4038 858 4394 
Q 1294 4750 2059 4750 
Q 2388 4750 2728 4690 
Q 3069 4631 3425 4513 
z
" transform="scale(0.015625)"/>
       <path id="DejaVuSans-70" d="M 1159 525 
L 1159 -1331 
L 581 -1331 
L 581 3500 
L 1159 3500 
L 1159 2969 
Q 1341 3281 1617 3432 
Q 1894 3584 2278 3584 
Q 2916 3584 3314 3078 
Q 3713 2572 3713 1747 
Q 3713 922 3314 415 
Q 2916 -91 2278 -91 
Q 1894 -91 1617 61 
Q 1341 213 1159 525 
z
M 3116 1747 
Q 3116 2381 2855 2742 
Q 2594 3103 2138 3103 
Q 1681 3103 1420 2742 
Q 1159 2381 1159 1747 
Q 1159 1113 1420 752 
Q 1681 391 2138 391 
Q 2594 391 2855 752 
Q 3116 1113 3116 1747 
z
" transform="scale(0.015625)"/>
       <path id="DejaVuSans-65" d="M 3597 1894 
L 3597 1613 
L 953 1613 
Q 991 1019 1311 708 
Q 1631 397 2203 397 
Q 2534 397 2845 478 
Q 3156 559 3463 722 
L 3463 178 
Q 3153 47 2828 -22 
Q 2503 -91 2169 -91 
Q 1331 -91 842 396 
Q 353 884 353 1716 
Q 353 2575 817 3079 
Q 1281 3584 2069 3584 
Q 2775 3584 3186 3129 
Q 3597 2675 3597 1894 
z
M 3022 2063 
Q 3016 2534 2758 2815 
Q 2500 3097 2075 3097 
Q 1594 3097 1305 2825 
Q 1016 2553 972 2059 
L 3022 2063 
z
" transform="scale(0.015625)"/>
       <path id="DejaVuSans-64" d="M 2906 2969 
L 2906 4863 
L 3481 4863 
L 3481 0 
L 2906 0 
L 2906 525 
Q 2725 213 2448 61 
Q 2172 -91 1784 -91 
Q 1150 -91 751 415 
Q 353 922 353 1747 
Q 353 2572 751 3078 
Q 1150 3584 1784 3584 
Q 2172 3584 2448 3432 
Q 2725 3281 2906 2969 
z
M 947 1747 
Q 947 1113 1208 752 
Q 1469 391 1925 391 
Q 2381 391 2643 752 
Q 2906 1113 2906 1747 
Q 2906 2381 2643 2742 
Q 2381 3103 1925 3103 
Q 1469 3103 1208 2742 
Q 947 2381 947 1747 
z
" transform="scale(0.015625)"/>
       <path id="DejaVuSans-75" d="M 544 1381 
L 544 3500 
L 1119 3500 
L 1119 1403 
Q 1119 906 1312 657 
Q 1506 409 1894 409 
Q 2359 409 2629 706 
Q 2900 1003 2900 1516 
L 2900 3500 
L 3475 3500 
L 3475 0 
L 2900 0 
L 2900 538 
Q 2691 219 2414 64 
Q 2138 -91 1772 -91 
Q 1169 -91 856 284 
Q 544 659 544 1381 
z
M 1991 3584 
L 1991 3584 
z
" transform="scale(0.015625)"/>
      </defs>
      <use xlink:href="#DejaVuSans-53"/>
      <use xlink:href="#DejaVuSans-70" x="63.476562"/>
      <use xlink:href="#DejaVuSans-65" x="126.953125"/>
      <use xlink:href="#DejaVuSans-65" x="188.476562"/>
      <use xlink:href="#DejaVuSans-64" x="250"/>
      <use xlink:href="#DejaVuSans-75" x="313.476562"/>
      <use xlink:href="#DejaVuSans-70" x="376.855469"/>
     </g>
    </g>
   </g>
   <g id="LineCollection_1">
    <path d="M 71.442443 350.918464 
L 71.442443 348.15243 
" clip-path="url(#pfe6df22c94)" style="fill: none; stroke: #0000ff; stroke-width: 3"/>
    <path d="M 118.16608 337.273824 
L 118.16608 332.191324 
" clip-path="url(#pfe6df22c94)" style="fill: none; stroke: #0000ff; stroke-width: 3"/>
    <path d="M 164.889716 319.962875 
L 164.889716 318.255272 
" clip-path="url(#pfe6df22c94)" style="fill: none; stroke: #0000ff; stroke-width: 3"/>
    <path d="M 211.613352 307.433837 
L 211.613352 307.433837 
" clip-path="url(#pfe6df22c94)" style="fill: none; stroke: #0000ff; stroke-width: 3"/>
    <path d="M 258.336989 293.495034 
L 258.336989 288.941427 
" clip-path="url(#pfe6df22c94)" style="fill: none; stroke: #0000ff; stroke-width: 3"/>
    <path d="M 351.784261 276.924537 
L 351.784261 264.125513 
" clip-path="url(#pfe6df22c94)" style="fill: none; stroke: #0000ff; stroke-width: 3"/>
    <path d="M 445.231534 264.535223 
L 445.231534 242.849517 
" clip-path="url(#pfe6df22c94)" style="fill: none; stroke: #0000ff; stroke-width: 3"/>
    <path d="M 538.678807 232.027525 
L 538.678807 224.603435 
" clip-path="url(#pfe6df22c94)" style="fill: none; stroke: #0000ff; stroke-width: 3"/>
   </g>
   <g id="LineCollection_2">
    <path d="M 71.442443 350.414096 
L 71.442443 348.656797 
" clip-path="url(#pfe6df22c94)" style="fill: none; stroke: #008000; stroke-width: 3"/>
    <path d="M 118.16608 342.136919 
L 118.16608 340.737426 
" clip-path="url(#pfe6df22c94)" style="fill: none; stroke: #008000; stroke-width: 3"/>
    <path d="M 164.889716 332.704698 
L 164.889716 328.162677 
" clip-path="url(#pfe6df22c94)" style="fill: none; stroke: #008000; stroke-width: 3"/>
    <path d="M 211.613352 316.987228 
L 211.613352 314.158842 
" clip-path="url(#pfe6df22c94)" style="fill: none; stroke: #008000; stroke-width: 3"/>
    <path d="M 258.336989 308.642506 
L 258.336989 290.079867 
" clip-path="url(#pfe6df22c94)" style="fill: none; stroke: #008000; stroke-width: 3"/>
    <path d="M 351.784261 268.344557 
L 351.784261 266.065963 
" clip-path="url(#pfe6df22c94)" style="fill: none; stroke: #008000; stroke-width: 3"/>
    <path d="M 445.231534 247.787846 
L 445.231534 238.298433 
" clip-path="url(#pfe6df22c94)" style="fill: none; stroke: #008000; stroke-width: 3"/>
    <path d="M 538.678807 255.730699 
L 538.678807 213.716156 
" clip-path="url(#pfe6df22c94)" style="fill: none; stroke: #008000; stroke-width: 3"/>
   </g>
   <g id="LineCollection_3">
    <path d="M 71.442443 353.986364 
L 71.442443 345.08453 
" clip-path="url(#pfe6df22c94)" style="fill: none; stroke: #ffa500; stroke-width: 3"/>
    <path d="M 118.16608 343.151555 
L 118.16608 331.125328 
" clip-path="url(#pfe6df22c94)" style="fill: none; stroke: #ffa500; stroke-width: 3"/>
    <path d="M 164.889716 335.343084 
L 164.889716 299.937863 
" clip-path="url(#pfe6df22c94)" style="fill: none; stroke: #ffa500; stroke-width: 3"/>
    <path d="M 211.613352 313.760162 
L 211.613352 298.56138 
" clip-path="url(#pfe6df22c94)" style="fill: none; stroke: #ffa500; stroke-width: 3"/>
    <path d="M 258.336989 299.211228 
L 258.336989 295.327339 
" clip-path="url(#pfe6df22c94)" style="fill: none; stroke: #ffa500; stroke-width: 3"/>
    <path d="M 351.784261 286.454546 
L 351.784261 241.713371 
" clip-path="url(#pfe6df22c94)" style="fill: none; stroke: #ffa500; stroke-width: 3"/>
    <path d="M 445.231534 273.47964 
L 445.231534 227.685196 
" clip-path="url(#pfe6df22c94)" style="fill: none; stroke: #ffa500; stroke-width: 3"/>
    <path d="M 538.678807 220.669304 
L 538.678807 194.018724 
" clip-path="url(#pfe6df22c94)" style="fill: none; stroke: #ffa500; stroke-width: 3"/>
   </g>
   <g id="LineCollection_4">
    <path d="M 71.442443 349.621466 
L 71.442443 349.449427 
" clip-path="url(#pfe6df22c94)" style="fill: none; stroke: #ff0000; stroke-width: 3"/>
    <path d="M 118.16608 319.559537 
L 118.16608 317.843618 
" clip-path="url(#pfe6df22c94)" style="fill: none; stroke: #ff0000; stroke-width: 3"/>
    <path d="M 164.889716 289.626327 
L 164.889716 273.588572 
" clip-path="url(#pfe6df22c94)" style="fill: none; stroke: #ff0000; stroke-width: 3"/>
    <path d="M 211.613352 270.287622 
L 211.613352 254.770309 
" clip-path="url(#pfe6df22c94)" style="fill: none; stroke: #ff0000; stroke-width: 3"/>
    <path d="M 258.336989 223.654594 
L 258.336989 223.654594 
" clip-path="url(#pfe6df22c94)" style="fill: none; stroke: #ff0000; stroke-width: 3"/>
    <path d="M 351.784261 187.019017 
L 351.784261 154.327717 
" clip-path="url(#pfe6df22c94)" style="fill: none; stroke: #ff0000; stroke-width: 3"/>
    <path d="M 445.231534 165.108126 
L 445.231534 129.457104 
" clip-path="url(#pfe6df22c94)" style="fill: none; stroke: #ff0000; stroke-width: 3"/>
    <path d="M 538.678807 80.912761 
L 538.678807 37.996916 
" clip-path="url(#pfe6df22c94)" style="fill: none; stroke: #ff0000; stroke-width: 3"/>
   </g>
   <g id="LineCollection_5">
    <path d="M 71.442443 351.129643 
L 71.442443 347.941251 
" clip-path="url(#pfe6df22c94)" style="fill: none; stroke: #800080; stroke-width: 3"/>
    <path d="M 118.16608 317.826025 
L 118.16608 317.281438 
" clip-path="url(#pfe6df22c94)" style="fill: none; stroke: #800080; stroke-width: 3"/>
    <path d="M 164.889716 294.341713 
L 164.889716 293.899101 
" clip-path="url(#pfe6df22c94)" style="fill: none; stroke: #800080; stroke-width: 3"/>
    <path d="M 211.613352 285.033343 
L 211.613352 257.060001 
" clip-path="url(#pfe6df22c94)" style="fill: none; stroke: #800080; stroke-width: 3"/>
    <path d="M 258.336989 247.023282 
L 258.336989 234.207724 
" clip-path="url(#pfe6df22c94)" style="fill: none; stroke: #800080; stroke-width: 3"/>
    <path d="M 351.784261 178.676323 
L 351.784261 170.881357 
" clip-path="url(#pfe6df22c94)" style="fill: none; stroke: #800080; stroke-width: 3"/>
    <path d="M 445.231534 99.90074 
L 445.231534 81.654905 
" clip-path="url(#pfe6df22c94)" style="fill: none; stroke: #800080; stroke-width: 3"/>
    <path d="M 538.678807 75.192002 
L 538.678807 23.713636 
" clip-path="url(#pfe6df22c94)" style="fill: none; stroke: #800080; stroke-width: 3"/>
   </g>
   <g id="line2d_14">
    <path d="M 71.442443 349.535447 
L 118.16608 322.91237 
L 164.889716 296.289293 
L 211.613352 269.666216 
L 258.336989 243.043139 
L 351.784261 189.796986 
L 445.231534 136.550832 
L 538.678807 83.304678 
" clip-path="url(#pfe6df22c94)" style="fill: none; stroke-dasharray: 18.5,8; stroke-dashoffset: 0; stroke: #000000; stroke-opacity: 0.75; stroke-width: 5"/>
   </g>
   <g id="line2d_15">
    <path d="M 71.442443 349.535447 
L 118.16608 336.223908 
L 164.889716 322.91237 
L 211.613352 309.600832 
L 258.336989 296.289293 
L 351.784261 269.666216 
L 445.231534 243.043139 
L 538.678807 216.420063 
" clip-path="url(#pfe6df22c94)" style="fill: none; stroke: #0000ff; stroke-opacity: 0.75; stroke-width: 5; stroke-linecap: square"/>
   </g>
   <g id="line2d_16">
    <defs>
     <path id="mf327250fb5" d="M 0 7.5 
C 1.989023 7.5 3.896849 6.709753 5.303301 5.303301 
C 6.709753 3.896849 7.5 1.989023 7.5 0 
C 7.5 -1.989023 6.709753 -3.896849 5.303301 -5.303301 
C 3.896849 -6.709753 1.989023 -7.5 0 -7.5 
C -1.989023 -7.5 -3.896849 -6.709753 -5.303301 -5.303301 
C -6.709753 -3.896849 -7.5 -1.989023 -7.5 0 
C -7.5 1.989023 -6.709753 3.896849 -5.303301 5.303301 
C -3.896849 6.709753 -1.989023 7.5 0 7.5 
z
" style="stroke: #0000ff"/>
    </defs>
    <g clip-path="url(#pfe6df22c94)">
     <use xlink:href="#mf327250fb5" x="71.442443" y="349.535447" style="fill: #0000ff; stroke: #0000ff"/>
     <use xlink:href="#mf327250fb5" x="118.16608" y="334.732574" style="fill: #0000ff; stroke: #0000ff"/>
     <use xlink:href="#mf327250fb5" x="164.889716" y="319.109073" style="fill: #0000ff; stroke: #0000ff"/>
     <use xlink:href="#mf327250fb5" x="211.613352" y="307.433837" style="fill: #0000ff; stroke: #0000ff"/>
     <use xlink:href="#mf327250fb5" x="258.336989" y="291.218231" style="fill: #0000ff; stroke: #0000ff"/>
     <use xlink:href="#mf327250fb5" x="351.784261" y="270.525025" style="fill: #0000ff; stroke: #0000ff"/>
     <use xlink:href="#mf327250fb5" x="445.231534" y="253.69237" style="fill: #0000ff; stroke: #0000ff"/>
     <use xlink:href="#mf327250fb5" x="538.678807" y="228.31548" style="fill: #0000ff; stroke: #0000ff"/>
    </g>
   </g>
   <g id="line2d_17">
    <defs>
     <path id="mbe8e6ddfef" d="M 0 -7.5 
L -7.5 7.5 
L 7.5 7.5 
z
" style="stroke: #008000; stroke-linejoin: miter"/>
    </defs>
    <g clip-path="url(#pfe6df22c94)">
     <use xlink:href="#mbe8e6ddfef" x="71.442443" y="349.535447" style="fill: #008000; stroke: #008000; stroke-linejoin: miter"/>
     <use xlink:href="#mbe8e6ddfef" x="118.16608" y="341.437172" style="fill: #008000; stroke: #008000; stroke-linejoin: miter"/>
     <use xlink:href="#mbe8e6ddfef" x="164.889716" y="330.433688" style="fill: #008000; stroke: #008000; stroke-linejoin: miter"/>
     <use xlink:href="#mbe8e6ddfef" x="211.613352" y="315.573035" style="fill: #008000; stroke: #008000; stroke-linejoin: miter"/>
     <use xlink:href="#mbe8e6ddfef" x="258.336989" y="299.361187" style="fill: #008000; stroke: #008000; stroke-linejoin: miter"/>
     <use xlink:href="#mbe8e6ddfef" x="351.784261" y="267.20526" style="fill: #008000; stroke: #008000; stroke-linejoin: miter"/>
     <use xlink:href="#mbe8e6ddfef" x="445.231534" y="243.043139" style="fill: #008000; stroke: #008000; stroke-linejoin: miter"/>
     <use xlink:href="#mbe8e6ddfef" x="538.678807" y="234.723428" style="fill: #008000; stroke: #008000; stroke-linejoin: miter"/>
    </g>
   </g>
   <g id="line2d_18">
    <defs>
     <path id="m252aa83c93" d="M -7.5 7.5 
L 7.5 7.5 
L 7.5 -7.5 
L -7.5 -7.5 
z
" style="stroke: #ffa500; stroke-linejoin: miter"/>
    </defs>
    <g clip-path="url(#pfe6df22c94)">
     <use xlink:href="#m252aa83c93" x="71.442443" y="349.535447" style="fill: #ffa500; stroke: #ffa500; stroke-linejoin: miter"/>
     <use xlink:href="#m252aa83c93" x="118.16608" y="337.138442" style="fill: #ffa500; stroke: #ffa500; stroke-linejoin: miter"/>
     <use xlink:href="#m252aa83c93" x="164.889716" y="317.640474" style="fill: #ffa500; stroke: #ffa500; stroke-linejoin: miter"/>
     <use xlink:href="#m252aa83c93" x="211.613352" y="306.160771" style="fill: #ffa500; stroke: #ffa500; stroke-linejoin: miter"/>
     <use xlink:href="#m252aa83c93" x="258.336989" y="297.269284" style="fill: #ffa500; stroke: #ffa500; stroke-linejoin: miter"/>
     <use xlink:href="#m252aa83c93" x="351.784261" y="264.083958" style="fill: #ffa500; stroke: #ffa500; stroke-linejoin: miter"/>
     <use xlink:href="#m252aa83c93" x="445.231534" y="250.582418" style="fill: #ffa500; stroke: #ffa500; stroke-linejoin: miter"/>
     <use xlink:href="#m252aa83c93" x="538.678807" y="207.344014" style="fill: #ffa500; stroke: #ffa500; stroke-linejoin: miter"/>
    </g>
   </g>
   <g id="line2d_19">
    <defs>
     <path id="mdf7ce4f1ef" d="M 0 -7.5 
L -7.132924 -2.317627 
L -4.408389 6.067627 
L 4.408389 6.067627 
L 7.132924 -2.317627 
z
" style="stroke: #ff0000; stroke-linejoin: miter"/>
    </defs>
    <g clip-path="url(#pfe6df22c94)">
     <use xlink:href="#mdf7ce4f1ef" x="71.442443" y="349.535447" style="fill: #ff0000; stroke: #ff0000; stroke-linejoin: miter"/>
     <use xlink:href="#mdf7ce4f1ef" x="118.16608" y="318.701577" style="fill: #ff0000; stroke: #ff0000; stroke-linejoin: miter"/>
     <use xlink:href="#mdf7ce4f1ef" x="164.889716" y="281.607449" style="fill: #ff0000; stroke: #ff0000; stroke-linejoin: miter"/>
     <use xlink:href="#mdf7ce4f1ef" x="211.613352" y="262.528966" style="fill: #ff0000; stroke: #ff0000; stroke-linejoin: miter"/>
     <use xlink:href="#mdf7ce4f1ef" x="258.336989" y="223.654594" style="fill: #ff0000; stroke: #ff0000; stroke-linejoin: miter"/>
     <use xlink:href="#mdf7ce4f1ef" x="351.784261" y="170.673367" style="fill: #ff0000; stroke: #ff0000; stroke-linejoin: miter"/>
     <use xlink:href="#mdf7ce4f1ef" x="445.231534" y="147.282615" style="fill: #ff0000; stroke: #ff0000; stroke-linejoin: miter"/>
     <use xlink:href="#mdf7ce4f1ef" x="538.678807" y="59.454839" style="fill: #ff0000; stroke: #ff0000; stroke-linejoin: miter"/>
    </g>
   </g>
   <g id="line2d_20">
    <defs>
     <path id="mc46cc00d61" d="M -0 7.5 
L 7.5 -7.5 
L -7.5 -7.5 
z
" style="stroke: #800080; stroke-linejoin: miter"/>
    </defs>
    <g clip-path="url(#pfe6df22c94)">
     <use xlink:href="#mc46cc00d61" x="71.442443" y="349.535447" style="fill: #800080; stroke: #800080; stroke-linejoin: miter"/>
     <use xlink:href="#mc46cc00d61" x="118.16608" y="317.553731" style="fill: #800080; stroke: #800080; stroke-linejoin: miter"/>
     <use xlink:href="#mc46cc00d61" x="164.889716" y="294.120407" style="fill: #800080; stroke: #800080; stroke-linejoin: miter"/>
     <use xlink:href="#mc46cc00d61" x="211.613352" y="271.046672" style="fill: #800080; stroke: #800080; stroke-linejoin: miter"/>
     <use xlink:href="#mc46cc00d61" x="258.336989" y="240.615503" style="fill: #800080; stroke: #800080; stroke-linejoin: miter"/>
     <use xlink:href="#mc46cc00d61" x="351.784261" y="174.77884" style="fill: #800080; stroke: #800080; stroke-linejoin: miter"/>
     <use xlink:href="#mc46cc00d61" x="445.231534" y="90.777823" style="fill: #800080; stroke: #800080; stroke-linejoin: miter"/>
     <use xlink:href="#mc46cc00d61" x="538.678807" y="49.452819" style="fill: #800080; stroke: #800080; stroke-linejoin: miter"/>
    </g>
   </g>
   <g id="patch_3">
    <path d="M 48.080625 370.5 
L 48.080625 7.2 
" style="fill: none; stroke: #000000; stroke-width: 0.8; stroke-linejoin: miter; stroke-linecap: square"/>
   </g>
   <g id="patch_4">
    <path d="M 562.040625 370.5 
L 562.040625 7.2 
" style="fill: none; stroke: #000000; stroke-width: 0.8; stroke-linejoin: miter; stroke-linecap: square"/>
   </g>
   <g id="patch_5">
    <path d="M 48.080625 370.5 
L 562.040625 370.5 
" style="fill: none; stroke: #000000; stroke-width: 0.8; stroke-linejoin: miter; stroke-linecap: square"/>
   </g>
   <g id="patch_6">
    <path d="M 48.080625 7.2 
L 562.040625 7.2 
" style="fill: none; stroke: #000000; stroke-width: 0.8; stroke-linejoin: miter; stroke-linecap: square"/>
   </g>
   <g id="legend_1">
    <g id="patch_7">
     <path d="M 59.980625 195.469688 
L 180.043125 195.469688 
Q 183.443125 195.469688 183.443125 192.069688 
L 183.443125 19.1 
Q 183.443125 15.7 180.043125 15.7 
L 59.980625 15.7 
Q 56.580625 15.7 56.580625 19.1 
L 56.580625 192.069688 
Q 56.580625 195.469688 59.980625 195.469688 
z
" style="fill: #ffffff; opacity: 0.8; stroke: #cccccc; stroke-linejoin: miter"/>
    </g>
    <g id="line2d_21">
     <g>
      <use xlink:href="#mf327250fb5" x="80.380625" y="29.467344" style="fill: #0000ff; stroke: #0000ff"/>
     </g>
    </g>
    <g id="text_16">
     <!-- $X_{\rm R} $ 0.0$\sigma$ -->
     <g transform="translate(110.980625 35.417344) scale(0.17 -0.17)">
      <defs>
       <path id="DejaVuSans-Oblique-58" d="M 878 4666 
L 1516 4666 
L 2316 2981 
L 3763 4666 
L 4500 4666 
L 2578 2438 
L 3738 0 
L 3103 0 
L 2163 1966 
L 459 0 
L -275 0 
L 1906 2509 
L 878 4666 
z
" transform="scale(0.015625)"/>
       <path id="DejaVuSans-52" d="M 2841 2188 
Q 3044 2119 3236 1894 
Q 3428 1669 3622 1275 
L 4263 0 
L 3584 0 
L 2988 1197 
Q 2756 1666 2539 1819 
Q 2322 1972 1947 1972 
L 1259 1972 
L 1259 0 
L 628 0 
L 628 4666 
L 2053 4666 
Q 2853 4666 3247 4331 
Q 3641 3997 3641 3322 
Q 3641 2881 3436 2590 
Q 3231 2300 2841 2188 
z
M 1259 4147 
L 1259 2491 
L 2053 2491 
Q 2509 2491 2742 2702 
Q 2975 2913 2975 3322 
Q 2975 3731 2742 3939 
Q 2509 4147 2053 4147 
L 1259 4147 
z
" transform="scale(0.015625)"/>
       <path id="DejaVuSans-20" transform="scale(0.015625)"/>
       <path id="DejaVuSans-2e" d="M 684 794 
L 1344 794 
L 1344 0 
L 684 0 
L 684 794 
z
" transform="scale(0.015625)"/>
       <path id="DejaVuSans-Oblique-3c3" d="M 2219 3044 
Q 1744 3044 1422 2700 
Q 1081 2341 969 1747 
Q 844 1119 1044 756 
Q 1241 397 1706 397 
Q 2166 397 2503 759 
Q 2844 1122 2966 1747 
Q 3075 2319 2881 2700 
Q 2700 3044 2219 3044 
z
M 2309 3503 
L 4219 3500 
L 4106 2925 
L 3463 2925 
Q 3706 2438 3575 1747 
Q 3406 888 2884 400 
Q 2359 -91 1609 -91 
Q 856 -91 525 400 
Q 194 888 363 1747 
Q 528 2609 1050 3097 
Q 1484 3503 2309 3503 
z
" transform="scale(0.015625)"/>
      </defs>
      <use xlink:href="#DejaVuSans-Oblique-58" transform="translate(0 0.78125)"/>
      <use xlink:href="#DejaVuSans-52" transform="translate(68.505859 -15.625) scale(0.7)"/>
      <use xlink:href="#DejaVuSans-20" transform="translate(119.87793 0.78125)"/>
      <use xlink:href="#DejaVuSans-30" transform="translate(151.665039 0.78125)"/>
      <use xlink:href="#DejaVuSans-2e" transform="translate(215.288086 0.78125)"/>
      <use xlink:href="#DejaVuSans-30" transform="translate(247.075195 0.78125)"/>
      <use xlink:href="#DejaVuSans-Oblique-3c3" transform="translate(310.698242 0.78125)"/>
     </g>
    </g>
    <g id="line2d_22">
     <g>
      <use xlink:href="#mbe8e6ddfef" x="80.380625" y="54.420156" style="fill: #008000; stroke: #008000; stroke-linejoin: miter"/>
     </g>
    </g>
    <g id="text_17">
     <!-- $X_{\rm R} $ 0.1$\sigma$ -->
     <g transform="translate(110.980625 60.370156) scale(0.17 -0.17)">
      <use xlink:href="#DejaVuSans-Oblique-58" transform="translate(0 0.78125)"/>
      <use xlink:href="#DejaVuSans-52" transform="translate(68.505859 -15.625) scale(0.7)"/>
      <use xlink:href="#DejaVuSans-20" transform="translate(119.87793 0.78125)"/>
      <use xlink:href="#DejaVuSans-30" transform="translate(151.665039 0.78125)"/>
      <use xlink:href="#DejaVuSans-2e" transform="translate(215.288086 0.78125)"/>
      <use xlink:href="#DejaVuSans-31" transform="translate(247.075195 0.78125)"/>
      <use xlink:href="#DejaVuSans-Oblique-3c3" transform="translate(310.698242 0.78125)"/>
     </g>
    </g>
    <g id="line2d_23">
     <g>
      <use xlink:href="#m252aa83c93" x="80.380625" y="79.372969" style="fill: #ffa500; stroke: #ffa500; stroke-linejoin: miter"/>
     </g>
    </g>
    <g id="text_18">
     <!-- $X_{\rm R} $ 0.3$\sigma$ -->
     <g transform="translate(110.980625 85.322969) scale(0.17 -0.17)">
      <use xlink:href="#DejaVuSans-Oblique-58" transform="translate(0 0.78125)"/>
      <use xlink:href="#DejaVuSans-52" transform="translate(68.505859 -15.625) scale(0.7)"/>
      <use xlink:href="#DejaVuSans-20" transform="translate(119.87793 0.78125)"/>
      <use xlink:href="#DejaVuSans-30" transform="translate(151.665039 0.78125)"/>
      <use xlink:href="#DejaVuSans-2e" transform="translate(215.288086 0.78125)"/>
      <use xlink:href="#DejaVuSans-33" transform="translate(247.075195 0.78125)"/>
      <use xlink:href="#DejaVuSans-Oblique-3c3" transform="translate(310.698242 0.78125)"/>
     </g>
    </g>
    <g id="line2d_24">
     <g>
      <use xlink:href="#mdf7ce4f1ef" x="80.380625" y="104.325781" style="fill: #ff0000; stroke: #ff0000; stroke-linejoin: miter"/>
     </g>
    </g>
    <g id="text_19">
     <!-- $X_{\rm R} $ 1.0$\sigma$ -->
     <g transform="translate(110.980625 110.275781) scale(0.17 -0.17)">
      <use xlink:href="#DejaVuSans-Oblique-58" transform="translate(0 0.78125)"/>
      <use xlink:href="#DejaVuSans-52" transform="translate(68.505859 -15.625) scale(0.7)"/>
      <use xlink:href="#DejaVuSans-20" transform="translate(119.87793 0.78125)"/>
      <use xlink:href="#DejaVuSans-31" transform="translate(151.665039 0.78125)"/>
      <use xlink:href="#DejaVuSans-2e" transform="translate(215.288086 0.78125)"/>
      <use xlink:href="#DejaVuSans-30" transform="translate(247.075195 0.78125)"/>
      <use xlink:href="#DejaVuSans-Oblique-3c3" transform="translate(310.698242 0.78125)"/>
     </g>
    </g>
    <g id="line2d_25">
     <g>
      <use xlink:href="#mc46cc00d61" x="80.380625" y="129.278594" style="fill: #800080; stroke: #800080; stroke-linejoin: miter"/>
     </g>
    </g>
    <g id="text_20">
     <!-- $X_{\rm R} $ 3.0$\sigma$ -->
     <g transform="translate(110.980625 135.228594) scale(0.17 -0.17)">
      <use xlink:href="#DejaVuSans-Oblique-58" transform="translate(0 0.78125)"/>
      <use xlink:href="#DejaVuSans-52" transform="translate(68.505859 -15.625) scale(0.7)"/>
      <use xlink:href="#DejaVuSans-20" transform="translate(119.87793 0.78125)"/>
      <use xlink:href="#DejaVuSans-33" transform="translate(151.665039 0.78125)"/>
      <use xlink:href="#DejaVuSans-2e" transform="translate(215.288086 0.78125)"/>
      <use xlink:href="#DejaVuSans-30" transform="translate(247.075195 0.78125)"/>
      <use xlink:href="#DejaVuSans-Oblique-3c3" transform="translate(310.698242 0.78125)"/>
     </g>
    </g>
    <g id="line2d_26">
     <path d="M 63.380625 154.231406 
L 80.380625 154.231406 
L 97.380625 154.231406 
" style="fill: none; stroke-dasharray: 11.1,4.8; stroke-dashoffset: 0; stroke: #000000; stroke-width: 3"/>
    </g>
    <g id="text_21">
     <!-- S+1 -->
     <g transform="translate(110.980625 160.181406) scale(0.17 -0.17)">
      <defs>
       <path id="DejaVuSans-2b" d="M 2944 4013 
L 2944 2272 
L 4684 2272 
L 4684 1741 
L 2944 1741 
L 2944 0 
L 2419 0 
L 2419 1741 
L 678 1741 
L 678 2272 
L 2419 2272 
L 2419 4013 
L 2944 4013 
z
" transform="scale(0.015625)"/>
      </defs>
      <use xlink:href="#DejaVuSans-53"/>
      <use xlink:href="#DejaVuSans-2b" x="63.476562"/>
      <use xlink:href="#DejaVuSans-31" x="147.265625"/>
     </g>
    </g>
    <g id="line2d_27">
     <path d="M 63.380625 179.184219 
L 80.380625 179.184219 
L 97.380625 179.184219 
" style="fill: none; stroke: #0000ff; stroke-width: 3; stroke-linecap: square"/>
    </g>
    <g id="text_22">
     <!-- (S+2)/2 -->
     <g transform="translate(110.980625 185.134219) scale(0.17 -0.17)">
      <defs>
       <path id="DejaVuSans-28" d="M 1984 4856 
Q 1566 4138 1362 3434 
Q 1159 2731 1159 2009 
Q 1159 1288 1364 580 
Q 1569 -128 1984 -844 
L 1484 -844 
Q 1016 -109 783 600 
Q 550 1309 550 2009 
Q 550 2706 781 3412 
Q 1013 4119 1484 4856 
L 1984 4856 
z
" transform="scale(0.015625)"/>
       <path id="DejaVuSans-29" d="M 513 4856 
L 1013 4856 
Q 1481 4119 1714 3412 
Q 1947 2706 1947 2009 
Q 1947 1309 1714 600 
Q 1481 -109 1013 -844 
L 513 -844 
Q 928 -128 1133 580 
Q 1338 1288 1338 2009 
Q 1338 2731 1133 3434 
Q 928 4138 513 4856 
z
" transform="scale(0.015625)"/>
       <path id="DejaVuSans-2f" d="M 1625 4666 
L 2156 4666 
L 531 -594 
L 0 -594 
L 1625 4666 
z
" transform="scale(0.015625)"/>
      </defs>
      <use xlink:href="#DejaVuSans-28"/>
      <use xlink:href="#DejaVuSans-53" x="39.013672"/>
      <use xlink:href="#DejaVuSans-2b" x="102.490234"/>
      <use xlink:href="#DejaVuSans-32" x="186.279297"/>
      <use xlink:href="#DejaVuSans-29" x="249.902344"/>
      <use xlink:href="#DejaVuSans-2f" x="288.916016"/>
      <use xlink:href="#DejaVuSans-32" x="322.607422"/>
     </g>
    </g>
   </g>
  </g>
 </g>
 <defs>
  <clipPath id="pfe6df22c94">
   <rect x="48.080625" y="7.2" width="513.96" height="363.3"/>
  </clipPath>
 </defs>
</svg>
