<?xml version="1.0" encoding="utf-8" standalone="no"?>
<!DOCTYPE svg PUBLIC "-//W3C//DTD SVG 1.1//EN"
  "http://www.w3.org/Graphics/SVG/1.1/DTD/svg11.dtd">
<svg xmlns:xlink="http://www.w3.org/1999/xlink" width="1432.8pt" height="352.8pt" viewBox="0 0 1432.8 352.8" xmlns="http://www.w3.org/2000/svg" version="1.1">
 <metadata>
  <rdf:RDF xmlns:dc="http://purl.org/dc/elements/1.1/" xmlns:cc="http://creativecommons.org/ns#" xmlns:rdf="http://www.w3.org/1999/02/22-rdf-syntax-ns#">
   <cc:Work>
    <dc:type rdf:resource="http://purl.org/dc/dcmitype/StillImage"/>
    <dc:date>2025-11-23T19:12:31.446743</dc:date>
    <dc:format>image/svg+xml</dc:format>
    <dc:creator>
     <cc:Agent>
      <dc:title>Matplotlib v3.9.2, https://matplotlib.org/</dc:title>
     </cc:Agent>
    </dc:creator>
   </cc:Work>
  </rdf:RDF>
 </metadata>
 <defs>
  <style type="text/css">*{stroke-linejoin: round; stroke-linecap: butt}</style>
 </defs>
 <g id="figure_1">
  <g id="patch_1">
   <path d="M 0 352.8 
L 1432.8 352.8 
L 1432.8 0 
L 0 0 
z
" style="fill: #ffffff"/>
  </g>
  <g id="axes_1">
   <g id="patch_2">
    <path d="M 7.2 345.6 
L 472.8 345.6 
L 472.8 7.2 
L 7.2 7.2 
z
" style="fill: #ffffff"/>
   </g>
   <g id="PolyCollection_1">
    <path d="M -4.949496 345.6 
L -4.949496 345.6 
L -2.550546 345.6 
L -0.151595 345.6 
L 2.247336 345.6 
L 4.646268 345.6 
L 7.045218 345.6 
L 9.44415 345.6 
L 11.843082 345.6 
L 14.242032 345.6 
L 16.640982 345.6 
L 19.039895 345.6 
L 21.438845 345.6 
L 23.837796 345.6 
L 26.236709 345.6 
L 28.635659 345.6 
L 31.034609 345.6 
L 33.433522 345.6 
L 35.832473 345.6 
L 38.231423 345.6 
L 40.630354 345.6 
L 43.029286 345.6 
L 45.428236 345.6 
L 47.827187 345.6 
L 50.2261 345.6 
L 52.62505 345.6 
L 55.024 345.6 
L 57.422913 345.6 
L 59.821864 345.6 
L 62.220814 345.6 
L 64.619727 345.6 
L 67.018677 345.6 
L 69.417627 345.6 
L 71.816541 345.6 
L 74.215491 345.6 
L 76.614441 345.6 
L 79.013391 345.6 
L 81.412304 345.6 
L 83.811255 345.6 
L 86.210186 345.6 
L 88.609136 345.6 
L 91.008068 345.6 
L 93.407 345.6 
L 95.80595 345.6 
L 98.204882 345.6 
L 100.603823 345.6 
L 103.002764 345.6 
L 105.401695 345.6 
L 107.800645 345.6 
L 110.199577 345.6 
L 112.598518 345.6 
L 114.997459 345.6 
L 117.396391 345.6 
L 119.795341 345.6 
L 122.194273 345.6 
L 124.593204 345.6 
L 126.992155 345.6 
L 129.391086 345.6 
L 131.790027 345.6 
L 134.188968 345.6 
L 136.5879 345.6 
L 138.98685 345.6 
L 141.385782 345.6 
L 143.784713 345.6 
L 146.183664 345.6 
L 148.582595 345.6 
L 150.981536 345.6 
L 153.380477 345.6 
L 155.779418 345.6 
L 158.17835 345.6 
L 160.577291 345.6 
L 162.976232 345.6 
L 165.375173 345.6 
L 167.774114 345.6 
L 170.173045 345.6 
L 172.571986 345.6 
L 174.970927 345.6 
L 177.369859 345.6 
L 179.7688 345.6 
L 182.167741 345.6 
L 184.566682 345.6 
L 186.965623 345.6 
L 189.364554 345.6 
L 191.763495 345.6 
L 194.162436 345.6 
L 196.561377 345.6 
L 198.960318 345.6 
L 201.35925 345.6 
L 203.758191 345.6 
L 206.157132 345.6 
L 208.556063 345.6 
L 210.955004 345.6 
L 213.353945 345.6 
L 215.752886 345.6 
L 218.151827 345.6 
L 220.550759 345.6 
L 222.9497 345.6 
L 225.348641 345.6 
L 227.747582 345.6 
L 230.146523 345.6 
L 232.545454 345.6 
L 234.944395 345.6 
L 237.343336 345.6 
L 239.742268 -2781.963593 
L 242.141209 345.6 
L 244.54015 345.6 
L 246.939091 345.6 
L 249.338032 345.6 
L 251.736963 345.6 
L 254.135904 345.6 
L 256.534845 345.6 
L 258.933777 345.6 
L 261.332718 345.6 
L 263.731659 345.6 
L 266.1306 345.6 
L 268.529541 345.6 
L 270.928472 345.6 
L 273.327413 345.6 
L 275.726354 345.6 
L 278.125295 345.6 
L 280.524236 345.6 
L 282.923168 345.6 
L 285.322109 345.6 
L 287.72105 345.6 
L 290.119981 345.6 
L 292.518922 345.6 
L 294.917863 345.6 
L 297.316804 345.6 
L 299.715745 345.6 
L 302.114677 345.6 
L 304.513618 345.6 
L 306.912568 345.6 
L 309.3115 345.6 
L 311.710431 345.6 
L 314.109382 345.6 
L 316.508313 345.6 
L 318.907245 345.6 
L 321.306195 345.6 
L 323.705127 345.6 
L 326.104059 345.6 
L 328.503009 345.6 
L 330.901941 345.6 
L 333.300872 345.6 
L 335.699822 345.6 
L 338.098773 345.6 
L 340.497704 345.6 
L 342.896636 345.6 
L 345.295586 345.6 
L 347.694518 345.6 
L 350.09345 345.6 
L 352.4924 345.6 
L 354.891331 345.6 
L 357.290263 345.6 
L 359.689213 345.6 
L 362.088145 345.6 
L 364.487077 345.6 
L 366.886027 345.6 
L 369.284977 345.6 
L 371.683909 345.6 
L 374.082841 345.6 
L 376.481791 345.6 
L 378.880722 345.6 
L 381.279654 345.6 
L 383.678604 345.6 
L 386.077536 345.6 
L 388.476468 345.6 
L 390.875418 345.6 
L 393.27435 345.6 
L 395.673281 345.6 
L 398.072231 345.6 
L 400.471182 345.6 
L 402.870113 345.6 
L 405.269045 345.6 
L 407.667995 345.6 
L 410.066927 345.6 
L 412.465859 345.6 
L 414.864809 345.6 
L 417.263741 345.6 
L 419.662672 345.6 
L 422.061622 345.6 
L 424.460554 345.6 
L 426.859486 345.6 
L 429.258436 345.6 
L 431.657386 345.6 
L 434.056318 345.6 
L 436.45525 345.6 
L 438.8542 345.6 
L 441.253131 345.6 
L 443.652063 345.6 
L 446.051013 345.6 
L 448.449945 345.6 
L 450.848877 345.6 
L 453.247827 345.6 
L 455.646759 345.6 
L 458.04569 345.6 
L 460.444641 345.6 
L 462.843591 345.6 
L 465.242522 345.6 
L 467.641454 345.6 
L 470.040404 345.6 
L 472.439336 345.6 
L 474.838268 345.6 
L 474.838268 345.6 
L 474.838268 345.6 
L 472.439336 345.6 
L 470.040404 345.6 
L 467.641454 345.6 
L 465.242522 345.6 
L 462.843591 345.6 
L 460.444641 345.6 
L 458.04569 345.6 
L 455.646759 345.6 
L 453.247827 345.6 
L 450.848877 345.6 
L 448.449945 345.6 
L 446.051013 345.6 
L 443.652063 345.6 
L 441.253131 345.6 
L 438.8542 345.6 
L 436.45525 345.6 
L 434.056318 345.6 
L 431.657386 345.6 
L 429.258436 345.6 
L 426.859486 345.6 
L 424.460554 345.6 
L 422.061622 345.6 
L 419.662672 345.6 
L 417.263741 345.6 
L 414.864809 345.6 
L 412.465859 345.6 
L 410.066927 345.6 
L 407.667995 345.6 
L 405.269045 345.6 
L 402.870113 345.6 
L 400.471182 345.6 
L 398.072231 345.6 
L 395.673281 345.6 
L 393.27435 345.6 
L 390.875418 345.6 
L 388.476468 345.6 
L 386.077536 345.6 
L 383.678604 345.6 
L 381.279654 345.6 
L 378.880722 345.6 
L 376.481791 345.6 
L 374.082841 345.6 
L 371.683909 345.6 
L 369.284977 345.6 
L 366.886027 345.6 
L 364.487077 345.6 
L 362.088145 345.6 
L 359.689213 345.6 
L 357.290263 345.6 
L 354.891331 345.6 
L 352.4924 345.6 
L 350.09345 345.6 
L 347.694518 345.6 
L 345.295586 345.6 
L 342.896636 345.6 
L 340.497704 345.6 
L 338.098773 345.6 
L 335.699822 345.6 
L 333.300872 345.6 
L 330.901941 345.6 
L 328.503009 345.6 
L 326.104059 345.6 
L 323.705127 345.6 
L 321.306195 345.6 
L 318.907245 345.6 
L 316.508313 345.6 
L 314.109382 345.6 
L 311.710431 345.6 
L 309.3115 345.6 
L 306.912568 345.6 
L 304.513618 345.6 
L 302.114677 345.6 
L 299.715745 345.6 
L 297.316804 345.6 
L 294.917863 345.6 
L 292.518922 345.6 
L 290.119981 345.6 
L 287.72105 345.6 
L 285.322109 345.6 
L 282.923168 345.6 
L 280.524236 345.6 
L 278.125295 345.6 
L 275.726354 345.6 
L 273.327413 345.6 
L 270.928472 345.6 
L 268.529541 345.6 
L 266.1306 345.6 
L 263.731659 345.6 
L 261.332718 345.6 
L 258.933777 345.6 
L 256.534845 345.6 
L 254.135904 345.6 
L 251.736963 345.6 
L 249.338032 345.6 
L 246.939091 345.6 
L 244.54015 345.6 
L 242.141209 345.6 
L 239.742268 345.6 
L 237.343336 345.6 
L 234.944395 345.6 
L 232.545454 345.6 
L 230.146523 345.6 
L 227.747582 345.6 
L 225.348641 345.6 
L 222.9497 345.6 
L 220.550759 345.6 
L 218.151827 345.6 
L 215.752886 345.6 
L 213.353945 345.6 
L 210.955004 345.6 
L 208.556063 345.6 
L 206.157132 345.6 
L 203.758191 345.6 
L 201.35925 345.6 
L 198.960318 345.6 
L 196.561377 345.6 
L 194.162436 345.6 
L 191.763495 345.6 
L 189.364554 345.6 
L 186.965623 345.6 
L 184.566682 345.6 
L 182.167741 345.6 
L 179.7688 345.6 
L 177.369859 345.6 
L 174.970927 345.6 
L 172.571986 345.6 
L 170.173045 345.6 
L 167.774114 345.6 
L 165.375173 345.6 
L 162.976232 345.6 
L 160.577291 345.6 
L 158.17835 345.6 
L 155.779418 345.6 
L 153.380477 345.6 
L 150.981536 345.6 
L 148.582595 345.6 
L 146.183664 345.6 
L 143.784713 345.6 
L 141.385782 345.6 
L 138.98685 345.6 
L 136.5879 345.6 
L 134.188968 345.6 
L 131.790027 345.6 
L 129.391086 345.6 
L 126.992155 345.6 
L 124.593204 345.6 
L 122.194273 345.6 
L 119.795341 345.6 
L 117.396391 345.6 
L 114.997459 345.6 
L 112.598518 345.6 
L 110.199577 345.6 
L 107.800645 345.6 
L 105.401695 345.6 
L 103.002764 345.6 
L 100.603823 345.6 
L 98.204882 345.6 
L 95.80595 345.6 
L 93.407 345.6 
L 91.008068 345.6 
L 88.609136 345.6 
L 86.210186 345.6 
L 83.811255 345.6 
L 81.412304 345.6 
L 79.013391 345.6 
L 76.614441 345.6 
L 74.215491 345.6 
L 71.816541 345.6 
L 69.417627 345.6 
L 67.018677 345.6 
L 64.619727 345.6 
L 62.220814 345.6 
L 59.821864 345.6 
L 57.422913 345.6 
L 55.024 345.6 
L 52.62505 345.6 
L 50.2261 345.6 
L 47.827187 345.6 
L 45.428236 345.6 
L 43.029286 345.6 
L 40.630354 345.6 
L 38.231423 345.6 
L 35.832473 345.6 
L 33.433522 345.6 
L 31.034609 345.6 
L 28.635659 345.6 
L 26.236709 345.6 
L 23.837796 345.6 
L 21.438845 345.6 
L 19.039895 345.6 
L 16.640982 345.6 
L 14.242032 345.6 
L 11.843082 345.6 
L 9.44415 345.6 
L 7.045218 345.6 
L 4.646268 345.6 
L 2.247336 345.6 
L -0.151595 345.6 
L -2.550546 345.6 
L -4.949496 345.6 
z
" clip-path="url(#p4edabb5ae0)" style="fill: #990066; fill-opacity: 0.3; stroke: #990066; stroke-opacity: 0.3"/>
   </g>
   <g id="line2d_1">
    <path d="M 93.075371 -1 
L 98.626627 24.696754 
L 104.219419 49.584679 
L 109.812212 73.468157 
L 115.405005 96.347191 
L 120.997798 118.221779 
L 125.969169 136.822619 
L 130.940541 154.629824 
L 135.911912 171.643392 
L 140.883283 187.863325 
L 145.854655 203.289622 
L 150.826026 217.922283 
L 155.175976 230.074832 
L 159.525926 241.619753 
L 163.875876 252.557047 
L 168.225826 262.886714 
L 172.575776 272.608753 
L 176.925726 281.723165 
L 180.654254 289.051896 
L 184.382783 295.934207 
L 188.111311 302.370097 
L 191.83984 308.359568 
L 195.568368 313.902618 
L 199.296897 318.999248 
L 202.404004 322.905425 
L 205.511111 326.501587 
L 208.618218 329.787736 
L 211.725325 332.76387 
L 214.832432 335.429991 
L 217.93954 337.786097 
L 221.046647 339.832189 
L 224.153754 341.568268 
L 227.260861 342.994332 
L 229.746547 343.911974 
L 232.232232 344.631206 
L 234.717918 345.15203 
L 237.203604 345.474444 
L 239.689289 345.59845 
L 242.174975 345.524047 
L 244.660661 345.251234 
L 247.146346 344.780013 
L 249.632032 344.110383 
L 252.117718 343.242344 
L 254.603403 342.175895 
L 257.089089 340.911038 
L 260.196196 339.050954 
L 263.303303 336.880856 
L 266.41041 334.400744 
L 269.517518 331.610618 
L 272.624625 328.510478 
L 275.731732 325.100324 
L 278.838839 321.380156 
L 281.945946 317.349974 
L 285.674474 312.104537 
L 289.403003 306.41268 
L 293.131532 300.274403 
L 296.86006 293.689705 
L 300.588589 286.658588 
L 304.317117 279.18105 
L 308.045646 271.257092 
L 312.395596 261.448249 
L 316.745546 251.031778 
L 321.095495 240.00768 
L 325.445445 228.375955 
L 329.795395 216.136602 
L 334.145345 203.289622 
L 339.116717 187.863325 
L 344.088088 171.643392 
L 349.059459 154.629824 
L 354.030831 136.822619 
L 359.002202 118.221779 
L 363.973574 98.827303 
L 369.566366 76.059875 
L 375.159159 52.288001 
L 380.751952 27.511682 
L 386.344745 1.730917 
L 386.924629 -1 
L 386.924629 -1 
" clip-path="url(#p4edabb5ae0)" style="fill: none; stroke: #ffa500; stroke-width: 13; stroke-linecap: square"/>
   </g>
   <g id="matplotlib.axis_1"/>
   <g id="matplotlib.axis_2"/>
   <g id="line2d_2">
    <path d="M -1 345.6 
L 237.343336 345.6 
L 237.609188 -1 
M 241.875356 -1 
L 242.141209 345.6 
L 474.838268 345.6 
L 474.838268 345.6 
" clip-path="url(#p4edabb5ae0)" style="fill: none; stroke: #990066; stroke-width: 13; stroke-linecap: square"/>
   </g>
   <g id="patch_3">
    <path d="M 240 345.6 
L 240 7.2 
" style="fill: none; stroke-dasharray: 22.2,9.6; stroke-dashoffset: 0; stroke: #000000; stroke-width: 6; stroke-linejoin: miter; stroke-linecap: square"/>
   </g>
   <g id="patch_4">
    <path d="M 7.2 345.6 
L 472.8 345.6 
" style="fill: none; stroke: #000000; stroke-width: 6; stroke-linejoin: miter; stroke-linecap: square"/>
   </g>
  </g>
  <g id="axes_2">
   <g id="patch_5">
    <path d="M 483.6 345.6 
L 949.2 345.6 
L 949.2 7.2 
L 483.6 7.2 
z
" style="fill: #ffffff"/>
   </g>
   <g id="PolyCollection_2">
    <defs>
     <path id="m29b7fc1e47" d="M 471.450504 -7.2 
L 471.450504 -7.2 
L 473.849454 -7.2 
L 476.248405 -7.2 
L 478.647336 -7.2 
L 481.046268 -7.2 
L 483.445218 -7.2 
L 485.84415 -7.2 
L 488.243082 -7.2 
L 490.642032 -7.2 
L 493.040982 -7.2 
L 495.439895 -7.2 
L 497.838845 -7.2 
L 500.237796 -7.2 
L 502.636709 -7.2 
L 505.035659 -7.2 
L 507.434609 -7.2 
L 509.833522 -7.2 
L 512.232473 -7.2 
L 514.631423 -7.2 
L 517.030354 -7.2 
L 519.429286 -7.2 
L 521.828236 -7.2 
L 524.227187 -7.2 
L 526.6261 -7.2 
L 529.02505 -7.2 
L 531.424 -7.2 
L 533.822913 -7.2 
L 536.221864 -7.2 
L 538.620814 -7.2 
L 541.019727 -7.2 
L 543.418677 -7.2 
L 545.817627 -7.2 
L 548.216541 -7.2 
L 550.615491 -7.2 
L 553.014441 -7.2 
L 555.413391 -7.2 
L 557.812304 -7.2 
L 560.211255 -7.2 
L 562.610186 -7.2 
L 565.009136 -7.2 
L 567.408068 -7.2 
L 569.807 -7.2 
L 572.20595 -7.2 
L 574.604882 -7.2 
L 577.003823 -7.2 
L 579.402764 -7.2 
L 581.801695 -7.2 
L 584.200645 -7.2 
L 586.599577 -7.2 
L 588.998518 -7.2 
L 591.397459 -7.2 
L 593.796391 -7.2 
L 596.195341 -7.2 
L 598.594273 -7.2 
L 600.993204 -7.2 
L 603.392155 -7.2 
L 605.791086 -7.2 
L 608.190027 -7.2 
L 610.588968 -7.2 
L 612.9879 -7.2 
L 615.38685 -7.2 
L 617.785782 -7.2 
L 620.184713 -7.2 
L 622.583664 -7.2 
L 624.982595 -7.2 
L 627.381536 -7.2 
L 629.780477 -7.2 
L 632.179418 -7.2 
L 634.57835 -7.2 
L 636.977291 -7.2 
L 639.376232 -7.2 
L 641.775173 -7.2 
L 644.174114 -7.2 
L 646.573045 -7.262551 
L 648.971986 -7.231275 
L 651.370927 -7.293827 
L 653.769859 -7.325103 
L 656.1688 -7.2 
L 658.567741 -7.450205 
L 660.966682 -8.044436 
L 663.365623 -8.325923 
L 665.764554 -8.732506 
L 668.163495 -9.889684 
L 670.562436 -10.796698 
L 672.961377 -11.171975 
L 675.360318 -14.518499 
L 677.75925 -17.833716 
L 680.158191 -21.055 
L 682.557132 -25.40242 
L 684.956063 -35.254245 
L 687.355004 -43.26053 
L 689.753945 -50.391653 
L 692.152886 -58.491647 
L 694.551827 -75.662367 
L 696.950759 -89.173442 
L 699.3497 -109.720744 
L 701.748641 -121.700103 
L 704.147582 -139.776398 
L 706.546523 -159.011937 
L 708.945454 -172.929595 
L 711.344395 -192.19396 
L 713.743336 -224.159086 
L 716.142268 -232.697335 
L 718.541209 -213.930359 
L 720.94015 -192.070284 
L 723.339091 -178.964468 
L 725.738032 -160.356789 
L 728.136963 -141.435029 
L 730.535904 -126.202877 
L 732.934845 -110.847457 
L 735.333777 -89.986608 
L 737.732718 -81.197584 
L 740.131659 -64.653343 
L 742.5306 -53.143555 
L 744.929541 -42.072334 
L 747.328472 -36.786752 
L 749.727413 -26.496919 
L 752.126354 -19.147293 
L 754.525295 -14.862472 
L 756.924236 -14.58105 
L 759.323168 -11.484762 
L 761.722109 -10.108612 
L 764.12105 -10.046083 
L 766.519981 -9.451846 
L 768.918922 -9.013973 
L 771.317863 -7.70041 
L 773.716804 -7.387652 
L 776.115745 -7.2 
L 778.514677 -7.231276 
L 780.913618 -7.325102 
L 783.312568 -7.418928 
L 785.7115 -7.293828 
L 788.110431 -7.2 
L 790.509382 -7.2 
L 792.908313 -7.2 
L 795.307245 -7.2 
L 797.706195 -7.2 
L 800.105127 -7.2 
L 802.504059 -7.2 
L 804.903009 -7.2 
L 807.301941 -7.2 
L 809.700872 -7.2 
L 812.099822 -7.2 
L 814.498773 -7.2 
L 816.897704 -7.2 
L 819.296636 -7.2 
L 821.695586 -7.2 
L 824.094518 -7.2 
L 826.49345 -7.2 
L 828.8924 -7.2 
L 831.291331 -7.2 
L 833.690263 -7.2 
L 836.089213 -7.2 
L 838.488145 -7.2 
L 840.887077 -7.2 
L 843.286027 -7.2 
L 845.684977 -7.2 
L 848.083909 -7.2 
L 850.482841 -7.2 
L 852.881791 -7.2 
L 855.280722 -7.2 
L 857.679654 -7.2 
L 860.078604 -7.2 
L 862.477536 -7.2 
L 864.876468 -7.2 
L 867.275418 -7.2 
L 869.67435 -7.2 
L 872.073281 -7.2 
L 874.472231 -7.2 
L 876.871182 -7.2 
L 879.270113 -7.2 
L 881.669045 -7.2 
L 884.067995 -7.2 
L 886.466927 -7.2 
L 888.865859 -7.2 
L 891.264809 -7.2 
L 893.663741 -7.2 
L 896.062672 -7.2 
L 898.461622 -7.2 
L 900.860554 -7.2 
L 903.259486 -7.2 
L 905.658436 -7.2 
L 908.057386 -7.2 
L 910.456318 -7.2 
L 912.85525 -7.2 
L 915.2542 -7.2 
L 917.653131 -7.2 
L 920.052063 -7.2 
L 922.451013 -7.2 
L 924.849945 -7.2 
L 927.248877 -7.2 
L 929.647827 -7.2 
L 932.046759 -7.2 
L 934.44569 -7.2 
L 936.844641 -7.2 
L 939.243591 -7.2 
L 941.642522 -7.2 
L 944.041454 -7.2 
L 946.440404 -7.2 
L 948.839336 -7.2 
L 951.238268 -7.2 
L 951.238268 -7.2 
L 951.238268 -7.2 
L 948.839336 -7.2 
L 946.440404 -7.2 
L 944.041454 -7.2 
L 941.642522 -7.2 
L 939.243591 -7.2 
L 936.844641 -7.2 
L 934.44569 -7.2 
L 932.046759 -7.2 
L 929.647827 -7.2 
L 927.248877 -7.2 
L 924.849945 -7.2 
L 922.451013 -7.2 
L 920.052063 -7.2 
L 917.653131 -7.2 
L 915.2542 -7.2 
L 912.85525 -7.2 
L 910.456318 -7.2 
L 908.057386 -7.2 
L 905.658436 -7.2 
L 903.259486 -7.2 
L 900.860554 -7.2 
L 898.461622 -7.2 
L 896.062672 -7.2 
L 893.663741 -7.2 
L 891.264809 -7.2 
L 888.865859 -7.2 
L 886.466927 -7.2 
L 884.067995 -7.2 
L 881.669045 -7.2 
L 879.270113 -7.2 
L 876.871182 -7.2 
L 874.472231 -7.2 
L 872.073281 -7.2 
L 869.67435 -7.2 
L 867.275418 -7.2 
L 864.876468 -7.2 
L 862.477536 -7.2 
L 860.078604 -7.2 
L 857.679654 -7.2 
L 855.280722 -7.2 
L 852.881791 -7.2 
L 850.482841 -7.2 
L 848.083909 -7.2 
L 845.684977 -7.2 
L 843.286027 -7.2 
L 840.887077 -7.2 
L 838.488145 -7.2 
L 836.089213 -7.2 
L 833.690263 -7.2 
L 831.291331 -7.2 
L 828.8924 -7.2 
L 826.49345 -7.2 
L 824.094518 -7.2 
L 821.695586 -7.2 
L 819.296636 -7.2 
L 816.897704 -7.2 
L 814.498773 -7.2 
L 812.099822 -7.2 
L 809.700872 -7.2 
L 807.301941 -7.2 
L 804.903009 -7.2 
L 802.504059 -7.2 
L 800.105127 -7.2 
L 797.706195 -7.2 
L 795.307245 -7.2 
L 792.908313 -7.2 
L 790.509382 -7.2 
L 788.110431 -7.2 
L 785.7115 -7.2 
L 783.312568 -7.2 
L 780.913618 -7.2 
L 778.514677 -7.2 
L 776.115745 -7.2 
L 773.716804 -7.2 
L 771.317863 -7.2 
L 768.918922 -7.2 
L 766.519981 -7.2 
L 764.12105 -7.2 
L 761.722109 -7.2 
L 759.323168 -7.2 
L 756.924236 -7.2 
L 754.525295 -7.2 
L 752.126354 -7.2 
L 749.727413 -7.2 
L 747.328472 -7.2 
L 744.929541 -7.2 
L 742.5306 -7.2 
L 740.131659 -7.2 
L 737.732718 -7.2 
L 735.333777 -7.2 
L 732.934845 -7.2 
L 730.535904 -7.2 
L 728.136963 -7.2 
L 725.738032 -7.2 
L 723.339091 -7.2 
L 720.94015 -7.2 
L 718.541209 -7.2 
L 716.142268 -7.2 
L 713.743336 -7.2 
L 711.344395 -7.2 
L 708.945454 -7.2 
L 706.546523 -7.2 
L 704.147582 -7.2 
L 701.748641 -7.2 
L 699.3497 -7.2 
L 696.950759 -7.2 
L 694.551827 -7.2 
L 692.152886 -7.2 
L 689.753945 -7.2 
L 687.355004 -7.2 
L 684.956063 -7.2 
L 682.557132 -7.2 
L 680.158191 -7.2 
L 677.75925 -7.2 
L 675.360318 -7.2 
L 672.961377 -7.2 
L 670.562436 -7.2 
L 668.163495 -7.2 
L 665.764554 -7.2 
L 663.365623 -7.2 
L 660.966682 -7.2 
L 658.567741 -7.2 
L 656.1688 -7.2 
L 653.769859 -7.2 
L 651.370927 -7.2 
L 648.971986 -7.2 
L 646.573045 -7.2 
L 644.174114 -7.2 
L 641.775173 -7.2 
L 639.376232 -7.2 
L 636.977291 -7.2 
L 634.57835 -7.2 
L 632.179418 -7.2 
L 629.780477 -7.2 
L 627.381536 -7.2 
L 624.982595 -7.2 
L 622.583664 -7.2 
L 620.184713 -7.2 
L 617.785782 -7.2 
L 615.38685 -7.2 
L 612.9879 -7.2 
L 610.588968 -7.2 
L 608.190027 -7.2 
L 605.791086 -7.2 
L 603.392155 -7.2 
L 600.993204 -7.2 
L 598.594273 -7.2 
L 596.195341 -7.2 
L 593.796391 -7.2 
L 591.397459 -7.2 
L 588.998518 -7.2 
L 586.599577 -7.2 
L 584.200645 -7.2 
L 581.801695 -7.2 
L 579.402764 -7.2 
L 577.003823 -7.2 
L 574.604882 -7.2 
L 572.20595 -7.2 
L 569.807 -7.2 
L 567.408068 -7.2 
L 565.009136 -7.2 
L 562.610186 -7.2 
L 560.211255 -7.2 
L 557.812304 -7.2 
L 555.413391 -7.2 
L 553.014441 -7.2 
L 550.615491 -7.2 
L 548.216541 -7.2 
L 545.817627 -7.2 
L 543.418677 -7.2 
L 541.019727 -7.2 
L 538.620814 -7.2 
L 536.221864 -7.2 
L 533.822913 -7.2 
L 531.424 -7.2 
L 529.02505 -7.2 
L 526.6261 -7.2 
L 524.227187 -7.2 
L 521.828236 -7.2 
L 519.429286 -7.2 
L 517.030354 -7.2 
L 514.631423 -7.2 
L 512.232473 -7.2 
L 509.833522 -7.2 
L 507.434609 -7.2 
L 505.035659 -7.2 
L 502.636709 -7.2 
L 500.237796 -7.2 
L 497.838845 -7.2 
L 495.439895 -7.2 
L 493.040982 -7.2 
L 490.642032 -7.2 
L 488.243082 -7.2 
L 485.84415 -7.2 
L 483.445218 -7.2 
L 481.046268 -7.2 
L 478.647336 -7.2 
L 476.248405 -7.2 
L 473.849454 -7.2 
L 471.450504 -7.2 
z
" style="stroke: #990066; stroke-opacity: 0.3"/>
    </defs>
    <g clip-path="url(#pca74aad7c7)">
     <use xlink:href="#m29b7fc1e47" x="0" y="352.8" style="fill: #990066; fill-opacity: 0.3; stroke: #990066; stroke-opacity: 0.3"/>
    </g>
   </g>
   <g id="line2d_3">
    <path d="M 569.475371 -1 
L 575.026627 24.696754 
L 580.619419 49.584679 
L 586.212212 73.468157 
L 591.805005 96.347191 
L 597.397798 118.221779 
L 602.369169 136.822619 
L 607.340541 154.629824 
L 612.311912 171.643392 
L 617.283283 187.863325 
L 622.254655 203.289622 
L 627.226026 217.922283 
L 631.575976 230.074832 
L 635.925926 241.619753 
L 640.275876 252.557047 
L 644.625826 262.886714 
L 648.975776 272.608753 
L 653.325726 281.723165 
L 657.054254 289.051896 
L 660.782783 295.934207 
L 664.511311 302.370097 
L 668.23984 308.359568 
L 671.968368 313.902618 
L 675.696897 318.999248 
L 678.804004 322.905425 
L 681.911111 326.501587 
L 685.018218 329.787736 
L 688.125325 332.76387 
L 691.232432 335.429991 
L 694.33954 337.786097 
L 697.446647 339.832189 
L 700.553754 341.568268 
L 703.660861 342.994332 
L 706.146547 343.911974 
L 708.632232 344.631206 
L 711.117918 345.15203 
L 713.603604 345.474444 
L 716.089289 345.59845 
L 718.574975 345.524047 
L 721.060661 345.251234 
L 723.546346 344.780013 
L 726.032032 344.110383 
L 728.517718 343.242344 
L 731.003403 342.175895 
L 733.489089 340.911038 
L 736.596196 339.050954 
L 739.703303 336.880856 
L 742.81041 334.400744 
L 745.917518 331.610618 
L 749.024625 328.510478 
L 752.131732 325.100324 
L 755.238839 321.380156 
L 758.345946 317.349974 
L 762.074474 312.104537 
L 765.803003 306.41268 
L 769.531532 300.274403 
L 773.26006 293.689705 
L 776.988589 286.658588 
L 780.717117 279.18105 
L 784.445646 271.257092 
L 788.795596 261.448249 
L 793.145546 251.031778 
L 797.495495 240.00768 
L 801.845445 228.375955 
L 806.195395 216.136602 
L 810.545345 203.289622 
L 815.516717 187.863325 
L 820.488088 171.643392 
L 825.459459 154.629824 
L 830.430831 136.822619 
L 835.402202 118.221779 
L 840.373574 98.827303 
L 845.966366 76.059875 
L 851.559159 52.288001 
L 857.151952 27.511682 
L 862.744745 1.730917 
L 863.324629 -1 
L 863.324629 -1 
" clip-path="url(#pca74aad7c7)" style="fill: none; stroke: #ffa500; stroke-width: 13; stroke-linecap: square"/>
   </g>
   <g id="matplotlib.axis_3"/>
   <g id="matplotlib.axis_4"/>
   <g id="line2d_4">
    <path d="M 471.450504 345.6 
L 651.370927 345.506173 
L 653.769859 345.474897 
L 656.1688 345.6 
L 658.567741 345.349795 
L 660.966682 344.755564 
L 663.365623 344.474077 
L 665.764554 344.067494 
L 668.163495 342.910316 
L 670.562436 342.003302 
L 672.961377 341.628025 
L 680.158191 331.745 
L 682.557132 327.39758 
L 684.956063 317.545755 
L 687.355004 309.53947 
L 689.753945 302.408347 
L 692.152886 294.308353 
L 694.551827 277.137633 
L 696.950759 263.626558 
L 699.3497 243.079256 
L 701.748641 231.099897 
L 704.147582 213.023602 
L 706.546523 193.788063 
L 708.945454 179.870405 
L 711.344395 160.60604 
L 713.743336 128.640914 
L 716.142268 120.102665 
L 718.541209 138.869641 
L 720.94015 160.729716 
L 723.339091 173.835532 
L 728.136963 211.364971 
L 732.934845 241.952543 
L 735.333777 262.813392 
L 737.732718 271.602416 
L 740.131659 288.146657 
L 744.929541 310.727666 
L 747.328472 316.013248 
L 749.727413 326.303081 
L 752.126354 333.652707 
L 754.525295 337.937528 
L 756.924236 338.21895 
L 759.323168 341.315238 
L 761.722109 342.691388 
L 764.12105 342.753917 
L 766.519981 343.348154 
L 768.918922 343.786027 
L 771.317863 345.09959 
L 773.716804 345.412348 
L 776.115745 345.6 
L 780.913618 345.474898 
L 783.312568 345.381072 
L 788.110431 345.6 
L 951.238268 345.6 
L 951.238268 345.6 
" clip-path="url(#pca74aad7c7)" style="fill: none; stroke: #990066; stroke-width: 13; stroke-linecap: square"/>
   </g>
   <g id="patch_6">
    <path d="M 716.4 345.6 
L 716.4 7.2 
" style="fill: none; stroke-dasharray: 22.2,9.6; stroke-dashoffset: 0; stroke: #000000; stroke-width: 6; stroke-linejoin: miter; stroke-linecap: square"/>
   </g>
   <g id="patch_7">
    <path d="M 483.6 345.6 
L 949.2 345.6 
" style="fill: none; stroke: #000000; stroke-width: 6; stroke-linejoin: miter; stroke-linecap: square"/>
   </g>
  </g>
  <g id="axes_3">
   <g id="patch_8">
    <path d="M 960 345.6 
L 1425.6 345.6 
L 1425.6 7.2 
L 960 7.2 
z
" style="fill: #ffffff"/>
   </g>
   <g id="PolyCollection_3">
    <defs>
     <path id="m22bcbd205d" d="M 947.850504 -7.2 
L 947.850504 -7.2 
L 950.249454 -7.2 
L 952.648405 -7.2 
L 955.047336 -7.2 
L 957.446268 -7.2 
L 959.845218 -7.2 
L 962.24415 -7.2 
L 964.643082 -7.2 
L 967.042032 -7.2 
L 969.440982 -7.2 
L 971.839895 -7.2 
L 974.238845 -7.2 
L 976.637796 -7.2 
L 979.036709 -7.2 
L 981.435659 -7.2 
L 983.834609 -7.2 
L 986.233522 -7.2 
L 988.632473 -7.2 
L 991.031423 -7.2 
L 993.430354 -7.2 
L 995.829286 -7.2 
L 998.228236 -7.2 
L 1000.627187 -7.2 
L 1003.0261 -7.2 
L 1005.42505 -7.2 
L 1007.824 -7.2 
L 1010.222913 -7.2 
L 1012.621864 -7.2 
L 1015.020814 -7.2 
L 1017.419727 -7.201251 
L 1019.818677 -7.202815 
L 1022.217627 -7.207193 
L 1024.616541 -7.211572 
L 1027.015491 -7.207819 
L 1029.414441 -7.20907 
L 1031.813391 -7.206255 
L 1034.212304 -7.204066 
L 1036.611255 -7.20344 
L 1039.010186 -7.203753 
L 1041.409136 -7.20907 
L 1043.808068 -7.218765 
L 1046.207 -7.215325 
L 1048.60595 -7.226897 
L 1051.004882 -7.237218 
L 1053.403823 -7.254732 
L 1055.802764 -7.270057 
L 1058.201695 -7.299143 
L 1060.600645 -7.336048 
L 1062.999577 -7.364509 
L 1065.398518 -7.377958 
L 1067.797459 -7.425496 
L 1070.196391 -7.468657 
L 1072.595341 -7.507438 
L 1074.994273 -7.534649 
L 1077.393204 -7.589067 
L 1079.792155 -7.673511 
L 1082.191086 -7.775469 
L 1084.590027 -7.86836 
L 1086.988968 -7.92872 
L 1089.3879 -8.050381 
L 1091.78685 -8.159846 
L 1094.185782 -8.332178 
L 1096.584713 -8.478543 
L 1098.983664 -8.467909 
L 1101.382595 -8.693406 
L 1103.781536 -9.092489 
L 1106.180477 -9.374891 
L 1108.579418 -9.68266 
L 1110.97835 -10.150231 
L 1113.377291 -10.434189 
L 1115.776232 -10.922426 
L 1118.175173 -11.435939 
L 1120.574114 -11.99174 
L 1122.973045 -12.688561 
L 1125.371986 -13.651176 
L 1127.770927 -14.776836 
L 1130.169859 -15.750133 
L 1132.5688 -17.017034 
L 1134.967741 -18.318176 
L 1137.366682 -19.643229 
L 1139.765623 -21.40946 
L 1142.164554 -23.321652 
L 1144.563495 -25.57148 
L 1146.962436 -28.018627 
L 1149.361377 -30.908938 
L 1151.760318 -33.697657 
L 1154.15925 -36.625369 
L 1156.558191 -40.029469 
L 1158.957132 -44.048954 
L 1161.356063 -48.192038 
L 1163.755004 -53.289924 
L 1166.153945 -59.136008 
L 1168.552886 -65.509533 
L 1170.951827 -72.528548 
L 1173.350759 -80.615177 
L 1175.7497 -88.92761 
L 1178.148641 -98.281532 
L 1180.547582 -109.153408 
L 1182.946523 -120.750575 
L 1185.345454 -133.548565 
L 1187.744395 -148.315207 
L 1190.143336 -163.748945 
L 1192.542268 -181.155713 
L 1194.941209 -164.846129 
L 1197.34015 -149.767172 
L 1199.739091 -135.594878 
L 1202.138032 -122.9014 
L 1204.536963 -111.019473 
L 1206.935904 -101.278577 
L 1209.334845 -91.879723 
L 1211.733777 -83.255153 
L 1214.132718 -74.749849 
L 1216.531659 -66.978999 
L 1218.9306 -60.395381 
L 1221.329541 -54.866571 
L 1223.728472 -49.604445 
L 1226.127413 -45.15144 
L 1228.526354 -40.765951 
L 1230.925295 -36.430922 
L 1233.324236 -32.692145 
L 1235.723168 -29.820104 
L 1238.122109 -26.944469 
L 1240.52105 -24.610521 
L 1242.919981 -22.632337 
L 1245.318922 -20.923018 
L 1247.717863 -19.521662 
L 1250.116804 -18.180166 
L 1252.515745 -16.927036 
L 1254.914677 -15.499928 
L 1257.313618 -14.58975 
L 1259.712568 -13.658369 
L 1262.1115 -12.783682 
L 1264.510431 -12.113677 
L 1266.909382 -11.549782 
L 1269.308313 -11.038801 
L 1271.707245 -10.555537 
L 1274.106195 -10.22089 
L 1276.505127 -9.666103 
L 1278.904059 -9.31578 
L 1281.303009 -9.159403 
L 1283.701941 -8.862 
L 1286.100872 -8.627096 
L 1288.499822 -8.470407 
L 1290.898773 -8.340926 
L 1293.297704 -8.140466 
L 1295.696636 -7.964683 
L 1298.095586 -7.840833 
L 1300.494518 -7.776414 
L 1302.89345 -7.69853 
L 1305.2924 -7.681016 
L 1307.691331 -7.620348 
L 1310.090263 -7.534647 
L 1312.489213 -7.471158 
L 1314.888145 -7.438009 
L 1317.287077 -7.387652 
L 1319.686027 -7.364821 
L 1322.084977 -7.373891 
L 1324.483909 -7.356692 
L 1326.882841 -7.324476 
L 1329.281791 -7.315406 
L 1331.680722 -7.303523 
L 1334.079654 -7.276937 
L 1336.478604 -7.25911 
L 1338.877536 -7.262552 
L 1341.276468 -7.249102 
L 1343.675418 -7.232839 
L 1346.07435 -7.233152 
L 1348.473281 -7.241909 
L 1350.872231 -7.226584 
L 1353.271182 -7.210321 
L 1355.670113 -7.204379 
L 1358.069045 -7.205317 
L 1360.467995 -7.20344 
L 1362.866927 -7.205942 
L 1365.265859 -7.204691 
L 1367.664809 -7.210008 
L 1370.063741 -7.207193 
L 1372.462672 -7.203753 
L 1374.861622 -7.200313 
L 1377.260554 -7.2 
L 1379.659486 -7.2 
L 1382.058436 -7.2 
L 1384.457386 -7.2 
L 1386.856318 -7.2 
L 1389.25525 -7.2 
L 1391.6542 -7.2 
L 1394.053131 -7.2 
L 1396.452063 -7.2 
L 1398.851013 -7.2 
L 1401.249945 -7.2 
L 1403.648877 -7.2 
L 1406.047827 -7.2 
L 1408.446759 -7.2 
L 1410.84569 -7.2 
L 1413.244641 -7.2 
L 1415.643591 -7.2 
L 1418.042522 -7.2 
L 1420.441454 -7.2 
L 1422.840404 -7.2 
L 1425.239336 -7.2 
L 1427.638268 -7.2 
L 1427.638268 -7.2 
L 1427.638268 -7.2 
L 1425.239336 -7.2 
L 1422.840404 -7.2 
L 1420.441454 -7.2 
L 1418.042522 -7.2 
L 1415.643591 -7.2 
L 1413.244641 -7.2 
L 1410.84569 -7.2 
L 1408.446759 -7.2 
L 1406.047827 -7.2 
L 1403.648877 -7.2 
L 1401.249945 -7.2 
L 1398.851013 -7.2 
L 1396.452063 -7.2 
L 1394.053131 -7.2 
L 1391.6542 -7.2 
L 1389.25525 -7.2 
L 1386.856318 -7.2 
L 1384.457386 -7.2 
L 1382.058436 -7.2 
L 1379.659486 -7.2 
L 1377.260554 -7.2 
L 1374.861622 -7.2 
L 1372.462672 -7.2 
L 1370.063741 -7.2 
L 1367.664809 -7.2 
L 1365.265859 -7.2 
L 1362.866927 -7.2 
L 1360.467995 -7.2 
L 1358.069045 -7.2 
L 1355.670113 -7.2 
L 1353.271182 -7.2 
L 1350.872231 -7.2 
L 1348.473281 -7.2 
L 1346.07435 -7.2 
L 1343.675418 -7.2 
L 1341.276468 -7.2 
L 1338.877536 -7.2 
L 1336.478604 -7.2 
L 1334.079654 -7.2 
L 1331.680722 -7.2 
L 1329.281791 -7.2 
L 1326.882841 -7.2 
L 1324.483909 -7.2 
L 1322.084977 -7.2 
L 1319.686027 -7.2 
L 1317.287077 -7.2 
L 1314.888145 -7.2 
L 1312.489213 -7.2 
L 1310.090263 -7.2 
L 1307.691331 -7.2 
L 1305.2924 -7.2 
L 1302.89345 -7.2 
L 1300.494518 -7.2 
L 1298.095586 -7.2 
L 1295.696636 -7.2 
L 1293.297704 -7.2 
L 1290.898773 -7.2 
L 1288.499822 -7.2 
L 1286.100872 -7.2 
L 1283.701941 -7.2 
L 1281.303009 -7.2 
L 1278.904059 -7.2 
L 1276.505127 -7.2 
L 1274.106195 -7.2 
L 1271.707245 -7.2 
L 1269.308313 -7.2 
L 1266.909382 -7.2 
L 1264.510431 -7.2 
L 1262.1115 -7.2 
L 1259.712568 -7.2 
L 1257.313618 -7.2 
L 1254.914677 -7.2 
L 1252.515745 -7.2 
L 1250.116804 -7.2 
L 1247.717863 -7.2 
L 1245.318922 -7.2 
L 1242.919981 -7.2 
L 1240.52105 -7.2 
L 1238.122109 -7.2 
L 1235.723168 -7.2 
L 1233.324236 -7.2 
L 1230.925295 -7.2 
L 1228.526354 -7.2 
L 1226.127413 -7.2 
L 1223.728472 -7.2 
L 1221.329541 -7.2 
L 1218.9306 -7.2 
L 1216.531659 -7.2 
L 1214.132718 -7.2 
L 1211.733777 -7.2 
L 1209.334845 -7.2 
L 1206.935904 -7.2 
L 1204.536963 -7.2 
L 1202.138032 -7.2 
L 1199.739091 -7.2 
L 1197.34015 -7.2 
L 1194.941209 -7.2 
L 1192.542268 -7.2 
L 1190.143336 -7.2 
L 1187.744395 -7.2 
L 1185.345454 -7.2 
L 1182.946523 -7.2 
L 1180.547582 -7.2 
L 1178.148641 -7.2 
L 1175.7497 -7.2 
L 1173.350759 -7.2 
L 1170.951827 -7.2 
L 1168.552886 -7.2 
L 1166.153945 -7.2 
L 1163.755004 -7.2 
L 1161.356063 -7.2 
L 1158.957132 -7.2 
L 1156.558191 -7.2 
L 1154.15925 -7.2 
L 1151.760318 -7.2 
L 1149.361377 -7.2 
L 1146.962436 -7.2 
L 1144.563495 -7.2 
L 1142.164554 -7.2 
L 1139.765623 -7.2 
L 1137.366682 -7.2 
L 1134.967741 -7.2 
L 1132.5688 -7.2 
L 1130.169859 -7.2 
L 1127.770927 -7.2 
L 1125.371986 -7.2 
L 1122.973045 -7.2 
L 1120.574114 -7.2 
L 1118.175173 -7.2 
L 1115.776232 -7.2 
L 1113.377291 -7.2 
L 1110.97835 -7.2 
L 1108.579418 -7.2 
L 1106.180477 -7.2 
L 1103.781536 -7.2 
L 1101.382595 -7.2 
L 1098.983664 -7.2 
L 1096.584713 -7.2 
L 1094.185782 -7.2 
L 1091.78685 -7.2 
L 1089.3879 -7.2 
L 1086.988968 -7.2 
L 1084.590027 -7.2 
L 1082.191086 -7.2 
L 1079.792155 -7.2 
L 1077.393204 -7.2 
L 1074.994273 -7.2 
L 1072.595341 -7.2 
L 1070.196391 -7.2 
L 1067.797459 -7.2 
L 1065.398518 -7.2 
L 1062.999577 -7.2 
L 1060.600645 -7.2 
L 1058.201695 -7.2 
L 1055.802764 -7.2 
L 1053.403823 -7.2 
L 1051.004882 -7.2 
L 1048.60595 -7.2 
L 1046.207 -7.2 
L 1043.808068 -7.2 
L 1041.409136 -7.2 
L 1039.010186 -7.2 
L 1036.611255 -7.2 
L 1034.212304 -7.2 
L 1031.813391 -7.2 
L 1029.414441 -7.2 
L 1027.015491 -7.2 
L 1024.616541 -7.2 
L 1022.217627 -7.2 
L 1019.818677 -7.2 
L 1017.419727 -7.2 
L 1015.020814 -7.2 
L 1012.621864 -7.2 
L 1010.222913 -7.2 
L 1007.824 -7.2 
L 1005.42505 -7.2 
L 1003.0261 -7.2 
L 1000.627187 -7.2 
L 998.228236 -7.2 
L 995.829286 -7.2 
L 993.430354 -7.2 
L 991.031423 -7.2 
L 988.632473 -7.2 
L 986.233522 -7.2 
L 983.834609 -7.2 
L 981.435659 -7.2 
L 979.036709 -7.2 
L 976.637796 -7.2 
L 974.238845 -7.2 
L 971.839895 -7.2 
L 969.440982 -7.2 
L 967.042032 -7.2 
L 964.643082 -7.2 
L 962.24415 -7.2 
L 959.845218 -7.2 
L 957.446268 -7.2 
L 955.047336 -7.2 
L 952.648405 -7.2 
L 950.249454 -7.2 
L 947.850504 -7.2 
z
" style="stroke: #990066; stroke-opacity: 0.3"/>
    </defs>
    <g clip-path="url(#p9fd62458ed)">
     <use xlink:href="#m22bcbd205d" x="0" y="352.8" style="fill: #990066; fill-opacity: 0.3; stroke: #990066; stroke-opacity: 0.3"/>
    </g>
   </g>
   <g id="line2d_5">
    <path d="M 1045.875371 -1 
L 1051.426627 24.696754 
L 1057.019419 49.584679 
L 1062.612212 73.468157 
L 1068.205005 96.347191 
L 1073.797798 118.221779 
L 1078.769169 136.822619 
L 1083.740541 154.629824 
L 1088.711912 171.643392 
L 1093.683283 187.863325 
L 1098.654655 203.289622 
L 1103.626026 217.922283 
L 1107.975976 230.074832 
L 1112.325926 241.619753 
L 1116.675876 252.557047 
L 1121.025826 262.886714 
L 1125.375776 272.608753 
L 1129.725726 281.723165 
L 1133.454254 289.051896 
L 1137.182783 295.934207 
L 1140.911311 302.370097 
L 1144.63984 308.359568 
L 1148.368368 313.902618 
L 1152.096897 318.999248 
L 1155.204004 322.905425 
L 1158.311111 326.501587 
L 1161.418218 329.787736 
L 1164.525325 332.76387 
L 1167.632432 335.429991 
L 1170.73954 337.786097 
L 1173.846647 339.832189 
L 1176.953754 341.568268 
L 1180.060861 342.994332 
L 1182.546547 343.911974 
L 1185.032232 344.631206 
L 1187.517918 345.15203 
L 1190.003604 345.474444 
L 1192.489289 345.59845 
L 1194.974975 345.524047 
L 1197.460661 345.251234 
L 1199.946346 344.780013 
L 1202.432032 344.110383 
L 1204.917718 343.242344 
L 1207.403403 342.175895 
L 1209.889089 340.911038 
L 1212.996196 339.050954 
L 1216.103303 336.880856 
L 1219.21041 334.400744 
L 1222.317518 331.610618 
L 1225.424625 328.510478 
L 1228.531732 325.100324 
L 1231.638839 321.380156 
L 1234.745946 317.349974 
L 1238.474474 312.104537 
L 1242.203003 306.41268 
L 1245.931532 300.274403 
L 1249.66006 293.689705 
L 1253.388589 286.658588 
L 1257.117117 279.18105 
L 1260.845646 271.257092 
L 1265.195596 261.448249 
L 1269.545546 251.031778 
L 1273.895495 240.00768 
L 1278.245445 228.375955 
L 1282.595395 216.136602 
L 1286.945345 203.289622 
L 1291.916717 187.863325 
L 1296.888088 171.643392 
L 1301.859459 154.629824 
L 1306.830831 136.822619 
L 1311.802202 118.221779 
L 1316.773574 98.827303 
L 1322.366366 76.059875 
L 1327.959159 52.288001 
L 1333.551952 27.511682 
L 1339.144745 1.730917 
L 1339.724629 -1 
L 1339.724629 -1 
" clip-path="url(#p9fd62458ed)" style="fill: none; stroke: #ffa500; stroke-width: 13; stroke-linecap: square"/>
   </g>
   <g id="matplotlib.axis_5"/>
   <g id="matplotlib.axis_6"/>
   <g id="line2d_6">
    <path d="M 947.850504 345.6 
L 1058.201695 345.500857 
L 1082.191086 345.024531 
L 1094.185782 344.467822 
L 1096.584713 344.321457 
L 1098.983664 344.332091 
L 1101.382595 344.106594 
L 1103.781536 343.707511 
L 1108.579418 343.11734 
L 1110.97835 342.649769 
L 1113.377291 342.365811 
L 1120.574114 340.80826 
L 1122.973045 340.111439 
L 1125.371986 339.148824 
L 1127.770927 338.023164 
L 1130.169859 337.049867 
L 1137.366682 333.156771 
L 1139.765623 331.39054 
L 1142.164554 329.478348 
L 1144.563495 327.22852 
L 1146.962436 324.781373 
L 1154.15925 316.174631 
L 1156.558191 312.770531 
L 1161.356063 304.607962 
L 1163.755004 299.510076 
L 1166.153945 293.663992 
L 1168.552886 287.290467 
L 1170.951827 280.271452 
L 1175.7497 263.87239 
L 1178.148641 254.518468 
L 1180.547582 243.646592 
L 1182.946523 232.049425 
L 1185.345454 219.251435 
L 1190.143336 189.051055 
L 1192.542268 171.644287 
L 1194.941209 187.953871 
L 1197.34015 203.032828 
L 1199.739091 217.205122 
L 1202.138032 229.8986 
L 1204.536963 241.780527 
L 1209.334845 260.920277 
L 1214.132718 278.050151 
L 1216.531659 285.821001 
L 1218.9306 292.404619 
L 1223.728472 303.195555 
L 1230.925295 316.369078 
L 1233.324236 320.107855 
L 1238.122109 325.855531 
L 1240.52105 328.189479 
L 1242.919981 330.167663 
L 1245.318922 331.876982 
L 1250.116804 334.619834 
L 1252.515745 335.872964 
L 1254.914677 337.300072 
L 1262.1115 340.016318 
L 1266.909382 341.250218 
L 1271.707245 342.244463 
L 1274.106195 342.57911 
L 1276.505127 343.133897 
L 1278.904059 343.48422 
L 1281.303009 343.640597 
L 1286.100872 344.172904 
L 1300.494518 345.023586 
L 1312.489213 345.328842 
L 1334.079654 345.523063 
L 1358.069045 345.594683 
L 1427.638268 345.6 
L 1427.638268 345.6 
" clip-path="url(#p9fd62458ed)" style="fill: none; stroke: #990066; stroke-width: 13; stroke-linecap: square"/>
   </g>
   <g id="patch_9">
    <path d="M 1192.8 345.6 
L 1192.8 7.2 
" style="fill: none; stroke-dasharray: 22.2,9.6; stroke-dashoffset: 0; stroke: #000000; stroke-width: 6; stroke-linejoin: miter; stroke-linecap: square"/>
   </g>
   <g id="patch_10">
    <path d="M 960 345.6 
L 1425.6 345.6 
" style="fill: none; stroke: #000000; stroke-width: 6; stroke-linejoin: miter; stroke-linecap: square"/>
   </g>
  </g>
 </g>
 <defs>
  <clipPath id="p4edabb5ae0">
   <rect x="7.2" y="7.2" width="465.6" height="338.4"/>
  </clipPath>
  <clipPath id="pca74aad7c7">
   <rect x="483.6" y="7.2" width="465.6" height="338.4"/>
  </clipPath>
  <clipPath id="p9fd62458ed">
   <rect x="960" y="7.2" width="465.6" height="338.4"/>
  </clipPath>
 </defs>
</svg>
