<?xml version="1.0" encoding="utf-8" standalone="no"?>
<!DOCTYPE svg PUBLIC "-//W3C//DTD SVG 1.1//EN"
  "http://www.w3.org/Graphics/SVG/1.1/DTD/svg11.dtd">
<svg xmlns:xlink="http://www.w3.org/1999/xlink" width="1432.8pt" height="352.8pt" viewBox="0 0 1432.8 352.8" xmlns="http://www.w3.org/2000/svg" version="1.1">
 <metadata>
  <rdf:RDF xmlns:dc="http://purl.org/dc/elements/1.1/" xmlns:cc="http://creativecommons.org/ns#" xmlns:rdf="http://www.w3.org/1999/02/22-rdf-syntax-ns#">
   <cc:Work>
    <dc:type rdf:resource="http://purl.org/dc/dcmitype/StillImage"/>
    <dc:date>2025-11-23T19:12:02.605063</dc:date>
    <dc:format>image/svg+xml</dc:format>
    <dc:creator>
     <cc:Agent>
      <dc:title>Matplotlib v3.9.2, https://matplotlib.org/</dc:title>
     </cc:Agent>
    </dc:creator>
   </cc:Work>
  </rdf:RDF>
 </metadata>
 <defs>
  <style type="text/css">*{stroke-linejoin: round; stroke-linecap: butt}</style>
 </defs>
 <g id="figure_1">
  <g id="patch_1">
   <path d="M 0 352.8 
L 1432.8 352.8 
L 1432.8 0 
L 0 0 
z
" style="fill: #ffffff"/>
  </g>
  <g id="axes_1">
   <g id="patch_2">
    <path d="M 7.2 345.6 
L 472.8 345.6 
L 472.8 7.2 
L 7.2 7.2 
z
" style="fill: #ffffff"/>
   </g>
   <g id="PolyCollection_1">
    <path d="M -284.891776 345.6 
L -284.891776 345.6 
L -279.751169 345.6 
L -274.610561 345.6 
L -269.469993 345.6 
L -264.329426 345.6 
L -259.188818 345.6 
L -254.04825 345.6 
L -248.907682 345.6 
L -243.767075 345.6 
L -238.626467 345.6 
L -233.485939 345.6 
L -228.345331 345.6 
L -223.204724 345.6 
L -218.064195 345.6 
L -212.923588 345.6 
L -207.78298 345.6 
L -202.642452 345.6 
L -197.501844 345.6 
L -192.361237 345.6 
L -187.220669 345.6 
L -182.080101 345.6 
L -176.939493 345.6 
L -171.798886 345.6 
L -166.658358 345.6 
L -161.51775 345.6 
L -156.377142 345.6 
L -151.236614 345.6 
L -146.096007 345.6 
L -140.955399 345.6 
L -135.814871 345.6 
L -130.674263 345.6 
L -125.533656 345.6 
L -120.393127 345.6 
L -115.25252 345.6 
L -110.111912 345.6 
L -104.971305 345.6 
L -99.830776 345.6 
L -94.690169 345.6 
L -89.549601 345.6 
L -84.408993 345.6 
L -79.268426 345.6 
L -74.127858 345.6 
L -68.98725 345.6 
L -63.846682 345.6 
L -58.706094 345.6 
L -53.565507 345.6 
L -48.424939 345.6 
L -43.284331 345.6 
L -38.143763 345.6 
L -33.003176 345.6 
L -27.862588 345.6 
L -22.72202 345.6 
L -17.581412 345.6 
L -12.440844 345.6 
L -7.300276 345.6 
L -2.159669 345.6 
L 2.980899 345.6 
L 8.121487 345.6 
L 13.262074 345.6 
L 18.402642 345.6 
L 23.54325 345.6 
L 28.683818 345.6 
L 33.824386 345.6 
L 38.964993 345.6 
L 44.105561 345.6 
L 49.246149 345.6 
L 54.386737 345.6 
L 59.527324 345.6 
L 64.667892 345.6 
L 69.80848 345.6 
L 74.949068 345.6 
L 80.089656 345.6 
L 85.230243 345.6 
L 90.370811 345.6 
L 95.511399 345.6 
L 100.651987 345.6 
L 105.792555 345.6 
L 110.933142 345.6 
L 116.07373 345.6 
L 121.214318 345.6 
L 126.354906 345.6 
L 131.495474 345.6 
L 136.636061 345.6 
L 141.776649 345.6 
L 146.917237 345.6 
L 152.057824 345.6 
L 157.198392 345.6 
L 162.33898 345.6 
L 167.479568 345.6 
L 172.620136 345.6 
L 177.760724 345.6 
L 182.901311 345.6 
L 188.041899 345.6 
L 193.182487 345.6 
L 198.323055 345.6 
L 203.463642 345.6 
L 208.60423 345.6 
L 213.744818 345.6 
L 218.885406 345.6 
L 224.025974 345.6 
L 229.166561 345.6 
L 234.307149 345.6 
L 239.447717 -5127.636288 
L 244.588305 345.6 
L 249.728892 345.6 
L 254.86948 345.6 
L 260.010068 345.6 
L 265.150636 345.6 
L 270.291224 345.6 
L 275.431811 345.6 
L 280.572379 345.6 
L 285.712967 345.6 
L 290.853555 345.6 
L 295.994142 345.6 
L 301.13473 345.6 
L 306.275298 345.6 
L 311.415886 345.6 
L 316.556474 345.6 
L 321.697061 345.6 
L 326.837649 345.6 
L 331.978217 345.6 
L 337.118805 345.6 
L 342.259392 345.6 
L 347.39996 345.6 
L 352.540548 345.6 
L 357.681136 345.6 
L 362.821724 345.6 
L 367.962311 345.6 
L 373.102879 345.6 
L 378.243467 345.6 
L 383.384074 345.6 
L 388.524642 345.6 
L 393.66521 345.6 
L 398.805818 345.6 
L 403.946386 345.6 
L 409.086954 345.6 
L 414.227561 345.6 
L 419.368129 345.6 
L 424.508697 345.6 
L 429.649305 345.6 
L 434.789873 345.6 
L 439.93044 345.6 
L 445.071048 345.6 
L 450.211656 345.6 
L 455.352224 345.6 
L 460.492791 345.6 
L 465.633399 345.6 
L 470.773967 345.6 
L 475.914535 345.6 
L 481.055142 345.6 
L 486.19571 345.6 
L 491.336278 345.6 
L 496.476886 345.6 
L 501.617454 345.6 
L 506.758022 345.6 
L 511.898629 345.6 
L 517.039237 345.6 
L 522.179805 345.6 
L 527.320373 345.6 
L 532.46098 345.6 
L 537.601548 345.6 
L 542.742116 345.6 
L 547.882724 345.6 
L 553.023291 345.6 
L 558.163859 345.6 
L 563.304467 345.6 
L 568.445035 345.6 
L 573.585603 345.6 
L 578.72621 345.6 
L 583.866818 345.6 
L 589.007386 345.6 
L 594.147954 345.6 
L 599.288561 345.6 
L 604.429129 345.6 
L 609.569697 345.6 
L 614.710305 345.6 
L 619.850873 345.6 
L 624.991441 345.6 
L 630.132048 345.6 
L 635.272616 345.6 
L 640.413184 345.6 
L 645.553791 345.6 
L 650.694399 345.6 
L 655.834967 345.6 
L 660.975535 345.6 
L 666.116142 345.6 
L 671.25671 345.6 
L 676.397278 345.6 
L 681.537886 345.6 
L 686.678454 345.6 
L 691.819022 345.6 
L 696.959629 345.6 
L 702.100197 345.6 
L 707.240765 345.6 
L 712.381373 345.6 
L 717.52198 345.6 
L 722.662548 345.6 
L 727.803116 345.6 
L 732.943724 345.6 
L 738.084291 345.6 
L 743.224859 345.6 
L 743.224859 345.6 
L 743.224859 345.6 
L 738.084291 345.6 
L 732.943724 345.6 
L 727.803116 345.6 
L 722.662548 345.6 
L 717.52198 345.6 
L 712.381373 345.6 
L 707.240765 345.6 
L 702.100197 345.6 
L 696.959629 345.6 
L 691.819022 345.6 
L 686.678454 345.6 
L 681.537886 345.6 
L 676.397278 345.6 
L 671.25671 345.6 
L 666.116142 345.6 
L 660.975535 345.6 
L 655.834967 345.6 
L 650.694399 345.6 
L 645.553791 345.6 
L 640.413184 345.6 
L 635.272616 345.6 
L 630.132048 345.6 
L 624.991441 345.6 
L 619.850873 345.6 
L 614.710305 345.6 
L 609.569697 345.6 
L 604.429129 345.6 
L 599.288561 345.6 
L 594.147954 345.6 
L 589.007386 345.6 
L 583.866818 345.6 
L 578.72621 345.6 
L 573.585603 345.6 
L 568.445035 345.6 
L 563.304467 345.6 
L 558.163859 345.6 
L 553.023291 345.6 
L 547.882724 345.6 
L 542.742116 345.6 
L 537.601548 345.6 
L 532.46098 345.6 
L 527.320373 345.6 
L 522.179805 345.6 
L 517.039237 345.6 
L 511.898629 345.6 
L 506.758022 345.6 
L 501.617454 345.6 
L 496.476886 345.6 
L 491.336278 345.6 
L 486.19571 345.6 
L 481.055142 345.6 
L 475.914535 345.6 
L 470.773967 345.6 
L 465.633399 345.6 
L 460.492791 345.6 
L 455.352224 345.6 
L 450.211656 345.6 
L 445.071048 345.6 
L 439.93044 345.6 
L 434.789873 345.6 
L 429.649305 345.6 
L 424.508697 345.6 
L 419.368129 345.6 
L 414.227561 345.6 
L 409.086954 345.6 
L 403.946386 345.6 
L 398.805818 345.6 
L 393.66521 345.6 
L 388.524642 345.6 
L 383.384074 345.6 
L 378.243467 345.6 
L 373.102879 345.6 
L 367.962311 345.6 
L 362.821724 345.6 
L 357.681136 345.6 
L 352.540548 345.6 
L 347.39996 345.6 
L 342.259392 345.6 
L 337.118805 345.6 
L 331.978217 345.6 
L 326.837649 345.6 
L 321.697061 345.6 
L 316.556474 345.6 
L 311.415886 345.6 
L 306.275298 345.6 
L 301.13473 345.6 
L 295.994142 345.6 
L 290.853555 345.6 
L 285.712967 345.6 
L 280.572379 345.6 
L 275.431811 345.6 
L 270.291224 345.6 
L 265.150636 345.6 
L 260.010068 345.6 
L 254.86948 345.6 
L 249.728892 345.6 
L 244.588305 345.6 
L 239.447717 345.6 
L 234.307149 345.6 
L 229.166561 345.6 
L 224.025974 345.6 
L 218.885406 345.6 
L 213.744818 345.6 
L 208.60423 345.6 
L 203.463642 345.6 
L 198.323055 345.6 
L 193.182487 345.6 
L 188.041899 345.6 
L 182.901311 345.6 
L 177.760724 345.6 
L 172.620136 345.6 
L 167.479568 345.6 
L 162.33898 345.6 
L 157.198392 345.6 
L 152.057824 345.6 
L 146.917237 345.6 
L 141.776649 345.6 
L 136.636061 345.6 
L 131.495474 345.6 
L 126.354906 345.6 
L 121.214318 345.6 
L 116.07373 345.6 
L 110.933142 345.6 
L 105.792555 345.6 
L 100.651987 345.6 
L 95.511399 345.6 
L 90.370811 345.6 
L 85.230243 345.6 
L 80.089656 345.6 
L 74.949068 345.6 
L 69.80848 345.6 
L 64.667892 345.6 
L 59.527324 345.6 
L 54.386737 345.6 
L 49.246149 345.6 
L 44.105561 345.6 
L 38.964993 345.6 
L 33.824386 345.6 
L 28.683818 345.6 
L 23.54325 345.6 
L 18.402642 345.6 
L 13.262074 345.6 
L 8.121487 345.6 
L 2.980899 345.6 
L -2.159669 345.6 
L -7.300276 345.6 
L -12.440844 345.6 
L -17.581412 345.6 
L -22.72202 345.6 
L -27.862588 345.6 
L -33.003176 345.6 
L -38.143763 345.6 
L -43.284331 345.6 
L -48.424939 345.6 
L -53.565507 345.6 
L -58.706094 345.6 
L -63.846682 345.6 
L -68.98725 345.6 
L -74.127858 345.6 
L -79.268426 345.6 
L -84.408993 345.6 
L -89.549601 345.6 
L -94.690169 345.6 
L -99.830776 345.6 
L -104.971305 345.6 
L -110.111912 345.6 
L -115.25252 345.6 
L -120.393127 345.6 
L -125.533656 345.6 
L -130.674263 345.6 
L -135.814871 345.6 
L -140.955399 345.6 
L -146.096007 345.6 
L -151.236614 345.6 
L -156.377142 345.6 
L -161.51775 345.6 
L -166.658358 345.6 
L -171.798886 345.6 
L -176.939493 345.6 
L -182.080101 345.6 
L -187.220669 345.6 
L -192.361237 345.6 
L -197.501844 345.6 
L -202.642452 345.6 
L -207.78298 345.6 
L -212.923588 345.6 
L -218.064195 345.6 
L -223.204724 345.6 
L -228.345331 345.6 
L -233.485939 345.6 
L -238.626467 345.6 
L -243.767075 345.6 
L -248.907682 345.6 
L -254.04825 345.6 
L -259.188818 345.6 
L -264.329426 345.6 
L -269.469993 345.6 
L -274.610561 345.6 
L -279.751169 345.6 
L -284.891776 345.6 
z
" clip-path="url(#p5872a36b34)" style="fill: #0000ff; fill-opacity: 0.3; stroke: #0000ff; stroke-opacity: 0.3"/>
   </g>
   <g id="line2d_1">
    <path d="M 2.004991 -1 
L 8.964393 18.975833 
L 16.954097 41.175936 
L 23.612184 59.079245 
L 30.27027 76.440029 
L 36.928357 93.258289 
L 43.586444 109.534024 
L 50.24453 125.267235 
L 56.902617 140.457921 
L 63.560704 155.106083 
L 70.21879 169.21172 
L 76.876877 182.774832 
L 83.534964 195.795421 
L 90.19305 208.273484 
L 96.851137 220.209023 
L 103.509224 231.602038 
L 108.835693 240.325832 
L 114.162162 248.702411 
L 119.488631 256.731773 
L 124.815101 264.41392 
L 130.14157 271.748852 
L 135.468039 278.736567 
L 140.794509 285.377067 
L 146.120978 291.670351 
L 151.447447 297.61642 
L 156.773917 303.215273 
L 162.100386 308.46691 
L 167.426855 313.371332 
L 172.753325 317.928538 
L 178.079794 322.138528 
L 183.406263 326.001302 
L 188.732733 329.516861 
L 194.059202 332.685204 
L 198.054054 334.833601 
L 202.048906 336.786689 
L 206.043758 338.544469 
L 210.03861 340.106939 
L 214.033462 341.474101 
L 218.028314 342.645954 
L 222.023166 343.622498 
L 226.018018 344.403733 
L 230.01287 344.98966 
L 234.007722 345.380278 
L 238.002574 345.575586 
L 241.997426 345.575586 
L 245.992278 345.380278 
L 249.98713 344.98966 
L 253.981982 344.403733 
L 257.976834 343.622498 
L 261.971686 342.645954 
L 265.966538 341.474101 
L 269.96139 340.106939 
L 273.956242 338.544469 
L 277.951094 336.786689 
L 281.945946 334.833601 
L 285.940798 332.685204 
L 289.93565 330.341498 
L 295.262119 326.912743 
L 300.588589 323.136773 
L 305.915058 319.013587 
L 311.241527 314.543185 
L 316.567997 309.725567 
L 321.894466 304.560734 
L 327.220935 299.048685 
L 332.547405 293.18942 
L 337.873874 286.98294 
L 343.200343 280.429244 
L 348.526813 273.528332 
L 353.853282 266.280205 
L 359.179751 258.684861 
L 364.506221 250.742303 
L 369.83269 242.452528 
L 375.159159 233.815538 
L 380.485628 224.831332 
L 387.143715 213.112803 
L 393.801802 200.851749 
L 400.459888 188.048171 
L 407.117975 174.702068 
L 413.776062 160.81344 
L 420.434148 146.382289 
L 427.092235 131.408612 
L 433.750322 115.892411 
L 440.408408 99.833686 
L 447.066495 83.232436 
L 453.724582 66.088662 
L 460.382668 48.402363 
L 467.040755 30.173539 
L 475.030459 7.582819 
L 477.995009 -1 
L 477.995009 -1 
" clip-path="url(#p5872a36b34)" style="fill: none; stroke: #ffa500; stroke-width: 13; stroke-linecap: square"/>
   </g>
   <g id="matplotlib.axis_1"/>
   <g id="matplotlib.axis_2"/>
   <g id="line2d_2">
    <path d="M -1 345.6 
L 234.307149 345.6 
L 234.632682 -1 
M 244.26277 -1 
L 244.588305 345.6 
L 743.224859 345.6 
L 743.224859 345.6 
" clip-path="url(#p5872a36b34)" style="fill: none; stroke: #0000ff; stroke-width: 13; stroke-linecap: square"/>
   </g>
   <g id="patch_3">
    <path d="M 240 345.6 
L 240 7.2 
" style="fill: none; stroke-dasharray: 22.2,9.6; stroke-dashoffset: 0; stroke: #000000; stroke-width: 6; stroke-linejoin: miter; stroke-linecap: square"/>
   </g>
   <g id="patch_4">
    <path d="M 7.2 345.6 
L 472.8 345.6 
" style="fill: none; stroke: #000000; stroke-width: 6; stroke-linejoin: miter; stroke-linecap: square"/>
   </g>
  </g>
  <g id="axes_2">
   <g id="patch_5">
    <path d="M 483.6 345.6 
L 949.2 345.6 
L 949.2 7.2 
L 483.6 7.2 
z
" style="fill: #ffffff"/>
   </g>
   <g id="PolyCollection_2">
    <defs>
     <path id="m12439bccb3" d="M 191.508224 -7.2 
L 191.508224 -7.2 
L 196.648831 -7.2 
L 201.789439 -7.2 
L 206.930007 -7.2 
L 212.070574 -7.2 
L 217.211182 -7.2 
L 222.35175 -7.2 
L 227.492318 -7.2 
L 232.632925 -7.2 
L 237.773533 -7.2 
L 242.914061 -7.2 
L 248.054669 -7.2 
L 253.195276 -7.2 
L 258.335805 -7.2 
L 263.476412 -7.2 
L 268.61702 -7.2 
L 273.757548 -7.2 
L 278.898156 -7.2 
L 284.038763 -7.2 
L 289.179331 -7.2 
L 294.319899 -7.2 
L 299.460507 -7.2 
L 304.601114 -7.2 
L 309.741642 -7.2 
L 314.88225 -7.2 
L 320.022858 -7.2 
L 325.163386 -7.2 
L 330.303993 -7.2 
L 335.444601 -7.2 
L 340.585129 -7.2 
L 345.725737 -7.2 
L 350.866344 -7.2 
L 356.006873 -7.2 
L 361.14748 -7.2 
L 366.288088 -7.2 
L 371.428695 -7.2 
L 376.569224 -7.2 
L 381.709831 -7.2 
L 386.850399 -7.2 
L 391.991007 -7.2 
L 397.131574 -7.2 
L 402.272142 -7.2 
L 407.41275 -7.2 
L 412.553318 -7.2 
L 417.693906 -7.2 
L 422.834493 -7.2 
L 427.975061 -7.2 
L 433.115669 -7.2 
L 438.256237 -7.2 
L 443.396824 -7.2 
L 448.537412 -7.2 
L 453.67798 -7.2 
L 458.818588 -7.2 
L 463.959156 -7.2 
L 469.099724 -7.2 
L 474.240331 -7.2 
L 479.380899 -7.2 
L 484.521487 -7.2 
L 489.662074 -7.2 
L 494.802642 -7.2 
L 499.94325 -7.2 
L 505.083818 -7.2 
L 510.224386 -7.2 
L 515.364993 -7.2 
L 520.505561 -7.2 
L 525.646149 -7.2 
L 530.786737 -7.2 
L 535.927324 -7.2 
L 541.067892 -7.2 
L 546.20848 -7.2 
L 551.349068 -7.2 
L 556.489656 -7.254732 
L 561.630243 -7.418929 
L 566.770811 -7.2 
L 571.911399 -7.2 
L 577.051987 -7.2 
L 582.192555 -7.254732 
L 587.333142 -7.637856 
L 592.47373 -8.787239 
L 597.614318 -8.787226 
L 602.754906 -8.623041 
L 607.895474 -10.593406 
L 613.036061 -11.797483 
L 618.176649 -13.932081 
L 623.317237 -19.405223 
L 628.457824 -23.729174 
L 633.598392 -31.665366 
L 638.73898 -39.382381 
L 643.879568 -48.249272 
L 649.020136 -59.250477 
L 654.160724 -75.779122 
L 659.301311 -100.135552 
L 664.441899 -117.265933 
L 669.582487 -136.039982 
L 674.723055 -168.8794 
L 679.863642 -190.168878 
L 685.00423 -218.193259 
L 690.144818 -237.512007 
L 695.285406 -267.890244 
L 700.425974 -303.739942 
L 705.566561 -305.762737 
L 710.707149 -326.946464 
L 715.847717 -326.727534 
L 720.988305 -322.127587 
L 726.128892 -301.495915 
L 731.26948 -296.786699 
L 736.410068 -282.61325 
L 741.550636 -251.689465 
L 746.691224 -220.271445 
L 751.831811 -194.877272 
L 756.972379 -168.988865 
L 762.112967 -145.890738 
L 767.253555 -126.297622 
L 772.394142 -95.592084 
L 777.53473 -72.933568 
L 782.675298 -63.574334 
L 787.815886 -45.512359 
L 792.956474 -35.660829 
L 798.097061 -29.256972 
L 803.237649 -26.739454 
L 808.378217 -20.609429 
L 813.518805 -16.176038 
L 818.659392 -11.031265 
L 823.79996 -10.702871 
L 828.940548 -9.060886 
L 834.081136 -8.458844 
L 839.221724 -7.911515 
L 844.362311 -7.637859 
L 849.502879 -7.528394 
L 854.643467 -7.528392 
L 859.784074 -7.528392 
L 864.924642 -7.364198 
L 870.06521 -7.364196 
L 875.205818 -7.2 
L 880.346386 -7.2 
L 885.486954 -7.2 
L 890.627561 -7.2 
L 895.768129 -7.2 
L 900.908697 -7.2 
L 906.049305 -7.2 
L 911.189873 -7.2 
L 916.33044 -7.2 
L 921.471048 -7.2 
L 926.611656 -7.2 
L 931.752224 -7.2 
L 936.892791 -7.2 
L 942.033399 -7.2 
L 947.173967 -7.2 
L 952.314535 -7.2 
L 957.455142 -7.2 
L 962.59571 -7.2 
L 967.736278 -7.2 
L 972.876886 -7.2 
L 978.017454 -7.2 
L 983.158022 -7.2 
L 988.298629 -7.2 
L 993.439237 -7.2 
L 998.579805 -7.2 
L 1003.720373 -7.2 
L 1008.86098 -7.2 
L 1014.001548 -7.2 
L 1019.142116 -7.2 
L 1024.282724 -7.2 
L 1029.423291 -7.2 
L 1034.563859 -7.2 
L 1039.704467 -7.2 
L 1044.845035 -7.2 
L 1049.985603 -7.2 
L 1055.12621 -7.2 
L 1060.266818 -7.2 
L 1065.407386 -7.2 
L 1070.547954 -7.2 
L 1075.688561 -7.2 
L 1080.829129 -7.2 
L 1085.969697 -7.2 
L 1091.110305 -7.2 
L 1096.250873 -7.2 
L 1101.391441 -7.2 
L 1106.532048 -7.2 
L 1111.672616 -7.2 
L 1116.813184 -7.2 
L 1121.953791 -7.2 
L 1127.094399 -7.2 
L 1132.234967 -7.2 
L 1137.375535 -7.2 
L 1142.516142 -7.2 
L 1147.65671 -7.2 
L 1152.797278 -7.2 
L 1157.937886 -7.2 
L 1163.078454 -7.2 
L 1168.219022 -7.2 
L 1173.359629 -7.2 
L 1178.500197 -7.2 
L 1183.640765 -7.2 
L 1188.781373 -7.2 
L 1193.92198 -7.2 
L 1199.062548 -7.2 
L 1204.203116 -7.2 
L 1209.343724 -7.2 
L 1214.484291 -7.2 
L 1219.624859 -7.2 
L 1219.624859 -7.2 
L 1219.624859 -7.2 
L 1214.484291 -7.2 
L 1209.343724 -7.2 
L 1204.203116 -7.2 
L 1199.062548 -7.2 
L 1193.92198 -7.2 
L 1188.781373 -7.2 
L 1183.640765 -7.2 
L 1178.500197 -7.2 
L 1173.359629 -7.2 
L 1168.219022 -7.2 
L 1163.078454 -7.2 
L 1157.937886 -7.2 
L 1152.797278 -7.2 
L 1147.65671 -7.2 
L 1142.516142 -7.2 
L 1137.375535 -7.2 
L 1132.234967 -7.2 
L 1127.094399 -7.2 
L 1121.953791 -7.2 
L 1116.813184 -7.2 
L 1111.672616 -7.2 
L 1106.532048 -7.2 
L 1101.391441 -7.2 
L 1096.250873 -7.2 
L 1091.110305 -7.2 
L 1085.969697 -7.2 
L 1080.829129 -7.2 
L 1075.688561 -7.2 
L 1070.547954 -7.2 
L 1065.407386 -7.2 
L 1060.266818 -7.2 
L 1055.12621 -7.2 
L 1049.985603 -7.2 
L 1044.845035 -7.2 
L 1039.704467 -7.2 
L 1034.563859 -7.2 
L 1029.423291 -7.2 
L 1024.282724 -7.2 
L 1019.142116 -7.2 
L 1014.001548 -7.2 
L 1008.86098 -7.2 
L 1003.720373 -7.2 
L 998.579805 -7.2 
L 993.439237 -7.2 
L 988.298629 -7.2 
L 983.158022 -7.2 
L 978.017454 -7.2 
L 972.876886 -7.2 
L 967.736278 -7.2 
L 962.59571 -7.2 
L 957.455142 -7.2 
L 952.314535 -7.2 
L 947.173967 -7.2 
L 942.033399 -7.2 
L 936.892791 -7.2 
L 931.752224 -7.2 
L 926.611656 -7.2 
L 921.471048 -7.2 
L 916.33044 -7.2 
L 911.189873 -7.2 
L 906.049305 -7.2 
L 900.908697 -7.2 
L 895.768129 -7.2 
L 890.627561 -7.2 
L 885.486954 -7.2 
L 880.346386 -7.2 
L 875.205818 -7.2 
L 870.06521 -7.2 
L 864.924642 -7.2 
L 859.784074 -7.2 
L 854.643467 -7.2 
L 849.502879 -7.2 
L 844.362311 -7.2 
L 839.221724 -7.2 
L 834.081136 -7.2 
L 828.940548 -7.2 
L 823.79996 -7.2 
L 818.659392 -7.2 
L 813.518805 -7.2 
L 808.378217 -7.2 
L 803.237649 -7.2 
L 798.097061 -7.2 
L 792.956474 -7.2 
L 787.815886 -7.2 
L 782.675298 -7.2 
L 777.53473 -7.2 
L 772.394142 -7.2 
L 767.253555 -7.2 
L 762.112967 -7.2 
L 756.972379 -7.2 
L 751.831811 -7.2 
L 746.691224 -7.2 
L 741.550636 -7.2 
L 736.410068 -7.2 
L 731.26948 -7.2 
L 726.128892 -7.2 
L 720.988305 -7.2 
L 715.847717 -7.2 
L 710.707149 -7.2 
L 705.566561 -7.2 
L 700.425974 -7.2 
L 695.285406 -7.2 
L 690.144818 -7.2 
L 685.00423 -7.2 
L 679.863642 -7.2 
L 674.723055 -7.2 
L 669.582487 -7.2 
L 664.441899 -7.2 
L 659.301311 -7.2 
L 654.160724 -7.2 
L 649.020136 -7.2 
L 643.879568 -7.2 
L 638.73898 -7.2 
L 633.598392 -7.2 
L 628.457824 -7.2 
L 623.317237 -7.2 
L 618.176649 -7.2 
L 613.036061 -7.2 
L 607.895474 -7.2 
L 602.754906 -7.2 
L 597.614318 -7.2 
L 592.47373 -7.2 
L 587.333142 -7.2 
L 582.192555 -7.2 
L 577.051987 -7.2 
L 571.911399 -7.2 
L 566.770811 -7.2 
L 561.630243 -7.2 
L 556.489656 -7.2 
L 551.349068 -7.2 
L 546.20848 -7.2 
L 541.067892 -7.2 
L 535.927324 -7.2 
L 530.786737 -7.2 
L 525.646149 -7.2 
L 520.505561 -7.2 
L 515.364993 -7.2 
L 510.224386 -7.2 
L 505.083818 -7.2 
L 499.94325 -7.2 
L 494.802642 -7.2 
L 489.662074 -7.2 
L 484.521487 -7.2 
L 479.380899 -7.2 
L 474.240331 -7.2 
L 469.099724 -7.2 
L 463.959156 -7.2 
L 458.818588 -7.2 
L 453.67798 -7.2 
L 448.537412 -7.2 
L 443.396824 -7.2 
L 438.256237 -7.2 
L 433.115669 -7.2 
L 427.975061 -7.2 
L 422.834493 -7.2 
L 417.693906 -7.2 
L 412.553318 -7.2 
L 407.41275 -7.2 
L 402.272142 -7.2 
L 397.131574 -7.2 
L 391.991007 -7.2 
L 386.850399 -7.2 
L 381.709831 -7.2 
L 376.569224 -7.2 
L 371.428695 -7.2 
L 366.288088 -7.2 
L 361.14748 -7.2 
L 356.006873 -7.2 
L 350.866344 -7.2 
L 345.725737 -7.2 
L 340.585129 -7.2 
L 335.444601 -7.2 
L 330.303993 -7.2 
L 325.163386 -7.2 
L 320.022858 -7.2 
L 314.88225 -7.2 
L 309.741642 -7.2 
L 304.601114 -7.2 
L 299.460507 -7.2 
L 294.319899 -7.2 
L 289.179331 -7.2 
L 284.038763 -7.2 
L 278.898156 -7.2 
L 273.757548 -7.2 
L 268.61702 -7.2 
L 263.476412 -7.2 
L 258.335805 -7.2 
L 253.195276 -7.2 
L 248.054669 -7.2 
L 242.914061 -7.2 
L 237.773533 -7.2 
L 232.632925 -7.2 
L 227.492318 -7.2 
L 222.35175 -7.2 
L 217.211182 -7.2 
L 212.070574 -7.2 
L 206.930007 -7.2 
L 201.789439 -7.2 
L 196.648831 -7.2 
L 191.508224 -7.2 
z
" style="stroke: #0000ff; stroke-opacity: 0.3"/>
    </defs>
    <g clip-path="url(#padffb96f48)">
     <use xlink:href="#m12439bccb3" x="0" y="352.8" style="fill: #0000ff; fill-opacity: 0.3; stroke: #0000ff; stroke-opacity: 0.3"/>
    </g>
   </g>
   <g id="line2d_3">
    <path d="M 478.404991 -1 
L 485.364393 18.975833 
L 493.354097 41.175936 
L 500.012184 59.079245 
L 506.67027 76.440029 
L 513.328357 93.258289 
L 519.986444 109.534024 
L 526.64453 125.267235 
L 533.302617 140.457921 
L 539.960704 155.106083 
L 546.61879 169.21172 
L 553.276877 182.774832 
L 559.934964 195.795421 
L 566.59305 208.273484 
L 573.251137 220.209023 
L 579.909224 231.602038 
L 585.235693 240.325832 
L 590.562162 248.702411 
L 595.888631 256.731773 
L 601.215101 264.41392 
L 606.54157 271.748852 
L 611.868039 278.736567 
L 617.194509 285.377067 
L 622.520978 291.670351 
L 627.847447 297.61642 
L 633.173917 303.215273 
L 638.500386 308.46691 
L 643.826855 313.371332 
L 649.153325 317.928538 
L 654.479794 322.138528 
L 659.806263 326.001302 
L 665.132733 329.516861 
L 670.459202 332.685204 
L 674.454054 334.833601 
L 678.448906 336.786689 
L 682.443758 338.544469 
L 686.43861 340.106939 
L 690.433462 341.474101 
L 694.428314 342.645954 
L 698.423166 343.622498 
L 702.418018 344.403733 
L 706.41287 344.98966 
L 710.407722 345.380278 
L 714.402574 345.575586 
L 718.397426 345.575586 
L 722.392278 345.380278 
L 726.38713 344.98966 
L 730.381982 344.403733 
L 734.376834 343.622498 
L 738.371686 342.645954 
L 742.366538 341.474101 
L 746.36139 340.106939 
L 750.356242 338.544469 
L 754.351094 336.786689 
L 758.345946 334.833601 
L 762.340798 332.685204 
L 766.33565 330.341498 
L 771.662119 326.912743 
L 776.988589 323.136773 
L 782.315058 319.013587 
L 787.641527 314.543185 
L 792.967997 309.725567 
L 798.294466 304.560734 
L 803.620935 299.048685 
L 808.947405 293.18942 
L 814.273874 286.98294 
L 819.600343 280.429244 
L 824.926813 273.528332 
L 830.253282 266.280205 
L 835.579751 258.684861 
L 840.906221 250.742303 
L 846.23269 242.452528 
L 851.559159 233.815538 
L 856.885628 224.831332 
L 863.543715 213.112803 
L 870.201802 200.851749 
L 876.859888 188.048171 
L 883.517975 174.702068 
L 890.176062 160.81344 
L 896.834148 146.382289 
L 903.492235 131.408612 
L 910.150322 115.892411 
L 916.808408 99.833686 
L 923.466495 83.232436 
L 930.124582 66.088662 
L 936.782668 48.402363 
L 943.440755 30.173539 
L 951.430459 7.582819 
L 954.395009 -1 
L 954.395009 -1 
" clip-path="url(#padffb96f48)" style="fill: none; stroke: #ffa500; stroke-width: 13; stroke-linecap: square"/>
   </g>
   <g id="matplotlib.axis_3"/>
   <g id="matplotlib.axis_4"/>
   <g id="line2d_4">
    <path d="M 191.508224 345.6 
L 556.489656 345.545268 
L 561.630243 345.381071 
L 566.770811 345.6 
L 582.192555 345.545268 
L 587.333142 345.162144 
L 592.47373 344.012761 
L 597.614318 344.012774 
L 602.754906 344.176959 
L 607.895474 342.206594 
L 613.036061 341.002517 
L 618.176649 338.867919 
L 623.317237 333.394777 
L 628.457824 329.070826 
L 633.598392 321.134634 
L 638.73898 313.417619 
L 643.879568 304.550728 
L 649.020136 293.549523 
L 654.160724 277.020878 
L 659.301311 252.664448 
L 664.441899 235.534067 
L 669.582487 216.760018 
L 674.723055 183.9206 
L 679.863642 162.631122 
L 685.00423 134.606741 
L 690.144818 115.287993 
L 695.285406 84.909756 
L 700.425974 49.060058 
L 705.566561 47.037263 
L 710.707149 25.853536 
L 715.847717 26.072466 
L 720.988305 30.672413 
L 726.128892 51.304085 
L 731.26948 56.013301 
L 736.410068 70.18675 
L 746.691224 132.528555 
L 756.972379 183.811135 
L 762.112967 206.909262 
L 767.253555 226.502378 
L 772.394142 257.207916 
L 777.53473 279.866432 
L 782.675298 289.225666 
L 787.815886 307.287641 
L 792.956474 317.139171 
L 798.097061 323.543028 
L 803.237649 326.060546 
L 808.378217 332.190571 
L 813.518805 336.623962 
L 818.659392 341.768735 
L 823.79996 342.097129 
L 828.940548 343.739114 
L 839.221724 344.888485 
L 844.362311 345.162141 
L 854.643467 345.271608 
L 859.784074 345.271608 
L 864.924642 345.435802 
L 870.06521 345.435804 
L 875.205818 345.6 
L 1219.624859 345.6 
L 1219.624859 345.6 
" clip-path="url(#padffb96f48)" style="fill: none; stroke: #0000ff; stroke-width: 13; stroke-linecap: square"/>
   </g>
   <g id="patch_6">
    <path d="M 716.4 345.6 
L 716.4 7.2 
" style="fill: none; stroke-dasharray: 22.2,9.6; stroke-dashoffset: 0; stroke: #000000; stroke-width: 6; stroke-linejoin: miter; stroke-linecap: square"/>
   </g>
   <g id="patch_7">
    <path d="M 483.6 345.6 
L 949.2 345.6 
" style="fill: none; stroke: #000000; stroke-width: 6; stroke-linejoin: miter; stroke-linecap: square"/>
   </g>
  </g>
  <g id="axes_3">
   <g id="patch_8">
    <path d="M 960 345.6 
L 1425.6 345.6 
L 1425.6 7.2 
L 960 7.2 
z
" style="fill: #ffffff"/>
   </g>
   <g id="PolyCollection_3">
    <defs>
     <path id="m04aa8aa036" d="M 667.908224 -7.2 
L 667.908224 -7.2 
L 673.048831 -7.2 
L 678.189439 -7.2 
L 683.330007 -7.201642 
L 688.470574 -7.204926 
L 693.611182 -7.202737 
L 698.75175 -7.201095 
L 703.892318 -7.201095 
L 709.032925 -7.202737 
L 714.173533 -7.207115 
L 719.314061 -7.221346 
L 724.454669 -7.225724 
L 729.595276 -7.227914 
L 734.735805 -7.23065 
L 739.876412 -7.242144 
L 745.01702 -7.264584 
L 750.157548 -7.282646 
L 755.298156 -7.313295 
L 760.438763 -7.341757 
L 765.579331 -7.35927 
L 770.719899 -7.42495 
L 775.860507 -7.432063 
L 781.001114 -7.447938 
L 786.141642 -7.431518 
L 791.28225 -7.444652 
L 796.422858 -7.481872 
L 801.563386 -7.514164 
L 806.703993 -7.60009 
L 811.844601 -7.667414 
L 816.985129 -7.755533 
L 822.125737 -7.885791 
L 827.266344 -7.936698 
L 832.406873 -8.049994 
L 837.54748 -8.131538 
L 842.688088 -8.272746 
L 847.828695 -8.419984 
L 852.969224 -8.722107 
L 858.109831 -8.980984 
L 863.250399 -9.193345 
L 868.391007 -9.489993 
L 873.531574 -9.733561 
L 878.672142 -10.105183 
L 883.81275 -10.488855 
L 888.953318 -10.83312 
L 894.093906 -11.263878 
L 899.234493 -11.892735 
L 904.375061 -12.466328 
L 909.515669 -12.669384 
L 914.656237 -13.203022 
L 919.796824 -13.987908 
L 924.937412 -14.562022 
L 930.07798 -15.191441 
L 935.218588 -16.002025 
L 940.359156 -16.847674 
L 945.499724 -17.695985 
L 950.640331 -18.646682 
L 955.780899 -19.643355 
L 960.921487 -20.626396 
L 966.062074 -21.849608 
L 971.202642 -23.145118 
L 976.34325 -24.689659 
L 981.483818 -25.907522 
L 986.624386 -27.256597 
L 991.764993 -29.096145 
L 996.905561 -30.814734 
L 1002.046149 -32.660401 
L 1007.186737 -34.288479 
L 1012.327324 -36.042861 
L 1017.467892 -38.061937 
L 1022.60848 -40.241125 
L 1027.749068 -42.025655 
L 1032.889656 -44.52992 
L 1038.030243 -46.439273 
L 1043.170811 -48.009544 
L 1048.311399 -50.062225 
L 1053.451987 -52.988547 
L 1058.592555 -55.381446 
L 1063.733142 -58.664991 
L 1068.87373 -60.92474 
L 1074.014318 -63.079122 
L 1079.154906 -66.118294 
L 1084.295474 -69.27252 
L 1089.436061 -71.784785 
L 1094.576649 -75.108632 
L 1099.717237 -77.677225 
L 1104.857824 -79.697941 
L 1109.998392 -82.347534 
L 1115.13898 -85.031009 
L 1120.279568 -87.882071 
L 1125.420136 -89.549219 
L 1130.560724 -91.170291 
L 1135.701311 -91.695274 
L 1140.841899 -94.275781 
L 1145.982487 -95.429116 
L 1151.123055 -97.257177 
L 1156.263642 -98.302957 
L 1161.40423 -100.749649 
L 1166.544818 -101.590158 
L 1171.685406 -102.155724 
L 1176.825974 -103.117919 
L 1181.966561 -104.250677 
L 1187.107149 -104.312726 
L 1192.247717 -103.666884 
L 1197.388305 -102.609814 
L 1202.528892 -103.016664 
L 1207.66948 -102.538662 
L 1212.810068 -102.131094 
L 1217.950636 -100.954348 
L 1223.091224 -100.09926 
L 1228.231811 -99.590965 
L 1233.372379 -97.733349 
L 1238.512967 -95.874501 
L 1243.653555 -94.530411 
L 1248.794142 -92.631086 
L 1253.93473 -90.848565 
L 1259.075298 -88.78406 
L 1264.215886 -86.756707 
L 1269.356474 -84.545586 
L 1274.497061 -81.845063 
L 1279.637649 -78.930593 
L 1284.778217 -76.172629 
L 1289.918805 -74.041383 
L 1295.059392 -71.231391 
L 1300.19996 -69.40552 
L 1305.340548 -68.252385 
L 1310.481136 -66.779461 
L 1315.621724 -64.273921 
L 1320.762311 -61.565656 
L 1325.902879 -58.392821 
L 1331.043467 -56.230514 
L 1336.184074 -54.448443 
L 1341.324642 -51.756318 
L 1346.46521 -49.177209 
L 1351.605818 -46.365629 
L 1356.746386 -43.440219 
L 1361.886954 -41.143108 
L 1367.027561 -38.72724 
L 1372.168129 -36.372574 
L 1377.308697 -33.960088 
L 1382.449305 -32.336738 
L 1387.589873 -30.256733 
L 1392.73044 -28.333644 
L 1397.871048 -26.954947 
L 1403.011656 -25.540673 
L 1408.152224 -24.363107 
L 1413.292791 -22.839652 
L 1418.433399 -21.587385 
L 1423.573967 -20.308502 
L 1428.714535 -19.241027 
L 1433.855142 -18.316057 
L 1438.99571 -17.50892 
L 1444.136278 -16.50443 
L 1449.276886 -15.57125 
L 1454.417454 -14.545687 
L 1459.558022 -13.890432 
L 1464.698629 -13.115975 
L 1469.839237 -12.765691 
L 1474.979805 -12.241984 
L 1480.120373 -11.830322 
L 1485.26098 -11.349776 
L 1490.401548 -10.801965 
L 1495.542116 -10.500336 
L 1500.682724 -10.149504 
L 1505.823291 -9.904347 
L 1510.963859 -9.695776 
L 1516.104467 -9.371216 
L 1521.245035 -9.198294 
L 1526.385603 -8.905995 
L 1531.52621 -8.644923 
L 1536.666818 -8.47197 
L 1541.807386 -8.269479 
L 1546.947954 -8.058197 
L 1552.088561 -7.944902 
L 1557.229129 -7.868287 
L 1562.369697 -7.834891 
L 1567.510305 -7.740204 
L 1572.650873 -7.689858 
L 1577.791441 -7.649349 
L 1582.932048 -7.595165 
L 1588.072616 -7.515261 
L 1593.213184 -7.462166 
L 1598.353791 -7.427138 
L 1603.494399 -7.39594 
L 1608.634967 -7.362556 
L 1613.775535 -7.34285 
L 1618.916142 -7.323694 
L 1624.05671 -7.267869 
L 1629.197278 -7.255279 
L 1634.337886 -7.255827 
L 1639.478454 -7.237766 
L 1644.619022 -7.208757 
L 1649.759629 -7.207115 
L 1654.900197 -7.207663 
L 1660.040765 -7.210399 
L 1665.181373 -7.206568 
L 1670.32198 -7.201642 
L 1675.462548 -7.2 
L 1680.603116 -7.2 
L 1685.743724 -7.2 
L 1690.884291 -7.2 
L 1696.024859 -7.2 
L 1696.024859 -7.2 
L 1696.024859 -7.2 
L 1690.884291 -7.2 
L 1685.743724 -7.2 
L 1680.603116 -7.2 
L 1675.462548 -7.2 
L 1670.32198 -7.2 
L 1665.181373 -7.2 
L 1660.040765 -7.2 
L 1654.900197 -7.2 
L 1649.759629 -7.2 
L 1644.619022 -7.2 
L 1639.478454 -7.2 
L 1634.337886 -7.2 
L 1629.197278 -7.2 
L 1624.05671 -7.2 
L 1618.916142 -7.2 
L 1613.775535 -7.2 
L 1608.634967 -7.2 
L 1603.494399 -7.2 
L 1598.353791 -7.2 
L 1593.213184 -7.2 
L 1588.072616 -7.2 
L 1582.932048 -7.2 
L 1577.791441 -7.2 
L 1572.650873 -7.2 
L 1567.510305 -7.2 
L 1562.369697 -7.2 
L 1557.229129 -7.2 
L 1552.088561 -7.2 
L 1546.947954 -7.2 
L 1541.807386 -7.2 
L 1536.666818 -7.2 
L 1531.52621 -7.2 
L 1526.385603 -7.2 
L 1521.245035 -7.2 
L 1516.104467 -7.2 
L 1510.963859 -7.2 
L 1505.823291 -7.2 
L 1500.682724 -7.2 
L 1495.542116 -7.2 
L 1490.401548 -7.2 
L 1485.26098 -7.2 
L 1480.120373 -7.2 
L 1474.979805 -7.2 
L 1469.839237 -7.2 
L 1464.698629 -7.2 
L 1459.558022 -7.2 
L 1454.417454 -7.2 
L 1449.276886 -7.2 
L 1444.136278 -7.2 
L 1438.99571 -7.2 
L 1433.855142 -7.2 
L 1428.714535 -7.2 
L 1423.573967 -7.2 
L 1418.433399 -7.2 
L 1413.292791 -7.2 
L 1408.152224 -7.2 
L 1403.011656 -7.2 
L 1397.871048 -7.2 
L 1392.73044 -7.2 
L 1387.589873 -7.2 
L 1382.449305 -7.2 
L 1377.308697 -7.2 
L 1372.168129 -7.2 
L 1367.027561 -7.2 
L 1361.886954 -7.2 
L 1356.746386 -7.2 
L 1351.605818 -7.2 
L 1346.46521 -7.2 
L 1341.324642 -7.2 
L 1336.184074 -7.2 
L 1331.043467 -7.2 
L 1325.902879 -7.2 
L 1320.762311 -7.2 
L 1315.621724 -7.2 
L 1310.481136 -7.2 
L 1305.340548 -7.2 
L 1300.19996 -7.2 
L 1295.059392 -7.2 
L 1289.918805 -7.2 
L 1284.778217 -7.2 
L 1279.637649 -7.2 
L 1274.497061 -7.2 
L 1269.356474 -7.2 
L 1264.215886 -7.2 
L 1259.075298 -7.2 
L 1253.93473 -7.2 
L 1248.794142 -7.2 
L 1243.653555 -7.2 
L 1238.512967 -7.2 
L 1233.372379 -7.2 
L 1228.231811 -7.2 
L 1223.091224 -7.2 
L 1217.950636 -7.2 
L 1212.810068 -7.2 
L 1207.66948 -7.2 
L 1202.528892 -7.2 
L 1197.388305 -7.2 
L 1192.247717 -7.2 
L 1187.107149 -7.2 
L 1181.966561 -7.2 
L 1176.825974 -7.2 
L 1171.685406 -7.2 
L 1166.544818 -7.2 
L 1161.40423 -7.2 
L 1156.263642 -7.2 
L 1151.123055 -7.2 
L 1145.982487 -7.2 
L 1140.841899 -7.2 
L 1135.701311 -7.2 
L 1130.560724 -7.2 
L 1125.420136 -7.2 
L 1120.279568 -7.2 
L 1115.13898 -7.2 
L 1109.998392 -7.2 
L 1104.857824 -7.2 
L 1099.717237 -7.2 
L 1094.576649 -7.2 
L 1089.436061 -7.2 
L 1084.295474 -7.2 
L 1079.154906 -7.2 
L 1074.014318 -7.2 
L 1068.87373 -7.2 
L 1063.733142 -7.2 
L 1058.592555 -7.2 
L 1053.451987 -7.2 
L 1048.311399 -7.2 
L 1043.170811 -7.2 
L 1038.030243 -7.2 
L 1032.889656 -7.2 
L 1027.749068 -7.2 
L 1022.60848 -7.2 
L 1017.467892 -7.2 
L 1012.327324 -7.2 
L 1007.186737 -7.2 
L 1002.046149 -7.2 
L 996.905561 -7.2 
L 991.764993 -7.2 
L 986.624386 -7.2 
L 981.483818 -7.2 
L 976.34325 -7.2 
L 971.202642 -7.2 
L 966.062074 -7.2 
L 960.921487 -7.2 
L 955.780899 -7.2 
L 950.640331 -7.2 
L 945.499724 -7.2 
L 940.359156 -7.2 
L 935.218588 -7.2 
L 930.07798 -7.2 
L 924.937412 -7.2 
L 919.796824 -7.2 
L 914.656237 -7.2 
L 909.515669 -7.2 
L 904.375061 -7.2 
L 899.234493 -7.2 
L 894.093906 -7.2 
L 888.953318 -7.2 
L 883.81275 -7.2 
L 878.672142 -7.2 
L 873.531574 -7.2 
L 868.391007 -7.2 
L 863.250399 -7.2 
L 858.109831 -7.2 
L 852.969224 -7.2 
L 847.828695 -7.2 
L 842.688088 -7.2 
L 837.54748 -7.2 
L 832.406873 -7.2 
L 827.266344 -7.2 
L 822.125737 -7.2 
L 816.985129 -7.2 
L 811.844601 -7.2 
L 806.703993 -7.2 
L 801.563386 -7.2 
L 796.422858 -7.2 
L 791.28225 -7.2 
L 786.141642 -7.2 
L 781.001114 -7.2 
L 775.860507 -7.2 
L 770.719899 -7.2 
L 765.579331 -7.2 
L 760.438763 -7.2 
L 755.298156 -7.2 
L 750.157548 -7.2 
L 745.01702 -7.2 
L 739.876412 -7.2 
L 734.735805 -7.2 
L 729.595276 -7.2 
L 724.454669 -7.2 
L 719.314061 -7.2 
L 714.173533 -7.2 
L 709.032925 -7.2 
L 703.892318 -7.2 
L 698.75175 -7.2 
L 693.611182 -7.2 
L 688.470574 -7.2 
L 683.330007 -7.2 
L 678.189439 -7.2 
L 673.048831 -7.2 
L 667.908224 -7.2 
z
" style="stroke: #0000ff; stroke-opacity: 0.3"/>
    </defs>
    <g clip-path="url(#pf0a57ad008)">
     <use xlink:href="#m04aa8aa036" x="0" y="352.8" style="fill: #0000ff; fill-opacity: 0.3; stroke: #0000ff; stroke-opacity: 0.3"/>
    </g>
   </g>
   <g id="line2d_5">
    <path d="M 954.804991 -1 
L 961.764393 18.975833 
L 969.754097 41.175936 
L 976.412184 59.079245 
L 983.07027 76.440029 
L 989.728357 93.258289 
L 996.386444 109.534024 
L 1003.04453 125.267235 
L 1009.702617 140.457921 
L 1016.360704 155.106083 
L 1023.01879 169.21172 
L 1029.676877 182.774832 
L 1036.334964 195.795421 
L 1042.99305 208.273484 
L 1049.651137 220.209023 
L 1056.309224 231.602038 
L 1061.635693 240.325832 
L 1066.962162 248.702411 
L 1072.288631 256.731773 
L 1077.615101 264.41392 
L 1082.94157 271.748852 
L 1088.268039 278.736567 
L 1093.594509 285.377067 
L 1098.920978 291.670351 
L 1104.247447 297.61642 
L 1109.573917 303.215273 
L 1114.900386 308.46691 
L 1120.226855 313.371332 
L 1125.553325 317.928538 
L 1130.879794 322.138528 
L 1136.206263 326.001302 
L 1141.532733 329.516861 
L 1146.859202 332.685204 
L 1150.854054 334.833601 
L 1154.848906 336.786689 
L 1158.843758 338.544469 
L 1162.83861 340.106939 
L 1166.833462 341.474101 
L 1170.828314 342.645954 
L 1174.823166 343.622498 
L 1178.818018 344.403733 
L 1182.81287 344.98966 
L 1186.807722 345.380278 
L 1190.802574 345.575586 
L 1194.797426 345.575586 
L 1198.792278 345.380278 
L 1202.78713 344.98966 
L 1206.781982 344.403733 
L 1210.776834 343.622498 
L 1214.771686 342.645954 
L 1218.766538 341.474101 
L 1222.76139 340.106939 
L 1226.756242 338.544469 
L 1230.751094 336.786689 
L 1234.745946 334.833601 
L 1238.740798 332.685204 
L 1242.73565 330.341498 
L 1248.062119 326.912743 
L 1253.388589 323.136773 
L 1258.715058 319.013587 
L 1264.041527 314.543185 
L 1269.367997 309.725567 
L 1274.694466 304.560734 
L 1280.020935 299.048685 
L 1285.347405 293.18942 
L 1290.673874 286.98294 
L 1296.000343 280.429244 
L 1301.326813 273.528332 
L 1306.653282 266.280205 
L 1311.979751 258.684861 
L 1317.306221 250.742303 
L 1322.63269 242.452528 
L 1327.959159 233.815538 
L 1333.285628 224.831332 
L 1339.943715 213.112803 
L 1346.601802 200.851749 
L 1353.259888 188.048171 
L 1359.917975 174.702068 
L 1366.576062 160.81344 
L 1373.234148 146.382289 
L 1379.892235 131.408612 
L 1386.550322 115.892411 
L 1393.208408 99.833686 
L 1399.866495 83.232436 
L 1406.524582 66.088662 
L 1413.182668 48.402363 
L 1419.840755 30.173539 
L 1427.830459 7.582819 
L 1430.795009 -1 
L 1430.795009 -1 
" clip-path="url(#pf0a57ad008)" style="fill: none; stroke: #ffa500; stroke-width: 13; stroke-linecap: square"/>
   </g>
   <g id="matplotlib.axis_5"/>
   <g id="matplotlib.axis_6"/>
   <g id="line2d_6">
    <path d="M 667.908224 345.6 
L 750.157548 345.517354 
L 816.985129 345.044467 
L 832.406873 344.750006 
L 842.688088 344.527254 
L 847.828695 344.380016 
L 858.109831 343.819016 
L 868.391007 343.310007 
L 873.531574 343.066439 
L 894.093906 341.536122 
L 904.375061 340.333672 
L 909.515669 340.130616 
L 914.656237 339.596978 
L 919.796824 338.812092 
L 930.07798 337.608559 
L 945.499724 335.104015 
L 960.921487 332.173604 
L 971.202642 329.654882 
L 976.34325 328.110341 
L 981.483818 326.892478 
L 986.624386 325.543403 
L 991.764993 323.703855 
L 996.905561 321.985266 
L 1002.046149 320.139599 
L 1007.186737 318.511521 
L 1012.327324 316.757139 
L 1017.467892 314.738063 
L 1022.60848 312.558875 
L 1027.749068 310.774345 
L 1032.889656 308.27008 
L 1038.030243 306.360727 
L 1043.170811 304.790456 
L 1048.311399 302.737775 
L 1053.451987 299.811453 
L 1058.592555 297.418554 
L 1063.733142 294.135009 
L 1074.014318 289.720878 
L 1084.295474 283.52748 
L 1089.436061 281.015215 
L 1094.576649 277.691368 
L 1099.717237 275.122775 
L 1104.857824 273.102059 
L 1115.13898 267.768991 
L 1120.279568 264.917929 
L 1130.560724 261.629709 
L 1135.701311 261.104726 
L 1140.841899 258.524219 
L 1145.982487 257.370884 
L 1151.123055 255.542823 
L 1156.263642 254.497043 
L 1161.40423 252.050351 
L 1166.544818 251.209842 
L 1171.685406 250.644276 
L 1176.825974 249.682081 
L 1181.966561 248.549323 
L 1187.107149 248.487274 
L 1192.247717 249.133116 
L 1197.388305 250.190186 
L 1202.528892 249.783336 
L 1212.810068 250.668906 
L 1217.950636 251.845652 
L 1223.091224 252.70074 
L 1228.231811 253.209035 
L 1238.512967 256.925499 
L 1243.653555 258.269589 
L 1259.075298 264.01594 
L 1264.215886 266.043293 
L 1269.356474 268.254414 
L 1274.497061 270.954937 
L 1279.637649 273.869407 
L 1284.778217 276.627371 
L 1289.918805 278.758617 
L 1295.059392 281.568609 
L 1300.19996 283.39448 
L 1305.340548 284.547615 
L 1310.481136 286.020539 
L 1315.621724 288.526079 
L 1320.762311 291.234344 
L 1325.902879 294.407179 
L 1331.043467 296.569486 
L 1336.184074 298.351557 
L 1351.605818 306.434371 
L 1356.746386 309.359781 
L 1367.027561 314.07276 
L 1377.308697 318.839912 
L 1382.449305 320.463262 
L 1387.589873 322.543267 
L 1392.73044 324.466356 
L 1403.011656 327.259327 
L 1408.152224 328.436893 
L 1413.292791 329.960348 
L 1423.573967 332.491498 
L 1428.714535 333.558973 
L 1433.8 334.474021 
L 1433.8 334.474021 
" clip-path="url(#pf0a57ad008)" style="fill: none; stroke: #0000ff; stroke-width: 13; stroke-linecap: square"/>
   </g>
   <g id="patch_9">
    <path d="M 1192.8 345.6 
L 1192.8 7.2 
" style="fill: none; stroke-dasharray: 22.2,9.6; stroke-dashoffset: 0; stroke: #000000; stroke-width: 6; stroke-linejoin: miter; stroke-linecap: square"/>
   </g>
   <g id="patch_10">
    <path d="M 960 345.6 
L 1425.6 345.6 
" style="fill: none; stroke: #000000; stroke-width: 6; stroke-linejoin: miter; stroke-linecap: square"/>
   </g>
  </g>
 </g>
 <defs>
  <clipPath id="p5872a36b34">
   <rect x="7.2" y="7.2" width="465.6" height="338.4"/>
  </clipPath>
  <clipPath id="padffb96f48">
   <rect x="483.6" y="7.2" width="465.6" height="338.4"/>
  </clipPath>
  <clipPath id="pf0a57ad008">
   <rect x="960" y="7.2" width="465.6" height="338.4"/>
  </clipPath>
 </defs>
</svg>
