<?xml version="1.0" encoding="utf-8" standalone="no"?>
<!DOCTYPE svg PUBLIC "-//W3C//DTD SVG 1.1//EN"
  "http://www.w3.org/Graphics/SVG/1.1/DTD/svg11.dtd">
<svg xmlns:xlink="http://www.w3.org/1999/xlink" width="576pt" height="360pt" viewBox="0 0 576 360" xmlns="http://www.w3.org/2000/svg" version="1.1">
 <metadata>
  <rdf:RDF xmlns:dc="http://purl.org/dc/elements/1.1/" xmlns:cc="http://creativecommons.org/ns#" xmlns:rdf="http://www.w3.org/1999/02/22-rdf-syntax-ns#">
   <cc:Work>
    <dc:type rdf:resource="http://purl.org/dc/dcmitype/StillImage"/>
    <dc:date>2025-11-23T19:17:17.246542</dc:date>
    <dc:format>image/svg+xml</dc:format>
    <dc:creator>
     <cc:Agent>
      <dc:title>Matplotlib v3.9.2, https://matplotlib.org/</dc:title>
     </cc:Agent>
    </dc:creator>
   </cc:Work>
  </rdf:RDF>
 </metadata>
 <defs>
  <style type="text/css">*{stroke-linejoin: round; stroke-linecap: butt}</style>
 </defs>
 <g id="figure_1">
  <g id="patch_1">
   <path d="M 0 360 
L 576 360 
L 576 0 
L 0 0 
z
" style="fill: #ffffff"/>
  </g>
  <g id="axes_1">
   <g id="patch_2">
    <path d="M 82.826119 284.7835 
L 559.44 284.7835 
L 559.44 10.8 
L 82.826119 10.8 
z
" style="fill: #ffffff"/>
   </g>
   <g id="line2d_1">
    <path d="M 82.826119 23.253795 
L 83.492429 31.988666 
L 84.158739 33.667003 
L 85.49136 38.782263 
L 86.157671 40.16677 
L 86.823981 42.184227 
L 87.490291 44.868697 
L 88.156602 46.949911 
L 89.489222 49.653003 
L 90.155533 52.053458 
L 90.821843 52.190922 
L 91.488154 52.526866 
L 92.154464 53.904482 
L 92.820774 56.136212 
L 94.153395 61.07975 
L 94.819705 60.439789 
L 95.486016 60.77789 
L 96.152326 62.590332 
L 96.818636 63.517775 
L 98.151257 64.960224 
L 98.817568 66.490739 
L 99.483878 66.488522 
L 100.816499 69.031618 
L 101.482809 69.764746 
L 102.149119 71.437322 
L 104.148051 75.287139 
L 104.814361 74.075359 
L 105.480671 76.403077 
L 106.813292 78.208469 
L 107.479602 76.823531 
L 108.145913 81.205973 
L 108.812223 80.131189 
L 109.478533 81.608426 
L 110.144844 81.235592 
L 110.811154 82.235856 
L 111.477465 84.029645 
L 112.143775 84.889767 
L 112.810085 86.710099 
L 113.476396 87.399414 
L 114.142706 86.996832 
L 114.809016 89.661165 
L 115.475327 90.756413 
L 116.141637 89.666023 
L 116.807947 89.445081 
L 117.474258 89.882243 
L 118.140568 91.150858 
L 118.806879 93.366284 
L 119.473189 97.11899 
L 120.139499 94.725207 
L 120.80581 95.258097 
L 121.47212 96.013419 
L 122.13843 96.033973 
L 122.804741 97.226053 
L 123.471051 99.520995 
L 124.137362 98.5596 
L 124.803672 99.600985 
L 125.469982 98.678416 
L 126.136293 98.213596 
L 126.802603 100.55804 
L 127.468913 99.963188 
L 128.135224 101.424622 
L 128.801534 102.058986 
L 129.467844 103.728854 
L 130.134155 104.073722 
L 130.800465 104.230131 
L 131.466776 103.281604 
L 132.133086 105.158098 
L 132.799396 105.825204 
L 133.465707 105.12803 
L 134.132017 106.151902 
L 134.798327 108.188985 
L 135.464638 109.374205 
L 136.130948 109.201284 
L 136.797258 109.562546 
L 137.463569 112.148311 
L 138.129879 111.140865 
L 138.79619 110.82347 
L 139.4625 112.634517 
L 140.12881 112.700812 
L 140.795121 114.905325 
L 141.461431 113.051776 
L 142.127741 113.476179 
L 142.794052 114.545791 
L 143.460362 114.937066 
L 144.126673 115.571026 
L 144.792983 115.490128 
L 145.459293 113.730398 
L 146.125604 115.864761 
L 146.791914 115.087823 
L 148.124535 118.031396 
L 148.790845 116.315007 
L 149.457155 115.50662 
L 150.123466 116.637028 
L 150.789776 118.645865 
L 151.456087 119.737557 
L 152.122397 124.639899 
L 152.788707 125.417783 
L 153.455018 122.037569 
L 154.121328 122.347678 
L 154.787638 123.770924 
L 155.453949 123.042799 
L 156.120259 125.215146 
L 156.78657 123.583826 
L 157.45288 125.39486 
L 158.11919 126.725361 
L 158.785501 125.915422 
L 159.451811 129.659258 
L 160.118121 129.144196 
L 160.784432 129.730799 
L 161.450742 128.30296 
L 162.117052 128.342541 
L 162.783363 127.40536 
L 163.449673 130.737462 
L 164.115984 129.385105 
L 164.782294 133.450403 
L 165.448604 131.568998 
L 166.114915 132.730492 
L 166.781225 135.495355 
L 167.447535 133.638867 
L 168.113846 134.363172 
L 168.780156 133.551525 
L 169.446466 134.843097 
L 170.112777 134.766987 
L 170.779087 138.535763 
L 171.445398 138.126001 
L 172.111708 137.402898 
L 172.778018 139.980936 
L 173.444329 141.044331 
L 174.110639 137.957409 
L 174.776949 140.108133 
L 175.44326 139.706521 
L 176.10957 139.661269 
L 176.775881 141.273672 
L 177.442191 141.768673 
L 178.108501 141.205784 
L 178.774812 141.546456 
L 179.441122 145.068057 
L 180.107432 143.328604 
L 180.773743 142.798266 
L 181.440053 141.918175 
L 182.106363 147.637981 
L 182.772674 146.317749 
L 183.438984 144.112476 
L 184.105295 146.952985 
L 184.771605 145.598844 
L 185.437915 146.908393 
L 186.104226 147.31741 
L 186.770536 145.216216 
L 187.436846 148.277586 
L 188.103157 146.79184 
L 189.435778 149.920773 
L 190.102088 149.485652 
L 190.768398 146.878413 
L 191.434709 147.976109 
L 192.101019 150.115263 
L 192.767329 149.865143 
L 193.43364 148.490557 
L 194.09995 152.062243 
L 194.76626 149.544235 
L 195.432571 150.921272 
L 196.098881 154.323471 
L 196.765192 154.276124 
L 197.431502 153.044456 
L 198.097812 156.24719 
L 198.764123 154.353054 
L 199.430433 154.771188 
L 200.096743 155.938167 
L 201.429364 161.324145 
L 202.095674 158.445369 
L 202.761985 160.930583 
L 203.428295 162.344412 
L 204.094606 160.300901 
L 204.760916 162.021426 
L 205.427226 161.861753 
L 206.093537 162.214158 
L 206.759847 162.956778 
L 207.426157 160.794744 
L 208.092468 162.324397 
L 208.758778 164.82499 
L 209.425089 162.340598 
L 210.091399 167.080676 
L 210.757709 166.438719 
L 211.42402 166.894254 
L 212.09033 163.752269 
L 212.75664 165.078437 
L 213.422951 163.798213 
L 214.089261 163.772452 
L 214.755571 166.84827 
L 215.421882 166.654229 
L 216.088192 165.863923 
L 216.754503 166.603445 
L 217.420813 166.483862 
L 218.087123 165.142164 
L 218.753434 167.040267 
L 219.419744 164.002921 
L 220.086054 165.902757 
L 220.752365 168.278705 
L 221.418675 167.889882 
L 222.084986 168.319977 
L 222.751296 169.413292 
L 223.417606 171.317028 
L 224.083917 170.37018 
L 224.750227 165.899156 
L 225.416537 169.725951 
L 226.082848 167.038867 
L 226.749158 169.838847 
L 227.415468 173.128723 
L 228.081779 171.395393 
L 228.748089 168.255555 
L 229.4144 172.675829 
L 230.08071 170.449001 
L 230.74702 170.745678 
L 231.413331 173.578231 
L 232.079641 171.881573 
L 232.745951 174.015581 
L 233.412262 173.322392 
L 234.078572 173.151304 
L 234.744882 172.093902 
L 235.411193 173.129592 
L 236.077503 177.079079 
L 236.743814 179.475143 
L 237.410124 178.612017 
L 238.076434 179.491859 
L 238.742745 176.866801 
L 239.409055 175.709213 
L 240.741676 177.087537 
L 241.407986 178.465751 
L 242.074297 176.645521 
L 242.740607 177.746413 
L 243.406917 173.411802 
L 244.073228 174.168944 
L 244.739538 178.188415 
L 245.405848 178.835035 
L 246.072159 178.227606 
L 246.738469 176.101782 
L 247.404779 178.666734 
L 248.07109 178.316621 
L 248.7374 174.76178 
L 249.403711 177.647731 
L 250.070021 181.698692 
L 250.736331 181.673188 
L 251.402642 180.900796 
L 252.068952 181.168376 
L 252.735262 180.511973 
L 253.401573 177.783148 
L 254.067883 178.886802 
L 254.734193 179.454744 
L 255.400504 180.888047 
L 256.066814 182.588081 
L 256.733125 181.162376 
L 257.399435 178.694989 
L 258.065745 177.920524 
L 258.732056 179.250948 
L 259.398366 181.632128 
L 260.064676 181.10667 
L 260.730987 182.213322 
L 261.397297 180.017936 
L 262.063608 180.208078 
L 262.729918 181.526225 
L 263.396228 180.722873 
L 264.062539 184.910579 
L 264.728849 182.624004 
L 265.395159 185.184351 
L 266.06147 185.450967 
L 266.72778 186.108392 
L 267.39409 184.916978 
L 268.060401 185.923032 
L 268.726711 189.711592 
L 269.393022 185.42934 
L 270.059332 189.229537 
L 270.725642 187.520416 
L 271.391953 189.188672 
L 272.058263 188.746741 
L 272.724573 190.756939 
L 273.390884 190.135744 
L 274.057194 191.149485 
L 274.723505 191.21952 
L 275.389815 188.332906 
L 276.056125 189.737382 
L 276.722436 193.09168 
L 277.388746 192.931932 
L 278.055056 192.094504 
L 278.721367 193.970399 
L 280.720298 190.029393 
L 281.386608 191.172958 
L 282.052919 190.737813 
L 282.719229 188.793037 
L 283.385539 188.465297 
L 284.05185 192.669028 
L 285.38447 192.503383 
L 286.050781 190.020539 
L 286.717091 191.041862 
L 287.383401 193.328831 
L 288.049712 192.99586 
L 288.716022 195.608462 
L 289.382333 195.708851 
L 290.714953 194.130733 
L 291.381264 195.094573 
L 292.047574 189.460487 
L 292.713884 196.462597 
L 294.046505 186.894436 
L 294.712816 192.102403 
L 295.379126 193.756143 
L 296.045436 200.633982 
L 296.711747 197.909123 
L 297.378057 197.468308 
L 298.044367 197.779036 
L 298.710678 194.560366 
L 299.376988 196.639353 
L 300.043298 197.87033 
L 300.709609 196.441247 
L 301.375919 194.542755 
L 302.04223 198.756239 
L 302.70854 202.170515 
L 303.37485 199.584707 
L 304.041161 195.821237 
L 304.707471 199.368718 
L 305.373781 199.525214 
L 306.040092 202.774453 
L 306.706402 200.447928 
L 307.372713 199.788108 
L 308.039023 200.494905 
L 308.705333 200.297269 
L 309.371644 199.527367 
L 310.037954 200.833387 
L 310.704264 198.659683 
L 311.370575 199.831078 
L 312.036885 198.553421 
L 312.703195 196.961204 
L 314.035816 203.710898 
L 314.702127 200.485679 
L 315.368437 201.344637 
L 316.034747 200.26513 
L 316.701058 197.660078 
L 317.367368 197.685736 
L 318.033678 200.274031 
L 318.699989 199.573757 
L 319.366299 197.327854 
L 320.032609 199.093172 
L 321.36523 203.921899 
L 322.031541 201.955405 
L 322.697851 205.382223 
L 323.364161 205.507905 
L 324.030472 208.44463 
L 324.696782 207.393526 
L 325.363092 208.373434 
L 326.029403 208.761195 
L 326.695713 211.202665 
L 327.362024 210.82687 
L 328.694644 211.03885 
L 329.360955 210.821572 
L 330.027265 209.815332 
L 330.693575 209.713487 
L 331.359886 212.425857 
L 332.026196 207.243377 
L 332.692506 213.195525 
L 333.358817 209.688918 
L 334.025127 211.523902 
L 334.691438 209.363492 
L 335.357748 211.375446 
L 336.024058 207.659364 
L 336.690369 208.697783 
L 337.356679 209.257404 
L 338.022989 208.208388 
L 338.6893 209.85078 
L 339.35561 208.38489 
L 340.021921 209.587465 
L 340.688231 214.373942 
L 341.354541 214.451263 
L 342.020852 213.090241 
L 342.687162 216.294883 
L 343.353472 220.879938 
L 344.019783 213.103394 
L 344.686093 211.873793 
L 345.352403 215.501965 
L 346.018714 217.589152 
L 346.685024 217.187375 
L 347.351335 216.542792 
L 348.017645 217.098442 
L 348.683955 212.70475 
L 349.350266 212.480189 
L 350.016576 212.42617 
L 350.682886 214.446172 
L 351.349197 218.22532 
L 352.015507 214.822836 
L 352.681817 219.988669 
L 353.348128 212.64302 
L 354.014438 219.726172 
L 354.680749 219.696995 
L 355.347059 217.945081 
L 356.013369 219.957855 
L 356.67968 214.152408 
L 357.34599 215.35326 
L 358.0123 214.57365 
L 358.678611 212.830412 
L 359.344921 218.93668 
L 360.011232 214.978726 
L 361.343852 210.7503 
L 362.010163 216.412388 
L 362.676473 216.762595 
L 363.342783 219.031739 
L 364.009094 217.767491 
L 364.675404 219.666566 
L 365.341714 218.897992 
L 366.008025 224.442549 
L 366.674335 219.473878 
L 367.340646 219.965267 
L 368.006956 218.856711 
L 368.673266 221.956746 
L 370.005887 225.389856 
L 370.672197 225.101334 
L 371.338508 226.003414 
L 372.004818 223.874726 
L 372.671128 223.649625 
L 373.337439 225.001459 
L 374.003749 219.578919 
L 374.67006 219.990208 
L 375.33637 226.714354 
L 376.00268 219.864449 
L 376.668991 219.484743 
L 377.335301 219.457703 
L 378.001611 221.332406 
L 378.667922 221.346253 
L 379.334232 220.73744 
L 380.000543 221.484973 
L 380.666853 220.923847 
L 381.333163 221.904276 
L 381.999474 224.347582 
L 382.665784 223.611471 
L 383.332094 224.619222 
L 383.998405 223.534579 
L 384.664715 222.107293 
L 385.331025 222.055529 
L 385.997336 224.053008 
L 386.663646 219.33555 
L 387.329957 222.883104 
L 387.996267 223.799218 
L 388.662577 220.06035 
L 389.328888 224.338703 
L 389.995198 223.977167 
L 390.661508 224.067147 
L 391.327819 226.020208 
L 391.994129 219.844749 
L 392.66044 226.889396 
L 393.32675 219.729011 
L 393.99306 220.911784 
L 394.659371 224.019417 
L 395.325681 221.655611 
L 395.991991 227.794751 
L 396.658302 228.708796 
L 397.324612 227.28914 
L 397.990922 229.017607 
L 398.657233 220.549592 
L 399.323543 224.357634 
L 399.989854 224.102003 
L 400.656164 224.960716 
L 401.322474 227.10958 
L 401.988785 221.546592 
L 402.655095 230.434808 
L 403.321405 228.695257 
L 403.987716 229.42499 
L 404.654026 221.954037 
L 405.320336 227.046693 
L 405.986647 226.630844 
L 406.652957 229.42605 
L 407.319268 227.314009 
L 407.985578 222.706479 
L 408.651888 230.88259 
L 409.318199 230.13447 
L 409.984509 228.432857 
L 410.650819 236.643803 
L 411.31713 233.666321 
L 411.98344 234.73446 
L 412.649751 231.778694 
L 413.316061 235.58173 
L 413.982371 237.368811 
L 414.648682 237.197943 
L 415.314992 236.587039 
L 415.981302 236.746498 
L 416.647613 233.760242 
L 417.313923 231.457696 
L 417.980233 236.087682 
L 418.646544 237.691513 
L 419.312854 233.449832 
L 419.979165 234.630549 
L 420.645475 231.705586 
L 421.311785 234.303742 
L 422.644406 233.237104 
L 423.310716 235.07505 
L 423.977027 238.72319 
L 424.643337 235.478149 
L 425.309648 228.948717 
L 425.975958 232.082642 
L 426.642268 230.032669 
L 427.974889 237.437213 
L 428.641199 236.740637 
L 429.30751 239.306298 
L 429.97382 235.57078 
L 430.64013 230.732449 
L 431.306441 238.275562 
L 431.972751 232.084343 
L 432.639062 232.529793 
L 433.305372 231.487455 
L 433.971682 234.368166 
L 434.637993 229.351115 
L 435.304303 238.790913 
L 435.970613 238.281881 
L 436.636924 240.988072 
L 437.303234 236.673439 
L 437.969544 239.156056 
L 438.635855 237.697842 
L 439.302165 232.243661 
L 439.968476 242.141407 
L 440.634786 238.29806 
L 441.301096 239.678842 
L 441.967407 240.18183 
L 442.633717 236.157139 
L 443.300027 233.203148 
L 443.966338 238.54149 
L 444.632648 231.664137 
L 445.298959 234.206379 
L 445.965269 231.878393 
L 446.631579 234.016551 
L 447.29789 239.130903 
L 447.9642 236.642964 
L 448.63051 231.175882 
L 449.296821 231.421918 
L 449.963131 231.476561 
L 450.629441 231.290812 
L 451.295752 237.648448 
L 451.962062 236.284579 
L 452.628373 239.946036 
L 453.294683 240.034928 
L 453.960993 235.853794 
L 454.627304 242.792174 
L 455.293614 239.597885 
L 455.959924 242.033235 
L 456.626235 236.157258 
L 457.292545 238.374962 
L 457.958856 238.235287 
L 458.625166 240.141547 
L 459.291476 238.168132 
L 459.957787 242.29153 
L 460.624097 240.668754 
L 461.290407 237.247341 
L 461.956718 236.036145 
L 462.623028 232.117428 
L 463.289338 238.753188 
L 464.621959 237.506128 
L 465.28827 242.18411 
L 465.95458 237.034253 
L 466.62089 244.182476 
L 467.287201 239.429503 
L 467.953511 241.316258 
L 468.619821 237.187698 
L 469.286132 241.472299 
L 469.952442 238.486672 
L 470.618752 239.638352 
L 471.285063 243.347119 
L 471.951373 244.91767 
L 472.617684 239.368304 
L 473.283994 236.993195 
L 473.950304 232.722945 
L 474.616615 240.658442 
L 475.282925 237.514672 
L 475.949235 235.198668 
L 476.615546 232.203737 
L 477.281856 234.90362 
L 477.948167 236.767036 
L 478.614477 234.247783 
L 479.280787 236.021925 
L 480.613408 229.854594 
L 481.279718 230.588095 
L 481.946029 233.063715 
L 482.612339 233.930545 
L 483.278649 236.920942 
L 483.94496 234.389109 
L 484.61127 230.963832 
L 485.277581 229.711817 
L 485.943891 231.775833 
L 486.610201 229.824979 
L 487.276512 231.908732 
L 487.942822 236.524075 
L 488.609132 233.482763 
L 489.275443 235.263087 
L 489.941753 235.568852 
L 490.608063 240.572818 
L 491.274374 235.394579 
L 491.940684 237.948249 
L 492.606995 237.897187 
L 493.273305 235.410792 
L 493.939615 231.138372 
L 494.605926 235.823402 
L 495.272236 235.065534 
L 495.938546 238.596459 
L 496.604857 239.343478 
L 497.271167 241.315273 
L 497.937478 236.129257 
L 498.603788 238.993094 
L 499.270098 239.426241 
L 499.936409 241.241396 
L 500.602719 242.398717 
L 501.269029 239.48903 
L 501.93534 237.629333 
L 502.60165 240.016665 
L 503.26796 249.245912 
L 503.934271 247.130569 
L 504.600581 247.315064 
L 505.266892 244.757349 
L 505.933202 243.415061 
L 507.265823 237.256761 
L 507.932133 242.287771 
L 508.598443 244.885635 
L 509.264754 243.325312 
L 509.931064 243.818756 
L 510.597375 245.279264 
L 511.263685 240.895041 
L 511.929995 238.912486 
L 512.596306 243.705427 
L 513.262616 239.119605 
L 513.928926 241.004141 
L 514.595237 239.740455 
L 515.261547 240.027748 
L 515.927857 228.666623 
L 516.594168 235.993459 
L 517.260478 239.340758 
L 517.926789 243.427362 
L 518.593099 242.908444 
L 519.92572 244.897771 
L 520.59203 236.934657 
L 521.25834 242.392569 
L 521.924651 244.041575 
L 522.590961 241.153622 
L 523.257271 239.765176 
L 523.923582 240.186023 
L 524.589892 240.220762 
L 525.256203 237.538352 
L 525.922513 236.722342 
L 526.588823 240.964027 
L 527.255134 241.582419 
L 527.921444 244.084223 
L 528.587754 245.403395 
L 529.254065 229.674489 
L 529.920375 247.414738 
L 531.252996 238.267935 
L 531.919306 238.648148 
L 532.585617 235.843249 
L 533.251927 239.5528 
L 534.584548 243.298008 
L 535.250858 239.466651 
L 535.917168 242.73079 
L 536.583479 243.007482 
L 537.249789 246.009248 
L 537.9161 247.384279 
L 538.58241 240.243327 
L 539.24872 245.450628 
L 539.915031 245.695911 
L 540.581341 244.276366 
L 541.247651 236.088854 
L 541.913962 243.975142 
L 542.580272 240.16738 
L 543.246583 234.776896 
L 543.912893 242.988014 
L 545.911824 247.449528 
L 546.578134 247.400308 
L 547.244445 242.788107 
L 547.910755 241.25192 
L 548.577065 244.956427 
L 549.243376 240.753573 
L 549.909686 244.507017 
L 550.575997 244.992581 
L 551.242307 241.685278 
L 551.908617 241.306779 
L 552.574928 242.487188 
L 553.241238 241.501068 
L 553.907548 237.625901 
L 554.573859 246.831728 
L 555.240169 249.350731 
L 555.906479 247.951229 
L 556.57279 246.045603 
L 557.2391 245.120536 
L 557.905411 244.606905 
L 558.571721 245.035658 
L 559.238031 251.108796 
L 559.904342 242.165613 
L 559.904342 242.165613 
" clip-path="url(#p47ea03555b)" style="fill: none; stroke: #0000ff; stroke-width: 3; stroke-linecap: square"/>
   </g>
   <g id="line2d_2">
    <path d="M 82.826119 23.859781 
L 83.492429 53.302363 
L 84.82505 65.109211 
L 85.49136 73.743761 
L 86.157671 79.0919 
L 88.156602 92.114514 
L 88.822912 94.538513 
L 89.489222 99.578487 
L 90.155533 101.464604 
L 90.821843 104.968739 
L 92.154464 110.671991 
L 92.820774 115.902152 
L 93.487085 114.738724 
L 94.153395 118.188734 
L 94.819705 120.310644 
L 95.486016 121.175164 
L 96.152326 123.96325 
L 96.818636 123.750631 
L 97.484947 127.875268 
L 98.151257 128.813885 
L 98.817568 130.933669 
L 99.483878 132.244835 
L 100.150188 136.27215 
L 100.816499 136.792659 
L 101.482809 141.032697 
L 102.149119 141.24229 
L 102.81543 145.026734 
L 103.48174 146.807557 
L 104.148051 151.478544 
L 104.814361 154.390079 
L 106.146982 159.15057 
L 106.813292 156.891733 
L 107.479602 159.723904 
L 108.145913 158.830233 
L 108.812223 157.532386 
L 109.478533 158.926602 
L 110.144844 160.781846 
L 110.811154 162.195423 
L 111.477465 165.771945 
L 112.143775 167.165682 
L 112.810085 169.486023 
L 113.476396 171.250566 
L 114.142706 170.710581 
L 114.809016 173.593633 
L 115.475327 173.061283 
L 116.141637 173.156928 
L 116.807947 175.293809 
L 117.474258 173.377535 
L 118.140568 175.699226 
L 118.806879 173.935539 
L 119.473189 176.089824 
L 120.139499 177.199261 
L 120.80581 176.282305 
L 121.47212 176.958902 
L 122.13843 173.864421 
L 122.804741 180.900981 
L 123.471051 182.076262 
L 124.137362 180.790927 
L 124.803672 178.619095 
L 125.469982 180.196472 
L 126.136293 183.425838 
L 126.802603 182.147672 
L 127.468913 185.932672 
L 128.135224 182.653058 
L 128.801534 186.423268 
L 129.467844 186.7385 
L 130.134155 184.574243 
L 130.800465 181.714714 
L 131.466776 182.683933 
L 132.133086 182.975406 
L 132.799396 188.744698 
L 133.465707 189.26592 
L 134.132017 190.828221 
L 134.798327 195.905344 
L 135.464638 199.225543 
L 136.130948 199.21775 
L 136.797258 201.463617 
L 137.463569 199.351374 
L 138.129879 203.909924 
L 138.79619 202.584731 
L 139.4625 199.495117 
L 140.12881 204.940911 
L 140.795121 200.4844 
L 141.461431 203.114732 
L 142.127741 200.620245 
L 142.794052 202.507412 
L 143.460362 198.25606 
L 144.126673 209.856367 
L 144.792983 208.119895 
L 145.459293 208.766124 
L 146.125604 208.855402 
L 146.791914 210.291921 
L 147.458224 214.11049 
L 148.124535 216.188418 
L 148.790845 213.668456 
L 149.457155 221.449039 
L 150.123466 217.417682 
L 150.789776 221.427501 
L 151.456087 218.649708 
L 152.122397 216.802618 
L 152.788707 213.296366 
L 153.455018 214.323933 
L 154.121328 214.475924 
L 154.787638 216.402816 
L 155.453949 220.119181 
L 156.120259 220.881326 
L 156.78657 220.097756 
L 157.45288 224.387537 
L 158.11919 216.787877 
L 158.785501 223.234544 
L 159.451811 216.280919 
L 160.118121 223.301559 
L 160.784432 223.247717 
L 161.450742 226.269176 
L 162.117052 223.405092 
L 162.783363 227.057954 
L 163.449673 225.349314 
L 164.115984 227.474347 
L 164.782294 226.471359 
L 165.448604 228.072622 
L 166.114915 227.885411 
L 166.781225 232.536162 
L 167.447535 230.782433 
L 168.113846 235.810262 
L 168.780156 229.226885 
L 169.446466 238.894115 
L 170.112777 232.954208 
L 170.779087 228.673932 
L 171.445398 230.467552 
L 172.111708 228.062402 
L 172.778018 227.93396 
L 173.444329 228.423962 
L 174.110639 226.365021 
L 174.776949 224.686293 
L 175.44326 232.401384 
L 176.10957 236.806946 
L 176.775881 240.300047 
L 177.442191 237.579166 
L 178.108501 233.847486 
L 178.774812 235.4957 
L 179.441122 229.215673 
L 180.107432 237.20411 
L 180.773743 235.331816 
L 181.440053 234.586956 
L 182.772674 233.542156 
L 183.438984 236.709642 
L 184.105295 238.702801 
L 184.771605 237.061273 
L 185.437915 235.845928 
L 186.104226 230.129061 
L 186.770536 233.617123 
L 187.436846 233.378145 
L 188.103157 237.196413 
L 188.769467 243.153535 
L 189.435778 243.917736 
L 190.102088 240.401998 
L 191.434709 240.312339 
L 192.101019 247.30593 
L 192.767329 242.987398 
L 193.43364 244.777585 
L 194.09995 247.733497 
L 194.76626 243.01202 
L 195.432571 245.004125 
L 196.098881 249.406541 
L 196.765192 243.719803 
L 197.431502 242.598841 
L 198.097812 229.875328 
L 198.764123 239.673208 
L 199.430433 240.913447 
L 200.096743 242.456471 
L 200.763054 246.58895 
L 201.429364 243.960984 
L 202.095674 243.324893 
L 202.761985 250.078834 
L 203.428295 238.555538 
L 204.094606 246.69935 
L 204.760916 238.374315 
L 205.427226 242.871853 
L 206.093537 245.814287 
L 206.759847 244.379137 
L 207.426157 240.58238 
L 208.092468 242.704001 
L 208.758778 243.682852 
L 209.425089 238.488496 
L 210.091399 237.344564 
L 210.757709 230.81134 
L 211.42402 239.321387 
L 212.09033 241.963723 
L 212.75664 239.296385 
L 213.422951 238.266546 
L 214.089261 229.68406 
L 214.755571 231.809864 
L 215.421882 234.386995 
L 216.088192 238.661435 
L 216.754503 230.747672 
L 217.420813 233.141488 
L 218.087123 236.944277 
L 218.753434 235.730306 
L 220.086054 246.541188 
L 220.752365 246.87313 
L 221.418675 238.077713 
L 222.084986 240.585701 
L 222.751296 240.171992 
L 223.417606 248.52492 
L 224.083917 240.516096 
L 224.750227 239.483439 
L 225.416537 245.006323 
L 226.082848 246.2348 
L 226.749158 241.165119 
L 227.415468 234.011888 
L 228.081779 250.897337 
L 228.748089 251.755968 
L 229.4144 251.837289 
L 230.08071 247.741213 
L 230.74702 248.141707 
L 231.413331 248.373353 
L 232.079641 245.020423 
L 232.745951 250.162267 
L 233.412262 243.69799 
L 234.078572 252.698429 
L 234.744882 249.117934 
L 235.411193 249.107264 
L 236.077503 247.352868 
L 236.743814 256.323543 
L 237.410124 248.755055 
L 238.076434 252.082128 
L 238.742745 247.405843 
L 239.409055 250.68177 
L 240.075365 254.620792 
L 240.741676 254.179169 
L 242.074297 250.416303 
L 242.740607 238.9979 
L 244.073228 246.197425 
L 244.739538 244.906817 
L 245.405848 244.709056 
L 246.072159 247.280303 
L 246.738469 244.221037 
L 247.404779 248.466085 
L 248.07109 245.867274 
L 248.7374 244.427189 
L 249.403711 244.255158 
L 250.070021 253.067013 
L 250.736331 248.108302 
L 251.402642 240.26604 
L 252.068952 246.459552 
L 252.735262 247.469854 
L 253.401573 240.407106 
L 254.067883 242.852497 
L 254.734193 242.810931 
L 255.400504 247.267936 
L 256.733125 244.858495 
L 257.399435 242.527644 
L 258.065745 243.784953 
L 258.732056 254.892356 
L 259.398366 251.939229 
L 260.064676 246.285516 
L 260.730987 237.487598 
L 262.063608 250.077986 
L 262.729918 251.266107 
L 263.396228 248.069498 
L 264.062539 247.410201 
L 264.728849 252.68727 
L 265.395159 249.441418 
L 266.06147 253.133942 
L 266.72778 249.956135 
L 267.39409 250.991257 
L 268.060401 252.74686 
L 268.726711 252.511521 
L 269.393022 256.242308 
L 270.059332 248.887536 
L 270.725642 249.267826 
L 271.391953 248.055145 
L 272.058263 248.256135 
L 272.724573 251.567576 
L 273.390884 254.07439 
L 274.057194 253.257951 
L 274.723505 253.664946 
L 275.389815 249.10755 
L 276.056125 248.830875 
L 276.722436 251.369329 
L 277.388746 246.906661 
L 278.055056 246.148896 
L 278.721367 257.3235 
L 279.387677 246.572677 
L 280.053987 243.453354 
L 280.720298 244.805762 
L 281.386608 241.128613 
L 282.052919 246.362838 
L 282.719229 242.36024 
L 283.385539 242.335378 
L 284.05185 244.348952 
L 284.71816 245.531401 
L 285.38447 244.232191 
L 286.050781 251.330385 
L 286.717091 249.767756 
L 287.383401 242.782736 
L 288.049712 240.113682 
L 288.716022 241.51657 
L 289.382333 250.910816 
L 290.048643 248.950442 
L 290.714953 249.966198 
L 291.381264 255.416191 
L 292.047574 254.952027 
L 292.713884 258.520517 
L 293.380195 259.90339 
L 294.712816 246.946665 
L 295.379126 251.155745 
L 296.045436 253.343578 
L 296.711747 249.372302 
L 297.378057 249.45088 
L 298.044367 244.607705 
L 298.710678 256.908825 
L 300.043298 244.752251 
L 300.709609 246.160232 
L 301.375919 250.742464 
L 302.04223 253.296192 
L 302.70854 251.676419 
L 303.37485 250.903447 
L 304.041161 256.899277 
L 304.707471 250.157394 
L 305.373781 248.61574 
L 306.040092 253.543516 
L 306.706402 254.193606 
L 307.372713 255.747739 
L 308.039023 247.747011 
L 308.705333 256.344198 
L 309.371644 256.877999 
L 310.037954 253.342109 
L 310.704264 254.456714 
L 312.036885 248.76436 
L 312.703195 249.879024 
L 313.369506 249.88765 
L 314.035816 246.979436 
L 314.702127 250.87313 
L 315.368437 255.665529 
L 316.034747 252.883619 
L 316.701058 253.875862 
L 317.367368 251.325972 
L 318.033678 256.595534 
L 318.699989 250.313931 
L 319.366299 252.37737 
L 320.032609 253.338251 
L 320.69892 252.63082 
L 322.031541 259.736906 
L 322.697851 252.667411 
L 323.364161 248.434465 
L 324.030472 250.843104 
L 324.696782 245.193766 
L 325.363092 249.774197 
L 326.029403 248.48641 
L 326.695713 243.086847 
L 327.362024 249.705681 
L 328.028334 254.895954 
L 328.694644 251.040108 
L 329.360955 252.662819 
L 330.027265 257.272871 
L 330.693575 251.763961 
L 331.359886 256.624598 
L 332.026196 254.306711 
L 332.692506 258.80068 
L 333.358817 251.672491 
L 334.025127 251.605687 
L 334.691438 252.795171 
L 335.357748 246.324523 
L 336.024058 242.838377 
L 336.690369 246.206514 
L 337.356679 251.630023 
L 338.022989 248.557846 
L 338.6893 247.232713 
L 339.35561 254.64855 
L 340.021921 252.948331 
L 340.688231 246.163163 
L 341.354541 248.047988 
L 342.020852 252.682705 
L 342.687162 248.775946 
L 343.353472 255.75789 
L 344.019783 257.619314 
L 344.686093 255.228433 
L 345.352403 253.742714 
L 346.018714 256.983289 
L 346.685024 257.091245 
L 347.351335 258.939807 
L 348.017645 258.895633 
L 348.683955 262.11443 
L 349.350266 253.322636 
L 350.016576 260.311525 
L 350.682886 258.231288 
L 351.349197 255.515518 
L 352.015507 254.6866 
L 352.681817 255.133223 
L 353.348128 254.790928 
L 354.014438 250.922128 
L 354.680749 253.661343 
L 355.347059 254.999311 
L 356.013369 249.654471 
L 356.67968 256.684248 
L 357.34599 259.494415 
L 358.0123 257.835181 
L 358.678611 255.352866 
L 359.344921 252.105 
L 360.011232 252.752459 
L 360.677542 255.590275 
L 361.343852 249.639045 
L 362.010163 249.300235 
L 362.676473 251.191945 
L 363.342783 256.240473 
L 364.009094 249.06073 
L 364.675404 257.233885 
L 365.341714 251.047498 
L 366.008025 257.096152 
L 366.674335 250.879635 
L 367.340646 246.675344 
L 368.006956 250.145128 
L 369.339577 239.381126 
L 370.005887 244.868295 
L 370.672197 246.890035 
L 371.338508 239.864206 
L 372.004818 244.350714 
L 372.671128 243.947095 
L 373.337439 245.411312 
L 374.003749 243.922655 
L 374.67006 236.738333 
L 375.33637 246.867926 
L 376.00268 251.482645 
L 377.335301 246.076028 
L 378.001611 241.814462 
L 378.667922 250.547864 
L 379.334232 245.793822 
L 380.000543 246.982077 
L 380.666853 245.269193 
L 381.333163 245.895799 
L 381.999474 243.921815 
L 382.665784 246.726284 
L 383.332094 246.458626 
L 383.998405 249.542604 
L 384.664715 246.941498 
L 385.331025 244.955274 
L 385.997336 251.655765 
L 386.663646 248.988085 
L 387.329957 253.456734 
L 387.996267 245.308124 
L 388.662577 249.355824 
L 389.328888 249.216618 
L 389.995198 249.705341 
L 390.661508 256.8949 
L 391.327819 258.463084 
L 392.66044 246.713201 
L 393.32675 255.021897 
L 393.99306 249.870941 
L 394.659371 256.144282 
L 395.325681 253.007247 
L 395.991991 256.248132 
L 396.658302 251.075383 
L 397.324612 247.815062 
L 397.990922 243.325293 
L 398.657233 246.184432 
L 399.323543 246.805775 
L 400.656164 250.116533 
L 401.322474 255.499741 
L 401.988785 246.522396 
L 402.655095 247.701221 
L 403.321405 244.425158 
L 404.654026 251.66197 
L 405.320336 248.872718 
L 405.986647 251.479577 
L 406.652957 258.294078 
L 407.985578 245.749845 
L 408.651888 247.224671 
L 409.318199 250.802417 
L 409.984509 250.171636 
L 410.650819 250.135103 
L 411.31713 253.653182 
L 411.98344 259.943268 
L 412.649751 258.406562 
L 413.316061 250.038619 
L 413.982371 247.040032 
L 414.648682 255.174542 
L 415.314992 254.467324 
L 415.981302 256.103801 
L 416.647613 252.993681 
L 417.313923 256.508302 
L 417.980233 255.104697 
L 418.646544 254.415631 
L 419.312854 259.15141 
L 419.979165 253.147144 
L 420.645475 250.835009 
L 421.311785 240.541059 
L 421.978096 251.814718 
L 422.644406 249.67867 
L 423.310716 253.909326 
L 424.643337 251.654725 
L 425.309648 257.595448 
L 425.975958 258.049406 
L 426.642268 250.496069 
L 427.974889 255.609976 
L 428.641199 253.108813 
L 429.30751 255.072819 
L 429.97382 252.16412 
L 430.64013 247.603239 
L 431.306441 253.773724 
L 431.972751 251.324427 
L 432.639062 252.929528 
L 433.305372 252.507136 
L 433.971682 259.155684 
L 434.637993 254.440964 
L 435.304303 250.844612 
L 435.970613 257.242803 
L 436.636924 260.623299 
L 437.303234 247.175162 
L 437.969544 258.291677 
L 438.635855 242.081823 
L 439.968476 255.175867 
L 440.634786 248.327526 
L 441.301096 254.340877 
L 441.967407 249.293232 
L 442.633717 246.992056 
L 443.300027 250.662536 
L 443.966338 249.440106 
L 444.632648 248.666395 
L 445.298959 248.389886 
L 445.965269 243.652029 
L 446.631579 245.831452 
L 447.29789 244.518331 
L 447.9642 247.458235 
L 448.63051 247.440682 
L 449.296821 244.323647 
L 449.963131 250.793056 
L 450.629441 256.129182 
L 451.295752 239.414863 
L 451.962062 250.305776 
L 452.628373 247.521804 
L 453.294683 249.146985 
L 455.293614 243.314956 
L 455.959924 251.612047 
L 456.626235 257.363135 
L 457.292545 251.417395 
L 457.958856 260.121198 
L 458.625166 255.422208 
L 459.291476 261.914708 
L 459.957787 255.73269 
L 460.624097 265.580636 
L 461.290407 256.479843 
L 461.956718 258.414232 
L 462.623028 260.700806 
L 463.289338 261.462312 
L 463.955649 252.140059 
L 464.621959 255.986816 
L 465.28827 254.396036 
L 465.95458 258.23759 
L 466.62089 248.860638 
L 467.287201 249.353467 
L 468.619821 254.783665 
L 469.286132 252.694607 
L 469.952442 254.588947 
L 470.618752 249.971852 
L 471.951373 260.53015 
L 472.617684 245.003666 
L 473.283994 244.066143 
L 473.950304 245.270034 
L 474.616615 244.182333 
L 475.949235 249.936906 
L 476.615546 244.311282 
L 477.281856 244.614724 
L 477.948167 247.937471 
L 478.614477 255.413492 
L 479.280787 253.902858 
L 479.947098 248.812578 
L 480.613408 252.065934 
L 481.279718 245.953061 
L 481.946029 249.382179 
L 482.612339 240.704488 
L 483.278649 246.731973 
L 483.94496 249.859225 
L 484.61127 254.556185 
L 485.277581 244.974778 
L 485.943891 254.594092 
L 486.610201 254.685385 
L 487.276512 249.921798 
L 487.942822 255.728085 
L 488.609132 244.967681 
L 489.275443 250.338251 
L 489.941753 248.535999 
L 490.608063 249.683734 
L 491.274374 254.874291 
L 491.940684 254.056139 
L 492.606995 249.081355 
L 493.273305 249.649027 
L 493.939615 253.006864 
L 495.272236 239.827997 
L 495.938546 246.404634 
L 496.604857 241.128563 
L 497.271167 239.188085 
L 497.937478 241.764843 
L 498.603788 238.673148 
L 499.270098 245.76366 
L 499.936409 246.513493 
L 501.269029 256.891966 
L 501.93534 249.136117 
L 502.60165 253.089671 
L 503.26796 253.333123 
L 503.934271 254.731241 
L 505.933202 248.499169 
L 506.599512 250.275339 
L 507.265823 254.151168 
L 507.932133 261.069438 
L 508.598443 259.518263 
L 509.264754 255.685874 
L 509.931064 256.627812 
L 510.597375 249.48892 
L 511.263685 251.748839 
L 511.929995 250.940985 
L 512.596306 255.179898 
L 513.262616 258.000046 
L 513.928926 259.857571 
L 514.595237 264.883804 
L 515.261547 257.144344 
L 515.927857 262.256316 
L 516.594168 265.102871 
L 517.260478 250.855727 
L 517.926789 260.757869 
L 518.593099 263.654388 
L 519.259409 263.131946 
L 519.92572 265.632105 
L 520.59203 264.785619 
L 521.25834 267.199 
L 521.924651 259.402 
L 522.590961 257.544323 
L 523.257271 259.977363 
L 523.923582 265.283704 
L 524.589892 260.224432 
L 525.256203 264.509486 
L 525.922513 258.481801 
L 526.588823 255.457834 
L 527.255134 255.37773 
L 527.921444 257.633285 
L 528.587754 255.507584 
L 529.254065 261.226319 
L 529.920375 261.41006 
L 530.586686 256.178669 
L 531.252996 252.555429 
L 531.919306 255.340392 
L 532.585617 251.111634 
L 533.251927 250.45878 
L 533.918237 255.218405 
L 534.584548 263.365058 
L 535.917168 247.08061 
L 536.583479 251.832319 
L 537.249789 251.160413 
L 537.9161 252.682761 
L 538.58241 248.479723 
L 539.24872 251.698696 
L 539.915031 266.749243 
L 540.581341 258.069402 
L 541.247651 261.408367 
L 541.913962 265.565292 
L 542.580272 265.709842 
L 543.246583 263.759303 
L 543.912893 263.420913 
L 544.579203 264.424712 
L 545.245514 261.809816 
L 545.911824 248.421252 
L 546.578134 267.421066 
L 547.244445 264.736014 
L 547.910755 251.693363 
L 548.577065 253.401986 
L 549.243376 261.009296 
L 549.909686 261.301729 
L 550.575997 262.4283 
L 551.242307 252.761785 
L 551.908617 257.954356 
L 552.574928 261.359928 
L 553.241238 256.643458 
L 553.907548 250.574786 
L 554.573859 259.011762 
L 555.240169 261.252988 
L 555.906479 255.020598 
L 556.57279 254.947223 
L 557.2391 248.328624 
L 557.905411 243.955542 
L 558.571721 251.216216 
L 559.238031 262.000736 
L 559.904342 260.924933 
L 559.904342 260.924933 
" clip-path="url(#p47ea03555b)" style="fill: none; stroke: #cc0033; stroke-width: 3; stroke-linecap: square"/>
   </g>
   <g id="matplotlib.axis_1">
    <g id="xtick_1">
     <g id="line2d_3">
      <defs>
       <path id="m6dad9c3716" d="M 0 0 
L 0 -6 
" style="stroke: #000000; stroke-width: 0.7"/>
      </defs>
      <g>
       <use xlink:href="#m6dad9c3716" x="82.826119" y="284.7835" style="stroke: #000000; stroke-width: 0.7"/>
      </g>
     </g>
     <g id="text_1">
      <!-- 0 -->
      <g transform="translate(77.099869 301.960688) scale(0.18 -0.18)">
       <defs>
        <path id="DejaVuSans-30" d="M 2034 4250 
Q 1547 4250 1301 3770 
Q 1056 3291 1056 2328 
Q 1056 1369 1301 889 
Q 1547 409 2034 409 
Q 2525 409 2770 889 
Q 3016 1369 3016 2328 
Q 3016 3291 2770 3770 
Q 2525 4250 2034 4250 
z
M 2034 4750 
Q 2819 4750 3233 4129 
Q 3647 3509 3647 2328 
Q 3647 1150 3233 529 
Q 2819 -91 2034 -91 
Q 1250 -91 836 529 
Q 422 1150 422 2328 
Q 422 3509 836 4129 
Q 1250 4750 2034 4750 
z
" transform="scale(0.015625)"/>
       </defs>
       <use xlink:href="#DejaVuSans-30"/>
      </g>
     </g>
    </g>
    <g id="xtick_2">
     <g id="line2d_4">
      <g>
       <use xlink:href="#m6dad9c3716" x="321.133059" y="284.7835" style="stroke: #000000; stroke-width: 0.7"/>
      </g>
     </g>
     <g id="text_2">
      <!-- 3 -->
      <g transform="translate(315.406809 301.960688) scale(0.18 -0.18)">
       <defs>
        <path id="DejaVuSans-33" d="M 2597 2516 
Q 3050 2419 3304 2112 
Q 3559 1806 3559 1356 
Q 3559 666 3084 287 
Q 2609 -91 1734 -91 
Q 1441 -91 1130 -33 
Q 819 25 488 141 
L 488 750 
Q 750 597 1062 519 
Q 1375 441 1716 441 
Q 2309 441 2620 675 
Q 2931 909 2931 1356 
Q 2931 1769 2642 2001 
Q 2353 2234 1838 2234 
L 1294 2234 
L 1294 2753 
L 1863 2753 
Q 2328 2753 2575 2939 
Q 2822 3125 2822 3475 
Q 2822 3834 2567 4026 
Q 2313 4219 1838 4219 
Q 1578 4219 1281 4162 
Q 984 4106 628 3988 
L 628 4550 
Q 988 4650 1302 4700 
Q 1616 4750 1894 4750 
Q 2613 4750 3031 4423 
Q 3450 4097 3450 3541 
Q 3450 3153 3228 2886 
Q 3006 2619 2597 2516 
z
" transform="scale(0.015625)"/>
       </defs>
       <use xlink:href="#DejaVuSans-33"/>
      </g>
     </g>
    </g>
    <g id="xtick_3">
     <g id="line2d_5">
      <g>
       <use xlink:href="#m6dad9c3716" x="559.44" y="284.7835" style="stroke: #000000; stroke-width: 0.7"/>
      </g>
     </g>
     <g id="text_3">
      <!-- 6 -->
      <g transform="translate(553.71375 301.960688) scale(0.18 -0.18)">
       <defs>
        <path id="DejaVuSans-36" d="M 2113 2584 
Q 1688 2584 1439 2293 
Q 1191 2003 1191 1497 
Q 1191 994 1439 701 
Q 1688 409 2113 409 
Q 2538 409 2786 701 
Q 3034 994 3034 1497 
Q 3034 2003 2786 2293 
Q 2538 2584 2113 2584 
z
M 3366 4563 
L 3366 3988 
Q 3128 4100 2886 4159 
Q 2644 4219 2406 4219 
Q 1781 4219 1451 3797 
Q 1122 3375 1075 2522 
Q 1259 2794 1537 2939 
Q 1816 3084 2150 3084 
Q 2853 3084 3261 2657 
Q 3669 2231 3669 1497 
Q 3669 778 3244 343 
Q 2819 -91 2113 -91 
Q 1303 -91 875 529 
Q 447 1150 447 2328 
Q 447 3434 972 4092 
Q 1497 4750 2381 4750 
Q 2619 4750 2861 4703 
Q 3103 4656 3366 4563 
z
" transform="scale(0.015625)"/>
       </defs>
       <use xlink:href="#DejaVuSans-36"/>
      </g>
     </g>
    </g>
    <g id="xtick_4">
     <g id="line2d_6">
      <g>
       <use xlink:href="#m6dad9c3716" x="342.687162" y="284.7835" style="stroke: #000000; stroke-width: 0.7"/>
      </g>
     </g>
     <g id="text_4">
      <!-- $\mathcal{T}_{\rm eq}$ -->
      <g style="fill: #0000ff" transform="translate(324.812162 306.5335) scale(0.25 -0.25)">
       <defs>
        <path id="STIXNonUnicode-Italic-e240" d="M 4557 4614 
L 4672 4518 
Q 4134 3635 2746 3578 
L 2054 1197 
Q 1933 787 1801 537 
Q 1670 288 1484 173 
Q 1299 58 1136 29 
Q 973 0 691 0 
L 749 154 
Q 934 154 1059 326 
Q 1184 499 1286 870 
L 1882 2944 
Q 2042 3520 2042 3635 
Q 2042 3731 1974 3785 
Q 1907 3840 1818 3840 
Q 1498 3840 1110 3664 
Q 723 3488 390 3053 
L 262 3142 
Q 678 3744 1212 3993 
Q 1747 4243 2733 4243 
Q 2867 4243 3078 4224 
Q 3290 4205 3379 4205 
Q 4288 4205 4557 4614 
z
" transform="scale(0.015625)"/>
        <path id="DejaVuSans-65" d="M 3597 1894 
L 3597 1613 
L 953 1613 
Q 991 1019 1311 708 
Q 1631 397 2203 397 
Q 2534 397 2845 478 
Q 3156 559 3463 722 
L 3463 178 
Q 3153 47 2828 -22 
Q 2503 -91 2169 -91 
Q 1331 -91 842 396 
Q 353 884 353 1716 
Q 353 2575 817 3079 
Q 1281 3584 2069 3584 
Q 2775 3584 3186 3129 
Q 3597 2675 3597 1894 
z
M 3022 2063 
Q 3016 2534 2758 2815 
Q 2500 3097 2075 3097 
Q 1594 3097 1305 2825 
Q 1016 2553 972 2059 
L 3022 2063 
z
" transform="scale(0.015625)"/>
        <path id="DejaVuSans-71" d="M 947 1747 
Q 947 1113 1208 752 
Q 1469 391 1925 391 
Q 2381 391 2643 752 
Q 2906 1113 2906 1747 
Q 2906 2381 2643 2742 
Q 2381 3103 1925 3103 
Q 1469 3103 1208 2742 
Q 947 2381 947 1747 
z
M 2906 525 
Q 2725 213 2448 61 
Q 2172 -91 1784 -91 
Q 1150 -91 751 415 
Q 353 922 353 1747 
Q 353 2572 751 3078 
Q 1150 3584 1784 3584 
Q 2172 3584 2448 3432 
Q 2725 3281 2906 2969 
L 2906 3500 
L 3481 3500 
L 3481 -1331 
L 2906 -1331 
L 2906 525 
z
" transform="scale(0.015625)"/>
       </defs>
       <use xlink:href="#STIXNonUnicode-Italic-e240" transform="translate(0 0.90625)"/>
       <use xlink:href="#DejaVuSans-65" transform="translate(51.857025 -15.5) scale(0.7)"/>
       <use xlink:href="#DejaVuSans-71" transform="translate(94.923431 -15.5) scale(0.7)"/>
      </g>
     </g>
    </g>
    <g id="xtick_5">
     <g id="line2d_7">
      <g>
       <use xlink:href="#m6dad9c3716" x="148.124535" y="284.7835" style="stroke: #000000; stroke-width: 0.7"/>
      </g>
     </g>
     <g id="text_5">
      <!-- $\mathcal{T}_{\rm SR}$ -->
      <g style="fill: #cc0033" transform="translate(129.624535 307.279594) scale(0.25 -0.25)">
       <defs>
        <path id="DejaVuSans-53" d="M 3425 4513 
L 3425 3897 
Q 3066 4069 2747 4153 
Q 2428 4238 2131 4238 
Q 1616 4238 1336 4038 
Q 1056 3838 1056 3469 
Q 1056 3159 1242 3001 
Q 1428 2844 1947 2747 
L 2328 2669 
Q 3034 2534 3370 2195 
Q 3706 1856 3706 1288 
Q 3706 609 3251 259 
Q 2797 -91 1919 -91 
Q 1588 -91 1214 -16 
Q 841 59 441 206 
L 441 856 
Q 825 641 1194 531 
Q 1563 422 1919 422 
Q 2459 422 2753 634 
Q 3047 847 3047 1241 
Q 3047 1584 2836 1778 
Q 2625 1972 2144 2069 
L 1759 2144 
Q 1053 2284 737 2584 
Q 422 2884 422 3419 
Q 422 4038 858 4394 
Q 1294 4750 2059 4750 
Q 2388 4750 2728 4690 
Q 3069 4631 3425 4513 
z
" transform="scale(0.015625)"/>
        <path id="DejaVuSans-52" d="M 2841 2188 
Q 3044 2119 3236 1894 
Q 3428 1669 3622 1275 
L 4263 0 
L 3584 0 
L 2988 1197 
Q 2756 1666 2539 1819 
Q 2322 1972 1947 1972 
L 1259 1972 
L 1259 0 
L 628 0 
L 628 4666 
L 2053 4666 
Q 2853 4666 3247 4331 
Q 3641 3997 3641 3322 
Q 3641 2881 3436 2590 
Q 3231 2300 2841 2188 
z
M 1259 4147 
L 1259 2491 
L 2053 2491 
Q 2509 2491 2742 2702 
Q 2975 2913 2975 3322 
Q 2975 3731 2742 3939 
Q 2509 4147 2053 4147 
L 1259 4147 
z
" transform="scale(0.015625)"/>
       </defs>
       <use xlink:href="#STIXNonUnicode-Italic-e240" transform="translate(0 0.90625)"/>
       <use xlink:href="#DejaVuSans-53" transform="translate(51.857025 -15.5) scale(0.7)"/>
       <use xlink:href="#DejaVuSans-52" transform="translate(96.290619 -15.5) scale(0.7)"/>
      </g>
     </g>
    </g>
    <g id="xtick_6">
     <g id="line2d_8">
      <g>
       <use xlink:href="#m6dad9c3716" x="415.981302" y="284.7835" style="stroke: #000000; stroke-width: 0.7"/>
      </g>
     </g>
     <g id="text_6">
      <!-- $\omega_0^{-1}$ -->
      <g style="fill: #0000ff" transform="translate(391.606302 310.7835) scale(0.25 -0.25)">
       <defs>
        <path id="DejaVuSans-Oblique-3c9" d="M 1369 -91 
Q 72 -91 434 1766 
Q 575 2500 1256 3500 
L 1875 3500 
Q 1231 2500 1088 1750 
Q 819 397 1519 397 
Q 2166 397 2478 2078 
L 3009 2078 
Q 2669 388 3316 397 
Q 4013 403 4275 1750 
Q 4419 2500 4169 3500 
L 4788 3500 
Q 5075 2500 4934 1766 
Q 4578 -94 3278 -91 
Q 2428 -88 2503 844 
Q 2194 -91 1369 -91 
z
" transform="scale(0.015625)"/>
        <path id="DejaVuSans-2212" d="M 678 2272 
L 4684 2272 
L 4684 1741 
L 678 1741 
L 678 2272 
z
" transform="scale(0.015625)"/>
        <path id="DejaVuSans-31" d="M 794 531 
L 1825 531 
L 1825 4091 
L 703 3866 
L 703 4441 
L 1819 4666 
L 2450 4666 
L 2450 531 
L 3481 531 
L 3481 0 
L 794 0 
L 794 531 
z
" transform="scale(0.015625)"/>
       </defs>
       <use xlink:href="#DejaVuSans-Oblique-3c9" transform="translate(0 0.684375)"/>
       <use xlink:href="#DejaVuSans-2212" transform="translate(88.20638 38.965625) scale(0.7)"/>
       <use xlink:href="#DejaVuSans-31" transform="translate(146.858724 38.965625) scale(0.7)"/>
       <use xlink:href="#DejaVuSans-30" transform="translate(83.740234 -26.659375) scale(0.7)"/>
      </g>
     </g>
    </g>
    <g id="xtick_7">
     <g id="line2d_9">
      <g>
       <use xlink:href="#m6dad9c3716" x="124.470517" y="284.7835" style="stroke: #000000; stroke-width: 0.7"/>
      </g>
     </g>
     <g id="text_7">
      <!-- $\frac{1}{r}$ -->
      <g style="fill: #cc0033" transform="translate(117.220517 312.0335) scale(0.25 -0.25)">
       <defs>
        <path id="DejaVuSans-Oblique-72" d="M 2853 2969 
Q 2766 3016 2653 3041 
Q 2541 3066 2413 3066 
Q 1953 3066 1609 2717 
Q 1266 2369 1153 1784 
L 800 0 
L 225 0 
L 909 3500 
L 1484 3500 
L 1375 2956 
Q 1603 3259 1920 3421 
Q 2238 3584 2597 3584 
Q 2691 3584 2781 3573 
Q 2872 3563 2963 3538 
L 2853 2969 
z
" transform="scale(0.015625)"/>
       </defs>
       <use xlink:href="#DejaVuSans-31" transform="translate(0 43.965625) scale(0.7)"/>
       <use xlink:href="#DejaVuSans-Oblique-72" transform="translate(8 -26.484375) scale(0.7)"/>
       <path d="M 0 18.965625 
L 0 25.215625 
L 44.536133 25.215625 
L 44.536133 18.965625 
L 0 18.965625 
z
"/>
      </g>
     </g>
    </g>
    <g id="text_8">
     <!-- $t \,(\mathrm{ms})$ -->
     <g transform="translate(288.588059 340.259906) scale(0.23 -0.23)">
      <defs>
       <path id="DejaVuSans-Oblique-74" d="M 2706 3500 
L 2619 3053 
L 1472 3053 
L 1100 1153 
Q 1081 1047 1072 975 
Q 1063 903 1063 863 
Q 1063 663 1183 572 
Q 1303 481 1569 481 
L 2150 481 
L 2053 0 
L 1503 0 
Q 991 0 739 200 
Q 488 400 488 806 
Q 488 878 497 964 
Q 506 1050 525 1153 
L 897 3053 
L 409 3053 
L 500 3500 
L 978 3500 
L 1172 4494 
L 1747 4494 
L 1556 3500 
L 2706 3500 
z
" transform="scale(0.015625)"/>
       <path id="DejaVuSans-28" d="M 1984 4856 
Q 1566 4138 1362 3434 
Q 1159 2731 1159 2009 
Q 1159 1288 1364 580 
Q 1569 -128 1984 -844 
L 1484 -844 
Q 1016 -109 783 600 
Q 550 1309 550 2009 
Q 550 2706 781 3412 
Q 1013 4119 1484 4856 
L 1984 4856 
z
" transform="scale(0.015625)"/>
       <path id="DejaVuSans-6d" d="M 3328 2828 
Q 3544 3216 3844 3400 
Q 4144 3584 4550 3584 
Q 5097 3584 5394 3201 
Q 5691 2819 5691 2113 
L 5691 0 
L 5113 0 
L 5113 2094 
Q 5113 2597 4934 2840 
Q 4756 3084 4391 3084 
Q 3944 3084 3684 2787 
Q 3425 2491 3425 1978 
L 3425 0 
L 2847 0 
L 2847 2094 
Q 2847 2600 2669 2842 
Q 2491 3084 2119 3084 
Q 1678 3084 1418 2786 
Q 1159 2488 1159 1978 
L 1159 0 
L 581 0 
L 581 3500 
L 1159 3500 
L 1159 2956 
Q 1356 3278 1631 3431 
Q 1906 3584 2284 3584 
Q 2666 3584 2933 3390 
Q 3200 3197 3328 2828 
z
" transform="scale(0.015625)"/>
       <path id="DejaVuSans-73" d="M 2834 3397 
L 2834 2853 
Q 2591 2978 2328 3040 
Q 2066 3103 1784 3103 
Q 1356 3103 1142 2972 
Q 928 2841 928 2578 
Q 928 2378 1081 2264 
Q 1234 2150 1697 2047 
L 1894 2003 
Q 2506 1872 2764 1633 
Q 3022 1394 3022 966 
Q 3022 478 2636 193 
Q 2250 -91 1575 -91 
Q 1294 -91 989 -36 
Q 684 19 347 128 
L 347 722 
Q 666 556 975 473 
Q 1284 391 1588 391 
Q 1994 391 2212 530 
Q 2431 669 2431 922 
Q 2431 1156 2273 1281 
Q 2116 1406 1581 1522 
L 1381 1569 
Q 847 1681 609 1914 
Q 372 2147 372 2553 
Q 372 3047 722 3315 
Q 1072 3584 1716 3584 
Q 2034 3584 2315 3537 
Q 2597 3491 2834 3397 
z
" transform="scale(0.015625)"/>
       <path id="DejaVuSans-29" d="M 513 4856 
L 1013 4856 
Q 1481 4119 1714 3412 
Q 1947 2706 1947 2009 
Q 1947 1309 1714 600 
Q 1481 -109 1013 -844 
L 513 -844 
Q 928 -128 1133 580 
Q 1338 1288 1338 2009 
Q 1338 2731 1133 3434 
Q 928 4138 513 4856 
z
" transform="scale(0.015625)"/>
      </defs>
      <use xlink:href="#DejaVuSans-Oblique-74" transform="translate(0 0.125)"/>
      <use xlink:href="#DejaVuSans-28" transform="translate(55.444661 0.125)"/>
      <use xlink:href="#DejaVuSans-6d" transform="translate(94.458333 0.125)"/>
      <use xlink:href="#DejaVuSans-73" transform="translate(191.870442 0.125)"/>
      <use xlink:href="#DejaVuSans-29" transform="translate(243.970051 0.125)"/>
     </g>
    </g>
   </g>
   <g id="matplotlib.axis_2">
    <g id="ytick_1">
     <g id="line2d_10">
      <defs>
       <path id="m3f3013d90d" d="M 0 0 
L 6 0 
" style="stroke: #000000; stroke-width: 0.7"/>
      </defs>
      <g>
       <use xlink:href="#m3f3013d90d" x="82.826119" y="255.532928" style="stroke: #000000; stroke-width: 0.7"/>
      </g>
     </g>
     <g id="text_9">
      <!-- $\mathdefault{10^{-2}}$ -->
      <g transform="translate(37.026119 262.371522) scale(0.18 -0.18)">
       <defs>
        <path id="DejaVuSans-32" d="M 1228 531 
L 3431 531 
L 3431 0 
L 469 0 
L 469 531 
Q 828 903 1448 1529 
Q 2069 2156 2228 2338 
Q 2531 2678 2651 2914 
Q 2772 3150 2772 3378 
Q 2772 3750 2511 3984 
Q 2250 4219 1831 4219 
Q 1534 4219 1204 4116 
Q 875 4013 500 3803 
L 500 4441 
Q 881 4594 1212 4672 
Q 1544 4750 1819 4750 
Q 2544 4750 2975 4387 
Q 3406 4025 3406 3419 
Q 3406 3131 3298 2873 
Q 3191 2616 2906 2266 
Q 2828 2175 2409 1742 
Q 1991 1309 1228 531 
z
" transform="scale(0.015625)"/>
       </defs>
       <use xlink:href="#DejaVuSans-31" transform="translate(0 0.765625)"/>
       <use xlink:href="#DejaVuSans-30" transform="translate(63.623047 0.765625)"/>
       <use xlink:href="#DejaVuSans-2212" transform="translate(128.203125 39.046875) scale(0.7)"/>
       <use xlink:href="#DejaVuSans-32" transform="translate(186.855469 39.046875) scale(0.7)"/>
      </g>
     </g>
    </g>
    <g id="ytick_2">
     <g id="line2d_11">
      <g>
       <use xlink:href="#m3f3013d90d" x="82.826119" y="185.816785" style="stroke: #000000; stroke-width: 0.7"/>
      </g>
     </g>
     <g id="text_10">
      <!-- $\mathdefault{10^{-1}}$ -->
      <g transform="translate(37.026119 192.655378) scale(0.18 -0.18)">
       <use xlink:href="#DejaVuSans-31" transform="translate(0 0.684375)"/>
       <use xlink:href="#DejaVuSans-30" transform="translate(63.623047 0.684375)"/>
       <use xlink:href="#DejaVuSans-2212" transform="translate(128.203125 38.965625) scale(0.7)"/>
       <use xlink:href="#DejaVuSans-31" transform="translate(186.855469 38.965625) scale(0.7)"/>
      </g>
     </g>
    </g>
    <g id="ytick_3">
     <g id="line2d_12">
      <g>
       <use xlink:href="#m3f3013d90d" x="82.826119" y="116.100641" style="stroke: #000000; stroke-width: 0.7"/>
      </g>
     </g>
     <g id="text_11">
      <!-- $\mathdefault{10^{0}}$ -->
      <g transform="translate(47.646119 122.939235) scale(0.18 -0.18)">
       <use xlink:href="#DejaVuSans-31" transform="translate(0 0.765625)"/>
       <use xlink:href="#DejaVuSans-30" transform="translate(63.623047 0.765625)"/>
       <use xlink:href="#DejaVuSans-30" transform="translate(128.203125 39.046875) scale(0.7)"/>
      </g>
     </g>
    </g>
    <g id="ytick_4">
     <g id="line2d_13">
      <g>
       <use xlink:href="#m3f3013d90d" x="82.826119" y="46.384497" style="stroke: #000000; stroke-width: 0.7"/>
      </g>
     </g>
     <g id="text_12">
      <!-- $\mathdefault{10^{1}}$ -->
      <g transform="translate(47.646119 53.223091) scale(0.18 -0.18)">
       <use xlink:href="#DejaVuSans-31" transform="translate(0 0.684375)"/>
       <use xlink:href="#DejaVuSans-30" transform="translate(63.623047 0.684375)"/>
       <use xlink:href="#DejaVuSans-31" transform="translate(128.203125 38.965625) scale(0.7)"/>
      </g>
     </g>
    </g>
    <g id="ytick_5">
     <g id="line2d_14">
      <defs>
       <path id="m7e486777db" d="M 0 0 
L 3 0 
" style="stroke: #000000; stroke-width: 0.7"/>
      </defs>
      <g>
       <use xlink:href="#m7e486777db" x="82.826119" y="283.275771" style="stroke: #000000; stroke-width: 0.7"/>
      </g>
     </g>
    </g>
    <g id="ytick_6">
     <g id="line2d_15">
      <g>
       <use xlink:href="#m7e486777db" x="82.826119" y="276.519579" style="stroke: #000000; stroke-width: 0.7"/>
      </g>
     </g>
    </g>
    <g id="ytick_7">
     <g id="line2d_16">
      <g>
       <use xlink:href="#m7e486777db" x="82.826119" y="270.999368" style="stroke: #000000; stroke-width: 0.7"/>
      </g>
     </g>
    </g>
    <g id="ytick_8">
     <g id="line2d_17">
      <g>
       <use xlink:href="#m7e486777db" x="82.826119" y="266.332096" style="stroke: #000000; stroke-width: 0.7"/>
      </g>
     </g>
    </g>
    <g id="ytick_9">
     <g id="line2d_18">
      <g>
       <use xlink:href="#m7e486777db" x="82.826119" y="262.289121" style="stroke: #000000; stroke-width: 0.7"/>
      </g>
     </g>
    </g>
    <g id="ytick_10">
     <g id="line2d_19">
      <g>
       <use xlink:href="#m7e486777db" x="82.826119" y="258.722964" style="stroke: #000000; stroke-width: 0.7"/>
      </g>
     </g>
    </g>
    <g id="ytick_11">
     <g id="line2d_20">
      <g>
       <use xlink:href="#m7e486777db" x="82.826119" y="234.546278" style="stroke: #000000; stroke-width: 0.7"/>
      </g>
     </g>
    </g>
    <g id="ytick_12">
     <g id="line2d_21">
      <g>
       <use xlink:href="#m7e486777db" x="82.826119" y="222.269874" style="stroke: #000000; stroke-width: 0.7"/>
      </g>
     </g>
    </g>
    <g id="ytick_13">
     <g id="line2d_22">
      <g>
       <use xlink:href="#m7e486777db" x="82.826119" y="213.559627" style="stroke: #000000; stroke-width: 0.7"/>
      </g>
     </g>
    </g>
    <g id="ytick_14">
     <g id="line2d_23">
      <g>
       <use xlink:href="#m7e486777db" x="82.826119" y="206.803435" style="stroke: #000000; stroke-width: 0.7"/>
      </g>
     </g>
    </g>
    <g id="ytick_15">
     <g id="line2d_24">
      <g>
       <use xlink:href="#m7e486777db" x="82.826119" y="201.283224" style="stroke: #000000; stroke-width: 0.7"/>
      </g>
     </g>
    </g>
    <g id="ytick_16">
     <g id="line2d_25">
      <g>
       <use xlink:href="#m7e486777db" x="82.826119" y="196.615952" style="stroke: #000000; stroke-width: 0.7"/>
      </g>
     </g>
    </g>
    <g id="ytick_17">
     <g id="line2d_26">
      <g>
       <use xlink:href="#m7e486777db" x="82.826119" y="192.572977" style="stroke: #000000; stroke-width: 0.7"/>
      </g>
     </g>
    </g>
    <g id="ytick_18">
     <g id="line2d_27">
      <g>
       <use xlink:href="#m7e486777db" x="82.826119" y="189.00682" style="stroke: #000000; stroke-width: 0.7"/>
      </g>
     </g>
    </g>
    <g id="ytick_19">
     <g id="line2d_28">
      <g>
       <use xlink:href="#m7e486777db" x="82.826119" y="164.830134" style="stroke: #000000; stroke-width: 0.7"/>
      </g>
     </g>
    </g>
    <g id="ytick_20">
     <g id="line2d_29">
      <g>
       <use xlink:href="#m7e486777db" x="82.826119" y="152.553731" style="stroke: #000000; stroke-width: 0.7"/>
      </g>
     </g>
    </g>
    <g id="ytick_21">
     <g id="line2d_30">
      <g>
       <use xlink:href="#m7e486777db" x="82.826119" y="143.843484" style="stroke: #000000; stroke-width: 0.7"/>
      </g>
     </g>
    </g>
    <g id="ytick_22">
     <g id="line2d_31">
      <g>
       <use xlink:href="#m7e486777db" x="82.826119" y="137.087291" style="stroke: #000000; stroke-width: 0.7"/>
      </g>
     </g>
    </g>
    <g id="ytick_23">
     <g id="line2d_32">
      <g>
       <use xlink:href="#m7e486777db" x="82.826119" y="131.56708" style="stroke: #000000; stroke-width: 0.7"/>
      </g>
     </g>
    </g>
    <g id="ytick_24">
     <g id="line2d_33">
      <g>
       <use xlink:href="#m7e486777db" x="82.826119" y="126.899808" style="stroke: #000000; stroke-width: 0.7"/>
      </g>
     </g>
    </g>
    <g id="ytick_25">
     <g id="line2d_34">
      <g>
       <use xlink:href="#m7e486777db" x="82.826119" y="122.856833" style="stroke: #000000; stroke-width: 0.7"/>
      </g>
     </g>
    </g>
    <g id="ytick_26">
     <g id="line2d_35">
      <g>
       <use xlink:href="#m7e486777db" x="82.826119" y="119.290677" style="stroke: #000000; stroke-width: 0.7"/>
      </g>
     </g>
    </g>
    <g id="ytick_27">
     <g id="line2d_36">
      <g>
       <use xlink:href="#m7e486777db" x="82.826119" y="95.11399" style="stroke: #000000; stroke-width: 0.7"/>
      </g>
     </g>
    </g>
    <g id="ytick_28">
     <g id="line2d_37">
      <g>
       <use xlink:href="#m7e486777db" x="82.826119" y="82.837587" style="stroke: #000000; stroke-width: 0.7"/>
      </g>
     </g>
    </g>
    <g id="ytick_29">
     <g id="line2d_38">
      <g>
       <use xlink:href="#m7e486777db" x="82.826119" y="74.12734" style="stroke: #000000; stroke-width: 0.7"/>
      </g>
     </g>
    </g>
    <g id="ytick_30">
     <g id="line2d_39">
      <g>
       <use xlink:href="#m7e486777db" x="82.826119" y="67.371148" style="stroke: #000000; stroke-width: 0.7"/>
      </g>
     </g>
    </g>
    <g id="ytick_31">
     <g id="line2d_40">
      <g>
       <use xlink:href="#m7e486777db" x="82.826119" y="61.850936" style="stroke: #000000; stroke-width: 0.7"/>
      </g>
     </g>
    </g>
    <g id="ytick_32">
     <g id="line2d_41">
      <g>
       <use xlink:href="#m7e486777db" x="82.826119" y="57.183664" style="stroke: #000000; stroke-width: 0.7"/>
      </g>
     </g>
    </g>
    <g id="ytick_33">
     <g id="line2d_42">
      <g>
       <use xlink:href="#m7e486777db" x="82.826119" y="53.140689" style="stroke: #000000; stroke-width: 0.7"/>
      </g>
     </g>
    </g>
    <g id="ytick_34">
     <g id="line2d_43">
      <g>
       <use xlink:href="#m7e486777db" x="82.826119" y="49.574533" style="stroke: #000000; stroke-width: 0.7"/>
      </g>
     </g>
    </g>
    <g id="ytick_35">
     <g id="line2d_44">
      <g>
       <use xlink:href="#m7e486777db" x="82.826119" y="25.397847" style="stroke: #000000; stroke-width: 0.7"/>
      </g>
     </g>
    </g>
    <g id="ytick_36">
     <g id="line2d_45">
      <g>
       <use xlink:href="#m7e486777db" x="82.826119" y="13.121443" style="stroke: #000000; stroke-width: 0.7"/>
      </g>
     </g>
    </g>
    <g id="text_13">
     <!-- $\mathcal{D}_{\rm KL}$ -->
     <g transform="translate(28.242838 167.22675) rotate(-90) scale(0.23 -0.23)">
      <defs>
       <path id="STIXNonUnicode-Italic-e230" d="M 314 3418 
L 218 3539 
Q 621 3923 1126 4083 
Q 1619 4237 2490 4237 
Q 3475 4237 4028 4080 
Q 4582 3923 4812 3596 
Q 5043 3270 5043 2701 
Q 5043 2349 4950 1993 
Q 4858 1638 4634 1273 
Q 4410 909 4070 630 
Q 3731 352 3190 176 
Q 2650 0 1978 0 
L 333 0 
L 378 154 
Q 576 154 678 275 
Q 781 397 870 710 
L 1491 2867 
Q 1517 2957 1581 3155 
Q 1645 3354 1673 3466 
Q 1702 3578 1702 3642 
Q 1702 3878 1414 3878 
Q 877 3878 314 3418 
z
M 2438 3750 
L 1510 557 
Q 1478 454 1478 390 
Q 1478 307 1568 281 
Q 1658 256 1856 256 
Q 2093 256 2355 297 
Q 2618 339 2989 489 
Q 3360 640 3645 886 
Q 3930 1133 4134 1597 
Q 4339 2061 4339 2675 
Q 4339 3328 3977 3654 
Q 3616 3981 2758 3981 
Q 2643 3981 2553 3913 
Q 2464 3846 2438 3750 
z
" transform="scale(0.015625)"/>
       <path id="DejaVuSans-4b" d="M 628 4666 
L 1259 4666 
L 1259 2694 
L 3353 4666 
L 4166 4666 
L 1850 2491 
L 4331 0 
L 3500 0 
L 1259 2247 
L 1259 0 
L 628 0 
L 628 4666 
z
" transform="scale(0.015625)"/>
       <path id="DejaVuSans-4c" d="M 628 4666 
L 1259 4666 
L 1259 531 
L 3531 531 
L 3531 0 
L 628 0 
L 628 4666 
z
" transform="scale(0.015625)"/>
      </defs>
      <use xlink:href="#STIXNonUnicode-Italic-e230" transform="translate(0 0.796875)"/>
      <use xlink:href="#DejaVuSans-4b" transform="translate(81.057022 -15.609375) scale(0.7)"/>
      <use xlink:href="#DejaVuSans-4c" transform="translate(126.960342 -15.609375) scale(0.7)"/>
     </g>
    </g>
   </g>
   <g id="patch_3">
    <path d="M 82.826119 284.7835 
L 82.826119 10.8 
" style="fill: none; stroke: #000000; stroke-width: 0.8; stroke-linejoin: miter; stroke-linecap: square"/>
   </g>
   <g id="patch_4">
    <path d="M 559.44 284.7835 
L 559.44 10.8 
" style="fill: none; stroke: #000000; stroke-width: 0.8; stroke-linejoin: miter; stroke-linecap: square"/>
   </g>
   <g id="patch_5">
    <path d="M 82.826119 284.7835 
L 559.44 284.7835 
" style="fill: none; stroke: #000000; stroke-width: 0.8; stroke-linejoin: miter; stroke-linecap: square"/>
   </g>
   <g id="patch_6">
    <path d="M 82.826119 10.8 
L 559.44 10.8 
" style="fill: none; stroke: #000000; stroke-width: 0.8; stroke-linejoin: miter; stroke-linecap: square"/>
   </g>
   <g id="line2d_46">
    <path d="M 82.826119 215.802098 
L 559.44 215.802098 
" clip-path="url(#p47ea03555b)" style="fill: none; stroke-dasharray: 14.8,6.4; stroke-dashoffset: 0; stroke: #ffa500; stroke-width: 4"/>
   </g>
   <g id="PathCollection_1">
    <defs>
     <path id="mee042b492b" d="M 0 8.660254 
C 2.296726 8.660254 4.499694 7.747755 6.123724 6.123724 
C 7.747755 4.499694 8.660254 2.296726 8.660254 0 
C 8.660254 -2.296726 7.747755 -4.499694 6.123724 -6.123724 
C 4.499694 -7.747755 2.296726 -8.660254 0 -8.660254 
C -2.296726 -8.660254 -4.499694 -7.747755 -6.123724 -6.123724 
C -7.747755 -4.499694 -8.660254 -2.296726 -8.660254 0 
C -8.660254 2.296726 -7.747755 4.499694 -6.123724 6.123724 
C -4.499694 7.747755 -2.296726 8.660254 0 8.660254 
z
" style="stroke: #0000ff; stroke-width: 3.5"/>
    </defs>
    <g clip-path="url(#p47ea03555b)">
     <use xlink:href="#mee042b492b" x="342.687162" y="215.802098" style="fill: #ffa500; stroke: #0000ff; stroke-width: 3.5"/>
    </g>
   </g>
   <g id="PathCollection_2">
    <defs>
     <path id="m553b094801" d="M 0 8.660254 
C 2.296726 8.660254 4.499694 7.747755 6.123724 6.123724 
C 7.747755 4.499694 8.660254 2.296726 8.660254 0 
C 8.660254 -2.296726 7.747755 -4.499694 6.123724 -6.123724 
C 4.499694 -7.747755 2.296726 -8.660254 0 -8.660254 
C -2.296726 -8.660254 -4.499694 -7.747755 -6.123724 -6.123724 
C -7.747755 -4.499694 -8.660254 -2.296726 -8.660254 0 
C -8.660254 2.296726 -7.747755 4.499694 -6.123724 6.123724 
C -4.499694 7.747755 -2.296726 8.660254 0 8.660254 
z
" style="stroke: #cc0033; stroke-width: 3.5"/>
    </defs>
    <g clip-path="url(#p47ea03555b)">
     <use xlink:href="#m553b094801" x="148.124535" y="215.802098" style="fill: #ffa500; stroke: #cc0033; stroke-width: 3.5"/>
    </g>
   </g>
  </g>
 </g>
 <defs>
  <clipPath id="p47ea03555b">
   <rect x="82.826119" y="10.8" width="476.613881" height="273.9835"/>
  </clipPath>
 </defs>
</svg>
