<?xml version="1.0" encoding="utf-8" standalone="no"?>
<!DOCTYPE svg PUBLIC "-//W3C//DTD SVG 1.1//EN"
  "http://www.w3.org/Graphics/SVG/1.1/DTD/svg11.dtd">
<svg xmlns:xlink="http://www.w3.org/1999/xlink" width="1288.8pt" height="498.190909pt" viewBox="0 0 1288.8 498.190909" xmlns="http://www.w3.org/2000/svg" version="1.1">
 <metadata>
  <rdf:RDF xmlns:dc="http://purl.org/dc/elements/1.1/" xmlns:cc="http://creativecommons.org/ns#" xmlns:rdf="http://www.w3.org/1999/02/22-rdf-syntax-ns#">
   <cc:Work>
    <dc:type rdf:resource="http://purl.org/dc/dcmitype/StillImage"/>
    <dc:date>2025-11-26T23:12:26.410310</dc:date>
    <dc:format>image/svg+xml</dc:format>
    <dc:creator>
     <cc:Agent>
      <dc:title>Matplotlib v3.9.2, https://matplotlib.org/</dc:title>
     </cc:Agent>
    </dc:creator>
   </cc:Work>
  </rdf:RDF>
 </metadata>
 <defs>
  <style type="text/css">*{stroke-linejoin: round; stroke-linecap: butt}</style>
 </defs>
 <g id="figure_1">
  <g id="patch_1">
   <path d="M 0 498.190909 
L 1288.8 498.190909 
L 1288.8 0 
L 0 0 
z
" style="fill: #ffffff"/>
  </g>
  <g id="axes_1">
   <g id="patch_2">
    <path d="M 7.2 401.4 
L 1281.6 401.4 
L 1281.6 7.2 
L 7.2 7.2 
z
" style="fill: #ffffff"/>
   </g>
   <g id="PolyCollection_1">
    <path d="M -1195.593269 401.4 
L -1195.593269 401.4 
L -1183.147957 401.4 
L -1170.702796 401.4 
L -1158.257484 401.4 
L -1145.812171 401.4 
L -1133.366859 401.4 
L -1120.921546 401.4 
L -1108.476234 401.4 
L -1096.031073 401.4 
L -1083.585761 401.4 
L -1071.140296 401.4 
L -1058.695136 401.4 
L -1046.249823 401.4 
L -1033.804511 401.4 
L -1021.359198 401.4 
L -1008.913886 401.4 
L -996.468573 401.4 
L -984.023261 401.4 
L -971.577948 401.4 
L -959.132636 401.4 
L -946.687323 401.4 
L -934.242011 401.4 
L -921.796698 401.4 
L -909.351386 401.4 
L -896.906073 401.4 
L -884.460761 401.4 
L -872.015448 401.4 
L -859.570136 401.4 
L -847.124823 401.4 
L -834.679511 401.4 
L -822.234198 401.4 
L -809.788886 401.4 
L -797.343725 401.4 
L -784.898565 401.4 
L -772.453252 401.4 
L -760.007788 401.4 
L -747.562627 401.4 
L -735.117315 401.4 
L -722.67185 401.4 
L -710.22669 401.4 
L -697.781377 401.4 
L -685.336065 401.4 
L -672.890752 401.4 
L -660.44544 401.4 
L -648.000127 401.4 
L -635.554815 401.4 
L -623.109502 401.4 
L -610.66419 401.4 
L -598.218877 401.4 
L -585.773565 401.4 
L -573.328252 401.4 
L -560.88294 401.4 
L -548.437627 401.4 
L -535.992315 401.4 
L -523.547154 401.4 
L -511.10169 401.4 
L -498.656377 401.4 
L -486.211216 401.4 
L -473.765904 401.4 
L -461.320591 401.4 
L -448.875279 401.4 
L -436.429966 401.4 
L -423.984654 401.4 
L -411.539341 401.4 
L -399.094105 401.4 
L -386.648792 401.4 
L -374.20348 401.4 
L -361.758167 401.4 
L -349.312855 401.4 
L -336.867618 401.4 
L -324.422306 401.4 
L -311.976993 401.4 
L -299.531681 401.4 
L -287.086368 401.4 
L -274.641056 401.4 
L -262.195819 401.4 
L -249.750431 401.4 
L -237.305118 401.4 
L -224.859882 401.4 
L -212.414569 401.4 
L -199.969333 401.4 
L -187.52402 401.4 
L -175.078632 401.4 
L -162.633395 401.4 
L -150.188083 401.4 
L -137.74277 401.4 
L -125.297458 401.4 
L -112.852145 401.4 
L -100.406833 401.4 
L -87.96152 401.4 
L -75.516284 401.4 
L -63.070895 401.4 
L -50.625583 401.4 
L -38.180346 401.4 
L -25.73511 401.4 
L -13.289797 401.4 
L -0.844409 401.4 
L 11.600828 401.4 
L 24.04614 401.4 
L 36.491453 401.4 
L 48.936765 401.4 
L 61.382078 401.4 
L 73.82739 401.4 
L 86.272703 401.4 
L 98.717939 401.4 
L 111.163328 401.4 
L 123.60864 401.4 
L 136.053877 401.4 
L 148.499113 401.4 
L 160.944426 401.4 
L 173.389776 401.4 
L 185.835127 401.39828 
L 198.280363 401.393692 
L 210.725676 401.395413 
L 223.17095 401.388532 
L 235.616301 401.393692 
L 248.061613 401.393692 
L 260.506888 401.387385 
L 272.952162 401.367888 
L 285.397475 401.372476 
L 297.842787 401.37477 
L 310.2881 401.365021 
L 322.733412 401.34438 
L 335.178725 401.321444 
L 347.624037 401.274423 
L 360.069274 401.230272 
L 372.514586 401.202173 
L 384.959861 401.117886 
L 397.405211 400.992312 
L 409.850524 400.735422 
L 422.295798 400.485431 
L 434.741073 400.22107 
L 447.186348 399.88795 
L 459.631736 399.499189 
L 472.07701 398.793859 
L 484.522285 397.912597 
L 496.967579 396.800705 
L 509.412872 395.503736 
L 521.858223 393.65625 
L 534.303516 392.207149 
L 546.74881 390.076528 
L 559.194084 387.570606 
L 571.639359 384.444641 
L 584.084747 380.787501 
L 596.530022 376.207405 
L 608.975296 370.718028 
L 621.42059 364.672771 
L 633.865883 356.556234 
L 646.311243 348.082548 
L 658.756527 337.222595 
L 671.201802 325.531436 
L 683.647095 312.703727 
L 696.09237 297.538699 
L 708.537749 280.60733 
L 720.983033 261.350653 
L 733.428312 240.388583 
L 745.873591 218.022288 
L 758.318875 191.830407 
L 770.764252 163.628412 
L 783.209533 134.494142 
L 795.654816 104.294968 
L 808.100099 90.121737 
L 820.545381 126.999234 
L 832.990755 157.883046 
L 845.436039 187.175401 
L 857.881318 212.366818 
L 870.326602 235.346684 
L 882.771886 257.376794 
L 895.217256 276.812168 
L 907.662549 293.496961 
L 920.107824 308.268128 
L 932.553108 321.265968 
L 944.998392 332.373234 
L 957.443761 342.637102 
L 969.889055 352.748189 
L 982.334329 360.243302 
L 994.779604 367.932564 
L 1007.224878 374.02486 
L 1019.670267 378.189483 
L 1032.115541 382.0676 
L 1044.560835 385.586853 
L 1057.006128 388.961667 
L 1069.451403 391.438945 
L 1081.896772 393.773259 
L 1094.342066 395.352283 
L 1106.78734 396.581737 
L 1119.232615 397.349466 
L 1131.677889 398.179793 
L 1144.123278 398.765813 
L 1156.56859 399.299607 
L 1169.013827 399.871884 
L 1181.459215 400.187259 
L 1193.904528 400.49803 
L 1206.349764 400.804236 
L 1218.795077 401.052513 
L 1231.240351 401.137954 
L 1243.685702 401.229124 
L 1256.131014 401.304813 
L 1268.576289 401.339219 
L 1281.021715 401.350687 
L 1281.021715 401.4 
L 1281.021715 401.4 
L 1268.576289 401.4 
L 1256.131014 401.4 
L 1243.685702 401.4 
L 1231.240351 401.4 
L 1218.795077 401.4 
L 1206.349764 401.4 
L 1193.904528 401.4 
L 1181.459215 401.4 
L 1169.013827 401.4 
L 1156.56859 401.4 
L 1144.123278 401.4 
L 1131.677889 401.4 
L 1119.232615 401.4 
L 1106.78734 401.4 
L 1094.342066 401.4 
L 1081.896772 401.4 
L 1069.451403 401.4 
L 1057.006128 401.4 
L 1044.560835 401.4 
L 1032.115541 401.4 
L 1019.670267 401.4 
L 1007.224878 401.4 
L 994.779604 401.4 
L 982.334329 401.4 
L 969.889055 401.4 
L 957.443761 401.4 
L 944.998392 401.4 
L 932.553108 401.4 
L 920.107824 401.4 
L 907.662549 401.4 
L 895.217256 401.4 
L 882.771886 401.4 
L 870.326602 401.4 
L 857.881318 401.4 
L 845.436039 401.4 
L 832.990755 401.4 
L 820.545381 401.4 
L 808.100099 401.4 
L 795.654816 401.4 
L 783.209533 401.4 
L 770.764252 401.4 
L 758.318875 401.4 
L 745.873591 401.4 
L 733.428312 401.4 
L 720.983033 401.4 
L 708.537749 401.4 
L 696.09237 401.4 
L 683.647095 401.4 
L 671.201802 401.4 
L 658.756527 401.4 
L 646.311243 401.4 
L 633.865883 401.4 
L 621.42059 401.4 
L 608.975296 401.4 
L 596.530022 401.4 
L 584.084747 401.4 
L 571.639359 401.4 
L 559.194084 401.4 
L 546.74881 401.4 
L 534.303516 401.4 
L 521.858223 401.4 
L 509.412872 401.4 
L 496.967579 401.4 
L 484.522285 401.4 
L 472.07701 401.4 
L 459.631736 401.4 
L 447.186348 401.4 
L 434.741073 401.4 
L 422.295798 401.4 
L 409.850524 401.4 
L 397.405211 401.4 
L 384.959861 401.4 
L 372.514586 401.4 
L 360.069274 401.4 
L 347.624037 401.4 
L 335.178725 401.4 
L 322.733412 401.4 
L 310.2881 401.4 
L 297.842787 401.4 
L 285.397475 401.4 
L 272.952162 401.4 
L 260.506888 401.4 
L 248.061613 401.4 
L 235.616301 401.4 
L 223.17095 401.4 
L 210.725676 401.4 
L 198.280363 401.4 
L 185.835127 401.4 
L 173.389776 401.4 
L 160.944426 401.4 
L 148.499113 401.4 
L 136.053877 401.4 
L 123.60864 401.4 
L 111.163328 401.4 
L 98.717939 401.4 
L 86.272703 401.4 
L 73.82739 401.4 
L 61.382078 401.4 
L 48.936765 401.4 
L 36.491453 401.4 
L 24.04614 401.4 
L 11.600828 401.4 
L -0.844409 401.4 
L -13.289797 401.4 
L -25.73511 401.4 
L -38.180346 401.4 
L -50.625583 401.4 
L -63.070895 401.4 
L -75.516284 401.4 
L -87.96152 401.4 
L -100.406833 401.4 
L -112.852145 401.4 
L -125.297458 401.4 
L -137.74277 401.4 
L -150.188083 401.4 
L -162.633395 401.4 
L -175.078632 401.4 
L -187.52402 401.4 
L -199.969333 401.4 
L -212.414569 401.4 
L -224.859882 401.4 
L -237.305118 401.4 
L -249.750431 401.4 
L -262.195819 401.4 
L -274.641056 401.4 
L -287.086368 401.4 
L -299.531681 401.4 
L -311.976993 401.4 
L -324.422306 401.4 
L -336.867618 401.4 
L -349.312855 401.4 
L -361.758167 401.4 
L -374.20348 401.4 
L -386.648792 401.4 
L -399.094105 401.4 
L -411.539341 401.4 
L -423.984654 401.4 
L -436.429966 401.4 
L -448.875279 401.4 
L -461.320591 401.4 
L -473.765904 401.4 
L -486.211216 401.4 
L -498.656377 401.4 
L -511.10169 401.4 
L -523.547154 401.4 
L -535.992315 401.4 
L -548.437627 401.4 
L -560.88294 401.4 
L -573.328252 401.4 
L -585.773565 401.4 
L -598.218877 401.4 
L -610.66419 401.4 
L -623.109502 401.4 
L -635.554815 401.4 
L -648.000127 401.4 
L -660.44544 401.4 
L -672.890752 401.4 
L -685.336065 401.4 
L -697.781377 401.4 
L -710.22669 401.4 
L -722.67185 401.4 
L -735.117315 401.4 
L -747.562627 401.4 
L -760.007788 401.4 
L -772.453252 401.4 
L -784.898565 401.4 
L -797.343725 401.4 
L -809.788886 401.4 
L -822.234198 401.4 
L -834.679511 401.4 
L -847.124823 401.4 
L -859.570136 401.4 
L -872.015448 401.4 
L -884.460761 401.4 
L -896.906073 401.4 
L -909.351386 401.4 
L -921.796698 401.4 
L -934.242011 401.4 
L -946.687323 401.4 
L -959.132636 401.4 
L -971.577948 401.4 
L -984.023261 401.4 
L -996.468573 401.4 
L -1008.913886 401.4 
L -1021.359198 401.4 
L -1033.804511 401.4 
L -1046.249823 401.4 
L -1058.695136 401.4 
L -1071.140296 401.4 
L -1083.585761 401.4 
L -1096.031073 401.4 
L -1108.476234 401.4 
L -1120.921546 401.4 
L -1133.366859 401.4 
L -1145.812171 401.4 
L -1158.257484 401.4 
L -1170.702796 401.4 
L -1183.147957 401.4 
L -1195.593269 401.4 
z
" clip-path="url(#pff97e544a5)" style="fill: #0000ff; fill-opacity: 0.3; stroke: #0000ff; stroke-opacity: 0.3"/>
   </g>
   <g id="PolyCollection_2">
    <path d="M -1195.593269 401.4 
L -1195.593269 401.4 
L -1183.147957 401.4 
L -1170.702796 401.4 
L -1158.257484 401.4 
L -1145.812171 401.4 
L -1133.366859 401.4 
L -1120.921546 401.4 
L -1108.476234 401.4 
L -1096.031073 401.4 
L -1083.585761 401.4 
L -1071.140296 401.4 
L -1058.695136 401.4 
L -1046.249823 401.4 
L -1033.804511 401.4 
L -1021.359198 401.4 
L -1008.913886 401.4 
L -996.468573 401.4 
L -984.023261 401.4 
L -971.577948 401.4 
L -959.132636 401.4 
L -946.687323 401.4 
L -934.242011 401.4 
L -921.796698 401.4 
L -909.351386 401.4 
L -896.906073 401.4 
L -884.460761 401.4 
L -872.015448 401.4 
L -859.570136 401.4 
L -847.124823 401.4 
L -834.679511 401.4 
L -822.234198 401.4 
L -809.788886 401.4 
L -797.343725 401.4 
L -784.898565 401.4 
L -772.453252 401.4 
L -760.007788 401.4 
L -747.562627 401.4 
L -735.117315 401.4 
L -722.67185 401.4 
L -710.22669 401.4 
L -697.781377 401.4 
L -685.336065 401.4 
L -672.890752 401.4 
L -660.44544 401.4 
L -648.000127 401.4 
L -635.554815 401.4 
L -623.109502 401.4 
L -610.66419 401.4 
L -598.218877 401.4 
L -585.773565 401.4 
L -573.328252 401.4 
L -560.88294 401.4 
L -548.437627 401.4 
L -535.992315 401.4 
L -523.547154 401.4 
L -511.10169 401.4 
L -498.656377 401.4 
L -486.211216 401.4 
L -473.765904 401.4 
L -461.320591 401.4 
L -448.875279 401.4 
L -436.429966 401.4 
L -423.984654 401.4 
L -411.539341 401.4 
L -399.094105 401.4 
L -386.648792 401.4 
L -374.20348 401.4 
L -361.758167 401.4 
L -349.312855 401.4 
L -336.867618 401.4 
L -324.422306 401.4 
L -311.976993 401.4 
L -299.531681 401.4 
L -287.086368 401.4 
L -274.641056 401.4 
L -262.195819 401.4 
L -249.750431 401.4 
L -237.305118 401.4 
L -224.859882 401.4 
L -212.414569 401.4 
L -199.969333 401.4 
L -187.52402 401.4 
L -175.078632 401.4 
L -162.633395 401.4 
L -150.188083 401.4 
L -137.74277 401.4 
L -125.297458 401.4 
L -112.852145 401.4 
L -100.406833 401.4 
L -87.96152 401.4 
L -75.516284 401.4 
L -63.070895 401.4 
L -50.625583 401.4 
L -38.180346 401.4 
L -25.73511 401.4 
L -13.289797 401.4 
L -0.844409 401.4 
L 11.600828 401.4 
L 24.04614 401.4 
L 36.491453 401.4 
L 48.936765 401.4 
L 61.382078 401.4 
L 73.82739 401.4 
L 86.272703 401.4 
L 98.717939 401.4 
L 111.163328 401.4 
L 123.60864 401.4 
L 136.053877 401.4 
L 148.499113 401.4 
L 160.944426 401.397133 
L 173.389776 401.381079 
L 185.835127 401.349542 
L 198.280363 401.334634 
L 210.725676 401.303098 
L 223.17095 401.224545 
L 235.616301 401.108723 
L 248.061613 400.904023 
L 260.506888 400.598986 
L 272.952162 400.212523 
L 285.397475 399.679849 
L 297.842787 398.939634 
L 310.2881 398.022771 
L 322.733412 396.248722 
L 335.178725 394.033809 
L 347.624037 391.303227 
L 360.069274 387.498974 
L 372.514586 382.286715 
L 384.959861 375.8193 
L 397.405211 366.482874 
L 409.850524 354.291092 
L 422.295798 338.482624 
L 434.741073 318.010344 
L 447.186348 293.030924 
L 459.631736 259.480839 
L 472.07701 216.016515 
L 484.522285 165.94506 
L 496.967579 170.925921 
L 509.412872 178.727043 
L 521.858223 187.088632 
L 534.303516 195.658399 
L 546.74881 204.875428 
L 559.194084 213.714931 
L 571.639359 222.767153 
L 584.084747 230.929205 
L 596.530022 240.719169 
L 608.975296 250.219975 
L 621.42059 258.279721 
L 633.865883 266.815289 
L 646.311243 275.007731 
L 658.756527 283.753498 
L 671.201802 291.479852 
L 683.647095 297.905275 
L 696.09237 305.251263 
L 708.537749 311.920163 
L 720.983033 318.871794 
L 733.428312 326.559681 
L 745.873591 332.437564 
L 758.318875 338.433815 
L 770.764252 344.640642 
L 783.209533 350.670692 
L 795.654816 355.352508 
L 808.100099 360.082851 
L 820.545381 364.395838 
L 832.990755 368.877371 
L 845.436039 373.080397 
L 857.881318 376.374301 
L 870.326602 379.478822 
L 882.771886 382.9802 
L 895.217256 385.449176 
L 907.662549 387.624939 
L 920.107824 388.915241 
L 932.553108 390.449454 
L 944.998392 391.776977 
L 957.443761 393.212725 
L 969.889055 394.604206 
L 982.334329 395.912769 
L 994.779604 396.602463 
L 1007.224878 397.197131 
L 1019.670267 397.971198 
L 1032.115541 398.590972 
L 1044.560835 399.124835 
L 1057.006128 399.556558 
L 1069.451403 399.935016 
L 1081.896772 400.301407 
L 1094.342066 400.469965 
L 1106.78734 400.593829 
L 1119.232615 400.733725 
L 1131.677889 400.86905 
L 1144.123278 401.070307 
L 1156.56859 401.175806 
L 1169.013827 401.241747 
L 1181.459215 401.292205 
L 1193.904528 401.323166 
L 1206.349764 401.350116 
L 1218.795077 401.35929 
L 1231.240351 401.381079 
L 1243.685702 401.393693 
L 1256.131014 401.399427 
L 1268.576289 401.4 
L 1281.021715 401.4 
L 1281.021715 401.4 
L 1281.021715 401.4 
L 1268.576289 401.4 
L 1256.131014 401.4 
L 1243.685702 401.4 
L 1231.240351 401.4 
L 1218.795077 401.4 
L 1206.349764 401.4 
L 1193.904528 401.4 
L 1181.459215 401.4 
L 1169.013827 401.4 
L 1156.56859 401.4 
L 1144.123278 401.4 
L 1131.677889 401.4 
L 1119.232615 401.4 
L 1106.78734 401.4 
L 1094.342066 401.4 
L 1081.896772 401.4 
L 1069.451403 401.4 
L 1057.006128 401.4 
L 1044.560835 401.4 
L 1032.115541 401.4 
L 1019.670267 401.4 
L 1007.224878 401.4 
L 994.779604 401.4 
L 982.334329 401.4 
L 969.889055 401.4 
L 957.443761 401.4 
L 944.998392 401.4 
L 932.553108 401.4 
L 920.107824 401.4 
L 907.662549 401.4 
L 895.217256 401.4 
L 882.771886 401.4 
L 870.326602 401.4 
L 857.881318 401.4 
L 845.436039 401.4 
L 832.990755 401.4 
L 820.545381 401.4 
L 808.100099 401.4 
L 795.654816 401.4 
L 783.209533 401.4 
L 770.764252 401.4 
L 758.318875 401.4 
L 745.873591 401.4 
L 733.428312 401.4 
L 720.983033 401.4 
L 708.537749 401.4 
L 696.09237 401.4 
L 683.647095 401.4 
L 671.201802 401.4 
L 658.756527 401.4 
L 646.311243 401.4 
L 633.865883 401.4 
L 621.42059 401.4 
L 608.975296 401.4 
L 596.530022 401.4 
L 584.084747 401.4 
L 571.639359 401.4 
L 559.194084 401.4 
L 546.74881 401.4 
L 534.303516 401.4 
L 521.858223 401.4 
L 509.412872 401.4 
L 496.967579 401.4 
L 484.522285 401.4 
L 472.07701 401.4 
L 459.631736 401.4 
L 447.186348 401.4 
L 434.741073 401.4 
L 422.295798 401.4 
L 409.850524 401.4 
L 397.405211 401.4 
L 384.959861 401.4 
L 372.514586 401.4 
L 360.069274 401.4 
L 347.624037 401.4 
L 335.178725 401.4 
L 322.733412 401.4 
L 310.2881 401.4 
L 297.842787 401.4 
L 285.397475 401.4 
L 272.952162 401.4 
L 260.506888 401.4 
L 248.061613 401.4 
L 235.616301 401.4 
L 223.17095 401.4 
L 210.725676 401.4 
L 198.280363 401.4 
L 185.835127 401.4 
L 173.389776 401.4 
L 160.944426 401.4 
L 148.499113 401.4 
L 136.053877 401.4 
L 123.60864 401.4 
L 111.163328 401.4 
L 98.717939 401.4 
L 86.272703 401.4 
L 73.82739 401.4 
L 61.382078 401.4 
L 48.936765 401.4 
L 36.491453 401.4 
L 24.04614 401.4 
L 11.600828 401.4 
L -0.844409 401.4 
L -13.289797 401.4 
L -25.73511 401.4 
L -38.180346 401.4 
L -50.625583 401.4 
L -63.070895 401.4 
L -75.516284 401.4 
L -87.96152 401.4 
L -100.406833 401.4 
L -112.852145 401.4 
L -125.297458 401.4 
L -137.74277 401.4 
L -150.188083 401.4 
L -162.633395 401.4 
L -175.078632 401.4 
L -187.52402 401.4 
L -199.969333 401.4 
L -212.414569 401.4 
L -224.859882 401.4 
L -237.305118 401.4 
L -249.750431 401.4 
L -262.195819 401.4 
L -274.641056 401.4 
L -287.086368 401.4 
L -299.531681 401.4 
L -311.976993 401.4 
L -324.422306 401.4 
L -336.867618 401.4 
L -349.312855 401.4 
L -361.758167 401.4 
L -374.20348 401.4 
L -386.648792 401.4 
L -399.094105 401.4 
L -411.539341 401.4 
L -423.984654 401.4 
L -436.429966 401.4 
L -448.875279 401.4 
L -461.320591 401.4 
L -473.765904 401.4 
L -486.211216 401.4 
L -498.656377 401.4 
L -511.10169 401.4 
L -523.547154 401.4 
L -535.992315 401.4 
L -548.437627 401.4 
L -560.88294 401.4 
L -573.328252 401.4 
L -585.773565 401.4 
L -598.218877 401.4 
L -610.66419 401.4 
L -623.109502 401.4 
L -635.554815 401.4 
L -648.000127 401.4 
L -660.44544 401.4 
L -672.890752 401.4 
L -685.336065 401.4 
L -697.781377 401.4 
L -710.22669 401.4 
L -722.67185 401.4 
L -735.117315 401.4 
L -747.562627 401.4 
L -760.007788 401.4 
L -772.453252 401.4 
L -784.898565 401.4 
L -797.343725 401.4 
L -809.788886 401.4 
L -822.234198 401.4 
L -834.679511 401.4 
L -847.124823 401.4 
L -859.570136 401.4 
L -872.015448 401.4 
L -884.460761 401.4 
L -896.906073 401.4 
L -909.351386 401.4 
L -921.796698 401.4 
L -934.242011 401.4 
L -946.687323 401.4 
L -959.132636 401.4 
L -971.577948 401.4 
L -984.023261 401.4 
L -996.468573 401.4 
L -1008.913886 401.4 
L -1021.359198 401.4 
L -1033.804511 401.4 
L -1046.249823 401.4 
L -1058.695136 401.4 
L -1071.140296 401.4 
L -1083.585761 401.4 
L -1096.031073 401.4 
L -1108.476234 401.4 
L -1120.921546 401.4 
L -1133.366859 401.4 
L -1145.812171 401.4 
L -1158.257484 401.4 
L -1170.702796 401.4 
L -1183.147957 401.4 
L -1195.593269 401.4 
z
" clip-path="url(#pff97e544a5)" style="fill: #ffa500; fill-opacity: 0.3; stroke: #ffa500; stroke-opacity: 0.3"/>
   </g>
   <g id="PolyCollection_3">
    <path d="M -1195.593269 401.4 
L -1195.593269 401.4 
L -1183.147957 401.4 
L -1170.702796 401.4 
L -1158.257484 401.4 
L -1145.812171 401.4 
L -1133.366859 401.4 
L -1120.921546 401.4 
L -1108.476234 401.4 
L -1096.031073 401.4 
L -1083.585761 401.4 
L -1071.140296 401.4 
L -1058.695136 401.4 
L -1046.249823 401.4 
L -1033.804511 401.4 
L -1021.359198 401.4 
L -1008.913886 401.4 
L -996.468573 401.4 
L -984.023261 401.4 
L -971.577948 401.4 
L -959.132636 401.4 
L -946.687323 401.4 
L -934.242011 401.4 
L -921.796698 401.4 
L -909.351386 401.4 
L -896.906073 401.4 
L -884.460761 401.4 
L -872.015448 401.4 
L -859.570136 401.4 
L -847.124823 401.4 
L -834.679511 401.4 
L -822.234198 401.4 
L -809.788886 401.4 
L -797.343725 401.4 
L -784.898565 401.4 
L -772.453252 401.4 
L -760.007788 401.4 
L -747.562627 401.4 
L -735.117315 401.4 
L -722.67185 401.4 
L -710.22669 401.4 
L -697.781377 401.4 
L -685.336065 401.4 
L -672.890752 401.4 
L -660.44544 401.4 
L -648.000127 401.4 
L -635.554815 401.4 
L -623.109502 401.4 
L -610.66419 401.4 
L -598.218877 401.4 
L -585.773565 401.4 
L -573.328252 401.4 
L -560.88294 401.4 
L -548.437627 401.4 
L -535.992315 401.4 
L -523.547154 401.4 
L -511.10169 401.4 
L -498.656377 401.4 
L -486.211216 401.4 
L -473.765904 401.4 
L -461.320591 401.4 
L -448.875279 401.4 
L -436.429966 401.4 
L -423.984654 401.4 
L -411.539341 401.4 
L -399.094105 401.4 
L -386.648792 401.4 
L -374.20348 401.4 
L -361.758167 401.4 
L -349.312855 401.4 
L -336.867618 401.4 
L -324.422306 401.4 
L -311.976993 401.4 
L -299.531681 401.4 
L -287.086368 401.4 
L -274.641056 401.4 
L -262.195819 401.4 
L -249.750431 401.4 
L -237.305118 401.4 
L -224.859882 401.4 
L -212.414569 401.4 
L -199.969333 401.4 
L -187.52402 401.4 
L -175.078632 401.4 
L -162.633395 401.4 
L -150.188083 401.4 
L -137.74277 401.4 
L -125.297458 401.4 
L -112.852145 401.4 
L -100.406833 401.4 
L -87.96152 401.4 
L -75.516284 401.39656 
L -63.070895 401.386812 
L -50.625583 401.348969 
L -38.180346 401.321447 
L -25.73511 401.279589 
L -13.289797 401.277297 
L -0.844409 401.12019 
L 11.600828 400.981429 
L 24.04614 400.724556 
L 36.491453 400.236035 
L 48.936765 399.371949 
L 61.382078 398.008447 
L 73.82739 395.846797 
L 86.272703 392.188565 
L 98.717939 386.553425 
L 111.163328 378.154096 
L 123.60864 364.710794 
L 136.053877 344.949413 
L 148.499113 314.111833 
L 160.944426 262.759717 
L 173.389776 246.719158 
L 185.835127 248.277345 
L 198.280363 251.778998 
L 210.725676 255.228474 
L 223.17095 258.415203 
L 235.616301 260.175916 
L 248.061613 262.970872 
L 260.506888 266.668461 
L 272.952162 269.877851 
L 285.397475 273.488447 
L 297.842787 276.83356 
L 310.2881 279.484319 
L 322.733412 283.012348 
L 335.178725 285.641225 
L 347.624037 290.047658 
L 360.069274 292.929679 
L 372.514586 296.448378 
L 384.959861 297.841569 
L 397.405211 300.851498 
L 409.850524 303.412164 
L 422.295798 308.384849 
L 434.741073 312.239759 
L 447.186348 315.784296 
L 459.631736 318.393168 
L 472.07701 320.436926 
L 484.522285 322.781232 
L 496.967579 325.861988 
L 509.412872 328.702972 
L 521.858223 331.88752 
L 534.303516 334.930678 
L 546.74881 339.000289 
L 559.194084 342.209826 
L 571.639359 344.530531 
L 584.084747 346.496075 
L 596.530022 349.234391 
L 608.975296 352.188011 
L 621.42059 354.863332 
L 633.865883 357.599563 
L 646.311243 360.806473 
L 658.756527 362.27433 
L 671.201802 364.07935 
L 683.647095 366.863724 
L 696.09237 369.341247 
L 708.537749 371.922002 
L 720.983033 374.384858 
L 733.428312 376.427616 
L 745.873591 378.587787 
L 758.318875 380.951586 
L 770.764252 383.133866 
L 783.209533 384.872107 
L 795.654816 386.443983 
L 808.100099 387.624368 
L 820.545381 389.469703 
L 832.990755 391.031588 
L 845.436039 392.110551 
L 857.881318 393.530374 
L 870.326602 394.16557 
L 882.771886 394.674265 
L 895.217256 395.497639 
L 907.662549 396.433891 
L 920.107824 397.238987 
L 932.553108 397.952797 
L 944.998392 398.562346 
L 957.443761 398.91555 
L 969.889055 399.252089 
L 982.334329 399.535374 
L 994.779604 399.765271 
L 1007.224878 400.2326 
L 1019.670267 400.577202 
L 1032.115541 400.750925 
L 1044.560835 400.84153 
L 1057.006128 401.023284 
L 1069.451403 401.098403 
L 1081.896772 401.200464 
L 1094.342066 401.276148 
L 1106.78734 401.331194 
L 1119.232615 401.355849 
L 1131.677889 401.369611 
L 1144.123278 401.360437 
L 1156.56859 401.371331 
L 1169.013827 401.359863 
L 1181.459215 401.389106 
L 1193.904528 401.397706 
L 1206.349764 401.4 
L 1218.795077 401.4 
L 1231.240351 401.4 
L 1243.685702 401.4 
L 1256.131014 401.4 
L 1268.576289 401.4 
L 1281.021715 401.4 
L 1281.021715 401.4 
L 1281.021715 401.4 
L 1268.576289 401.4 
L 1256.131014 401.4 
L 1243.685702 401.4 
L 1231.240351 401.4 
L 1218.795077 401.4 
L 1206.349764 401.4 
L 1193.904528 401.4 
L 1181.459215 401.4 
L 1169.013827 401.4 
L 1156.56859 401.4 
L 1144.123278 401.4 
L 1131.677889 401.4 
L 1119.232615 401.4 
L 1106.78734 401.4 
L 1094.342066 401.4 
L 1081.896772 401.4 
L 1069.451403 401.4 
L 1057.006128 401.4 
L 1044.560835 401.4 
L 1032.115541 401.4 
L 1019.670267 401.4 
L 1007.224878 401.4 
L 994.779604 401.4 
L 982.334329 401.4 
L 969.889055 401.4 
L 957.443761 401.4 
L 944.998392 401.4 
L 932.553108 401.4 
L 920.107824 401.4 
L 907.662549 401.4 
L 895.217256 401.4 
L 882.771886 401.4 
L 870.326602 401.4 
L 857.881318 401.4 
L 845.436039 401.4 
L 832.990755 401.4 
L 820.545381 401.4 
L 808.100099 401.4 
L 795.654816 401.4 
L 783.209533 401.4 
L 770.764252 401.4 
L 758.318875 401.4 
L 745.873591 401.4 
L 733.428312 401.4 
L 720.983033 401.4 
L 708.537749 401.4 
L 696.09237 401.4 
L 683.647095 401.4 
L 671.201802 401.4 
L 658.756527 401.4 
L 646.311243 401.4 
L 633.865883 401.4 
L 621.42059 401.4 
L 608.975296 401.4 
L 596.530022 401.4 
L 584.084747 401.4 
L 571.639359 401.4 
L 559.194084 401.4 
L 546.74881 401.4 
L 534.303516 401.4 
L 521.858223 401.4 
L 509.412872 401.4 
L 496.967579 401.4 
L 484.522285 401.4 
L 472.07701 401.4 
L 459.631736 401.4 
L 447.186348 401.4 
L 434.741073 401.4 
L 422.295798 401.4 
L 409.850524 401.4 
L 397.405211 401.4 
L 384.959861 401.4 
L 372.514586 401.4 
L 360.069274 401.4 
L 347.624037 401.4 
L 335.178725 401.4 
L 322.733412 401.4 
L 310.2881 401.4 
L 297.842787 401.4 
L 285.397475 401.4 
L 272.952162 401.4 
L 260.506888 401.4 
L 248.061613 401.4 
L 235.616301 401.4 
L 223.17095 401.4 
L 210.725676 401.4 
L 198.280363 401.4 
L 185.835127 401.4 
L 173.389776 401.4 
L 160.944426 401.4 
L 148.499113 401.4 
L 136.053877 401.4 
L 123.60864 401.4 
L 111.163328 401.4 
L 98.717939 401.4 
L 86.272703 401.4 
L 73.82739 401.4 
L 61.382078 401.4 
L 48.936765 401.4 
L 36.491453 401.4 
L 24.04614 401.4 
L 11.600828 401.4 
L -0.844409 401.4 
L -13.289797 401.4 
L -25.73511 401.4 
L -38.180346 401.4 
L -50.625583 401.4 
L -63.070895 401.4 
L -75.516284 401.4 
L -87.96152 401.4 
L -100.406833 401.4 
L -112.852145 401.4 
L -125.297458 401.4 
L -137.74277 401.4 
L -150.188083 401.4 
L -162.633395 401.4 
L -175.078632 401.4 
L -187.52402 401.4 
L -199.969333 401.4 
L -212.414569 401.4 
L -224.859882 401.4 
L -237.305118 401.4 
L -249.750431 401.4 
L -262.195819 401.4 
L -274.641056 401.4 
L -287.086368 401.4 
L -299.531681 401.4 
L -311.976993 401.4 
L -324.422306 401.4 
L -336.867618 401.4 
L -349.312855 401.4 
L -361.758167 401.4 
L -374.20348 401.4 
L -386.648792 401.4 
L -399.094105 401.4 
L -411.539341 401.4 
L -423.984654 401.4 
L -436.429966 401.4 
L -448.875279 401.4 
L -461.320591 401.4 
L -473.765904 401.4 
L -486.211216 401.4 
L -498.656377 401.4 
L -511.10169 401.4 
L -523.547154 401.4 
L -535.992315 401.4 
L -548.437627 401.4 
L -560.88294 401.4 
L -573.328252 401.4 
L -585.773565 401.4 
L -598.218877 401.4 
L -610.66419 401.4 
L -623.109502 401.4 
L -635.554815 401.4 
L -648.000127 401.4 
L -660.44544 401.4 
L -672.890752 401.4 
L -685.336065 401.4 
L -697.781377 401.4 
L -710.22669 401.4 
L -722.67185 401.4 
L -735.117315 401.4 
L -747.562627 401.4 
L -760.007788 401.4 
L -772.453252 401.4 
L -784.898565 401.4 
L -797.343725 401.4 
L -809.788886 401.4 
L -822.234198 401.4 
L -834.679511 401.4 
L -847.124823 401.4 
L -859.570136 401.4 
L -872.015448 401.4 
L -884.460761 401.4 
L -896.906073 401.4 
L -909.351386 401.4 
L -921.796698 401.4 
L -934.242011 401.4 
L -946.687323 401.4 
L -959.132636 401.4 
L -971.577948 401.4 
L -984.023261 401.4 
L -996.468573 401.4 
L -1008.913886 401.4 
L -1021.359198 401.4 
L -1033.804511 401.4 
L -1046.249823 401.4 
L -1058.695136 401.4 
L -1071.140296 401.4 
L -1083.585761 401.4 
L -1096.031073 401.4 
L -1108.476234 401.4 
L -1120.921546 401.4 
L -1133.366859 401.4 
L -1145.812171 401.4 
L -1158.257484 401.4 
L -1170.702796 401.4 
L -1183.147957 401.4 
L -1195.593269 401.4 
z
" clip-path="url(#pff97e544a5)" style="fill: #ff0000; fill-opacity: 0.3; stroke: #ff0000; stroke-opacity: 0.3"/>
   </g>
   <g id="line2d_1">
    <path d="M 376.65871 -1 
L 384.321622 13.317123 
L 393.889189 30.822343 
L 403.456757 47.923597 
L 413.024324 64.620884 
L 422.591892 80.914204 
L 432.159459 96.803558 
L 441.727027 112.288945 
L 451.294595 127.370365 
L 460.862162 142.047819 
L 470.42973 156.321306 
L 479.997297 170.190827 
L 489.564865 183.656381 
L 499.132432 196.717968 
L 508.7 209.375589 
L 518.267568 221.629243 
L 527.835135 233.478931 
L 537.402703 244.924652 
L 546.97027 255.966406 
L 556.537838 266.604194 
L 566.105405 276.838015 
L 575.672973 286.667869 
L 585.240541 296.093757 
L 594.808108 305.115678 
L 604.375676 313.733633 
L 613.943243 321.947621 
L 623.510811 329.757642 
L 633.078378 337.163697 
L 642.645946 344.165785 
L 652.213514 350.763906 
L 658.591892 354.938228 
L 664.97027 358.933009 
L 671.348649 362.748249 
L 677.727027 366.383949 
L 684.105405 369.840108 
L 690.483784 373.116726 
L 696.862162 376.213803 
L 703.240541 379.13134 
L 709.618919 381.869336 
L 715.997297 384.427791 
L 722.375676 386.806706 
L 728.754054 389.00608 
L 735.132432 391.025913 
L 741.510811 392.866205 
L 747.889189 394.526957 
L 754.267568 396.008168 
L 760.645946 397.309838 
L 767.024324 398.431967 
L 773.402703 399.374556 
L 779.781081 400.137604 
L 786.159459 400.721112 
L 792.537838 401.125078 
L 798.916216 401.349504 
L 805.294595 401.394389 
L 811.672973 401.259734 
L 818.051351 400.945538 
L 824.42973 400.451801 
L 830.808108 399.778523 
L 837.186486 398.925704 
L 843.564865 397.893345 
L 849.943243 396.681445 
L 856.321622 395.290005 
L 862.7 393.719024 
L 869.078378 391.968502 
L 875.456757 390.038439 
L 881.835135 387.928835 
L 888.213514 385.639691 
L 894.591892 383.171006 
L 900.97027 380.522781 
L 907.348649 377.695014 
L 913.727027 374.687707 
L 920.105405 371.500859 
L 926.483784 368.134471 
L 932.862162 364.588542 
L 939.240541 360.863072 
L 945.618919 356.958061 
L 951.997297 352.87351 
L 958.375676 348.609418 
L 967.943243 341.876641 
L 977.510811 334.739897 
L 987.078378 327.199187 
L 996.645946 319.25451 
L 1006.213514 310.905866 
L 1015.781081 302.153256 
L 1025.348649 292.99668 
L 1034.916216 283.436136 
L 1044.483784 273.471626 
L 1054.051351 263.10315 
L 1063.618919 252.330707 
L 1073.186486 241.154297 
L 1082.754054 229.57392 
L 1092.321622 217.589577 
L 1101.889189 205.201267 
L 1111.456757 192.408991 
L 1121.024324 179.212748 
L 1130.591892 165.612539 
L 1140.159459 151.608363 
L 1149.727027 137.20022 
L 1159.294595 122.38811 
L 1168.862162 107.172034 
L 1178.42973 91.551992 
L 1187.997297 75.527982 
L 1197.564865 59.100007 
L 1207.132432 42.268064 
L 1216.7 25.032155 
L 1226.267568 7.392279 
L 1230.74129 -1 
L 1230.74129 -1 
" clip-path="url(#pff97e544a5)" style="fill: none; stroke: #000000; stroke-width: 7; stroke-linecap: square"/>
   </g>
   <g id="matplotlib.axis_1"/>
   <g id="matplotlib.axis_2"/>
   <g id="line2d_2">
    <path d="M 803.7 401.4 
L 803.7 7.2 
" clip-path="url(#pff97e544a5)" style="fill: none; stroke-dasharray: 14.8,6.4; stroke-dashoffset: 0; stroke: #0000ff; stroke-width: 4"/>
   </g>
   <g id="line2d_3">
    <path d="M -1 401.4 
L 335.178725 401.321444 
L 397.405211 400.992312 
L 447.186348 399.88795 
L 459.631736 399.499189 
L 472.07701 398.793859 
L 484.522285 397.912597 
L 496.967579 396.800705 
L 509.412872 395.503736 
L 521.858223 393.65625 
L 534.303516 392.207149 
L 546.74881 390.076528 
L 559.194084 387.570606 
L 571.639359 384.444641 
L 584.084747 380.787501 
L 596.530022 376.207405 
L 608.975296 370.718028 
L 621.42059 364.672771 
L 633.865883 356.556234 
L 646.311243 348.082548 
L 658.756527 337.222595 
L 671.201802 325.531436 
L 683.647095 312.703727 
L 696.09237 297.538699 
L 708.537749 280.60733 
L 720.983033 261.350653 
L 733.428312 240.388583 
L 745.873591 218.022288 
L 758.318875 191.830407 
L 770.764252 163.628412 
L 783.209533 134.494142 
L 795.654816 104.294968 
L 808.100099 90.121737 
L 820.545381 126.999234 
L 832.990755 157.883046 
L 845.436039 187.175401 
L 857.881318 212.366818 
L 870.326602 235.346684 
L 882.771886 257.376794 
L 895.217256 276.812168 
L 907.662549 293.496961 
L 920.107824 308.268128 
L 932.553108 321.265968 
L 944.998392 332.373234 
L 957.443761 342.637102 
L 969.889055 352.748189 
L 982.334329 360.243302 
L 994.779604 367.932564 
L 1007.224878 374.02486 
L 1019.670267 378.189483 
L 1032.115541 382.0676 
L 1044.560835 385.586853 
L 1057.006128 388.961667 
L 1069.451403 391.438945 
L 1081.896772 393.773259 
L 1094.342066 395.352283 
L 1106.78734 396.581737 
L 1131.677889 398.179793 
L 1169.013827 399.871884 
L 1218.795077 401.052513 
L 1268.576289 401.339219 
L 1281.021715 401.350687 
L 1281.021715 401.350687 
" clip-path="url(#pff97e544a5)" style="fill: none; stroke: #0000ff; stroke-width: 7; stroke-linecap: square"/>
   </g>
   <g id="line2d_4">
    <path d="M 485.1 401.4 
L 485.1 7.2 
" clip-path="url(#pff97e544a5)" style="fill: none; stroke-dasharray: 14.8,6.4; stroke-dashoffset: 0; stroke: #ffa500; stroke-width: 4"/>
   </g>
   <g id="line2d_5">
    <path d="M -1 401.4 
L 210.725676 401.303098 
L 235.616301 401.108723 
L 260.506888 400.598986 
L 272.952162 400.212523 
L 285.397475 399.679849 
L 297.842787 398.939634 
L 310.2881 398.022771 
L 322.733412 396.248722 
L 335.178725 394.033809 
L 347.624037 391.303227 
L 360.069274 387.498974 
L 372.514586 382.286715 
L 384.959861 375.8193 
L 397.405211 366.482874 
L 409.850524 354.291092 
L 422.295798 338.482624 
L 434.741073 318.010344 
L 447.186348 293.030924 
L 459.631736 259.480839 
L 472.07701 216.016515 
L 484.522285 165.94506 
L 496.967579 170.925921 
L 509.412872 178.727043 
L 521.858223 187.088632 
L 534.303516 195.658399 
L 546.74881 204.875428 
L 559.194084 213.714931 
L 571.639359 222.767153 
L 584.084747 230.929205 
L 596.530022 240.719169 
L 608.975296 250.219975 
L 621.42059 258.279721 
L 633.865883 266.815289 
L 646.311243 275.007731 
L 658.756527 283.753498 
L 671.201802 291.479852 
L 683.647095 297.905275 
L 696.09237 305.251263 
L 708.537749 311.920163 
L 720.983033 318.871794 
L 733.428312 326.559681 
L 758.318875 338.433815 
L 770.764252 344.640642 
L 783.209533 350.670692 
L 808.100099 360.082851 
L 820.545381 364.395838 
L 832.990755 368.877371 
L 845.436039 373.080397 
L 857.881318 376.374301 
L 870.326602 379.478822 
L 882.771886 382.9802 
L 895.217256 385.449176 
L 907.662549 387.624939 
L 920.107824 388.915241 
L 932.553108 390.449454 
L 957.443761 393.212725 
L 982.334329 395.912769 
L 1032.115541 398.590972 
L 1057.006128 399.556558 
L 1081.896772 400.301407 
L 1144.123278 401.070307 
L 1181.459215 401.292205 
L 1268.576289 401.4 
L 1281.021715 401.4 
L 1281.021715 401.4 
" clip-path="url(#pff97e544a5)" style="fill: none; stroke: #ffa500; stroke-width: 7; stroke-linecap: square"/>
   </g>
   <g id="line2d_6">
    <path d="M 166.5 401.4 
L 166.5 7.2 
" clip-path="url(#pff97e544a5)" style="fill: none; stroke-dasharray: 14.8,6.4; stroke-dashoffset: 0; stroke: #ff0000; stroke-width: 4"/>
   </g>
   <g id="line2d_7">
    <path d="M -1 401.122154 
L 24.04614 400.724556 
L 36.491453 400.236035 
L 48.936765 399.371949 
L 61.382078 398.008447 
L 73.82739 395.846797 
L 86.272703 392.188565 
L 98.717939 386.553425 
L 111.163328 378.154096 
L 123.60864 364.710794 
L 136.053877 344.949413 
L 148.499113 314.111833 
L 160.944426 262.759717 
L 173.389776 246.719158 
L 185.835127 248.277345 
L 210.725676 255.228474 
L 223.17095 258.415203 
L 235.616301 260.175916 
L 248.061613 262.970872 
L 260.506888 266.668461 
L 272.952162 269.877851 
L 285.397475 273.488447 
L 297.842787 276.83356 
L 310.2881 279.484319 
L 322.733412 283.012348 
L 335.178725 285.641225 
L 347.624037 290.047658 
L 360.069274 292.929679 
L 372.514586 296.448378 
L 384.959861 297.841569 
L 397.405211 300.851498 
L 409.850524 303.412164 
L 422.295798 308.384849 
L 434.741073 312.239759 
L 447.186348 315.784296 
L 459.631736 318.393168 
L 472.07701 320.436926 
L 484.522285 322.781232 
L 496.967579 325.861988 
L 509.412872 328.702972 
L 521.858223 331.88752 
L 534.303516 334.930678 
L 546.74881 339.000289 
L 559.194084 342.209826 
L 571.639359 344.530531 
L 584.084747 346.496075 
L 596.530022 349.234391 
L 608.975296 352.188011 
L 633.865883 357.599563 
L 646.311243 360.806473 
L 658.756527 362.27433 
L 671.201802 364.07935 
L 683.647095 366.863724 
L 720.983033 374.384858 
L 733.428312 376.427616 
L 745.873591 378.587787 
L 758.318875 380.951586 
L 770.764252 383.133866 
L 783.209533 384.872107 
L 795.654816 386.443983 
L 808.100099 387.624368 
L 820.545381 389.469703 
L 832.990755 391.031588 
L 845.436039 392.110551 
L 857.881318 393.530374 
L 870.326602 394.16557 
L 882.771886 394.674265 
L 895.217256 395.497639 
L 907.662549 396.433891 
L 932.553108 397.952797 
L 944.998392 398.562346 
L 982.334329 399.535374 
L 994.779604 399.765271 
L 1007.224878 400.2326 
L 1019.670267 400.577202 
L 1057.006128 401.023284 
L 1131.677889 401.369611 
L 1231.240351 401.4 
L 1281.021715 401.4 
L 1281.021715 401.4 
" clip-path="url(#pff97e544a5)" style="fill: none; stroke: #ff0000; stroke-width: 7; stroke-linecap: square"/>
   </g>
   <g id="patch_3">
    <path d="M 7.2 401.4 
L 7.2 7.2 
" style="fill: none; stroke: #000000; stroke-width: 3; stroke-linejoin: miter; stroke-linecap: square"/>
   </g>
   <g id="patch_4">
    <path d="M 1281.6 401.4 
L 1281.6 7.2 
" style="fill: none; stroke: #000000; stroke-width: 3; stroke-linejoin: miter; stroke-linecap: square"/>
   </g>
   <g id="patch_5">
    <path d="M 7.2 401.4 
L 1281.6 401.4 
" style="fill: none; stroke: #000000; stroke-width: 3; stroke-linejoin: miter; stroke-linecap: square"/>
   </g>
   <g id="patch_6">
    <path d="M 7.2 7.2 
L 1281.6 7.2 
" style="fill: none; stroke: #000000; stroke-width: 3; stroke-linejoin: miter; stroke-linecap: square"/>
   </g>
   <g id="text_1">
    <!-- X$_r^{(1)}$ -->
    <g style="fill: #0000ff" transform="translate(750.9 474.190909) scale(0.6 -0.6)">
     <defs>
      <path id="TimesNewRomanPSMT-58" d="M 2613 2347 
L 3522 991 
Q 3900 428 4083 279 
Q 4266 131 4547 116 
L 4547 0 
L 2728 0 
L 2728 116 
Q 2909 119 2997 153 
Q 3063 181 3105 239 
Q 3147 297 3147 356 
Q 3147 428 3119 500 
Q 3097 553 2947 775 
L 2228 1863 
L 1341 725 
Q 1200 544 1172 483 
Q 1144 422 1144 356 
Q 1144 256 1228 190 
Q 1313 125 1550 116 
L 1550 0 
L 47 0 
L 47 116 
Q 206 131 322 181 
Q 516 263 691 400 
Q 866 538 1091 822 
L 2091 2084 
L 1256 3306 
Q 916 3803 678 3958 
Q 441 4113 131 4122 
L 131 4238 
L 2091 4238 
L 2091 4122 
Q 1841 4113 1748 4041 
Q 1656 3969 1656 3881 
Q 1656 3766 1806 3544 
L 2456 2572 
L 3209 3525 
Q 3341 3694 3370 3756 
Q 3400 3819 3400 3884 
Q 3400 3950 3363 4000 
Q 3316 4066 3244 4092 
Q 3172 4119 2947 4122 
L 2947 4238 
L 4450 4238 
L 4450 4122 
Q 4272 4113 4159 4066 
Q 3991 3994 3850 3872 
Q 3709 3750 3453 3422 
L 2613 2347 
z
" transform="scale(0.015625)"/>
      <path id="DejaVuSans-28" d="M 1984 4856 
Q 1566 4138 1362 3434 
Q 1159 2731 1159 2009 
Q 1159 1288 1364 580 
Q 1569 -128 1984 -844 
L 1484 -844 
Q 1016 -109 783 600 
Q 550 1309 550 2009 
Q 550 2706 781 3412 
Q 1013 4119 1484 4856 
L 1984 4856 
z
" transform="scale(0.015625)"/>
      <path id="DejaVuSans-31" d="M 794 531 
L 1825 531 
L 1825 4091 
L 703 3866 
L 703 4441 
L 1819 4666 
L 2450 4666 
L 2450 531 
L 3481 531 
L 3481 0 
L 794 0 
L 794 531 
z
" transform="scale(0.015625)"/>
      <path id="DejaVuSans-29" d="M 513 4856 
L 1013 4856 
Q 1481 4119 1714 3412 
Q 1947 2706 1947 2009 
Q 1947 1309 1714 600 
Q 1481 -109 1013 -844 
L 513 -844 
Q 928 -128 1133 580 
Q 1338 1288 1338 2009 
Q 1338 2731 1133 3434 
Q 928 4138 513 4856 
z
" transform="scale(0.015625)"/>
      <path id="DejaVuSans-Oblique-72" d="M 2853 2969 
Q 2766 3016 2653 3041 
Q 2541 3066 2413 3066 
Q 1953 3066 1609 2717 
Q 1266 2369 1153 1784 
L 800 0 
L 225 0 
L 909 3500 
L 1484 3500 
L 1375 2956 
Q 1603 3259 1920 3421 
Q 2238 3584 2597 3584 
Q 2691 3584 2781 3573 
Q 2872 3563 2963 3538 
L 2853 2969 
z
" transform="scale(0.015625)"/>
     </defs>
     <use xlink:href="#TimesNewRomanPSMT-58" transform="translate(0 0.60625)"/>
     <use xlink:href="#DejaVuSans-28" transform="translate(73.173828 38.8875) scale(0.7)"/>
     <use xlink:href="#DejaVuSans-31" transform="translate(100.483398 38.8875) scale(0.7)"/>
     <use xlink:href="#DejaVuSans-29" transform="translate(145.019531 38.8875) scale(0.7)"/>
     <use xlink:href="#DejaVuSans-Oblique-72" transform="translate(73.173828 -26.7375) scale(0.7)"/>
    </g>
   </g>
   <g id="text_2">
    <!-- X$_r^{(2)}$ -->
    <g style="fill: #ffa500" transform="translate(432.3 474.190909) scale(0.6 -0.6)">
     <defs>
      <path id="DejaVuSans-32" d="M 1228 531 
L 3431 531 
L 3431 0 
L 469 0 
L 469 531 
Q 828 903 1448 1529 
Q 2069 2156 2228 2338 
Q 2531 2678 2651 2914 
Q 2772 3150 2772 3378 
Q 2772 3750 2511 3984 
Q 2250 4219 1831 4219 
Q 1534 4219 1204 4116 
Q 875 4013 500 3803 
L 500 4441 
Q 881 4594 1212 4672 
Q 1544 4750 1819 4750 
Q 2544 4750 2975 4387 
Q 3406 4025 3406 3419 
Q 3406 3131 3298 2873 
Q 3191 2616 2906 2266 
Q 2828 2175 2409 1742 
Q 1991 1309 1228 531 
z
" transform="scale(0.015625)"/>
     </defs>
     <use xlink:href="#TimesNewRomanPSMT-58" transform="translate(0 0.60625)"/>
     <use xlink:href="#DejaVuSans-28" transform="translate(73.173828 38.8875) scale(0.7)"/>
     <use xlink:href="#DejaVuSans-32" transform="translate(100.483398 38.8875) scale(0.7)"/>
     <use xlink:href="#DejaVuSans-29" transform="translate(145.019531 38.8875) scale(0.7)"/>
     <use xlink:href="#DejaVuSans-Oblique-72" transform="translate(73.173828 -26.7375) scale(0.7)"/>
    </g>
   </g>
   <g id="text_3">
    <!-- X$_r^{(3)}$ -->
    <g style="fill: #ff0000" transform="translate(113.7 474.190909) scale(0.6 -0.6)">
     <defs>
      <path id="DejaVuSans-33" d="M 2597 2516 
Q 3050 2419 3304 2112 
Q 3559 1806 3559 1356 
Q 3559 666 3084 287 
Q 2609 -91 1734 -91 
Q 1441 -91 1130 -33 
Q 819 25 488 141 
L 488 750 
Q 750 597 1062 519 
Q 1375 441 1716 441 
Q 2309 441 2620 675 
Q 2931 909 2931 1356 
Q 2931 1769 2642 2001 
Q 2353 2234 1838 2234 
L 1294 2234 
L 1294 2753 
L 1863 2753 
Q 2328 2753 2575 2939 
Q 2822 3125 2822 3475 
Q 2822 3834 2567 4026 
Q 2313 4219 1838 4219 
Q 1578 4219 1281 4162 
Q 984 4106 628 3988 
L 628 4550 
Q 988 4650 1302 4700 
Q 1616 4750 1894 4750 
Q 2613 4750 3031 4423 
Q 3450 4097 3450 3541 
Q 3450 3153 3228 2886 
Q 3006 2619 2597 2516 
z
" transform="scale(0.015625)"/>
     </defs>
     <use xlink:href="#TimesNewRomanPSMT-58" transform="translate(0 0.60625)"/>
     <use xlink:href="#DejaVuSans-28" transform="translate(73.173828 38.8875) scale(0.7)"/>
     <use xlink:href="#DejaVuSans-33" transform="translate(100.483398 38.8875) scale(0.7)"/>
     <use xlink:href="#DejaVuSans-29" transform="translate(145.019531 38.8875) scale(0.7)"/>
     <use xlink:href="#DejaVuSans-Oblique-72" transform="translate(73.173828 -26.7375) scale(0.7)"/>
    </g>
   </g>
   <g id="text_4">
    <!-- U(x) -->
    <g transform="translate(1021.110938 127.682457) scale(0.65 -0.65)">
     <defs>
      <path id="TimesNewRomanPSMT-55" d="M 3053 4122 
L 3053 4238 
L 4553 4238 
L 4553 4122 
L 4394 4122 
Q 4144 4122 4009 3913 
Q 3944 3816 3944 3463 
L 3944 1744 
Q 3944 1106 3817 754 
Q 3691 403 3320 151 
Q 2950 -100 2313 -100 
Q 1619 -100 1259 140 
Q 900 381 750 788 
Q 650 1066 650 1831 
L 650 3488 
Q 650 3878 542 4000 
Q 434 4122 194 4122 
L 34 4122 
L 34 4238 
L 1866 4238 
L 1866 4122 
L 1703 4122 
Q 1441 4122 1328 3956 
Q 1250 3844 1250 3488 
L 1250 1641 
Q 1250 1394 1295 1075 
Q 1341 756 1459 578 
Q 1578 400 1801 284 
Q 2025 169 2350 169 
Q 2766 169 3094 350 
Q 3422 531 3542 814 
Q 3663 1097 3663 1772 
L 3663 3488 
Q 3663 3884 3575 3984 
Q 3453 4122 3213 4122 
L 3053 4122 
z
" transform="scale(0.015625)"/>
      <path id="TimesNewRomanPSMT-28" d="M 1988 -1253 
L 1988 -1369 
Q 1516 -1131 1200 -813 
Q 750 -359 506 256 
Q 263 872 263 1534 
Q 263 2503 741 3301 
Q 1219 4100 1988 4444 
L 1988 4313 
Q 1603 4100 1356 3731 
Q 1109 3363 987 2797 
Q 866 2231 866 1616 
Q 866 947 969 400 
Q 1050 -31 1165 -292 
Q 1281 -553 1476 -793 
Q 1672 -1034 1988 -1253 
z
" transform="scale(0.015625)"/>
      <path id="TimesNewRomanPSMT-78" d="M 84 2863 
L 1431 2863 
L 1431 2747 
Q 1303 2747 1251 2703 
Q 1200 2659 1200 2588 
Q 1200 2513 1309 2356 
Q 1344 2306 1413 2200 
L 1616 1875 
L 1850 2200 
Q 2075 2509 2075 2591 
Q 2075 2656 2022 2701 
Q 1969 2747 1850 2747 
L 1850 2863 
L 2819 2863 
L 2819 2747 
Q 2666 2738 2553 2663 
Q 2400 2556 2134 2200 
L 1744 1678 
L 2456 653 
Q 2719 275 2831 198 
Q 2944 122 3122 113 
L 3122 0 
L 1772 0 
L 1772 113 
Q 1913 113 1991 175 
Q 2050 219 2050 291 
Q 2050 363 1850 653 
L 1431 1266 
L 972 653 
Q 759 369 759 316 
Q 759 241 829 180 
Q 900 119 1041 113 
L 1041 0 
L 106 0 
L 106 113 
Q 219 128 303 191 
Q 422 281 703 653 
L 1303 1450 
L 759 2238 
Q 528 2575 401 2661 
Q 275 2747 84 2747 
L 84 2863 
z
" transform="scale(0.015625)"/>
      <path id="TimesNewRomanPSMT-29" d="M 144 4313 
L 144 4444 
Q 619 4209 934 3891 
Q 1381 3434 1625 2820 
Q 1869 2206 1869 1541 
Q 1869 572 1392 -226 
Q 916 -1025 144 -1369 
L 144 -1253 
Q 528 -1038 776 -670 
Q 1025 -303 1145 264 
Q 1266 831 1266 1447 
Q 1266 2113 1163 2663 
Q 1084 3094 967 3353 
Q 850 3613 656 3853 
Q 463 4094 144 4313 
z
" transform="scale(0.015625)"/>
     </defs>
     <use xlink:href="#TimesNewRomanPSMT-55"/>
     <use xlink:href="#TimesNewRomanPSMT-28" x="72.216797"/>
     <use xlink:href="#TimesNewRomanPSMT-78" x="105.517578"/>
     <use xlink:href="#TimesNewRomanPSMT-29" x="155.517578"/>
    </g>
   </g>
  </g>
 </g>
 <defs>
  <clipPath id="pff97e544a5">
   <rect x="7.2" y="7.2" width="1274.4" height="394.2"/>
  </clipPath>
 </defs>
</svg>
